<svg width="37" height="36" viewBox="0 0 37 36" fill="none" xmlns="http://www.w3.org/2000/svg">
<path d="M33.6155 8.81421C33.2288 8.62634 32.7668 8.67578 32.4284 8.94275L27.3181 12.9738V7.89795C27.3181 7.27612 26.8144 6.77295 26.1931 6.77295H9.03357C5.99805 6.77295 3.52832 9.24268 3.52832 12.2782V18.3888C3.52832 19.0106 4.03204 19.5138 4.65332 19.5138C5.2746 19.5138 5.77832 19.0106 5.77832 18.3888V12.2782C5.77832 10.483 7.2384 9.02295 9.03357 9.02295H25.0681V15.1676C25.0679 15.1691 25.0683 15.1706 25.0681 15.1721V20.0451C25.0685 20.0481 25.0677 20.0511 25.0681 20.0541V26.199H13.5891C12.9678 26.199 12.4641 26.7021 12.4641 27.324C12.4641 27.9458 12.9678 28.449 13.5891 28.449H26.1931C26.8144 28.449 27.3181 27.9458 27.3181 27.324V22.2477L32.4279 26.2792C32.6306 26.4385 32.8766 26.5209 33.1249 26.5209C33.2919 26.5209 33.46 26.4835 33.6155 26.4077C34.0038 26.2198 34.2499 25.8265 34.2499 25.3959V9.82605C34.2499 9.39539 34.0038 9.00208 33.6155 8.81421ZM31.9999 23.0756L27.3181 19.3811V15.8393L31.9999 12.1464V23.0756Z" fill="#F7F7F7"/>
<path d="M9.81201 24.0095H7.96851V22.166C7.96851 21.5442 7.46478 21.041 6.84351 21.041C6.22223 21.041 5.71851 21.5442 5.71851 22.166V24.0095H3.875C3.25372 24.0095 2.75 24.5127 2.75 25.1345C2.75 25.7563 3.25372 26.2595 3.875 26.2595H5.71851V28.1019C5.71851 28.7238 6.22223 29.2269 6.84351 29.2269C7.46478 29.2269 7.96851 28.7238 7.96851 28.1019V26.2595H9.81201C10.4333 26.2595 10.937 25.7563 10.937 25.1345C10.937 24.5127 10.4333 24.0095 9.81201 24.0095Z" fill="#F7F7F7"/>
</svg>
