<svg width="25" height="28" viewBox="0 0 25 28" fill="#F7F7F7" xmlns="http://www.w3.org/2000/svg">
<path d="M7.56201 19.9685H5.71851V18.125C5.71851 17.5032 5.21478 17 4.59351 17C3.97223 17 3.46851 17.5032 3.46851 18.125V19.9685H1.625C1.00372 19.9685 0.5 20.4717 0.5 21.0935C0.5 21.7153 1.00372 22.2185 1.625 22.2185H3.46851V24.0609C3.46851 24.6827 3.97223 25.1859 4.59351 25.1859C5.21478 25.1859 5.71851 24.6827 5.71851 24.0609V22.2185H7.56201C8.18329 22.2185 8.68701 21.7153 8.68701 21.0935C8.68701 20.4717 8.18329 19.9685 7.56201 19.9685Z" />
<path d="M12.0665 28H20.7794C22.8318 28 24.5 26.356 24.5 24.3333V3.66667C24.5 1.644 22.8318 0 20.7794 0H5.22059C3.16818 0 1.5 1.644 1.5 3.66667V11.7867C1.5 12.3387 1.95459 12.7867 2.51471 12.7867C3.07482 12.7867 3.52941 12.3387 3.52941 11.7867V3.66667C3.52941 2.748 4.28841 2 5.22059 2H20.7794C21.7116 2 22.4706 2.748 22.4706 3.66667V24.3333C22.4706 25.252 21.7116 26 20.7794 26H12.0665C11.5064 26 11.0518 26.448 11.0518 27C11.0518 27.552 11.5064 28 12.0665 28Z" />
<path d="M6.52273 12H19.4773C20.0418 12 20.5 11.552 20.5 11C20.5 10.448 20.0418 10 19.4773 10H6.52273C5.95818 10 5.5 10.448 5.5 11C5.5 11.552 5.95818 12 6.52273 12Z" />
<path d="M12.4643 18H19.5357C20.068 18 20.5 17.552 20.5 17C20.5 16.448 20.068 16 19.5357 16H12.4643C11.932 16 11.5 16.448 11.5 17C11.5 17.552 11.932 18 12.4643 18Z" />
<path d="M13.5 7H19.5C20.052 7 20.5 6.552 20.5 6C20.5 5.448 20.052 5 19.5 5H13.5C12.948 5 12.5 5.448 12.5 6C12.5 6.552 12.948 7 13.5 7Z" />
</svg>
