<svg width="34" height="37" viewBox="0 0 34 37" fill="none" xmlns="http://www.w3.org/2000/svg">
<path d="M27.7023 16.3252C27.3422 16.3273 26.983 16.3602 26.6285 16.4237L23.9235 9.62683H26.2734C26.6196 9.62683 26.9517 9.48845 27.1965 9.24214C27.4413 8.99583 27.5789 8.66175 27.5789 8.31341C27.5789 7.96508 27.4413 7.631 27.1965 7.38469C26.9517 7.13838 26.6196 7 26.2734 7H21.9966C21.7833 6.99999 21.5732 7.05258 21.3847 7.15319C21.1962 7.2538 21.0351 7.39935 20.9155 7.5771C20.7959 7.75486 20.7214 7.9594 20.6986 8.17282C20.6757 8.38625 20.7052 8.60205 20.7845 8.80135L22.0652 12.0225H12.855L12.0802 10.7951C12.2998 10.6303 12.4621 10.4 12.5441 10.1369C12.626 9.8739 12.6234 9.59157 12.5367 9.33011C12.4499 9.06865 12.2834 8.84138 12.0608 8.68066C11.8382 8.51993 11.5709 8.43393 11.2969 8.4349H8.4444C8.09817 8.4349 7.76611 8.57328 7.52128 8.8196C7.27646 9.06591 7.13892 9.39998 7.13892 9.74832C7.13892 10.0967 7.27646 10.4307 7.52128 10.677C7.76611 10.9234 8.09817 11.0617 8.4444 11.0617H9.15393L10.2088 12.7324L8.11085 16.5965C6.88042 16.2243 5.56627 16.2397 4.34477 16.6405C3.12327 17.0414 2.05285 17.8085 1.27717 18.839C0.501495 19.8695 0.0576657 21.114 0.00524541 22.4056C-0.0471749 23.6972 0.294323 24.974 0.98391 26.0646C1.6735 27.1553 2.67818 28.0077 3.86313 28.5074C5.04808 29.0071 6.35661 29.1302 7.61311 28.8602C8.8696 28.5902 10.014 27.94 10.8926 26.9969C11.7712 26.0537 12.3421 24.8628 12.5286 23.5838L17.6552 23.2555C17.8609 23.2424 18.0605 23.1806 18.2379 23.075C18.4152 22.9694 18.5651 22.8231 18.6755 22.648L23.3413 15.2358L24.2009 17.3976C22.9474 18.243 22.0375 19.5133 21.6369 20.9771C21.2364 22.4409 21.3719 24.0008 22.0188 25.3725C22.6657 26.7442 23.781 27.8364 25.1613 28.4501C26.5416 29.0638 28.0951 29.1582 29.5388 28.716C30.9824 28.2738 32.2202 27.3245 33.0264 26.0411C33.8326 24.7577 34.1537 23.2255 33.9312 21.7239C33.7086 20.2222 32.9572 18.851 31.8138 17.8601C30.6705 16.8691 29.2113 16.3244 27.7023 16.3252ZM11.8099 15.266L15.2897 20.7757L12.37 20.9616C12.0337 19.7551 11.3498 18.6759 10.4046 17.86L11.8099 15.266ZM17.573 19.4945L14.5136 14.6493H20.6233L17.573 19.4945Z" fill="currentColor"/>
</svg>
