<svg width="48" height="36" viewBox="0 0 48 36" fill="none" xmlns="http://www.w3.org/2000/svg">
<path fill-rule="evenodd" clip-rule="evenodd" d="M43.6559 28.0131H42.9808C42.9996 27.7999 43.0097 27.584 43.0097 27.3657C43.0098 23.5722 40.1064 20.4871 36.536 20.4871C32.9655 20.4871 30.062 23.5721 30.062 27.3657C30.062 27.584 30.0721 27.7999 30.0909 28.0131H17.9092C17.928 27.7999 17.9381 27.584 17.9381 27.3657C17.9381 23.5721 15.0346 20.4871 11.4642 20.4871C7.89374 20.4871 4.99022 23.5721 4.99022 27.3657C4.99022 27.584 5.00029 27.7999 5.01912 28.0131H2.54322C1.14084 28.0131 0 26.801 0 25.311V17.5656H9.97634H19.2164H28.4564H37.6963H47.81C47.9342 18.3328 47.9997 19.1209 47.9997 19.9252V23.3977C47.9997 25.9427 46.0511 28.0131 43.6559 28.0131ZM0.000122625 16.2706V8.75295C0.000122625 7.26304 1.14096 6.05078 2.54334 6.05078H9.36711V16.2706L0.000122625 16.2706ZM10.5859 6.05079H18.6071V16.2706H10.5859V6.05079ZM19.8259 6.05079H27.8472V16.2706H19.8259V6.05079ZM29.0659 6.05079H34.9417C35.6723 6.05079 36.3889 6.11549 37.087 6.23856V16.2706H29.0658L29.0659 6.05079ZM38.3058 6.51833C42.7818 7.78753 46.3186 11.5258 47.5392 16.2706H38.3058V6.51833Z" fill="currentColor"/>
<path fill-rule="evenodd" clip-rule="evenodd" d="M11.4643 32.9491C8.56652 32.9491 6.20898 30.4444 6.20898 27.3655C6.20898 24.2866 8.5664 21.7817 11.4643 21.7817C14.362 21.7817 16.7195 24.2865 16.7195 27.3655C16.7195 30.4443 14.3619 32.9491 11.4643 32.9491ZM11.4644 30.0858C10.0525 30.0858 8.90378 28.8654 8.90378 27.3652C8.90378 25.8652 10.0524 24.6448 11.4644 24.6448C12.8762 24.6448 14.0247 25.8652 14.0247 27.3652C14.0247 28.8654 12.8762 30.0858 11.4644 30.0858ZM11.4644 25.9398C10.7245 25.9398 10.1225 26.5792 10.1225 27.3654C10.1225 28.1515 10.7245 28.7909 11.4644 28.7909C12.2041 28.7909 12.8059 28.1515 12.8059 27.3654C12.8059 26.5792 12.2041 25.9398 11.4644 25.9398Z" fill="currentColor"/>
<path fill-rule="evenodd" clip-rule="evenodd" d="M36.5365 32.9491C33.6387 32.9491 31.2812 30.4444 31.2812 27.3655C31.2812 24.2866 33.6387 21.7817 36.5365 21.7817C39.4342 21.7817 41.7916 24.2865 41.7916 27.3655C41.7915 30.4443 39.4342 32.9491 36.5365 32.9491ZM36.5364 30.0858C35.1244 30.0858 33.9758 28.8654 33.9758 27.3652C33.9758 25.8652 35.1244 24.6448 36.5364 24.6448C37.9483 24.6448 39.0968 25.8652 39.0968 27.3652C39.0968 28.8654 37.9482 30.0858 36.5364 30.0858ZM36.5364 25.9398C35.7965 25.9398 35.1946 26.5792 35.1946 27.3654C35.1946 28.1515 35.7965 28.7909 36.5364 28.7909C37.2762 28.7909 37.8781 28.1515 37.8781 27.3654C37.8781 26.5792 37.2761 25.9398 36.5364 25.9398Z" fill="currentColor"/>
</svg>
