<svg width="33" height="28" viewBox="0 0 33 28" fill="#9E9E9E" xmlns="http://www.w3.org/2000/svg">
<path d="M30.1687 0.0554199H2.8314C1.46101 0.0554199 0.346191 1.17024 0.346191 2.54063V6.8127C0.346191 8.13441 1.38349 9.21817 2.6867 9.29342V14.1488C2.6867 21.756 8.88336 27.945 16.5 27.945C24.1167 27.945 30.3134 21.756 30.3134 14.1488V9.29335C31.6166 9.21817 32.6539 8.13441 32.6539 6.8127V2.54063C32.6539 1.17024 31.5391 0.0554199 30.1687 0.0554199ZM16.5 25.7359C10.1015 25.7359 4.89578 20.5379 4.89578 14.1488V9.29784H28.1042V14.1488C28.1043 20.5379 22.8986 25.7359 16.5 25.7359ZM30.4448 6.8127C30.4448 6.96499 30.321 7.08883 30.1687 7.08883H2.8314C2.67911 7.08883 2.55526 6.96499 2.55526 6.8127V2.54063C2.55526 2.38834 2.67911 2.26449 2.8314 2.26449H30.1687C30.321 2.26449 30.4448 2.38834 30.4448 2.54063V6.8127Z" />
<path d="M16.4997 12.6143C13.6448 12.6143 11.3222 14.9369 11.3222 17.7918C11.3222 20.6467 13.6448 22.9693 16.4997 22.9693C19.3545 22.9693 21.6772 20.6467 21.6772 17.7918C21.6772 14.9369 19.3545 12.6143 16.4997 12.6143ZM16.4997 20.7603C14.8629 20.7603 13.5312 19.4286 13.5312 17.7918C13.5312 16.155 14.8629 14.8234 16.4997 14.8234C18.1365 14.8234 19.4681 16.155 19.4681 17.7918C19.4681 19.4286 18.1365 20.7603 16.4997 20.7603Z" />
<path d="M16.5 19.1728C17.2625 19.1728 17.8806 18.5547 17.8806 17.7921C17.8806 17.0296 17.2625 16.4115 16.5 16.4115C15.7374 16.4115 15.1193 17.0296 15.1193 17.7921C15.1193 18.5547 15.7374 19.1728 16.5 19.1728Z" />
</svg>
