<?xml version="1.0" encoding="UTF-8"?>
<svg xmlns="http://www.w3.org/2000/svg" xmlns:xlink="http://www.w3.org/1999/xlink" width="18px" height="18px" viewBox="0 0 18 15" version="1.1" fill="#fff">
<g id="surface1">
<path  d="M 16.003906 0.273438 L 1.996094 0.273438 C 1.292969 0.273438 0.722656 0.832031 0.722656 1.523438 L 0.722656 3.667969 C 0.722656 4.332031 1.253906 4.875 1.921875 4.914062 L 1.921875 7.355469 C 1.921875 11.175781 5.097656 14.285156 9 14.285156 C 12.902344 14.285156 16.078125 11.175781 16.078125 7.355469 L 16.078125 4.914062 C 16.746094 4.875 17.277344 4.332031 17.277344 3.667969 L 17.277344 1.523438 C 17.277344 0.832031 16.707031 0.273438 16.003906 0.273438 Z M 9 13.175781 C 5.722656 13.175781 3.054688 10.566406 3.054688 7.355469 L 3.054688 4.917969 L 14.949219 4.917969 L 14.949219 7.355469 C 14.949219 10.566406 12.28125 13.175781 9 13.175781 Z M 16.148438 3.667969 C 16.148438 3.746094 16.082031 3.808594 16.003906 3.808594 L 1.996094 3.808594 C 1.917969 3.808594 1.855469 3.746094 1.855469 3.667969 L 1.855469 1.523438 C 1.855469 1.445312 1.917969 1.382812 1.996094 1.382812 L 16.003906 1.382812 C 16.082031 1.382812 16.148438 1.445312 16.148438 1.523438 Z M 16.148438 3.667969 "/>
<path  d="M 9 6.582031 C 7.539062 6.582031 6.347656 7.75 6.347656 9.183594 C 6.347656 10.617188 7.539062 11.785156 9 11.785156 C 10.464844 11.785156 11.652344 10.617188 11.652344 9.183594 C 11.652344 7.75 10.464844 6.582031 9 6.582031 Z M 9 10.675781 C 8.160156 10.675781 7.480469 10.007812 7.480469 9.183594 C 7.480469 8.363281 8.160156 7.691406 9 7.691406 C 9.839844 7.691406 10.523438 8.363281 10.523438 9.183594 C 10.523438 10.007812 9.839844 10.675781 9 10.675781 Z M 9 10.675781 "/>
<path  d="M 9 9.878906 C 9.390625 9.878906 9.707031 9.566406 9.707031 9.183594 C 9.707031 8.800781 9.390625 8.492188 9 8.492188 C 8.609375 8.492188 8.292969 8.800781 8.292969 9.183594 C 8.292969 9.566406 8.609375 9.878906 9 9.878906 Z M 9 9.878906 "/>
</g>
</svg>
