<svg width="13" height="13" viewBox="0 0 13 13" fill="none" xmlns="http://www.w3.org/2000/svg">
<path d="M5.33366 1.66646H2.80033C2.05359 1.66646 1.68022 1.66646 1.395 1.81179C1.14412 1.93962 0.940148 2.14359 0.812317 2.39448C0.666992 2.67969 0.666992 3.05306 0.666992 3.7998V10.1998C0.666992 10.9465 0.666992 11.3199 0.812317 11.6051C0.940148 11.856 1.14412 12.06 1.395 12.1878C1.68022 12.3331 2.05359 12.3331 2.80033 12.3331H9.20033C9.94706 12.3331 10.3204 12.3331 10.6056 12.1878C10.8565 12.06 11.0605 11.856 11.1883 11.6051C11.3337 11.3199 11.3337 10.9465 11.3337 10.1998V7.33313M8.33366 2.66646L10.2193 4.55208M5.17549 5.82464L9.60765 1.39248C10.1283 0.871779 10.9726 0.871778 11.4933 1.39248C12.014 1.91318 12.014 2.7574 11.4933 3.27809L6.91862 7.85274C6.41086 8.3605 6.15697 8.61438 5.86779 8.81629C5.61111 8.9955 5.33428 9.14396 5.04298 9.25862C4.71479 9.38779 4.36284 9.45881 3.65894 9.60083L3.33366 9.66646L3.36529 9.44502C3.47723 8.66144 3.5332 8.26965 3.66052 7.90387C3.77349 7.5793 3.92782 7.27063 4.1197 6.98551C4.33594 6.66419 4.61579 6.38434 5.17549 5.82464Z" stroke="#F5F7FA" stroke-width="1.06" stroke-linecap="round" stroke-linejoin="round"/>
</svg>
