<svg width="20" height="20" viewBox="0 0 20 20" fill="none" xmlns="http://www.w3.org/2000/svg">
    <path
        d="M7.225 0.75H1.675C1.16415 0.75 0.75 1.16415 0.75 1.675V7.225C0.75 7.73581 1.16415 8.15 1.675 8.15C2.18585 8.15 2.6 7.73581 2.6 7.225V2.6H7.225C7.73581 2.6 8.15 2.18581 8.15 1.675C8.15 1.16419 7.73581 0.75 7.225 0.75Z"
        fill="#90949D" />
    <path
        d="M18.3246 0.75H12.7746C12.2638 0.75 11.8496 1.16415 11.8496 1.675C11.8496 2.18585 12.2638 2.6 12.7746 2.6H17.3996V7.225C17.3996 7.73581 17.8138 8.15 18.3246 8.15C18.8355 8.15 19.2496 7.73581 19.2496 7.225V1.675C19.2496 1.16415 18.8355 0.75 18.3246 0.75Z"
        fill="#90949D" />
    <path
        d="M18.3246 11.8499C17.8138 11.8499 17.3996 12.264 17.3996 12.7749V17.3999H12.7746C12.2638 17.3999 11.8496 17.814 11.8496 18.3249C11.8496 18.8357 12.2638 19.2499 12.7746 19.2499H18.3246C18.8355 19.2499 19.2496 18.8357 19.2496 18.3249V12.7749C19.2496 12.264 18.8355 11.8499 18.3246 11.8499Z"
        fill="#90949D" />
    <path
        d="M7.225 17.3999H2.6V12.7749C2.6 12.264 2.18581 11.8499 1.675 11.8499C1.16419 11.8499 0.75 12.264 0.75 12.7749V18.3249C0.75 18.8357 1.16415 19.2499 1.675 19.2499H7.225C7.73581 19.2499 8.15 18.8357 8.15 18.3249C8.15 17.814 7.73581 17.3999 7.225 17.3999Z"
        fill="#90949D" />
</svg>