<svg width="22" height="22" viewBox="0 0 22 22" fill="none" xmlns="http://www.w3.org/2000/svg">
    <path
        d="M8.49677 0.375H2.52348C1.52324 0.375 0.709473 1.18877 0.709473 2.18901V8.1623C0.709473 9.16254 1.52324 9.97631 2.52348 9.97631H8.49677C9.49701 9.97631 10.3108 9.16254 10.3108 8.1623V2.18901C10.3108 1.18877 9.49701 0.375 8.49677 0.375ZM20.1455 0.375H14.1722C13.1719 0.375 12.3582 1.18877 12.3582 2.18901V8.1623C12.3582 9.16254 13.1719 9.97631 14.1722 9.97631H20.1455C21.1457 9.97631 21.9595 9.16254 21.9595 8.1623V2.18901C21.9595 1.18877 21.1457 0.375 20.1455 0.375ZM8.49677 12.0237H2.52348C1.52324 12.0237 0.709473 12.8375 0.709473 13.8377V19.811C0.709473 20.8112 1.52324 21.625 2.52348 21.625H8.49677C9.49701 21.625 10.3108 20.8112 10.3108 19.811V13.8377C10.3108 12.8375 9.49701 12.0237 8.49677 12.0237ZM20.1455 12.0237H14.1722C13.1719 12.0237 12.3582 12.8375 12.3582 13.8377V19.811C12.3582 20.8112 13.1719 21.625 14.1722 21.625H20.1455C21.1457 21.625 21.9595 20.8112 21.9595 19.811V13.8377C21.9595 12.8375 21.1457 12.0237 20.1455 12.0237Z"
        fill="#F5F7FA" />
</svg>