<?xml version="1.0" encoding="UTF-8"?>
<svg xmlns="http://www.w3.org/2000/svg" xmlns:xlink="http://www.w3.org/1999/xlink" width="18px" height="18px" viewBox="0 0 18 17" version="1.1" fill="#F5F7FA">
<g id="surface1">
<path d="M 13.140625 1.863281 C 14.660156 1.863281 15.898438 3.09375 15.898438 4.609375 L 15.898438 12.839844 C 15.898438 14.351562 14.660156 15.582031 13.140625 15.582031 L 4.859375 15.582031 C 3.339844 15.582031 2.101562 14.351562 2.101562 12.839844 L 2.101562 4.609375 C 2.101562 3.09375 3.339844 1.863281 4.859375 1.863281 Z M 13.140625 0.492188 L 4.859375 0.492188 C 3.761719 0.492188 2.710938 0.925781 1.933594 1.699219 C 1.15625 2.46875 0.722656 3.515625 0.722656 4.609375 L 0.722656 12.839844 C 0.722656 13.929688 1.15625 14.976562 1.933594 15.75 C 2.710938 16.519531 3.761719 16.953125 4.859375 16.953125 L 13.140625 16.953125 C 14.238281 16.953125 15.289062 16.519531 16.066406 15.75 C 16.84375 14.976562 17.277344 13.929688 17.277344 12.839844 L 17.277344 4.609375 C 17.277344 3.515625 16.84375 2.46875 16.066406 1.699219 C 15.289062 0.925781 14.238281 0.492188 13.140625 0.492188 Z M 13.140625 0.492188 "/>
<path d="M 12.449219 9.410156 L 5.550781 9.410156 C 5.367188 9.410156 5.191406 9.335938 5.0625 9.207031 C 4.933594 9.078125 4.859375 8.90625 4.859375 8.722656 C 4.859375 8.542969 4.933594 8.367188 5.0625 8.238281 C 5.191406 8.109375 5.367188 8.039062 5.550781 8.039062 L 12.449219 8.039062 C 12.632812 8.039062 12.808594 8.109375 12.9375 8.238281 C 13.066406 8.367188 13.140625 8.542969 13.140625 8.722656 C 13.140625 8.90625 13.066406 9.078125 12.9375 9.207031 C 12.808594 9.335938 12.632812 9.410156 12.449219 9.410156 Z M 12.449219 5.980469 L 5.550781 5.980469 C 5.367188 5.980469 5.191406 5.90625 5.0625 5.777344 C 4.933594 5.652344 4.859375 5.476562 4.859375 5.292969 C 4.859375 5.113281 4.933594 4.9375 5.0625 4.808594 C 5.191406 4.679688 5.367188 4.609375 5.550781 4.609375 L 12.449219 4.609375 C 12.632812 4.609375 12.808594 4.679688 12.9375 4.808594 C 13.066406 4.9375 13.140625 5.113281 13.140625 5.292969 C 13.140625 5.476562 13.066406 5.652344 12.9375 5.777344 C 12.808594 5.90625 12.632812 5.980469 12.449219 5.980469 Z M 12.449219 12.839844 L 5.550781 12.839844 C 5.367188 12.839844 5.191406 12.765625 5.0625 12.636719 C 4.933594 12.507812 4.859375 12.335938 4.859375 12.152344 C 4.859375 11.972656 4.933594 11.796875 5.0625 11.667969 C 5.191406 11.539062 5.367188 11.46875 5.550781 11.46875 L 12.449219 11.46875 C 12.632812 11.46875 12.808594 11.539062 12.9375 11.667969 C 13.066406 11.796875 13.140625 11.972656 13.140625 12.152344 C 13.140625 12.335938 13.066406 12.507812 12.9375 12.636719 C 12.808594 12.765625 12.632812 12.839844 12.449219 12.839844 Z M 12.449219 12.839844 "/>
</g>
</svg>
