<svg width="33" height="30" viewBox="0 0 33 30" fill="none" xmlns="http://www.w3.org/2000/svg">
    <g id="Group 8188">
        <path id="Vector"
            d="M0.148147 16.5448C-0.333846 14.2467 0.358348 11.7463 2.25298 10.276C2.32531 10.2195 2.39537 10.1094 2.39029 10.0178C2.23546 7.20893 3.96453 4.8679 6.8192 4.48253C6.96668 4.46276 7.02601 4.36048 7.06726 4.21865C7.39763 3.07649 7.99715 2.11928 8.86583 1.34704C10.1378 0.2158 11.5046 -0.308006 13.2145 0.186417C14.5484 0.572162 15.4632 1.39112 15.959 2.64328C16.2878 3.47447 16.3528 4.31697 16.3534 5.29339C16.3553 12.7638 16.3553 20.2342 16.3534 27.7046C16.3528 28.2137 16.1008 29.0218 15.5996 29.28C13.7762 30.2174 11.2803 30.2389 9.43088 29.3478C8.21639 28.7628 7.43661 27.795 7.09155 26.4445C7.05369 26.2971 6.89548 26.2626 6.74574 26.2519C5.13345 26.1385 3.89183 25.4497 3.02089 24.1855C2.2445 23.0582 2.05013 21.6772 2.41233 20.3499C2.45753 20.1843 2.40328 20.095 2.26993 19.9894C1.1515 19.1045 0.444236 17.9563 0.148147 16.5448ZM14.8373 16.7103C14.8675 16.4647 14.8671 16.2206 14.8362 15.978C14.8599 14.944 14.8654 13.9067 14.8526 12.8663C14.8503 12.6623 14.7876 12.5114 14.5825 12.4702C14.3932 12.4323 14.2305 12.5911 14.0626 12.699C13.6826 12.9431 13.2169 13.1277 12.6658 13.2528C12.3788 13.3177 12.3223 13.5048 12.3935 13.7811C12.7382 15.1214 12.6542 16.4299 12.1415 17.7065C12.0985 17.8124 12.0827 17.8977 12.094 17.9625C12.1125 18.0695 12.1712 18.1443 12.2703 18.1868C13.0653 18.5264 13.762 19.0367 14.022 19.8645C14.1176 20.1685 14.1259 20.4239 14.0468 20.6307C13.7897 21.3054 12.8116 21.1901 12.6359 20.4962C12.5956 20.3361 12.5666 20.238 12.5489 20.2018C12.3415 19.7718 11.7109 19.4904 11.2396 19.4011C11.1398 19.3819 11.059 19.4038 10.9972 19.4667C10.1413 20.3395 9.1768 21.0334 8.10357 21.5483C7.93367 21.6297 7.79599 21.6723 7.69051 21.676C7.0633 21.6981 6.6881 20.9273 7.10342 20.4476C7.16708 20.3742 7.28292 20.2949 7.45093 20.2097C8.49572 19.6808 9.52242 18.9751 10.2073 18.0077C11.1494 16.6761 11.3387 15.1915 10.7752 13.5539C10.7311 13.4262 10.6537 13.333 10.5265 13.3042C9.87634 13.1569 9.29018 12.897 8.76807 12.5244C8.67032 12.4543 8.54714 12.404 8.44373 12.4504C7.29102 12.9697 6.09479 13.8449 5.32236 14.9072C5.21802 15.0511 5.12572 15.1468 5.04549 15.1943C4.49286 15.5226 3.82214 15.057 3.93176 14.4269C3.95436 14.2962 4.02311 14.1525 4.13801 13.9958C4.91383 12.938 5.95636 12.1198 7.0859 11.4762C7.36504 11.3174 7.36222 11.1321 7.18535 10.8761C6.84236 10.3806 6.33438 9.64149 7.02318 9.18888C7.31852 8.99488 7.61574 9.01503 7.91484 9.24934C8.05723 9.36066 8.12673 9.54712 8.21545 9.70647C9.1105 11.3259 10.7266 12.3323 12.6093 11.7175C13.801 11.3282 14.5582 10.3631 14.7876 9.15159C14.8313 8.91991 14.8539 8.54453 14.8554 8.02543C14.8584 6.98045 14.8588 5.93548 14.8565 4.8905C14.8526 3.22924 14.1949 1.84542 12.4601 1.53746C12.1121 1.47587 11.6284 1.47305 11.3103 1.56798C10.1818 1.90419 9.14327 3.04729 8.67484 4.10677C8.59347 4.2906 8.60553 4.43319 8.711 4.53452C8.75734 4.57859 8.86978 4.62832 9.04834 4.68369C10.235 5.05173 11.2641 5.67706 12.1358 6.55968C12.2733 6.69906 12.3613 6.81245 12.3997 6.89984C12.6636 7.49541 12.0341 8.12093 11.4323 7.88304C11.3393 7.8465 11.2276 7.76268 11.0972 7.63159C10.1977 6.72524 8.98957 6.04039 7.70859 5.95394C5.80323 5.82511 4.24254 7.04336 3.94306 8.93121C3.86471 9.42545 3.85943 9.95717 3.92724 10.5264C3.94645 10.6883 3.9069 10.8379 3.80858 10.975C3.75622 11.0477 3.64283 11.1413 3.46842 11.2559C2.47467 11.9075 1.85443 12.8329 1.60769 14.032C1.3325 15.3706 1.55175 16.7798 2.32022 17.9037C2.49916 18.1652 2.68845 18.3821 2.8881 18.5547C2.9868 18.6406 3.08983 18.6607 3.19719 18.6151C3.25445 18.591 3.3247 18.5279 3.40795 18.4258C4.47101 17.1232 5.80059 16.2003 7.39668 15.6571C7.55791 15.6021 7.68524 15.5748 7.77866 15.5751C8.4652 15.5797 8.76468 16.4205 8.25783 16.877C8.18399 16.9433 8.07343 17.001 7.92614 17.0499C6.4536 17.5387 5.07204 18.4891 4.26797 19.8413C4.05513 20.2003 3.90633 20.545 3.82158 20.8754C3.28251 22.9858 4.99237 24.8172 7.08647 24.7579C8.13973 24.7277 8.97639 24.2747 9.59645 23.3989C9.73432 23.2045 9.83772 23.0838 9.90666 23.0367C10.0547 22.9354 10.2197 22.9007 10.4016 22.9327C10.8055 23.0047 11.0194 23.2386 11.0436 23.6345C11.0582 23.8815 10.9526 24.0713 10.8124 24.2685C10.2986 24.9903 9.64692 25.5278 8.85735 25.8812C8.66297 25.9676 8.54996 26.0891 8.60421 26.3033C8.90256 27.4792 9.99933 28.1143 11.1187 28.3578C12.2903 28.6129 13.446 28.5292 14.5859 28.1069C14.6978 28.0657 14.8554 27.9318 14.856 27.825C14.8575 27.1062 14.8579 26.3873 14.8571 25.6682C14.8571 25.4427 14.8125 25.267 14.578 25.2212C14.4209 25.1907 14.3158 25.2698 14.2039 25.3704C13.9353 25.6118 13.7027 25.8599 13.5061 26.1146C13.398 26.2551 13.3036 26.3474 13.223 26.3914C12.8359 26.6016 12.3635 26.4395 12.1754 26.0371C12.0177 25.7009 12.1584 25.4173 12.3839 25.1246C12.97 24.364 13.7074 23.7931 14.5961 23.4119C14.7339 23.3531 14.8565 23.2616 14.8565 23.1135C14.8577 20.9788 14.8566 18.8451 14.8373 16.7103Z"
            fill="#D22627" />
        <path id="Vector_2"
            d="M20.2987 4.67346C21.3182 4.67346 22.1447 3.84696 22.1447 2.82742C22.1447 1.80788 21.3182 0.981384 20.2987 0.981384C19.2791 0.981384 18.4526 1.80788 18.4526 2.82742C18.4526 3.84696 19.2791 4.67346 20.2987 4.67346Z" />
        <path id="Vector_3"
            d="M23.2144 4.26393C23.2524 4.15582 23.2741 4.01286 23.2793 3.83506C23.2854 3.63917 23.3004 3.49697 23.3245 3.40844C23.5681 2.51735 24.5507 2.08508 25.3796 2.53599C25.7187 2.7202 25.9389 2.99331 26.0402 3.35533C26.2843 4.22495 25.704 5.11208 24.7903 5.1748C24.521 5.19364 24.3793 5.20437 24.3654 5.20701C23.5059 5.37766 22.8555 6.10149 22.7798 6.9745C22.7504 7.31015 22.8917 7.64975 22.8691 7.98765C22.8043 8.95126 22.3743 9.63931 21.5791 10.0518C21.2902 10.2017 20.9907 10.2893 20.6806 10.3145C20.3431 10.342 20.0263 10.3019 19.7302 10.1942C17.9198 9.53816 17.5463 7.12424 19.1606 6.01052C19.7261 5.62026 20.3719 5.50348 21.0982 5.66019C21.2417 5.69126 21.4361 5.69635 21.5785 5.67036C22.3922 5.5193 22.9375 5.05049 23.2144 4.26393Z" />
        <path id="Vector_4"
            d="M27.5975 10.1605C28.9635 10.1605 30.0708 9.05316 30.0708 7.68723C30.0708 6.3213 28.9635 5.21399 27.5975 5.21399C26.2316 5.21399 25.1243 6.3213 25.1243 7.68723C25.1243 9.05316 26.2316 10.1605 27.5975 10.1605Z" />
        <path id="Vector_5"
            d="M23.8167 13.1242C24.6156 13.1242 25.2632 12.4766 25.2632 11.6777C25.2632 10.8788 24.6156 10.2311 23.8167 10.2311C23.0178 10.2311 22.3701 10.8788 22.3701 11.6777C22.3701 12.4766 23.0178 13.1242 23.8167 13.1242Z" />
        <path id="Vector_6"
            d="M21.3395 16.9436C19.6008 17.9782 17.531 16.2379 18.2944 14.3466C18.7894 13.121 20.2613 12.6724 21.3734 13.3617C21.4506 13.4096 21.5915 13.5258 21.796 13.7104C22.4858 14.3334 23.3087 14.5715 24.2648 14.4246C24.8739 14.3312 25.3962 14.062 25.8317 13.6171C26.0017 13.4431 26.1775 13.1894 26.3464 12.9668C27.1934 11.8508 28.6784 11.3711 30.0153 11.7186C32.7677 12.4339 33.595 15.9604 31.4387 17.8195C29.882 19.1615 27.5664 18.9049 26.3103 17.2691C26.1385 17.0459 25.9735 16.8069 25.7848 16.6238C24.7835 15.6536 23.1629 15.5542 22.0509 16.3639C21.8401 16.5176 21.5926 16.7927 21.3395 16.9436Z" />
        <path id="Vector_7"
            d="M14.8363 15.978C14.8672 16.2206 14.8676 16.4647 14.8374 16.7103C14.7308 16.4557 14.7305 16.2116 14.8363 15.978Z" />
        <path id="Vector_8"
            d="M23.8167 20.0566C24.6153 20.0566 25.2627 19.4092 25.2627 18.6106C25.2627 17.8121 24.6153 17.1647 23.8167 17.1647C23.0181 17.1647 22.3707 17.8121 22.3707 18.6106C22.3707 19.4092 23.0181 20.0566 23.8167 20.0566Z" />
        <path id="Vector_9"
            d="M19.3465 24.3895C18.639 23.98 18.2421 23.389 18.1559 22.6164C18.0581 21.7355 18.4265 20.893 19.1549 20.3906C20.3003 19.6007 21.8643 19.9595 22.5514 21.1625C22.8472 21.6801 22.933 22.2504 22.8091 22.8735C22.7797 23.0204 22.7681 23.1468 22.7741 23.2526C22.785 23.441 22.8018 23.5687 22.8244 23.6357C23.1367 24.5602 23.7644 25.0542 24.7077 25.1179C24.9025 25.1311 25.0452 25.1535 25.136 25.1851C25.6792 25.3731 26.0002 25.7713 26.0989 26.3796C26.1177 26.4975 26.1102 26.6341 26.0763 26.7893C25.9689 27.2764 25.6446 27.673 25.1801 27.8409C24.2777 28.1675 23.3284 27.5437 23.2758 26.5881C23.263 26.3516 23.2521 26.2118 23.2431 26.1689C23.0549 25.293 22.291 24.6421 21.3931 24.6059C21.3038 24.6022 21.1492 24.6199 20.9292 24.659C20.3592 24.76 19.8316 24.6702 19.3465 24.3895Z" />
        <path id="Vector_10"
            d="M27.5975 25.0729C28.9635 25.0729 30.0708 23.9656 30.0708 22.5997C30.0708 21.2338 28.9635 20.1265 27.5975 20.1265C26.2316 20.1265 25.1243 21.2338 25.1243 22.5997C25.1243 23.9656 26.2316 25.0729 27.5975 25.0729Z" />
        <path id="Vector_11"
            d="M20.2986 29.3066C21.3185 29.3066 22.1452 28.4799 22.1452 27.46C22.1452 26.4402 21.3185 25.6134 20.2986 25.6134C19.2788 25.6134 18.452 26.4402 18.452 27.46C18.452 28.4799 19.2788 29.3066 20.2986 29.3066Z" />
    </g>
</svg>