<svg width="179" height="37" viewBox="0 0 179 37" fill="none" xmlns="http://www.w3.org/2000/svg">
    <path
        d="M0.182335 20.3628C-0.410887 17.5344 0.441043 14.457 2.7729 12.6474C2.86192 12.5779 2.94815 12.4423 2.94189 12.3296C2.75134 8.87253 4.87943 5.99126 8.39286 5.51696C8.57437 5.49262 8.64739 5.36675 8.69816 5.19219C9.10477 3.78645 9.84265 2.60835 10.9118 1.6579C12.4773 0.2656 14.1596 -0.379085 16.264 0.229436C17.9057 0.704199 19.0317 1.71214 19.6418 3.25327C20.0466 4.27628 20.1265 5.3132 20.1272 6.51494C20.1296 15.7093 20.1296 24.9036 20.1272 34.098C20.1265 34.7246 19.8164 35.7191 19.1995 36.0369C16.9553 37.1907 13.8835 37.2171 11.6072 36.1204C10.1125 35.4003 9.15276 34.2093 8.72807 32.5471C8.68147 32.3656 8.48674 32.3232 8.30245 32.31C6.31809 32.1704 4.78994 31.3227 3.71802 29.7667C2.76247 28.3793 2.52323 26.6796 2.96902 25.046C3.02465 24.8422 2.95789 24.7323 2.79376 24.6023C1.41723 23.5132 0.546752 22.1 0.182335 20.3628ZM18.2613 20.5666C18.2984 20.2643 18.298 19.9638 18.2599 19.6653C18.2892 18.3926 18.2959 17.116 18.2801 15.8354C18.2773 15.5843 18.2001 15.3987 17.9477 15.3479C17.7147 15.3013 17.5144 15.4967 17.3079 15.6295C16.8401 15.93 16.267 16.1572 15.5887 16.3111C15.2354 16.3911 15.1659 16.6213 15.2535 16.9613C15.6777 18.611 15.5743 20.2214 14.9433 21.7927C14.8905 21.9229 14.871 22.0279 14.8849 22.1077C14.9076 22.2394 14.98 22.3314 15.1019 22.3838C16.0804 22.8018 16.9379 23.4297 17.2578 24.4486C17.3756 24.8227 17.3858 25.1371 17.2884 25.3916C16.972 26.222 15.7681 26.0801 15.5519 25.2261C15.5022 25.0291 15.4665 24.9083 15.4448 24.8638C15.1895 24.3345 14.4134 23.9882 13.8334 23.8783C13.7105 23.8547 13.6111 23.8816 13.535 23.959C12.4817 25.0332 11.2945 25.8872 9.97362 26.521C9.76452 26.6212 9.59507 26.6736 9.46525 26.6782C8.69329 26.7053 8.23151 25.7567 8.74267 25.1663C8.82102 25.0759 8.96359 24.9783 9.17037 24.8735C10.4563 24.2226 11.7199 23.3539 12.5628 22.1633C13.7223 20.5244 13.9553 18.6972 13.2617 16.6818C13.2075 16.5246 13.1122 16.4098 12.9557 16.3744C12.1555 16.1931 11.4341 15.8732 10.7915 15.4147C10.6712 15.3284 10.5196 15.2665 10.3923 15.3235C8.97356 15.9627 7.50129 17.0399 6.5506 18.3474C6.42217 18.5245 6.30858 18.6422 6.20983 18.7007C5.52967 19.1047 4.70417 18.5317 4.83909 17.7562C4.86691 17.5954 4.95152 17.4185 5.09293 17.2256C6.04779 15.9237 7.3309 14.9167 8.72111 14.1246C9.06466 13.9292 9.06119 13.7011 8.84351 13.386C8.42137 12.7761 7.79616 11.8665 8.64391 11.3094C9.00741 11.0706 9.37322 11.0954 9.74134 11.3838C9.9166 11.5208 10.0021 11.7503 10.1113 11.9464C11.2129 13.9396 13.2019 15.1782 15.5192 14.4215C16.9859 13.9424 17.9178 12.7545 18.2001 11.2635C18.2539 10.9784 18.2817 10.5163 18.2836 9.87745C18.2873 8.59133 18.2878 7.30521 18.285 6.01908C18.2801 3.97445 17.4706 2.27129 15.3356 1.89226C14.9072 1.81646 14.3119 1.81298 13.9203 1.92982C12.5315 2.34361 11.2533 3.75051 10.6767 5.05449C10.5766 5.28074 10.5914 5.45623 10.7212 5.58095C10.7783 5.63519 10.9167 5.69639 11.1364 5.76455C12.5969 6.21752 13.8635 6.98715 14.9364 8.07345C15.1056 8.245 15.2139 8.38455 15.2612 8.49211C15.5859 9.22512 14.8112 9.99499 14.0705 9.7022C13.956 9.65723 13.8186 9.55407 13.6581 9.39272C12.551 8.27722 11.0641 7.43433 9.4875 7.32792C7.14243 7.16936 5.22159 8.66876 4.853 10.9923C4.75656 11.6006 4.75007 12.255 4.83353 12.9555C4.85717 13.1549 4.80849 13.339 4.68748 13.5077C4.62304 13.5972 4.48348 13.7124 4.26882 13.8534C3.04575 14.6554 2.28237 15.7944 1.97869 17.2701C1.64 18.9176 1.90984 20.6521 2.85566 22.0354C3.07588 22.3571 3.30886 22.6242 3.55459 22.8365C3.67606 22.9422 3.80286 22.967 3.935 22.9109C4.00547 22.8813 4.09194 22.8036 4.19441 22.678C5.50278 21.0747 7.13919 19.9388 9.10361 19.2702C9.30205 19.2026 9.45876 19.1689 9.57374 19.1694C10.4187 19.175 10.7873 20.2098 10.1635 20.7717C10.0726 20.8533 9.93653 20.9243 9.75525 20.9845C7.9429 21.5861 6.24252 22.7559 5.25289 24.4201C4.99093 24.8619 4.8078 25.2861 4.70348 25.6928C4.04002 28.2903 6.14446 30.5442 8.72181 30.4712C10.0181 30.4341 11.0479 29.8766 11.811 28.7986C11.9807 28.5594 12.108 28.4108 12.1928 28.3529C12.375 28.2281 12.5781 28.1855 12.802 28.2249C13.299 28.3134 13.5624 28.6014 13.5921 29.0886C13.6101 29.3926 13.4801 29.6262 13.3076 29.8689C12.6752 30.7573 11.8731 31.4189 10.9014 31.8538C10.6621 31.9602 10.523 32.1097 10.5898 32.3733C10.957 33.8205 12.3069 34.6022 13.6846 34.9019C15.1265 35.2158 16.5489 35.1129 17.9519 34.5932C18.0896 34.5424 18.2836 34.3776 18.2843 34.2461C18.2861 33.3615 18.2866 32.4767 18.2857 31.5916C18.2857 31.3141 18.2307 31.0978 17.9421 31.0415C17.7488 31.0039 17.6194 31.1013 17.4817 31.2251C17.1512 31.5223 16.8649 31.8276 16.6229 32.141C16.4898 32.3139 16.3736 32.4275 16.2744 32.4818C15.798 32.7405 15.2166 32.5409 14.9851 32.0457C14.791 31.6319 14.9642 31.2828 15.2417 30.9226C15.9631 29.9865 16.8707 29.2838 17.9644 28.8146C18.1341 28.7423 18.285 28.6296 18.285 28.4474C18.2864 25.82 18.285 23.194 18.2613 20.5666Z"
        fill="white" />
    <path
        d="M24.983 5.75194C26.2378 5.75194 27.255 4.73471 27.255 3.4799C27.255 2.22508 26.2378 1.20786 24.983 1.20786C23.7282 1.20786 22.7109 2.22508 22.7109 3.4799C22.7109 4.73471 23.7282 5.75194 24.983 5.75194Z"
        fill="#D6D6D6" />
    <path
        d="M28.5716 5.24798C28.6184 5.11491 28.6451 4.93896 28.6516 4.72013C28.659 4.47904 28.6775 4.30401 28.7072 4.19506C29.007 3.09833 30.2164 2.56631 31.2366 3.12128C31.6539 3.348 31.9248 3.68413 32.0496 4.12969C32.35 5.19999 31.6358 6.29185 30.5112 6.36905C30.1797 6.39223 30.0054 6.40544 29.9882 6.40869C28.9305 6.61871 28.13 7.50959 28.0368 8.58406C28.0006 8.99716 28.1745 9.41513 28.1467 9.83101C28.0669 11.017 27.5377 11.8638 26.559 12.3715C26.2034 12.556 25.8348 12.6638 25.4532 12.6949C25.0378 12.7287 24.6479 12.6794 24.2834 12.5468C22.0552 11.7393 21.5955 8.76836 23.5824 7.39762C24.2783 6.91729 25.0732 6.77357 25.9671 6.96644C26.1438 7.00469 26.383 7.01095 26.5583 6.97896C27.5597 6.79304 28.2308 6.21605 28.5716 5.24798Z"
        fill="#D6D6D6" />
    <path
        d="M33.9662 12.5052C35.6474 12.5052 37.0102 11.1424 37.0102 9.46126C37.0102 7.78011 35.6474 6.41727 33.9662 6.41727C32.2851 6.41727 30.9222 7.78011 30.9222 9.46126C30.9222 11.1424 32.2851 12.5052 33.9662 12.5052Z"
        fill="#D6D6D6" />
    <path
        d="M29.313 16.1528C30.2962 16.1528 31.0933 15.3558 31.0933 14.3725C31.0933 13.3892 30.2962 12.5921 29.313 12.5921C28.3297 12.5921 27.5326 13.3892 27.5326 14.3725C27.5326 15.3558 28.3297 16.1528 29.313 16.1528Z"
        fill="#D6D6D6" />
    <path
        d="M26.2639 20.8537C24.124 22.1271 21.5765 19.9851 22.5161 17.6574C23.1253 16.149 24.937 15.5968 26.3056 16.4452C26.4007 16.5041 26.5741 16.6471 26.8258 16.8743C27.6747 17.6412 28.6875 17.9342 29.8642 17.7534C30.6139 17.6384 31.2568 17.3071 31.7927 16.7596C32.0021 16.5454 32.2184 16.2331 32.4263 15.9591C33.4688 14.5856 35.2964 13.9951 36.9419 14.4228C40.3294 15.3033 41.3476 19.6436 38.6937 21.9316C36.7778 23.5833 33.9278 23.2676 32.3818 21.2543C32.1704 20.9796 31.9673 20.6854 31.735 20.4601C30.5027 19.266 28.5081 19.1436 27.1395 20.1401C26.8801 20.3293 26.5755 20.668 26.2639 20.8537Z"
        fill="#D6D6D6" />
    <path
        d="M18.2601 19.6653C18.2981 19.9639 18.2986 20.2643 18.2615 20.5666C18.1303 20.2532 18.1298 19.9528 18.2601 19.6653Z"
        fill="#D6D6D6" />
    <path
        d="M29.3129 24.6851C30.2958 24.6851 31.0925 23.8883 31.0925 22.9054C31.0925 21.9225 30.2958 21.1258 29.3129 21.1258C28.33 21.1258 27.5332 21.9225 27.5332 22.9054C27.5332 23.8883 28.33 24.6851 29.3129 24.6851Z"
        fill="#D6D6D6" />
    <path
        d="M23.8112 30.0178C22.9405 29.5139 22.452 28.7864 22.3459 27.8355C22.2255 26.7513 22.679 25.7144 23.5754 25.0961C24.9851 24.1239 26.9101 24.5655 27.7558 26.0461C28.1197 26.6831 28.2254 27.3851 28.0729 28.1519C28.0367 28.3327 28.0224 28.4883 28.0298 28.6186C28.0432 28.8504 28.0639 29.0076 28.0917 29.0901C28.476 30.2279 29.2487 30.8359 30.4096 30.9143C30.6493 30.9305 30.8251 30.9581 30.9368 30.997C31.6053 31.2284 32.0004 31.7184 32.1218 32.4672C32.145 32.6123 32.1357 32.7804 32.094 32.9714C31.9619 33.5709 31.5627 34.0591 30.991 34.2656C29.8804 34.6676 28.712 33.8998 28.6474 32.7238C28.6316 32.4327 28.6181 32.2607 28.607 32.2078C28.3754 31.1299 27.4352 30.3287 26.3301 30.2842C26.2202 30.2795 26.0299 30.3013 25.7591 30.3496C25.0577 30.4738 24.4083 30.3632 23.8112 30.0178Z"
        fill="#D6D6D6" />
    <path
        d="M33.9662 30.859C35.6474 30.859 37.0102 29.4961 37.0102 27.815C37.0102 26.1338 35.6474 24.771 33.9662 24.771C32.2851 24.771 30.9222 26.1338 30.9222 27.815C30.9222 29.4961 32.2851 30.859 33.9662 30.859Z"
        fill="#D6D6D6" />
    <path
        d="M24.9831 36.0696C26.2383 36.0696 27.2558 35.0521 27.2558 33.7969C27.2558 32.5417 26.2383 31.5241 24.9831 31.5241C23.7279 31.5241 22.7103 32.5417 22.7103 33.7969C22.7103 35.0521 23.7279 36.0696 24.9831 36.0696Z"
        fill="#D6D6D6" />
    <path
        d="M78.4471 15.8621V21.4435C78.4471 21.4669 78.4354 21.4786 78.412 21.4786H75.6044C75.581 21.4786 75.5693 21.4669 75.5693 21.4435V3.58334C75.5693 3.56181 75.5801 3.54918 75.6016 3.54544L78.4134 3.08079C78.4358 3.07705 78.4471 3.08641 78.4471 3.10887V13.847C78.4472 13.8501 78.4482 13.8531 78.4499 13.8556C78.4517 13.8582 78.4541 13.8601 78.4569 13.8613C78.4597 13.8624 78.4627 13.8626 78.4656 13.862C78.4685 13.8613 78.4711 13.8598 78.473 13.8575C79.9699 12.3167 81.4184 10.7318 82.8184 9.10296C82.8357 9.08284 82.8577 9.07278 82.8844 9.07278H86.2043C86.2399 9.07278 86.246 9.08612 86.2226 9.11279C84.575 10.9695 82.8874 12.7886 81.1599 14.57C81.1449 14.5854 81.1454 14.6001 81.1613 14.6142C83.2508 16.4882 85.1789 18.9974 86.5468 21.4309C86.5646 21.4627 86.5553 21.4786 86.5188 21.4786H83.2543C83.2436 21.4786 83.2331 21.4758 83.2238 21.4705C83.2146 21.4652 83.2069 21.4576 83.2016 21.4484C82.3238 19.9501 81.2333 18.5185 79.9302 17.1536C79.415 16.6136 78.9353 16.1759 78.4913 15.8404C78.4618 15.8179 78.4471 15.8252 78.4471 15.8621Z"
        fill="#D6D6D6" />
    <path
        d="M49.1256 7.58259V16.8461C49.1256 16.8695 49.1139 16.8812 49.0905 16.8812H46.1601C46.1367 16.8812 46.125 16.8695 46.125 16.8461V5.31761C46.125 5.29468 46.1362 5.28065 46.1587 5.2755C47.6284 4.93368 49.1979 4.88385 50.7013 4.87261C52.7585 4.85788 55.0537 5.1997 56.8147 6.34587C59.7086 8.22903 60.3768 11.603 59.9711 14.8513C59.578 17.9971 57.6001 20.2909 54.5666 21.1704C52.6638 21.722 50.8459 21.7284 48.7746 21.6006C47.785 21.5398 46.9137 21.4261 46.1608 21.2595C46.1369 21.2544 46.125 21.2394 46.125 21.2146V19.0584C46.125 19.035 46.1367 19.0233 46.1601 19.0233C47.0295 19.021 47.898 19.0205 48.7655 19.0219C50.5721 19.0254 52.3837 19.2247 54.0816 18.4674C56.8477 17.2328 57.3243 13.8624 56.7031 11.2506C55.823 7.5461 52.2735 7.27166 49.1621 7.54258C49.1377 7.54492 49.1256 7.55826 49.1256 7.58259Z"
        fill="#D6D6D6" />
    <path
        d="M112.423 14.1967C111.823 12.5417 111.383 11.3721 111.104 10.688C110.37 8.88976 108.095 8.50021 106.907 10.1314C106.778 10.3087 106.642 10.5885 106.499 10.9708C105.238 14.3408 103.988 17.7148 102.75 21.0927C102.65 21.3636 102.459 21.4773 102.161 21.478C101.404 21.4785 100.651 21.4787 99.9037 21.4787C99.8667 21.4787 99.8301 21.4696 99.7974 21.4521C99.7647 21.4347 99.7368 21.4095 99.7161 21.3788C99.6954 21.348 99.6826 21.3127 99.6789 21.2759C99.6751 21.2391 99.6805 21.202 99.6946 21.1678C101.16 17.5887 102.632 14.0002 104.11 10.4023C104.398 9.70137 104.583 9.27182 104.667 9.11366C105.285 7.93917 106.239 7.12031 107.528 6.65707C109.324 6.01133 111.471 6.67461 112.705 8.06715C113.357 8.80202 113.64 9.54953 114.073 10.6571C115.445 14.174 116.813 17.6797 118.175 21.1741C118.188 21.2081 118.193 21.2447 118.189 21.2809C118.185 21.3171 118.172 21.3517 118.151 21.3817C118.131 21.4117 118.103 21.4362 118.071 21.4531C118.039 21.47 118.003 21.4788 117.967 21.4787C117.21 21.4783 116.439 21.4783 115.654 21.4787C115.351 21.4787 115.166 21.4015 115.059 21.1215C114.516 19.6943 113.975 18.2665 113.436 16.8379C113.43 16.8201 113.417 16.8112 113.397 16.8112H106.657C106.627 16.8112 106.618 16.7974 106.628 16.7698L107.55 14.2613C107.558 14.2416 107.572 14.2318 107.593 14.2318H112.399C112.424 14.2318 112.432 14.2201 112.423 14.1967Z"
        fill="white" />
    <path
        d="M121.622 6.40591H119.727C119.529 6.40591 119.368 6.56681 119.368 6.76528V21.1202C119.368 21.3187 119.529 21.4796 119.727 21.4796H121.622C121.821 21.4796 121.981 21.3187 121.981 21.1202V6.76528C121.981 6.56681 121.821 6.40591 121.622 6.40591Z"
        fill="white" />
    <path
        d="M69.2817 14.0717C69.2976 13.6539 69.2875 13.3336 69.2515 13.1109C69.0606 11.9279 68.3702 11.2967 67.1802 11.2172C65.9987 11.1381 64.8076 11.2864 63.6069 11.6622C63.5826 11.6696 63.5686 11.6608 63.5648 11.6355L63.2195 9.37121C63.2162 9.34734 63.226 9.3319 63.249 9.32489C64.8399 8.83684 66.443 8.66511 68.0583 8.8097C68.4504 8.84479 68.8706 8.93581 69.3189 9.08273C71.5537 9.8162 72.0696 11.6713 72.0745 13.8106C72.0806 16.2574 72.0806 18.7042 72.0745 21.1509C72.0745 21.1748 72.063 21.1893 72.0401 21.1945C70.2157 21.6044 68.373 21.7838 66.512 21.7328C65.8775 21.7155 65.262 21.617 64.6654 21.4373C62.7401 20.8569 61.9547 19.4348 62.0375 17.4422C62.1877 13.8169 66.6826 13.5215 69.2424 14.1019C69.2676 14.1075 69.2807 14.0975 69.2817 14.0717ZM64.9223 17.5299C64.8079 19.218 66.1506 19.4355 67.4434 19.4489C68.048 19.455 68.6512 19.4135 69.2529 19.3246C69.2758 19.3209 69.2873 19.3076 69.2873 19.2846V16.1809C69.2873 16.1589 69.2768 16.1451 69.2557 16.1395C68.0646 15.8377 65.0528 15.5955 64.9223 17.5299Z"
        fill="#D6D6D6" />
    <path
        d="M94.9847 14.0765C95.1406 12.2382 94.3046 11.1847 92.432 11.1882C91.3703 11.1901 90.3329 11.3468 89.3198 11.6585C89.296 11.666 89.2822 11.6573 89.2784 11.6325L88.9331 9.37173C88.9289 9.3474 88.9387 9.33149 88.9626 9.324C90.4127 8.88041 91.8943 8.69605 93.4076 8.77092C94.2714 8.81397 95.0613 9.02125 95.7772 9.39279C96.8763 9.96272 97.4778 11.0513 97.6645 12.2481C97.7305 12.6701 97.7642 13.0213 97.7656 13.3016C97.7792 15.9201 97.786 18.5386 97.786 21.1571C97.786 21.1809 97.7743 21.1954 97.7509 21.2006C96.3541 21.5019 94.944 21.6807 93.5206 21.7368C91.4901 21.8161 88.8734 21.6077 88.0108 19.3918C87.7942 18.835 87.7039 18.197 87.7399 17.4778C87.9238 13.8308 92.3239 13.5023 94.9476 14.1031C94.97 14.1083 94.9824 14.0994 94.9847 14.0765ZM90.6267 17.6673C90.6113 18.8928 91.4557 19.3659 92.538 19.429C93.3465 19.4768 94.1532 19.4426 94.9581 19.3266C94.9819 19.3228 94.9939 19.3088 94.9939 19.2844V16.1807C94.9939 16.1587 94.9831 16.1451 94.9616 16.14C93.6996 15.822 90.652 15.5939 90.6267 17.6673Z"
        fill="#D6D6D6" />
    <path
        d="M89.3345 30.1829C88.9941 32.0289 86.9354 32.8213 85.3148 32.1138C84.309 31.6744 83.7061 30.7437 83.7033 29.6488C83.7004 28.2857 84.5582 27.2083 85.9226 26.9332C87.9574 26.5226 89.7219 28.0815 89.3345 30.1829ZM88.6298 29.62C88.6298 29.0735 88.4102 28.5493 88.0192 28.1629C87.6283 27.7764 87.0981 27.5593 86.5452 27.5593C85.9923 27.5593 85.4621 27.7764 85.0712 28.1629C84.6802 28.5493 84.4606 29.0735 84.4606 29.62C84.4606 30.1666 84.6802 30.6907 85.0712 31.0772C85.4621 31.4636 85.9923 31.6807 86.5452 31.6807C87.0981 31.6807 87.6283 31.4636 88.0192 31.0772C88.4102 30.6907 88.6298 30.1666 88.6298 29.62Z"
        fill="#D6D6D6" />
    <path
        d="M99.8269 28.4684C99.3518 29.2166 99.3777 30.2245 99.9343 30.9018C100.236 31.2687 100.627 31.5076 101.107 31.6185C101.819 31.7832 102.477 31.5955 103.082 31.0555C103.102 31.0378 103.121 31.0382 103.14 31.0569L103.588 31.5005C103.607 31.5202 103.607 31.5396 103.587 31.5588C101.906 33.1745 98.7762 32.2705 98.7222 29.7227C98.6983 28.5884 99.2507 27.6107 100.277 27.1453C101.34 26.6639 102.763 26.7965 103.581 27.6914C103.599 27.712 103.599 27.7319 103.579 27.7511L103.131 28.1757C103.112 28.1949 103.092 28.1954 103.071 28.1771C102.269 27.4645 101.4 27.3599 100.466 27.8634C100.209 28.0014 99.9959 28.2031 99.8269 28.4684Z"
        fill="#D6D6D6" />
    <path
        d="M49.4422 29.5307C49.9789 29.7179 50.28 30.0714 50.3455 30.5912C50.5146 31.9234 49.4183 32.2779 48.3479 32.2849C47.4898 32.2905 46.6313 32.2903 45.7727 32.2842C45.7502 32.2842 45.739 32.273 45.739 32.2505V26.9892C45.739 26.9676 45.75 26.9566 45.772 26.9562C47.0471 26.9478 47.9249 26.9473 48.4055 26.9548C49.1846 26.9667 49.9819 27.324 50.0739 28.2013C50.13 28.7408 49.9178 29.1706 49.4373 29.4907C49.4125 29.5075 49.4141 29.5209 49.4422 29.5307ZM46.4956 27.597L46.49 29.2436C46.49 29.2486 46.492 29.2535 46.4956 29.257C46.4991 29.2606 46.504 29.2626 46.509 29.2626L48.2426 29.2689C48.3831 29.2694 48.5222 29.2496 48.652 29.2105C48.7819 29.1715 48.8999 29.114 48.9995 29.0414C49.099 28.9688 49.178 28.8825 49.2321 28.7874C49.2861 28.6922 49.3141 28.5902 49.3144 28.487V28.3733C49.3151 28.165 49.2031 27.9649 49.0032 27.817C48.8032 27.669 48.5317 27.5854 48.2483 27.5844L46.5146 27.578C46.5096 27.578 46.5048 27.58 46.5012 27.5836C46.4976 27.5872 46.4956 27.592 46.4956 27.597ZM46.49 29.9118L46.4956 31.6413C46.4956 31.6467 46.4978 31.6518 46.5016 31.6557C46.5054 31.6595 46.5106 31.6616 46.516 31.6616L48.4939 31.6546C48.6367 31.6541 48.7781 31.6326 48.9099 31.5914C49.0417 31.5502 49.1614 31.49 49.2621 31.4143C49.3628 31.3387 49.4426 31.249 49.4968 31.1504C49.5511 31.0518 49.5788 30.9462 49.5783 30.8397V30.6909C49.5774 30.476 49.4621 30.2703 49.2577 30.1191C49.0533 29.9678 48.7766 29.8834 48.4883 29.8844L46.5104 29.8915C46.505 29.8915 46.4998 29.8936 46.496 29.8974C46.4922 29.9012 46.49 29.9064 46.49 29.9118Z"
        fill="#D6D6D6" />
    <path
        d="M61.7422 30.8503V26.9745C61.7422 26.9687 61.7445 26.9632 61.7486 26.9591C61.7527 26.955 61.7582 26.9527 61.764 26.9527H62.475C62.4807 26.9527 62.4863 26.955 62.4904 26.9591C62.4944 26.9632 62.4967 26.9687 62.4967 26.9745V32.2653C62.4967 32.271 62.4944 32.2766 62.4904 32.2806C62.4863 32.2847 62.4807 32.287 62.475 32.287H61.8756C61.8724 32.2871 61.8692 32.2864 61.8663 32.285C61.8634 32.2837 61.8608 32.2817 61.8587 32.2793L58.675 28.3747C58.6721 28.3712 58.6682 28.3687 58.6639 28.3675C58.6595 28.3663 58.6549 28.3665 58.6507 28.368C58.6464 28.3696 58.6428 28.3724 58.6402 28.3761C58.6377 28.3798 58.6363 28.3842 58.6364 28.3888V32.2653C58.6364 32.271 58.6341 32.2766 58.63 32.2806C58.6259 32.2847 58.6204 32.287 58.6146 32.287H57.9036C57.8978 32.287 57.8923 32.2847 57.8882 32.2806C57.8841 32.2766 57.8818 32.271 57.8818 32.2653V26.9745C57.8818 26.9687 57.8841 26.9632 57.8882 26.9591C57.8923 26.955 57.8978 26.9527 57.9036 26.9527H58.503C58.5062 26.9527 58.5094 26.9533 58.5123 26.9547C58.5152 26.956 58.5178 26.958 58.5198 26.9604L61.7036 30.8643C61.7065 30.8678 61.7103 30.8703 61.7147 30.8715C61.719 30.8727 61.7236 30.8725 61.7279 30.871C61.7321 30.8694 61.7358 30.8666 61.7383 30.8629C61.7409 30.8592 61.7423 30.8548 61.7422 30.8503Z"
        fill="#D6D6D6" />
    <path
        d="M64.8129 27.6408V29.2306C64.8129 29.2361 64.8151 29.2415 64.819 29.2454C64.823 29.2494 64.8283 29.2516 64.8339 29.2516H67.4765C67.4821 29.2516 67.4875 29.2538 67.4914 29.2578C67.4954 29.2617 67.4976 29.2671 67.4976 29.2727V29.8798C67.4976 29.8854 67.4954 29.8907 67.4914 29.8947C67.4875 29.8986 67.4821 29.9009 67.4765 29.9009H64.8339C64.8283 29.9009 64.823 29.9031 64.819 29.907C64.8151 29.911 64.8129 29.9163 64.8129 29.9219V31.5994C64.8129 31.605 64.8151 31.6103 64.819 31.6143C64.823 31.6182 64.8283 31.6205 64.8339 31.6205H67.9152C67.9208 31.6205 67.9262 31.6227 67.9301 31.6266C67.9341 31.6306 67.9363 31.6359 67.9363 31.6415V32.2662C67.9363 32.2718 67.9341 32.2771 67.9301 32.2811C67.9262 32.285 67.9208 32.2873 67.9152 32.2873H64.0794C64.0738 32.2873 64.0685 32.285 64.0645 32.2811C64.0606 32.2771 64.0583 32.2718 64.0583 32.2662V26.974C64.0583 26.9684 64.0606 26.9631 64.0645 26.9591C64.0685 26.9552 64.0738 26.9529 64.0794 26.9529H67.8099C67.8155 26.9529 67.8209 26.9552 67.8248 26.9591C67.8288 26.9631 67.831 26.9684 67.831 26.974V27.5987C67.831 27.6043 67.8288 27.6096 67.8248 27.6136C67.8209 27.6175 67.8155 27.6197 67.8099 27.6197H64.8339C64.8283 27.6197 64.823 27.622 64.819 27.6259C64.8151 27.6298 64.8129 27.6352 64.8129 27.6408Z"
        fill="#D6D6D6" />
    <path
        d="M70.8722 30.1286L69.3274 32.2778C69.3253 32.2806 69.3225 32.2829 69.3193 32.2845C69.3162 32.2861 69.3127 32.2869 69.3091 32.2869H68.4584C68.4543 32.2869 68.4502 32.2858 68.4466 32.2836C68.443 32.2815 68.4401 32.2784 68.4382 32.2746C68.4363 32.2709 68.4355 32.2668 68.4359 32.2626C68.4362 32.2584 68.4377 32.2545 68.4402 32.2511L70.416 29.5643C70.4188 29.5604 70.4204 29.5558 70.4204 29.551C70.4204 29.5462 70.4188 29.5415 70.416 29.5376L68.5623 26.9891C68.5598 26.9857 68.5583 26.9817 68.558 26.9776C68.5577 26.9734 68.5585 26.9693 68.5604 26.9655C68.5623 26.9618 68.5652 26.9587 68.5687 26.9565C68.5723 26.9544 68.5764 26.9532 68.5806 26.9533L69.4235 26.9519C69.4271 26.9518 69.4306 26.9527 69.4337 26.9542C69.4369 26.9558 69.4397 26.9581 69.4418 26.961L70.9031 28.9593C70.9052 28.9622 70.9079 28.9645 70.9111 28.9662C70.9143 28.9678 70.9178 28.9686 70.9213 28.9686C70.9249 28.9686 70.9284 28.9678 70.9316 28.9662C70.9348 28.9645 70.9375 28.9622 70.9396 28.9593L72.3841 26.9617C72.3862 26.9588 72.3889 26.9565 72.3921 26.9549C72.3953 26.9534 72.3988 26.9525 72.4023 26.9526H77.6524C77.6584 26.9526 77.6641 26.9549 77.6683 26.9592C77.6725 26.9634 77.6749 26.9691 77.6749 26.975V27.5969C77.6749 27.6029 77.6725 27.6086 77.6683 27.6128C77.6641 27.617 77.6584 27.6194 77.6524 27.6194H75.8549C75.8489 27.6194 75.8432 27.6217 75.839 27.6259C75.8348 27.6302 75.8324 27.6359 75.8324 27.6418V32.2644C75.8324 32.2704 75.8301 32.2761 75.8259 32.2803C75.8217 32.2845 75.8159 32.2869 75.81 32.2869H75.1004C75.0944 32.2869 75.0887 32.2845 75.0845 32.2803C75.0803 32.2761 75.0779 32.2704 75.0779 32.2644V27.6418C75.0779 27.6359 75.0755 27.6302 75.0713 27.6259C75.0671 27.6217 75.0614 27.6194 75.0555 27.6194H73.2586C73.2527 27.6194 73.247 27.617 73.2427 27.6128C73.2385 27.6086 73.2362 27.6029 73.2362 27.5969L73.2348 27.0431C73.2347 27.0384 73.2331 27.0338 73.2303 27.0301C73.2274 27.0263 73.2235 27.0235 73.219 27.0221C73.2145 27.0207 73.2096 27.0208 73.2052 27.0223C73.2007 27.0238 73.1968 27.0267 73.1941 27.0305L71.3727 29.5159C71.3698 29.5197 71.3683 29.5244 71.3683 29.5292C71.3683 29.534 71.3698 29.5387 71.3727 29.5425L73.3632 32.2511C73.3657 32.2545 73.3672 32.2584 73.3675 32.2626C73.3679 32.2668 73.367 32.2709 73.3651 32.2746C73.3632 32.2784 73.3604 32.2815 73.3568 32.2836C73.3532 32.2858 73.3491 32.2869 73.345 32.2869H72.4943C72.4907 32.2869 72.4872 32.2861 72.4841 32.2845C72.4809 32.2829 72.4781 32.2806 72.476 32.2778L70.9087 30.1286C70.9066 30.1257 70.9039 30.1233 70.9007 30.1217C70.8975 30.1201 70.894 30.1192 70.8905 30.1192C70.8869 30.1192 70.8834 30.1201 70.8802 30.1217C70.877 30.1233 70.8743 30.1257 70.8722 30.1286Z"
        fill="#D6D6D6" />
    <path
        d="M81.7192 30.5426L82.9265 32.2453C82.9466 32.2734 82.9393 32.2875 82.9047 32.2875H82.1509C82.1223 32.2875 82.0996 32.2758 82.0828 32.2524L80.9675 30.697C80.9558 30.6811 80.9404 30.6731 80.9212 30.6731H79.3068C79.2834 30.6731 79.2717 30.6848 79.2717 30.7082V32.2524C79.2717 32.2758 79.26 32.2875 79.2366 32.2875H78.5523C78.5289 32.2875 78.5172 32.2758 78.5172 32.2524V26.9896C78.5172 26.9681 78.528 26.9574 78.5495 26.9574C79.7427 26.948 80.5272 26.9473 80.9029 26.9553C81.8806 26.9763 82.7131 27.542 82.8478 28.5668C82.9573 29.402 82.5643 30.1888 81.7368 30.4864C81.7063 30.4977 81.7005 30.5164 81.7192 30.5426ZM79.2675 27.6459L79.276 30.0042C79.276 30.0094 79.278 30.0144 79.2817 30.0181C79.2854 30.0218 79.2904 30.0239 79.2956 30.0239L80.778 30.019C80.9513 30.0183 81.1228 29.9886 81.2827 29.9316C81.4425 29.8745 81.5877 29.7912 81.7098 29.6864C81.832 29.5816 81.9287 29.4573 81.9945 29.3208C82.0603 29.1842 82.0939 29.0379 82.0933 28.8903V28.7401C82.0922 28.4421 81.9521 28.1568 81.7038 27.947C81.4556 27.7372 81.1195 27.62 80.7696 27.6213L79.2872 27.6263C79.282 27.6263 79.277 27.6283 79.2733 27.632C79.2696 27.6357 79.2675 27.6407 79.2675 27.6459Z"
        fill="#D6D6D6" />
    <path
        d="M94.3797 30.8503V26.9745C94.3797 26.9687 94.382 26.9632 94.386 26.9591C94.3901 26.955 94.3956 26.9527 94.4014 26.9527H95.1124C95.1182 26.9527 95.1237 26.955 95.1278 26.9591C95.1319 26.9632 95.1342 26.9687 95.1342 26.9745V32.2653C95.1342 32.271 95.1319 32.2766 95.1278 32.2806C95.1237 32.2847 95.1182 32.287 95.1124 32.287H94.513C94.5098 32.2871 94.5066 32.2864 94.5037 32.285C94.5008 32.2837 94.4982 32.2817 94.4962 32.2793L91.3124 28.3754C91.3096 28.3719 91.3057 28.3694 91.3013 28.3682C91.297 28.367 91.2924 28.3672 91.2881 28.3687C91.2839 28.3703 91.2802 28.3731 91.2777 28.3768C91.2751 28.3805 91.2738 28.3849 91.2738 28.3895V32.2653C91.2738 32.271 91.2715 32.2766 91.2674 32.2806C91.2634 32.2847 91.2578 32.287 91.2521 32.287H90.541C90.5353 32.287 90.5297 32.2847 90.5257 32.2806C90.5216 32.2766 90.5193 32.271 90.5193 32.2653V26.9745C90.5193 26.9687 90.5216 26.9632 90.5257 26.9591C90.5297 26.955 90.5353 26.9527 90.541 26.9527H91.1405C91.1437 26.9527 91.1468 26.9533 91.1497 26.9547C91.1527 26.956 91.1552 26.958 91.1573 26.9604L94.3411 30.8643C94.3439 30.8678 94.3478 30.8703 94.3521 30.8715C94.3565 30.8727 94.3611 30.8725 94.3653 30.871C94.3696 30.8694 94.3732 30.8666 94.3758 30.8629C94.3784 30.8592 94.3797 30.8548 94.3797 30.8503Z"
        fill="#D6D6D6" />
    <path
        d="M97.4946 26.9533H96.7914C96.777 26.9533 96.7654 26.965 96.7654 26.9793V32.2617C96.7654 32.276 96.777 32.2877 96.7914 32.2877H97.4946C97.509 32.2877 97.5206 32.276 97.5206 32.2617V26.9793C97.5206 26.965 97.509 26.9533 97.4946 26.9533Z"
        fill="#D6D6D6" />
    <path
        d="M52.8779 31.4221L54.243 28.244C54.2515 28.2253 54.2657 28.2159 54.2859 28.2159H54.9484C54.9793 28.2159 54.9887 28.2302 54.9765 28.2587C54.3738 29.6377 53.77 31.0155 53.1649 32.3921C52.9277 32.9312 52.7342 33.2781 52.5845 33.433C52.1058 33.9278 51.1295 34.0107 50.5448 33.4829C50.5275 33.4674 50.5245 33.4496 50.5357 33.4295L50.8171 32.9277C50.8312 32.9029 50.8492 32.8996 50.8712 32.9178C51.2341 33.2288 51.7338 33.3242 52.1086 32.9726C52.1994 32.8874 52.3112 32.6652 52.4441 32.3058C52.4522 32.2842 52.4514 32.2603 52.442 32.2391L50.6936 28.2629C50.6796 28.2316 50.6896 28.2159 50.7238 28.2159H51.4229C51.4477 28.2159 51.4652 28.2274 51.4755 28.2503L52.8512 31.4221C52.8524 31.4247 52.8543 31.4268 52.8566 31.4283C52.859 31.4298 52.8617 31.4306 52.8645 31.4306C52.8673 31.4306 52.8701 31.4298 52.8724 31.4283C52.8748 31.4268 52.8767 31.4247 52.8779 31.4221Z"
        fill="#D6D6D6" />
    <rect x="136.981" y="4.46155" width="41" height="28" rx="3" stroke="#D22627" stroke-width="2" />
    <path
        d="M144.845 22.4615V13.5815H146.477V21.0455H150.893V22.4615H144.845ZM152.486 22.4615V13.5815H154.118V22.4615H152.486ZM158.213 22.4615V14.9975H155.477V13.5815H162.581V14.9975H159.845V22.4615H158.213ZM163.935 22.4615V13.5815H169.887V14.9975H165.567V17.2535H169.347V18.6335H165.567V21.0455H169.947V22.4615H163.935Z"
        fill="#CDE1EE" />
</svg>