<svg width="27" height="33" viewBox="0 0 27 33" stroke="#9E9E9E" fill="none" xmlns="http://www.w3.org/2000/svg">
<path d="M16.7681 1.63403H4.76807C3.97242 1.63403 3.20935 1.9501 2.64675 2.51271C2.08414 3.07532 1.76807 3.83838 1.76807 4.63403V28.634C1.76807 29.4297 2.08414 30.1927 2.64675 30.7554C3.20935 31.318 3.97242 31.634 4.76807 31.634H22.7681C23.5637 31.634 24.3268 31.318 24.8894 30.7554C25.452 30.1927 25.7681 29.4297 25.7681 28.634V10.634M16.7681 1.63403L25.7681 10.634M16.7681 1.63403L16.7681 10.634H25.7681M19.7681 18.134H7.76807M19.7681 24.134H7.76807M10.7681 12.134H7.76807" stroke-width="2" stroke-linecap="round" stroke-linejoin="round"/>
</svg>
