<svg width="23" height="22" viewBox="0 0 23 22" fill="none" xmlns="http://www.w3.org/2000/svg">
    <path
        d="M3.27862 0C2.05076 0 1.05194 1.01785 1.05194 2.26896C1.05194 3.52007 2.05034 4.53785 3.27862 4.53785C4.50691 4.53785 5.50531 3.52007 5.50531 2.26896C5.50531 1.01785 4.50642 0 3.27862 0Z"
        fill="#90949D" />
    <path
        d="M11.9465 0C10.7187 0 9.71991 1.0178 9.71991 2.26885C9.71991 3.51991 10.7187 4.53764 11.9465 4.53764C13.1743 4.53764 14.1733 3.51991 14.1733 2.26885C14.1733 1.0178 13.1747 0 11.9465 0Z"
        fill="#90949D" />
    <path
        d="M20.7548 4.53792C21.9824 4.53792 22.9814 3.52014 22.9814 2.26903C22.9814 1.01792 21.9832 0 20.7548 0C19.5263 0 18.5281 1.01785 18.5281 2.26896C18.5281 3.52007 19.5271 4.53792 20.7548 4.53792Z"
        fill="#90949D" />
    <path
        d="M3.20823 13.282C4.43586 13.282 5.43481 12.2646 5.43481 11.0134C5.43481 9.76221 4.43586 8.74457 3.20823 8.74457C1.9806 8.74457 0.981445 9.76228 0.981445 11.0134C0.981445 12.2646 1.9806 13.282 3.20823 13.282Z"
        fill="#90949D" />
    <path
        d="M11.8766 13.2826C13.1042 13.2826 14.1033 12.2651 14.1033 11.0137C14.1033 9.76235 13.105 8.74457 11.8766 8.74457C10.6484 8.74457 9.6499 9.76235 9.6499 11.0137C9.6499 12.2651 10.6488 13.2826 11.8766 13.2826Z"
        fill="#90949D" />
    <path
        d="M20.6853 13.2825C21.9133 13.2825 22.9119 12.265 22.9119 11.0137C22.9119 9.76232 21.9133 8.74457 20.6853 8.74457C19.4572 8.74457 18.4578 9.76232 18.4578 11.0137C18.4578 12.265 19.4569 13.2825 20.6853 13.2825Z"
        fill="#90949D" />
    <path
        d="M3.26965 17.4622C2.04195 17.4622 1.04272 18.4796 1.04272 19.7309C1.04272 20.9817 2.04195 21.9997 3.26965 21.9997C4.49735 21.9997 5.49609 20.9822 5.49609 19.7309C5.49609 18.4796 4.49735 17.4622 3.26965 17.4622Z"
        fill="#90949D" />
    <path
        d="M11.9381 17.4622C10.7103 17.4622 9.71118 18.4796 9.71118 19.7309C9.71118 20.9817 10.71 21.9997 11.9381 21.9997C13.1656 21.9997 14.1645 20.9822 14.1645 19.7309C14.1645 18.4796 13.1656 17.4622 11.9381 17.4622Z"
        fill="#90949D" />
    <path
        d="M20.7463 17.4622C19.5187 17.4622 18.5196 18.4797 18.5196 19.7311C18.5196 20.982 19.5187 22 20.7463 22C21.9744 22 22.973 20.9825 22.973 19.7311C22.973 18.4797 21.9739 17.4622 20.7463 17.4622Z"
        fill="#90949D" />
</svg>