<?xml version="1.0" encoding="UTF-8"?>
<svg xmlns="http://www.w3.org/2000/svg" xmlns:xlink="http://www.w3.org/1999/xlink" width="20px" height="20px" viewBox="0 0 20 20" version="1.1" fill="#89939E">
<g id="surface1">
<path style=" stroke:none;fill-rule:nonzero;" d="M 14.480469 8.386719 L 14.480469 7.1875 C 14.480469 4.601562 12.375 2.5 9.792969 2.5 C 7.207031 2.5 5.105469 4.601562 5.105469 7.1875 L 5.105469 8.386719 C 4.546875 8.710938 4.167969 9.308594 4.167969 10 L 4.167969 15.625 C 4.167969 16.660156 5.007812 17.5 6.042969 17.5 L 13.542969 17.5 C 14.574219 17.5 15.417969 16.660156 15.417969 15.625 L 15.417969 10 C 15.417969 9.308594 15.035156 8.710938 14.480469 8.386719 Z M 9.792969 4.375 C 11.34375 4.375 12.605469 5.636719 12.605469 7.1875 L 12.605469 8.125 L 6.980469 8.125 L 6.980469 7.1875 C 6.980469 5.636719 8.242188 4.375 9.792969 4.375 Z M 10.730469 13.386719 L 10.730469 14.6875 L 8.855469 14.6875 L 8.855469 13.386719 C 8.570312 13.128906 8.386719 12.757812 8.386719 12.34375 C 8.386719 11.566406 9.015625 10.9375 9.792969 10.9375 C 10.566406 10.9375 11.199219 11.566406 11.199219 12.34375 C 11.199219 12.757812 11.015625 13.128906 10.730469 13.386719 Z M 10.730469 13.386719 "/>
</g>
</svg>
