<svg width="37" height="36" viewBox="0 0 37 36" fill="#9E9E9E" xmlns="http://www.w3.org/2000/svg">
<path d="M17.0199 31.0667C17.0199 31.5821 17.4378 32 17.9533 32H24.1C24.8426 32 25.5548 31.705 26.0799 31.1799C26.605 30.6548 26.9 29.9426 26.9 29.2V24.5333H28.7667C29.7568 24.5333 30.7064 24.14 31.4065 23.4399C32.1067 22.7397 32.5 21.7901 32.5 20.8C32.5 19.8099 32.1067 18.8603 31.4065 18.1601C30.7064 17.46 29.7568 17.0667 28.7667 17.0667H26.9V12.4C26.9 11.6574 26.605 10.9452 26.0799 10.4201C25.5548 9.895 24.8426 9.6 24.1 9.6H19.4333V7.73333C19.4333 6.74319 19.04 5.7936 18.3399 5.09347C17.6397 4.39333 16.6901 4 15.7 4C14.7099 4 13.7603 4.39333 13.0601 5.09347C12.36 5.7936 11.9667 6.74319 11.9667 7.73333V9.6H7.3C6.55739 9.6 5.8452 9.895 5.3201 10.4201C4.795 10.9452 4.5 11.6574 4.5 12.4V17.0667C4.5 17.5821 4.91787 18 5.43333 18C5.9488 18 6.36667 17.5821 6.36667 17.0667L6.36667 12.4C6.36667 12.1525 6.465 11.9151 6.64003 11.74C6.81507 11.565 7.05246 11.4667 7.3 11.4667H12.9C13.1475 11.4667 13.3849 11.3683 13.56 11.1933C13.735 11.0183 13.8333 10.7809 13.8333 10.5333V7.73333C13.8333 7.23826 14.03 6.76347 14.3801 6.4134C14.7301 6.06333 15.2049 5.86667 15.7 5.86667C16.1951 5.86667 16.6699 6.06333 17.0199 6.4134C17.37 6.76347 17.5667 7.23826 17.5667 7.73333V10.5333C17.5667 10.7809 17.665 11.0183 17.84 11.1933C18.0151 11.3683 18.2525 11.4667 18.5 11.4667H24.1C24.3475 11.4667 24.5849 11.565 24.76 11.74C24.935 11.9151 25.0333 12.1525 25.0333 12.4V18C25.0333 18.2475 25.1317 18.4849 25.3067 18.66C25.4817 18.835 25.7191 18.9333 25.9667 18.9333H28.7667C29.2617 18.9333 29.7365 19.13 30.0866 19.4801C30.4367 19.8301 30.6333 20.3049 30.6333 20.8C30.6333 21.2951 30.4367 21.7699 30.0866 22.1199C29.7365 22.47 29.2617 22.6667 28.7667 22.6667H25.9667C25.7191 22.6667 25.4817 22.765 25.3067 22.94C25.1317 23.1151 25.0333 23.3525 25.0333 23.6V29.2C25.0333 29.4475 24.935 29.6849 24.76 29.86C24.5849 30.035 24.3475 30.1333 24.1 30.1333H17.9533C17.4378 30.1333 17.0199 30.5512 17.0199 31.0667Z" />
<path d="M13.562 23.9685H11.7185V22.125C11.7185 21.5032 11.2148 21 10.5935 21C9.97223 21 9.46851 21.5032 9.46851 22.125V23.9685H7.625C7.00372 23.9685 6.5 24.4717 6.5 25.0935C6.5 25.7153 7.00372 26.2185 7.625 26.2185H9.46851V28.0609C9.46851 28.6827 9.97223 29.1859 10.5935 29.1859C11.2148 29.1859 11.7185 28.6827 11.7185 28.0609V26.2185H13.562C14.1833 26.2185 14.687 25.7153 14.687 25.0935C14.687 24.4717 14.1833 23.9685 13.562 23.9685Z" />
</svg>
