<svg width="16" height="16" viewBox="0 0 16 16" fill="none" xmlns="http://www.w3.org/2000/svg">
<path d="M13.4391 0.777344C12.3029 0.777344 11.3784 1.71604 11.3784 2.8699C11.3784 3.02336 11.3953 3.17293 11.4263 3.31711L8.78157 4.66006C8.40338 4.21598 7.84515 3.93407 7.22293 3.93407C6.08662 3.93407 5.16217 4.87277 5.16217 6.02664C5.16217 7.1805 6.08662 8.1192 7.22293 8.1192C7.38439 8.1192 7.54141 8.09962 7.69227 8.06379L8.95803 9.99213C8.53626 10.3756 8.27025 10.9322 8.27025 11.5509C8.27025 11.6697 8.28061 11.7861 8.29939 11.8995L4.53682 12.5364C4.28439 11.6704 3.49434 11.0367 2.56081 11.0367C1.4245 11.0367 0.5 11.9753 0.5 13.1291C0.5 14.2831 1.4245 15.2218 2.56081 15.2218C3.54722 15.2218 4.37359 14.5142 4.57455 13.5727L8.73192 12.869C9.11005 13.3411 9.68631 13.6434 10.331 13.6434C11.4674 13.6434 12.3919 12.7047 12.3919 11.5509C12.3919 10.397 11.4674 9.45835 10.331 9.45835C10.1695 9.45835 10.0125 9.47798 9.86172 9.51376L8.59596 7.58537C9.01773 7.20193 9.28369 6.64534 9.28369 6.02664C9.28369 5.87318 9.26687 5.72366 9.23586 5.57953L11.8806 4.23653C12.2587 4.68066 12.817 4.96257 13.4391 4.96257C14.5755 4.96257 15.5 4.02382 15.5 2.8699C15.5 1.71604 14.5755 0.777344 13.4391 0.777344ZM2.56081 14.1933C1.98328 14.1933 1.51348 13.716 1.51348 13.1291C1.51348 12.5425 1.98333 12.0651 2.56081 12.0651C3.13828 12.0651 3.60808 12.5425 3.60808 13.1291C3.60808 13.7159 3.13828 14.1933 2.56081 14.1933ZM11.3785 11.5509C11.3785 12.1376 10.9086 12.6149 10.331 12.6149C9.75349 12.6149 9.28374 12.1376 9.28374 11.5509C9.28374 10.9642 9.75354 10.4868 10.331 10.4868C10.9086 10.4868 11.3785 10.9642 11.3785 11.5509ZM6.17566 6.02664C6.17566 5.43991 6.64545 4.96257 7.22293 4.96257C7.8004 4.96257 8.2702 5.43991 8.2702 6.02664C8.2702 6.61336 7.8004 7.0907 7.22293 7.0907C6.64545 7.0907 6.17566 6.61336 6.17566 6.02664ZM13.4391 3.93407C12.8617 3.93407 12.3919 3.45668 12.3919 2.8699C12.3919 2.28318 12.8617 1.80584 13.4391 1.80584C14.0167 1.80584 14.4865 2.28313 14.4865 2.8699C14.4866 3.45663 14.0167 3.93407 13.4391 3.93407Z" fill="#F5F7FA"/>
</svg>
