<svg width="16" height="16" viewBox="0 0 16 16" fill="none" xmlns="http://www.w3.org/2000/svg">
<path d="M13.3747 11.2494C12.9857 11.2494 12.6223 11.356 12.3084 11.5391L4.46088 3.69161C4.64395 3.3777 4.75059 3.01428 4.75059 2.62529C4.75059 1.45343 3.79715 0.5 2.62529 0.5C1.45343 0.5 0.5 1.45343 0.5 2.62529C0.5 3.79715 1.45343 4.75059 2.62529 4.75059C3.01401 4.75059 3.3777 4.64395 3.69161 4.46088L11.5391 12.3084C11.356 12.6223 11.2494 12.986 11.2494 13.3747C11.2494 14.5466 12.2028 15.5 13.3747 15.5C14.5466 15.5 15.5 14.5466 15.5 13.3747C15.4997 12.2028 14.5463 11.2494 13.3747 11.2494ZM2.62529 3.66278C2.05323 3.66278 1.58808 3.19762 1.58808 2.62556C1.58808 2.05351 2.05323 1.58835 2.62529 1.58835C3.19735 1.58835 3.66251 2.05351 3.66251 2.62556C3.66251 3.19762 3.19708 3.66278 2.62529 3.66278ZM13.3747 14.4119C12.8026 14.4119 12.3375 13.9468 12.3375 13.3747C12.3375 12.8026 12.8029 12.3375 13.3747 12.3375C13.9465 12.3375 14.4119 12.8029 14.4119 13.3747C14.4119 13.9465 13.9465 14.4119 13.3747 14.4119Z" fill="#F5F7FA"/>
</svg>
