<svg width="16" height="18" viewBox="0 0 16 18" fill="none" xmlns="http://www.w3.org/2000/svg">
<path d="M8.22027 17.1729C7.62582 17.1729 7.03137 16.9491 6.5836 16.4936L3.31026 13.2202C2.407 12.317 2.407 10.8501 3.31026 9.94688L6.5836 6.67354C7.48686 5.77028 8.95369 5.77028 9.85695 6.67354L13.1303 9.94688C14.0336 10.8501 14.0336 12.317 13.1303 13.2202L9.85695 16.4936C9.40918 16.9413 8.81473 17.1729 8.22027 17.1729ZM7.67214 15.405C7.97323 15.7061 8.46732 15.7061 8.76068 15.405L12.034 12.1317C12.3351 11.8306 12.3351 11.3442 12.034 11.0354L8.76068 7.76208C8.4596 7.46099 7.97323 7.46099 7.67214 7.76208L4.3988 11.0354C4.09771 11.3365 4.09771 11.8229 4.3988 12.1317L7.67214 15.405Z" fill="#F5F7FA"/>
<path d="M14.983 6.95793C14.8981 6.98881 14.8132 7.00425 14.7282 7.00425C14.4117 7.00425 14.1106 6.80352 14.0026 6.487C13.1379 4.02427 10.7987 2.37216 8.18155 2.37216C6.2824 2.37216 4.5222 3.23681 3.3719 4.6882H3.58806C4.01267 4.6882 4.36008 5.03561 4.36008 5.46022C4.36008 5.88483 4.01267 6.23223 3.58806 6.23223H1.27202C0.847407 6.23223 0.5 5.88483 0.5 5.46022V3.14417C0.5 2.71956 0.847407 2.37216 1.27202 2.37216C1.69662 2.37216 2.04403 2.71956 2.04403 3.14417V3.87759C3.47998 1.97071 5.73426 0.828125 8.18155 0.828125C11.4549 0.828125 14.3731 2.89713 15.4539 5.97747C15.6006 6.37892 15.3845 6.81896 14.983 6.95793Z" fill="#F5F7FA"/>
</svg>
