<svg width="26" height="33" viewBox="0 0 26 33" fill="none" xmlns="http://www.w3.org/2000/svg">
<path d="M24.96 2.6L13.26 0C13.13 0 12.87 0 12.74 0L1.04 2.6C0.39 2.73 0 3.25 0 3.9V12.22C0 20.41 4.42 27.95 11.57 31.85C11.96 32.11 12.48 32.24 13 32.24C13.52 32.24 14.04 32.11 14.43 31.85C21.58 27.95 26 20.41 26 12.22V3.9C26 3.25 25.61 2.73 24.96 2.6Z" />
<path d="M12.7647 15.2402C14.9149 15.2402 16.6725 13.4825 16.6725 11.3324C16.6725 9.18221 14.9149 7.42456 12.7647 7.42456C10.6145 7.42456 8.85693 9.18221 8.85693 11.3324C8.85693 13.4825 10.6146 15.2402 12.7647 15.2402Z" fill="white"/>
<path d="M19.4715 18.363C19.3691 18.1071 19.2326 17.8682 19.079 17.6463C18.294 16.4859 17.0825 15.718 15.7173 15.5303C15.5467 15.5133 15.359 15.5474 15.2224 15.6498C14.5057 16.1788 13.6525 16.4518 12.7651 16.4518C11.8777 16.4518 11.0245 16.1788 10.3078 15.6498C10.1713 15.5474 9.98356 15.4962 9.81293 15.5303C8.44776 15.718 7.21912 16.4859 6.45122 17.6463C6.29763 17.8682 6.1611 18.1242 6.05874 18.363C6.00756 18.4654 6.02461 18.5849 6.07579 18.6873C6.21232 18.9262 6.38295 19.1651 6.53653 19.3699C6.77543 19.6941 7.0314 19.9842 7.32151 20.2572C7.56041 20.4961 7.83344 20.718 8.1065 20.9398C9.45458 21.9466 11.0757 22.4756 12.7481 22.4756C14.4204 22.4756 16.0415 21.9466 17.3896 20.9398C17.6627 20.735 17.9357 20.4961 18.1746 20.2572C18.4476 19.9842 18.7207 19.6941 18.9596 19.3699C19.1302 19.148 19.2838 18.9262 19.4203 18.6873C19.5056 18.5849 19.5227 18.4654 19.4715 18.363Z" fill="white"/>
</svg>
