<svg width="21" height="20" viewBox="0 0 21 20"  xmlns="http://www.w3.org/2000/svg">
<g id="Group 38325">
<path id="Vector" d="M19.5 3H1.5C1.23478 3 0.98043 3.10536 0.792893 3.29289C0.605357 3.48043 0.5 3.73478 0.5 4C0.5 4.26522 0.605357 4.51957 0.792893 4.70711C0.98043 4.89464 1.23478 5 1.5 5H3.5V17C3.50024 17.7956 3.81639 18.5585 4.37894 19.1211C4.9415 19.6836 5.70442 19.9998 6.5 20H14.5C15.2956 19.9998 16.0585 19.6836 16.6211 19.1211C17.1836 18.5585 17.4998 17.7956 17.5 17V5H19.5C19.7652 5 20.0196 4.89464 20.2071 4.70711C20.3946 4.51957 20.5 4.26522 20.5 4C20.5 3.73478 20.3946 3.48043 20.2071 3.29289C20.0196 3.10536 19.7652 3 19.5 3ZM9.5 14C9.5 14.2652 9.39464 14.5196 9.20711 14.7071C9.01957 14.8946 8.76522 15 8.5 15C8.23478 15 7.98043 14.8946 7.79289 14.7071C7.60536 14.5196 7.5 14.2652 7.5 14V9C7.5 8.73478 7.60536 8.48043 7.79289 8.29289C7.98043 8.10536 8.23478 8 8.5 8C8.76522 8 9.01957 8.10536 9.20711 8.29289C9.39464 8.48043 9.5 8.73478 9.5 9V14ZM13.5 14C13.5 14.2652 13.3946 14.5196 13.2071 14.7071C13.0196 14.8946 12.7652 15 12.5 15C12.2348 15 11.9804 14.8946 11.7929 14.7071C11.6054 14.5196 11.5 14.2652 11.5 14V9C11.5 8.73478 11.6054 8.48043 11.7929 8.29289C11.9804 8.10536 12.2348 8 12.5 8C12.7652 8 13.0196 8.10536 13.2071 8.29289C13.3946 8.48043 13.5 8.73478 13.5 9V14Z" />
<path id="Vector_2" d="M8.5 2H12.5C12.7652 2 13.0196 1.89464 13.2071 1.70711C13.3946 1.51957 13.5 1.26522 13.5 1C13.5 0.734784 13.3946 0.48043 13.2071 0.292893C13.0196 0.105357 12.7652 0 12.5 0H8.5C8.23478 0 7.98043 0.105357 7.79289 0.292893C7.60536 0.48043 7.5 0.734784 7.5 1C7.5 1.26522 7.60536 1.51957 7.79289 1.70711C7.98043 1.89464 8.23478 2 8.5 2Z" />
</g>
</svg>
