<svg width="26" height="32" viewBox="0 0 26 32" fill="none" xmlns="http://www.w3.org/2000/svg">
<path d="M5.24451 28.0029C3.54106 28.0029 2.15483 26.6162 2.15483 24.9127V6.16053C2.15483 4.45707 3.54106 3.07085 5.24451 3.07085H19.8296C21.5331 3.07085 22.9193 4.45707 22.9193 6.16053V20.381C22.9193 20.6788 23.0399 20.9482 23.2349 21.1431C23.4298 21.338 23.6992 21.4585 23.9967 21.4585C24.5917 21.4585 25.0741 20.9766 25.0741 20.381V6.16053C25.0741 3.26865 22.7215 0.916016 19.8296 0.916016H5.24451C2.35264 0.916016 0 3.26865 0 6.16053V24.9127C0 27.8051 2.35264 30.1577 5.24451 30.1577H15.2979C15.8929 30.1577 16.3753 29.6759 16.3753 29.0803C16.3753 28.7825 16.2547 28.5132 16.0597 28.3182C15.8647 28.1234 15.5954 28.0029 15.2979 28.0029H5.24451Z" fill="#979797"/>
<path d="M18.7882 14.459H6.2864C5.6914 14.459 5.20898 14.9414 5.20898 15.5364C5.20898 16.1314 5.6914 16.6138 6.2864 16.6138H18.7882C19.3832 16.6138 19.8656 16.1314 19.8656 15.5364C19.8656 14.9414 19.3832 14.459 18.7882 14.459Z" fill="#979797"/>
<path d="M18.7882 9.25H6.2864C5.6914 9.25 5.20898 9.73242 5.20898 10.3274C5.20898 10.9224 5.6914 11.4048 6.2864 11.4048H18.7882C19.3832 11.4048 19.8656 10.9224 19.8656 10.3274C19.8656 9.73242 19.3832 9.25 18.7882 9.25Z" fill="#979797"/>
<path d="M18.7882 19.668H6.2864C5.6914 19.668 5.20898 20.1499 5.20898 20.7454C5.20898 21.3409 5.6914 21.8228 6.2864 21.8228H18.7882C19.3832 21.8228 19.8656 21.3409 19.8656 20.7454C19.8656 20.1499 19.3832 19.668 18.7882 19.668Z" fill="#979797"/>
<path d="M21.1482 23.2304C20.9556 23.425 20.8359 23.6919 20.8359 23.9876V25.9204H18.9036C18.6075 25.9204 18.3397 26.0403 18.145 26.2336C18.1431 26.2354 18.1414 26.2371 18.1396 26.239C17.9462 26.4337 17.8262 26.7014 17.8262 26.9978C17.8262 27.5933 18.3086 28.0752 18.9036 28.0752H20.8359V30.007C20.8359 30.6025 21.3183 31.0844 21.9133 31.0844C22.5083 31.0844 22.9907 30.6025 22.9907 30.007V28.0752H24.9225C25.5175 28.0752 25.9999 27.5933 25.9999 26.9978C25.9999 26.4023 25.5175 25.9204 24.9225 25.9204H22.9907V23.9876C22.9907 23.392 22.5083 22.9102 21.9133 22.9102C21.6179 22.9102 21.351 23.0298 21.1563 23.2223C21.1536 23.225 21.1509 23.2276 21.1482 23.2304Z" fill="#979797"/>
</svg>
