<svg width="17" height="18" viewBox="0 0 17 18" fill="none" xmlns="http://www.w3.org/2000/svg">
<path d="M3.48771 10.35C3.33137 10.6166 3.38638 10.9836 3.60855 11.1687L3.94432 11.4484C3.39628 12.0826 2.66131 12.4414 1.89368 12.4414H0.977131V11.1719C0.977131 10.8483 0.758384 10.5859 0.488566 10.5859C0.218747 10.5859 0 10.8483 0 11.1719V17.1483C0 17.4719 0.218747 17.7342 0.488566 17.7342C0.758384 17.7342 0.977131 17.4719 0.977131 17.1483V15.9569H1.63937C3.39273 15.9569 5.1074 15.0727 6.32543 13.4315L6.81419 13.8386C7.03609 14.0245 7.34396 13.9563 7.49655 13.687L7.83138 13.0976L3.86781 9.70276L3.48771 10.35Z" fill="currentColor"/>
<path d="M16.4633 10.4022L16.2832 10.2545L12.5359 13.8455L13.6081 14.7712C13.8175 14.952 14.1103 14.9063 14.2736 14.6634L16.5679 11.2541C16.7477 10.9867 16.6977 10.5938 16.4633 10.4022Z" fill="currentColor"/>
<path d="M15.7046 8.35842L6.31017 0.222114C5.88821 -0.143425 5.30232 -0.0484274 4.97635 0.438203L1.88891 5.04689C1.5378 5.57114 1.62642 6.34358 2.08281 6.73447L10.394 13.8525C10.5716 14.0046 10.8121 13.9971 10.9829 13.8334L15.7235 9.29121C15.9754 9.04989 15.9667 8.58541 15.7046 8.35842ZM12.2466 9.39457C11.9768 9.39457 11.758 9.13223 11.758 8.80865C11.758 8.48506 11.9768 8.22272 12.2466 8.22272C12.5164 8.22272 12.7352 8.48506 12.7352 8.80865C12.7352 9.13223 12.5164 9.39457 12.2466 9.39457Z" fill="currentColor"/>
</svg>
