<svg width="37" height="36" viewBox="0 0 37 36" fill="#9E9E9E" xmlns="http://www.w3.org/2000/svg">
<path fill-rule="evenodd" clip-rule="evenodd" d="M14.1987 16.4432V19.3269C14.1987 20.1877 14.5405 21.0124 15.1489 21.6209C15.7574 22.2293 16.5821 22.5711 17.4429 22.5711H20.3266C21.1874 22.5711 22.0122 22.2293 22.6206 21.6209C23.2291 21.0124 23.5708 20.1877 23.5708 19.3269V16.4432C23.5708 15.5824 23.2291 14.7576 22.6206 14.1492C22.0122 13.5407 21.1874 13.199 20.3266 13.199H17.4429C16.5821 13.199 15.7574 13.5407 15.1489 14.1492C14.5405 14.7576 14.1987 15.5824 14.1987 16.4432ZM16.3615 16.4432C16.3615 16.1562 16.4754 15.8808 16.6787 15.679C16.8806 15.4757 17.156 15.3618 17.4429 15.3618H20.3266C20.6136 15.3618 20.889 15.4757 21.0908 15.679C21.2941 15.8808 21.408 16.1562 21.408 16.4432V19.3269C21.408 19.6138 21.2941 19.8892 21.0908 20.0911C20.889 20.2944 20.6136 20.4083 20.3266 20.4083H17.4429C17.156 20.4083 16.8806 20.2944 16.6787 20.0911C16.4754 19.8892 16.3615 19.6138 16.3615 19.3269V16.4432Z" />
<path fill-rule="evenodd" clip-rule="evenodd" d="M3.38477 5.6292V8.51292C3.38477 9.37371 3.72649 10.1985 4.33495 10.8069C4.94342 11.4154 5.76816 11.7571 6.62895 11.7571H9.51267C10.3735 11.7571 11.1982 11.4154 11.8067 10.8069C12.4151 10.1985 12.7569 9.37371 12.7569 8.51292V5.6292C12.7569 4.7684 12.4151 3.94366 11.8067 3.3352C11.1982 2.72673 10.3735 2.38501 9.51267 2.38501H6.62895C5.76816 2.38501 4.94342 2.72673 4.33495 3.3352C3.72649 3.94366 3.38477 4.7684 3.38477 5.6292ZM5.54756 5.6292C5.54756 5.34227 5.66146 5.06687 5.86477 4.86501C6.06663 4.66171 6.34202 4.5478 6.62895 4.5478H9.51267C9.7996 4.5478 10.075 4.66171 10.2769 4.86501C10.4802 5.06687 10.5941 5.34227 10.5941 5.6292V8.51292C10.5941 8.79985 10.4802 9.07524 10.2769 9.2771C10.075 9.4804 9.7996 9.59431 9.51267 9.59431H6.62895C6.34202 9.59431 6.06663 9.4804 5.86477 9.2771C5.66146 9.07524 5.54756 8.79985 5.54756 8.51292V5.6292Z" />
<path fill-rule="evenodd" clip-rule="evenodd" d="M25.0127 27.2571V30.1408C25.0127 31.0016 25.3544 31.8264 25.9629 32.4348C26.5713 33.0433 27.3961 33.385 28.2569 33.385H31.1406C32.0014 33.385 32.8261 33.0433 33.4346 32.4348C34.0431 31.8264 34.3848 31.0016 34.3848 30.1408V27.2571C34.3848 26.3963 34.0431 25.5716 33.4346 24.9631C32.8261 24.3547 32.0014 24.0129 31.1406 24.0129H28.2569C27.3961 24.0129 26.5713 24.3547 25.9629 24.9631C25.3544 25.5716 25.0127 26.3963 25.0127 27.2571ZM27.1755 27.2571C27.1755 26.9702 27.2894 26.6948 27.4927 26.4929C27.6946 26.2896 27.97 26.1757 28.2569 26.1757H31.1406C31.4275 26.1757 31.7029 26.2896 31.9048 26.4929C32.1081 26.6948 32.222 26.9702 32.222 27.2571V30.1408C32.222 30.4278 32.1081 30.7032 31.9048 30.905C31.7029 31.1083 31.4275 31.2222 31.1406 31.2222H28.2569C27.97 31.2222 27.6946 31.1083 27.4927 30.905C27.2894 30.7032 27.1755 30.4278 27.1755 30.1408V27.2571Z" />
<path fill-rule="evenodd" clip-rule="evenodd" d="M11.6756 8.15229H30.4198C30.8985 8.15229 31.3556 8.34262 31.6944 8.68001C32.0318 9.01885 32.2221 9.47592 32.2221 9.95462V15.0011C32.2221 15.4798 32.0318 15.9369 31.6944 16.2757C31.3556 16.6131 30.8985 16.8035 30.4198 16.8035H26.0942C25.4973 16.8035 25.0128 17.2879 25.0128 17.8849C25.0128 18.4818 25.4973 18.9662 26.0942 18.9662H30.4198C31.4709 18.9662 32.4802 18.5481 33.2242 17.8055C33.9668 17.0615 34.3849 16.0522 34.3849 15.0011C34.3849 13.4396 34.3849 11.5162 34.3849 9.95462C34.3849 8.9035 33.9668 7.8942 33.2242 7.1502C32.4802 6.40764 31.4709 5.9895 30.4198 5.9895C24.5313 5.9895 11.6756 5.9895 11.6756 5.9895C11.0787 5.9895 10.5942 6.47397 10.5942 7.0709C10.5942 7.66783 11.0787 8.15229 11.6756 8.15229Z" />
<path fill-rule="evenodd" clip-rule="evenodd" d="M20.3266 27.6174H7.34988C6.87118 27.6174 6.41411 27.4271 6.07528 27.0897C5.73788 26.7509 5.54756 26.2938 5.54756 25.8151C5.54756 24.2536 5.54756 22.3301 5.54756 20.7686C5.54756 20.2899 5.73788 19.8328 6.07528 19.494C6.41411 19.1566 6.87118 18.9663 7.34988 18.9663H15.2801C15.877 18.9663 16.3615 18.4818 16.3615 17.8849C16.3615 17.2879 15.877 16.8035 15.2801 16.8035H7.34988C6.29877 16.8035 5.28946 17.2216 4.54546 17.9642C3.80291 18.7082 3.38477 19.7175 3.38477 20.7686V25.8151C3.38477 26.8662 3.80291 27.8755 4.54546 28.6195C5.28946 29.3621 6.29877 29.7802 7.34988 29.7802H20.3266C20.9236 29.7802 21.408 29.2957 21.408 28.6988C21.408 28.1019 20.9236 27.6174 20.3266 27.6174Z" />
<path fill-rule="evenodd" clip-rule="evenodd" d="M29.7421 20.0045L27.624 17.8849L29.7421 15.7654C30.1646 15.3444 30.1646 14.658 29.7421 14.237C29.3211 13.8145 28.6348 13.8145 28.2138 14.237L25.33 17.1207C24.9076 17.5432 24.9076 18.2266 25.33 18.6491L28.2138 21.5328C28.6348 21.9553 29.3211 21.9553 29.7421 21.5328C30.1646 21.1118 30.1646 20.4255 29.7421 20.0045Z" />
<path fill-rule="evenodd" clip-rule="evenodd" d="M19.6489 32.3468L22.5327 29.4631C22.9551 29.0406 22.9551 28.3572 22.5327 27.9347L19.6489 25.051C19.2279 24.6285 18.5416 24.6285 18.1206 25.051C17.6981 25.472 17.6981 26.1583 18.1206 26.5794L20.2387 28.6989L18.1206 30.8184C17.6981 31.2394 17.6981 31.9258 18.1206 32.3468C18.5416 32.7693 19.2279 32.7693 19.6489 32.3468Z" />
</svg>
