<svg width="56" height="48" viewBox="0 0 56 48" fill="none" xmlns="http://www.w3.org/2000/svg">
<path d="M28.0002 16.3809C20.386 16.3809 14.214 22.553 14.214 30.167V44.9388H41.7861V30.167C41.7861 22.553 35.614 16.3809 28.0002 16.3809Z" fill="#F74C48"/>
<path d="M32.778 17.2317C31.2894 16.6817 29.6799 16.3808 28.0002 16.3808C20.386 16.3808 14.214 22.5529 14.214 30.1669V44.9388H23.77V30.167C23.77 24.2329 27.5191 19.1749 32.778 17.2317Z" fill="#D63322"/>
<path d="M9.18006 29.7879H1.61077C0.721328 29.7879 0 29.0668 0 28.1771C0 27.2875 0.721328 26.5664 1.61077 26.5664H9.17995C10.0695 26.5664 10.7907 27.2876 10.7907 28.1771C10.7908 29.0668 10.0695 29.7879 9.18006 29.7879ZM54.3892 29.7879H46.8202C45.9304 29.7879 45.2094 29.0668 45.2094 28.1772C45.2094 27.2876 45.9305 26.5665 46.8202 26.5665H54.3891C55.2789 26.5665 55.9999 27.2877 55.9999 28.1772C56 29.0668 55.2789 29.7879 54.3892 29.7879ZM47.7992 10.6559L42.4469 16.0082C41.8177 16.6373 40.7979 16.6373 40.1691 16.0082C39.5397 15.3792 39.5397 14.3594 40.1691 13.7302L45.5212 8.37797C46.1502 7.74884 47.17 7.74895 47.7992 8.37797C48.4282 9.00709 48.4282 10.0269 47.7992 10.6559ZM29.6109 1.7878V9.3571C29.6109 10.2468 28.8894 10.9679 28.0001 10.9679C27.1105 10.9678 26.3893 10.2468 26.3893 9.3571V1.7878C26.3893 0.898251 27.1106 0.177251 28.0001 0.177032C28.8895 0.177251 29.6109 0.898251 29.6109 1.7878ZM10.479 8.37797L15.8312 13.7302C16.4602 14.3594 16.4602 15.3793 15.8312 16.0082C15.2019 16.6372 14.1822 16.6373 13.5533 16.0082L8.20105 10.6559C7.57181 10.027 7.57203 9.00709 8.20105 8.37797C8.82995 7.74906 9.84987 7.74906 10.479 8.37797Z" fill="#C6271A"/>
<path d="M44.2069 47.8231H11.7931C10.9036 47.8231 10.1824 47.1018 10.1824 46.2123C10.1824 45.3228 10.9037 44.6015 11.7931 44.6015H44.207C45.0965 44.6015 45.8176 45.3228 45.8176 46.2123C45.8176 47.1018 45.0964 47.8231 44.2069 47.8231Z" fill="#374F68"/>
<path d="M44.2069 46.2123H11.7932C11.1974 46.2123 10.6784 45.8879 10.3997 45.4069C9.77882 46.4785 10.5545 47.8231 11.7932 47.8231H44.207C45.4432 47.8231 46.2225 46.4808 45.6004 45.4069C45.3218 45.8879 44.8027 46.2123 44.2069 46.2123Z" fill="#425B72"/>
</svg>
