<svg width="18" height="17" viewBox="0 0 18 17" xmlns="http://www.w3.org/2000/svg" fill="white">
<g id="Group">
<g id="Vector">
<path fill-rule="evenodd" clip-rule="evenodd" d="M8.99996 0.715881C9.72387 0.715881 10.3735 1.09001 10.7361 1.71782L17.699 13.7776C17.8769 14.0815 17.9707 14.4273 17.9707 14.7795C17.9707 15.1317 17.8769 15.4775 17.699 15.7815C17.5247 16.0877 17.272 16.342 16.9669 16.5182C16.6618 16.6944 16.3153 16.7861 15.9629 16.784H2.03829C1.68596 16.7861 1.33942 16.6944 1.0343 16.5182C0.729177 16.342 0.476486 16.0877 0.302198 15.7815C0.12429 15.4775 0.0305176 15.1317 0.0305176 14.7795C0.0305176 14.4273 0.12429 14.0815 0.302198 13.7776L7.26387 1.71782C7.62646 1.09065 8.27606 0.715881 8.99996 0.715881ZM15.826 14.9542C15.9287 14.895 16.0136 14.8093 16.0719 14.7061C16.1304 14.6046 16.248 14.3365 16.0719 14.0321L9.58382 2.79377C9.40831 2.4899 9.11758 2.45707 9.00057 2.45707C8.88356 2.45707 8.59282 2.4899 8.41731 2.79377L1.92806 14.0321C1.86771 14.1341 1.83587 14.2505 1.83587 14.3691C1.83587 14.4876 1.86771 14.604 1.92806 14.7061C1.98636 14.8093 2.07129 14.895 2.17398 14.9542C2.27667 15.0134 2.39337 15.044 2.51191 15.0428H15.488C15.6066 15.044 15.7233 15.0134 15.826 14.9542Z"/>
<path d="M9.01416 12.2188H9.00635C8.5751 12.2188 8.229 12.5688 8.229 13.0001C8.229 13.4313 8.58291 13.7813 9.01416 13.7813C9.22136 13.7813 9.42007 13.699 9.56659 13.5525C9.7131 13.406 9.79541 13.2073 9.79541 13.0001C9.79541 12.7929 9.7131 12.5941 9.56659 12.4476C9.42007 12.3011 9.22136 12.2188 9.01416 12.2188ZM8.99854 11.1274C9.20574 11.1274 9.40445 11.0451 9.55096 10.8986C9.69748 10.7521 9.77979 10.5534 9.77979 10.3462V5.78131C9.77979 5.57411 9.69748 5.3754 9.55096 5.22888C9.40445 5.08237 9.20574 5.00006 8.99854 5.00006C8.79134 5.00006 8.59262 5.08237 8.44611 5.22888C8.2996 5.3754 8.21729 5.57411 8.21729 5.78131V10.3462C8.21729 10.5534 8.2996 10.7521 8.44611 10.8986C8.59262 11.0451 8.79134 11.1274 8.99854 11.1274Z"/>
</g>
</g>
</svg>
