<svg width="25" height="25" viewBox="0 0 25 25" fill="none" xmlns="http://www.w3.org/2000/svg">
<g id="align-justify">
<g id="Group 8190">
<path id="Vector" d="M16.6758 18.4821C16.6758 19.0443 16.2728 19.5 15.7758 19.5H4.07578C3.57874 19.5 3.17578 19.0443 3.17578 18.4821C3.17578 17.92 3.57874 17.4643 4.07578 17.4643H15.7758C16.2728 17.4643 16.6758 17.9201 16.6758 18.4821ZM4.07578 13.3929H20.2758C20.7728 13.3929 21.1758 12.9371 21.1758 12.375C21.1758 11.8129 20.7728 11.3571 20.2758 11.3571H4.07578C3.57874 11.3571 3.17578 11.8129 3.17578 12.375C3.17578 12.9371 3.57874 13.3929 4.07578 13.3929ZM4.07578 7.28571H12.1758C12.6728 7.28571 13.0758 6.82999 13.0758 6.26786C13.0758 5.70577 12.6728 5.25 12.1758 5.25H4.07578C3.57874 5.25 3.17578 5.70577 3.17578 6.26786C3.17578 6.82999 3.57874 7.28571 4.07578 7.28571Z" fill="#D6D6D6"/>
</g>
</g>
</svg>
