<svg width="54" height="29" viewBox="0 0 54 29" fill="none" xmlns="http://www.w3.org/2000/svg">
<path d="M51.375 0.666656H2.37499C1.08633 0.666656 0.0416565 1.71133 0.0416565 2.99999V26.3333C0.0416565 27.622 1.08633 28.6667 2.37499 28.6667H51.375C52.6637 28.6667 53.7083 27.622 53.7083 26.3333V2.99999C53.7083 1.71133 52.6637 0.666656 51.375 0.666656Z" fill="#DAD7E5"/>
<path d="M53.7083 2.99999V26.3333H28.0417C21.2401 26.3148 14.7224 23.6048 9.913 18.7953C5.10357 13.9859 2.39347 7.4682 2.375 0.666656H51.375C51.9938 0.666656 52.5873 0.91249 53.0249 1.35007C53.4625 1.78766 53.7083 2.38115 53.7083 2.99999Z" fill="#E1E6F0"/>
<path d="M10.5416 5.33331H8.20831C7.28006 5.33331 6.38982 5.70206 5.73344 6.35844C5.07706 7.01482 4.70831 7.90506 4.70831 8.83331V13.5C4.70831 14.4282 5.07706 15.3185 5.73344 15.9749C6.38982 16.6312 7.28006 17 8.20831 17H10.5416C11.4699 17 12.3601 16.6312 13.0165 15.9749C13.6729 15.3185 14.0416 14.4282 14.0416 13.5V8.83331C14.0416 7.90506 13.6729 7.01482 13.0165 6.35844C12.3601 5.70206 11.4699 5.33331 10.5416 5.33331ZM8.20831 7.66665H10.5416L7.04165 12.3333V8.83331C7.04165 8.52389 7.16456 8.22715 7.38336 8.00835C7.60215 7.78956 7.89889 7.66665 8.20831 7.66665ZM10.5416 14.6666H8.20831L11.7083 9.99998V13.5C11.7083 13.8094 11.5854 14.1061 11.3666 14.3249C11.1478 14.5437 10.8511 14.6666 10.5416 14.6666ZM33.875 5.33331H31.5416C30.6134 5.33331 29.7232 5.70206 29.0668 6.35844C28.4104 7.01482 28.0416 7.90506 28.0416 8.83331V13.5C28.0416 14.4282 28.4104 15.3185 29.0668 15.9749C29.7232 16.6312 30.6134 17 31.5416 17H33.875C34.8032 17 35.6935 16.6312 36.3499 15.9749C37.0062 15.3185 37.375 14.4282 37.375 13.5V8.83331C37.375 7.90506 37.0062 7.01482 36.3499 6.35844C35.6935 5.70206 34.8032 5.33331 33.875 5.33331ZM31.5416 7.66665H33.875L30.375 12.3333V8.83331C30.375 8.52389 30.4979 8.22715 30.7167 8.00835C30.9355 7.78956 31.2322 7.66665 31.5416 7.66665ZM33.875 14.6666H31.5416L35.0416 9.99998V13.5C35.0416 13.8094 34.9187 14.1061 34.6999 14.3249C34.4811 14.5437 34.1844 14.6666 33.875 14.6666ZM19.875 12.3333H23.375V15.8333C23.375 16.1427 23.4979 16.4395 23.7167 16.6583C23.9355 16.8771 24.2322 17 24.5416 17C24.8511 17 25.1478 16.8771 25.3666 16.6583C25.5854 16.4395 25.7083 16.1427 25.7083 15.8333V6.49998C25.7083 6.19056 25.5854 5.89381 25.3666 5.67502C25.1478 5.45623 24.8511 5.33331 24.5416 5.33331C24.2322 5.33331 23.9355 5.45623 23.7167 5.67502C23.4979 5.89381 23.375 6.19056 23.375 6.49998V9.99998H19.875C19.5656 9.99998 19.2688 9.87706 19.05 9.65827C18.8312 9.43948 18.7083 9.14273 18.7083 8.83331V6.49998C18.7083 6.19056 18.5854 5.89381 18.3666 5.67502C18.1478 5.45623 17.8511 5.33331 17.5416 5.33331C17.2322 5.33331 16.9355 5.45623 16.7167 5.67502C16.4979 5.89381 16.375 6.19056 16.375 6.49998V8.83331C16.375 9.76157 16.7437 10.6518 17.4001 11.3082C18.0565 11.9646 18.9467 12.3333 19.875 12.3333ZM46.7083 9.99998H42.0416V7.66665H47.875C48.1844 7.66665 48.4811 7.54373 48.6999 7.32494C48.9187 7.10615 49.0416 6.8094 49.0416 6.49998C49.0416 6.19056 48.9187 5.89381 48.6999 5.67502C48.4811 5.45623 48.1844 5.33331 47.875 5.33331H42.0416C41.4228 5.33331 40.8293 5.57915 40.3917 6.01673C39.9541 6.45432 39.7083 7.04781 39.7083 7.66665V9.99998C39.7083 10.6188 39.9541 11.2123 40.3917 11.6499C40.8293 12.0875 41.4228 12.3333 42.0416 12.3333H46.7083V14.6666H40.875C40.5656 14.6666 40.2688 14.7896 40.05 15.0084C39.8312 15.2271 39.7083 15.5239 39.7083 15.8333C39.7083 16.1427 39.8312 16.4395 40.05 16.6583C40.2688 16.8771 40.5656 17 40.875 17H46.7083C47.3272 17 47.9207 16.7541 48.3582 16.3166C48.7958 15.879 49.0416 15.2855 49.0416 14.6666V12.3333C49.0416 11.7145 48.7958 11.121 48.3582 10.6834C47.9207 10.2458 47.3272 9.99998 46.7083 9.99998ZM29.2083 21.6666H24.5416C24.2322 21.6666 23.9355 21.7896 23.7167 22.0084C23.4979 22.2271 23.375 22.5239 23.375 22.8333C23.375 23.1427 23.4979 23.4395 23.7167 23.6583C23.9355 23.8771 24.2322 24 24.5416 24H29.2083C29.5177 24 29.8145 23.8771 30.0333 23.6583C30.2521 23.4395 30.375 23.1427 30.375 22.8333C30.375 22.5239 30.2521 22.2271 30.0333 22.0084C29.8145 21.7896 29.5177 21.6666 29.2083 21.6666ZM19.0466 20.8383L18.7083 21.1883L18.37 20.8383C18.1503 20.6186 17.8523 20.4952 17.5416 20.4952C17.231 20.4952 16.933 20.6186 16.7133 20.8383C16.4936 21.058 16.3702 21.356 16.3702 21.6666C16.3702 21.9773 16.4936 22.2753 16.7133 22.495L17.0633 22.8333L16.7133 23.1716C16.4936 23.3913 16.3702 23.6893 16.3702 24C16.3702 24.3107 16.4936 24.6086 16.7133 24.8283C16.933 25.048 17.231 25.1714 17.5416 25.1714C17.8523 25.1714 18.1503 25.048 18.37 24.8283L18.7083 24.4783L19.0466 24.8283C19.2663 25.048 19.5643 25.1714 19.875 25.1714C20.1857 25.1714 20.4836 25.048 20.7033 24.8283C20.923 24.6086 21.0464 24.3107 21.0464 24C21.0464 23.6893 20.923 23.3913 20.7033 23.1716L20.3533 22.8333L20.7033 22.495C20.923 22.2753 21.0464 21.9773 21.0464 21.6666C21.0464 21.356 20.923 21.058 20.7033 20.8383C20.4836 20.6186 20.1857 20.4952 19.875 20.4952C19.5643 20.4952 19.2663 20.6186 19.0466 20.8383ZM35.38 20.8383L35.0416 21.1883L34.7033 20.8383C34.5945 20.7295 34.4654 20.6432 34.3233 20.5844C34.1811 20.5255 34.0288 20.4952 33.875 20.4952C33.7211 20.4952 33.5688 20.5255 33.4267 20.5844C33.2846 20.6432 33.1554 20.7295 33.0466 20.8383C32.9379 20.9471 32.8516 21.0762 32.7927 21.2184C32.7338 21.3605 32.7035 21.5128 32.7035 21.6666C32.7035 21.8205 32.7338 21.9728 32.7927 22.1149C32.8516 22.2571 32.9379 22.3862 33.0466 22.495L33.3966 22.8333L33.0466 23.1716C32.827 23.3913 32.7035 23.6893 32.7035 24C32.7035 24.3107 32.827 24.6086 33.0466 24.8283C33.2663 25.048 33.5643 25.1714 33.875 25.1714C34.1857 25.1714 34.4836 25.048 34.7033 24.8283L35.0416 24.4783L35.38 24.8283C35.5997 25.048 35.8976 25.1714 36.2083 25.1714C36.519 25.1714 36.817 25.048 37.0366 24.8283C37.2563 24.6086 37.3798 24.3107 37.3798 24C37.3798 23.6893 37.2563 23.3913 37.0366 23.1716L36.6866 22.8333L37.0366 22.495C37.2563 22.2753 37.3798 21.9773 37.3798 21.6666C37.3798 21.356 37.2563 21.058 37.0366 20.8383C36.817 20.6186 36.519 20.4952 36.2083 20.4952C35.8976 20.4952 35.5997 20.6186 35.38 20.8383Z" fill="#425B72"/>
</svg>
