<svg xmlns="http://www.w3.org/2000/svg" width="21" height="20" viewBox="0 0 21 20" fill="#F5F7FA">
<path d="M16.5245 5.30078H4.47629C3.27147 5.30078 2.30762 6.26464 2.30762 7.46946V17.8309C2.30762 19.0357 3.27147 19.9996 4.47629 19.9996H16.5245C17.7293 19.9996 18.6932 19.0357 18.6932 17.8309V7.46946C18.6932 6.26464 17.7293 5.30078 16.5245 5.30078ZM13.9462 11.1562C13.9462 11.5658 13.6329 11.8791 13.2233 11.8791H7.7775C7.36786 11.8791 7.05461 11.5658 7.05461 11.1562V9.32488C7.05461 8.91524 7.36786 8.60199 7.7775 8.60199C8.18713 8.60199 8.50039 8.91524 8.50039 9.32488V10.4333H12.5004V9.32488C12.5004 8.91524 12.8136 8.60199 13.2233 8.60199C13.6329 8.60199 13.9462 8.91524 13.9462 9.32488V11.1562Z" />
<path d="M16.524 2.65137H4.47582C4.06618 2.65137 3.75293 2.96462 3.75293 3.37426C3.75293 3.7839 4.06618 4.09715 4.47582 4.09715H16.524C16.9337 4.09715 17.2469 3.7839 17.2469 3.37426C17.2469 2.96462 16.9337 2.65137 16.524 2.65137Z" />
<path d="M15.3195 0H5.6809C5.27126 0 4.95801 0.313253 4.95801 0.722891C4.95801 1.13253 5.27126 1.44578 5.6809 1.44578H15.3195C15.7291 1.44578 16.0423 1.13253 16.0423 0.722891C16.0423 0.313253 15.7291 0 15.3195 0Z" />
</svg>