<svg width="48" height="36" viewBox="0 0 48 36" fill="#888888" xmlns="http://www.w3.org/2000/svg">
<g id="001-big truck">
<g id="Layer_x0020_1">
<path id="Vector" fill-rule="evenodd" clip-rule="evenodd" d="M27.7795 28.6156H15.7689C15.7868 28.4064 15.7966 28.1947 15.7966 27.9807C15.7966 24.0907 12.7595 20.9271 9.02507 20.9271C5.29053 20.9271 2.25344 24.0905 2.25344 27.9807C2.25344 28.1947 2.26319 28.4064 2.28112 28.6156H0.609342C0.272836 28.6156 0 28.3314 0 27.9808V15.6192C0 15.2687 0.272836 14.9845 0.609342 14.9845H27.6752V27.9807C27.6752 28.2033 27.7121 28.4169 27.7795 28.6156Z"/>
<path id="Vector_2" fill-rule="evenodd" clip-rule="evenodd" d="M47.3898 28.6155H45.7183C45.7362 28.4064 45.7459 28.1947 45.7459 27.9808C45.7459 24.0907 42.7089 20.9271 38.9744 20.9271C35.24 20.9271 32.203 24.0907 32.203 27.9808C32.203 28.1947 32.2128 28.4064 32.2307 28.6155H29.503C29.1664 28.6155 28.8936 28.3314 28.8936 27.9808V4.86996C28.8936 4.51932 29.1664 4.23512 29.503 4.23512H36.5259V16.7839C36.5259 17.1345 36.7986 17.4187 37.1352 17.4187H47.9993V27.9808C47.9992 28.3313 47.7263 28.6155 47.3898 28.6155ZM37.7446 4.23511H42.9579C43.1662 4.23511 43.3599 4.34584 43.4718 4.52889L47.9038 11.7771C47.9662 11.879 47.9993 11.9973 47.9993 12.1181V16.1492H37.7446L37.7446 4.23511Z"/>
<path id="Vector_3" fill-rule="evenodd" clip-rule="evenodd" d="M38.9746 33.7648C35.9127 33.7648 33.4219 31.1701 33.4219 27.9806C33.4219 24.7912 35.9127 22.1964 38.9746 22.1964C42.0365 22.1964 44.5274 24.7912 44.5274 27.9806C44.5274 31.1701 42.0366 33.7648 38.9746 33.7648ZM38.9746 31.3604C37.1857 31.3604 35.7301 29.8442 35.7301 27.9806C35.7301 26.1169 37.1857 24.6008 38.9746 24.6008C40.7636 24.6008 42.2189 26.1169 42.2189 27.9806C42.2189 29.8442 40.7636 31.3604 38.9746 31.3604ZM38.9746 25.8704C37.8576 25.8704 36.9489 26.817 36.9489 27.9806C36.9489 29.1442 37.8576 30.0909 38.9746 30.0909C40.0915 30.0909 41.0003 29.1442 41.0003 27.9806C41.0003 26.817 40.0915 25.8704 38.9746 25.8704Z"/>
<path id="Vector_4" fill-rule="evenodd" clip-rule="evenodd" d="M9.02462 33.7647C5.96264 33.7647 3.47168 31.1699 3.47168 27.9805C3.47168 24.791 5.96263 22.1963 9.02462 22.1963C12.0865 22.1963 14.5774 24.791 14.5774 27.9805C14.5774 31.1699 12.0864 33.7647 9.02462 33.7647ZM9.02462 31.3602C7.23546 31.3602 5.78005 29.8441 5.78005 27.9805C5.78005 26.1168 7.23547 24.6007 9.02462 24.6007C10.8137 24.6007 12.2691 26.1168 12.2691 27.9805C12.2691 29.8441 10.8137 31.3602 9.02462 31.3602ZM9.02462 25.8703C7.90747 25.8703 6.99883 26.8169 6.99883 27.9805C6.99883 29.144 7.90758 30.0908 9.02462 30.0908C10.1416 30.0908 11.0504 29.144 11.0504 27.9805C11.0504 26.8169 10.1415 25.8703 9.02462 25.8703Z"/>
<path id="Vector_5" fill-rule="evenodd" clip-rule="evenodd" d="M7.19238 13.7149L8.56675 11.232C8.67559 11.0354 8.87679 10.9143 9.09459 10.9143H21.017C21.2349 10.9143 21.4362 11.0354 21.545 11.232L22.9193 13.7149H7.19238Z"/>
</g>
</g>
</svg>
