<svg width="65" height="65" viewBox="0 0 65 65" fill="none" xmlns="http://www.w3.org/2000/svg">
<g id="Frame">
<g id="Group">
<path id="Vector" d="M59.2816 16.0605L58.911 19.1257L57.5805 17.7784C52.7872 19.8819 41.4138 18.255 37.9426 14.9657L36.6963 16.2289L37.0668 13.1636C37.2184 11.9847 38.9194 11.1257 41.4626 10.7384C45.7708 10.1135 51.7296 10.8647 55.8121 12.6584C58.0858 13.6689 59.4331 14.8984 59.2816 16.0605Z" fill="#1D2943"/>
<path id="Vector_2" d="M45.4037 10.5363V14.8142H41.4626V10.7384C42.6248 10.57 43.9721 10.4858 45.4037 10.5363ZM55.8121 12.6584V16.6331H51.8711V11.3616C53.37 11.7152 54.7005 12.17 55.8121 12.6584Z" fill="#081633"/>
<path id="Vector_3" d="M58.8984 19.0893C59.1733 16.9723 54.4198 14.6099 48.2811 13.8126C42.1425 13.0153 36.9432 14.0851 36.6682 16.2021C36.3933 18.319 41.1468 20.6815 47.2855 21.4788C53.4242 22.276 58.6234 21.2062 58.8984 19.0893Z" fill="#40495D"/>
<path id="Vector_4" d="M7.90471 32.6702L22.2323 29.0239L16.3325 25.0525L7.90471 24.7241C7.90471 24.7241 5.93082 25.9822 5.58387 27.5755C5.23861 29.1688 5.30429 31.109 7.90471 32.6702Z" fill="#8B95AF"/>
<path id="Vector_5" d="M32.186 47.6394L31.9266 46.6255L31.6285 35.4677L48.5043 30.2146L48.1776 37.5409L46.9616 40.4007" fill="#C9CEE2"/>
<path id="Vector_6" d="M33.3077 42.8124L34.4664 43.38L35.4382 35.3025H32.9203L33.3077 42.8124Z" fill="#111D33" fill-opacity="0.0901961"/>
<path id="Vector_7" d="M52.9128 18.1154C52.9888 17.2472 50.5309 16.3229 47.423 16.051C44.3151 15.7791 41.7341 16.2625 41.6581 17.1308C41.5821 17.999 44.04 18.9233 47.1479 19.1952C50.2558 19.4671 52.8368 18.9837 52.9128 18.1154Z" fill="#111D33" fill-opacity="0.0627451"/>
<path id="Vector_8" d="M51.6656 18.1253L51.4012 21.2175L42.5507 20.463L42.9111 17.2984C43.034 15.9679 51.7919 16.7931 51.6656 18.1237V18.1253Z" fill="#4C5C75"/>
<path id="Vector_9" d="M51.5359 19.6444L51.4012 21.2174L42.5507 20.4629L42.7662 18.5766C44.6307 17.8726 49.6513 18.4671 51.5359 19.6444Z" fill="#111D33" fill-opacity="0.380392"/>
<path id="Vector_10" d="M51.9418 21.0307L51.5308 23.557L41.6058 22.2601L42.0134 19.7389C42.1077 19.013 44.4049 18.7182 47.1485 19.0736C49.8904 19.4307 52.0361 20.3081 51.9418 21.0307Z" fill="#31445B"/>
<path id="Vector_11" d="M51.5143 23.5237C51.6083 22.7996 49.4622 21.924 46.7208 21.5679C43.9794 21.2119 41.6808 21.5102 41.5867 22.2343C41.4927 22.9584 43.6388 23.834 46.3802 24.1901C49.1216 24.5461 51.4202 24.2478 51.5143 23.5237Z" fill="#4C5C75"/>
<path id="Vector_12" d="M50.7224 24.0587C49.1561 24.7728 44.0917 24.1699 42.4395 23.0718C41.85 22.681 41.855 22.2937 42.5607 22.0494C44.4218 21.4061 49.4491 22.1185 50.81 23.1981C51.2378 23.5282 51.2007 23.8414 50.7224 24.057V24.0587Z" fill="#1D2943"/>
<path id="Vector_13" d="M50.81 23.1981L49.9645 31.4894L41.5417 30.6339L42.5607 22.0494C44.4217 21.4061 49.4491 22.1185 50.81 23.1981Z" fill="#31445B"/>
<path id="Vector_14" d="M7.87946 24.1531L37.3195 22.4587L44.0142 22.6827L16.6997 24.4242L7.87946 24.1531Z" fill="#8B95AF"/>
<path id="Vector_15" d="M17.1156 24.8875L44.0142 23.0618V22.6829L16.6996 24.4243C16.6996 24.4243 16.9506 24.3789 17.1156 24.8875Z" fill="white"/>
<path id="Vector_16" d="M37.8315 22.9911C37.8315 23.2437 36.4201 23.4492 34.677 23.4492C32.9321 23.4492 31.5208 23.2437 31.5208 22.9911C31.5208 22.7384 32.9321 22.533 34.677 22.533C36.4201 22.533 37.8315 22.7384 37.8315 22.9911Z" fill="#111D33" fill-opacity="0.337255"/>
<path id="Vector_17" d="M37.6125 21.6016V22.8731C37.6125 23.0752 36.3224 23.2369 34.7292 23.2369C33.1342 23.2369 31.8441 23.0736 31.8441 22.8731V21.6032L37.6125 21.6016Z" fill="#31445B"/>
<path id="Vector_18" d="M32.186 47.6395C32.4723 48.5843 32.186 50.0429 32.186 50.0429C31.354 51.7271 29.8702 52.8454 28.9304 53.4231C28.4201 53.7363 28.0698 53.8913 28.0698 53.8913C22.8757 55.9645 19.7801 53.8913 19.7801 53.8913C27.2226 52.5608 31.1755 49.994 32.5464 44.7107C34.0285 39.018 32.0075 35.7288 32.0075 35.7288C32.3578 35.9797 32.7131 36.2576 33.0348 36.5608C34.1818 39.7507 33.5856 45.0896 32.1927 47.6294L32.186 47.6395Z" fill="#E3E7F0"/>
<path id="Vector_19" d="M46.6668 42.4116C44.9826 44.2491 44.9439 44.4411 44.4824 44.7005L28.9304 53.423C29.8702 52.8453 31.3557 51.727 32.186 50.0428L46.6668 42.4116Z" fill="#8B95AF"/>
<path id="Vector_20" d="M46.9616 40.4006V41.7463C46.9616 42.0832 46.7746 42.3914 46.4765 42.548L32.186 50.0427C32.186 50.0427 32.4723 48.5842 32.186 47.6394L32.1944 47.6293L46.9616 40.4006Z" fill="#9EA9C9"/>
<path id="Vector_21" d="M30.9026 48.8116C28.9405 51.695 25.8668 53.3556 22.298 52.975C15.9856 52.2979 10.6096 45.4533 10.2929 37.6857C10.0133 30.6289 13.8736 25.8424 18.4496 24.9497C22.1599 24.2221 26.815 25.9266 30.0976 30.7889C33.6681 36.0672 34.3704 43.7068 30.9026 48.8099V48.8116Z" fill="#1D2943"/>
<path id="Vector_22" d="M29.9359 48.1715C28.0394 51.7083 24.6542 53.8069 20.698 53.3825C14.3856 52.7071 9.00955 45.8608 8.69292 38.0932C8.40492 31.07 12.5565 24.9277 18.9582 25.2056L26.8992 29.1854C31.6352 34.2431 32.9927 42.4772 29.9359 48.1715Z" fill="#31445B"/>
<path id="Vector_23" d="M18.618 54.5378C12.3056 53.8625 6.93124 47.0162 6.61461 39.2486C6.30977 31.7741 10.9211 25.7075 17.4677 26.4065C23.7835 27.0852 29.1561 33.9315 29.4761 41.6991C29.7792 49.0894 25.2268 55.2435 18.618 54.5378Z" fill="#4C5C75"/>
<path id="Vector_24" d="M24.9574 50.6777C23.4399 52.2575 21.5772 53.0154 19.6218 53.0154C14.1549 53.0154 8.51443 47.0617 8.19275 39.1847C8.0479 35.6158 9.11906 32.3687 11.1351 30.2668C17.1443 24.0099 27.4567 31.0297 27.8963 41.7649C28.0412 45.332 26.97 48.5792 24.9557 50.6777H24.9574Z" fill="#1D2943"/>
<path id="Vector_25" d="M24.9574 50.6778C23.5662 52.1262 21.8416 52.9279 19.9384 53.007C19.7849 52.9986 19.6315 52.9862 19.4786 52.97C13.9224 52.3721 9.17125 46.1893 8.88494 39.1847C8.73673 35.6159 9.81125 32.3687 11.8239 30.2668C13.215 28.8218 14.9397 28.0201 16.8395 27.9409C16.991 27.9493 17.146 27.9611 17.2993 27.978C22.8571 28.5725 27.61 34.7586 27.8963 41.7649C28.0411 45.3321 26.97 48.5792 24.9557 50.6778H24.9574Z" fill="#31445B"/>
<path id="Vector_26" d="M18.9549 51.3985C14.2273 50.8915 10.0218 45.268 9.77085 39.1206C9.64285 35.9795 10.554 33.1518 12.2736 31.3614C13.5502 30.0309 15.2176 29.3438 17.1325 29.5475C21.8601 30.0545 26.0673 35.6781 26.3182 41.8288C26.4479 44.9682 25.5351 47.7943 23.8172 49.5846C22.5254 50.9303 20.8563 51.6006 18.9549 51.3985Z" fill="#4C5C75"/>
<path id="Vector_27" d="M19.5898 46.9977C16.671 47.4592 13.0887 44.7846 12.666 40.5135C12.3914 37.7362 13.6816 34.3156 16.4942 33.8676C19.4163 33.4044 23.002 36.079 23.423 40.3518C23.6992 43.1392 22.3957 46.5497 19.5898 46.9977Z" fill="#31445B"/>
<path id="Vector_28" d="M21.1763 44.9076C20.7468 45.4297 20.2483 45.7631 19.6925 45.9013C17.3851 46.4806 14.0925 44.2271 13.7135 40.4107C13.5451 38.7248 13.9931 37.0608 14.9127 35.9526C15.7902 34.8916 16.986 34.6524 18.2525 35.0347C20.1893 35.6074 22.0975 37.6436 22.3771 40.4579C22.5422 42.1387 22.0959 43.8027 21.1763 44.9076Z" fill="#1D2943"/>
<path id="Vector_29" d="M18.5708 45.9772C16.6357 45.3978 14.7359 43.3667 14.4597 40.5591C14.1953 37.8846 15.5494 34.7283 18.2525 35.0349C20.1894 35.6075 22.0976 37.6437 22.3771 40.458C22.6416 43.1359 21.2824 46.2787 18.5708 45.9772Z" fill="#8B95AF"/>
<path id="Vector_30" d="M21.2454 41.4163C20.9591 42.794 19.8677 43.6125 18.6854 43.2723C17.2841 42.8697 16.4285 41.071 16.698 39.5367C16.9338 38.0681 18.0572 37.1788 19.2816 37.5291C20.6155 37.9148 21.6041 39.6714 21.2454 41.4163Z" fill="#4C5C75"/>
<path id="Vector_31" d="M21.2521 41.3691C20.9894 42.639 19.9839 43.3902 18.8942 43.0786C17.6058 42.7081 16.8176 41.0525 17.0635 39.6411C17.2824 38.287 18.3165 37.4685 19.4433 37.7936C20.6727 38.1472 21.5822 39.7641 21.2521 41.3691Z" fill="#8FABFE"/>
<path id="Vector_32" d="M30.9026 48.8116L7.49377 33.2663C8.75693 29.8255 11.3843 27.0937 14.9666 26.4773C16.0015 25.7189 17.1906 25.1974 18.4496 24.9497L30.0976 30.7889C33.6681 36.0672 34.3704 43.7068 30.9026 48.8099V48.8116Z" fill="#111D33" fill-opacity="0.203922"/>
<path id="Vector_33" d="M49.1174 37.8912C47.9889 37.8288 46.746 36.3804 46.9649 32.5084C47.1839 28.6364 48.5818 27.3379 49.7102 27.4019C50.8403 27.4659 52.0849 28.9143 51.866 32.7846C51.647 36.655 50.2491 37.9552 49.1174 37.8912Z" fill="#1D2943"/>
<path id="Vector_34" d="M51.6016 32.6433C51.6016 33.8256 51.2732 34.7873 50.8723 34.7873C50.4698 34.7873 50.1464 33.8273 50.1464 32.6433C50.1464 31.4593 50.4698 30.4993 50.8706 30.4993C51.2748 30.4993 51.6016 31.4593 51.6016 32.6433Z" fill="#4C5C75"/>
<path id="Vector_35" d="M51.5173 32.6179C51.5173 33.6638 51.2276 34.5126 50.8723 34.5126C50.5186 34.5126 50.2306 33.6638 50.2306 32.6179C50.2306 31.572 50.5169 30.7231 50.8706 30.7231C51.2276 30.7231 51.5156 31.572 51.5156 32.6179H51.5173Z" fill="#31445B"/>
<path id="Vector_36" d="M34.9649 38.8562C34.8639 39.092 34.3923 39.412 34.6786 39.5973C34.7263 39.6333 34.7659 39.6788 34.7949 39.731C34.8239 39.7832 34.8417 39.841 34.847 39.9004C34.8976 40.1025 34.8639 40.3047 34.8639 40.3047V40.4562L34.8807 40.8604L34.9144 43.4878C34.9144 43.6057 34.8639 43.7068 34.7628 43.7404L34.7291 43.7741C34.6618 43.791 34.6112 43.791 34.5439 43.7741L34.2912 43.6899C34.2912 43.5215 34.3418 40.3889 34.2912 38.772C34.2744 37.5594 32.9944 36.431 32.0007 35.7236C29.8618 34.191 32.0176 36.2289 20.127 27.9762C18.7291 27.0162 17.6176 26.2415 17.0955 25.871C16.8921 25.7311 16.6517 25.6549 16.4049 25.652L8.32072 25.3489C8.04519 25.3339 7.77428 25.4242 7.56283 25.6015C3.30177 29.172 7.3944 32.3047 7.74809 32.5573C5.55862 31.2941 5.33967 29.7446 5.33967 29.7446C4.68283 26.932 6.63651 25.231 7.3944 24.692C7.5123 24.6078 7.61335 24.4731 7.66388 24.3383C7.7144 24.2036 7.86598 24.1362 8.00072 24.1362L16.7081 24.4225C16.8428 24.4225 16.9607 24.5236 17.0112 24.6583C17.0618 24.8436 17.1628 24.9952 17.3312 25.1131C17.4997 25.231 29.6091 33.4668 30.8218 34.3089C31.1249 34.5278 31.8997 35.0668 32.6576 35.6225C33.4323 36.1952 34.1734 36.7678 34.426 37.0373C35.066 37.7783 35.066 38.6541 34.9649 38.8562Z" fill="#F1F6FA"/>
<path id="Vector_37" d="M49.5721 33.8811L49.4963 36.5725C49.4908 36.7629 49.4316 36.9479 49.3255 37.1061C49.2194 37.2644 49.0708 37.3894 48.8967 37.4668L34.7695 43.7472C34.8135 43.7236 34.8503 43.6887 34.876 43.646C34.9018 43.6034 34.9156 43.5545 34.9161 43.5047L34.8723 40.4394L34.8689 40.3047C34.8689 40.3047 34.9194 39.988 34.8083 39.7624C34.7799 39.6948 34.7325 39.6368 34.6719 39.5956C34.5556 39.5215 34.5691 39.4222 34.6297 39.316C37.7388 38.3055 47.359 35.1257 49.5721 33.8811Z" fill="#8B95AF"/>
<path id="Vector_38" d="M49.5502 34.5952L49.4997 36.5826C49.4828 36.97 49.2639 37.3068 48.9102 37.4584L34.7291 43.7742L34.7628 43.7405C34.8639 43.7068 34.9144 43.6057 34.9144 43.4878L34.8807 40.8099C34.8807 40.8099 34.9144 40.6415 34.8639 40.4563V40.3047C34.8639 40.3047 34.8975 40.1026 34.847 39.9005C34.847 39.85 34.8302 39.7994 34.8133 39.7657C37.9965 38.7552 46.7375 35.9257 49.5502 34.5952Z" fill="#9EA9C9"/>
<path id="Vector_39" d="M50.0184 33.5359C49.9797 33.6201 49.8247 33.738 49.5721 33.8778V33.8812C47.3591 35.1275 37.7372 38.3056 34.6298 39.3161C34.7157 39.1645 34.906 38.9978 34.9666 38.8631C35.061 38.6559 35.0677 37.7767 34.4243 37.0441C33.6715 36.1919 28.2264 32.5372 27.4989 32.0437C16.8715 24.7662 17.3262 25.2058 17.114 24.8892L17.1174 24.8875L44.0142 23.0635C44.0142 23.0635 46.6837 24.3351 48.5279 27.0921C48.8008 27.5031 49.0382 27.9106 49.2353 28.3148C50.3906 30.6172 50.4109 32.6972 50.0201 33.5359H50.0184Z" fill="#B0B8CF"/>
<path id="Vector_40" d="M50.0184 33.5358C49.9797 33.62 49.8247 33.7379 49.5721 33.8776V33.881C47.359 35.1273 37.7371 38.3054 34.6298 39.316C34.7056 39.1795 34.8656 39.033 34.943 38.9084C35.0946 38.6793 35.0441 37.7463 34.4243 37.0456C33.7725 36.2877 28.8967 32.9867 28.0698 32.4275L49.2352 28.3147C50.3906 30.617 50.4108 32.697 50.0201 33.5358H50.0184Z" fill="#9EA9C9"/>
<path id="Vector_41" d="M37.6109 21.6016C37.6109 21.8037 36.3207 21.9654 34.7292 21.9654C33.1342 21.9654 31.8441 21.802 31.8441 21.6016C31.8441 21.4029 33.1342 21.2395 34.7292 21.2395C36.3207 21.2395 37.6109 21.4029 37.6109 21.6016Z" fill="#4C5C75"/>
</g>
</g>
</svg>
