<svg width="13" height="14" viewBox="0 0 13 14" fill="none" xmlns="http://www.w3.org/2000/svg">
<g id="Group 107">
<path id="Vector" d="M3.57496 0.666667C3.57496 0.298477 3.28395 0 2.92496 0C2.56598 0 2.27496 0.298477 2.27496 0.666667V1.33333C2.27496 1.70152 2.56598 2 2.92496 2C3.28395 2 3.57496 1.70152 3.57496 1.33333V0.666667Z" fill="#F5F7FA"/>
<path id="Vector_2" d="M10.725 0.666667C10.725 0.298477 10.434 0 10.075 0C9.71606 0 9.42505 0.298477 9.42505 0.666667V1.33333C9.42505 1.70152 9.71606 2 10.075 2C10.434 2 10.725 1.70152 10.725 1.33333V0.666667Z" fill="#F5F7FA"/>
<path id="Vector_3" d="M0 5.00003V12.6667C0 13.403 0.582075 14 1.3 14H11.7C12.4179 14 13 13.403 13 12.6667V5.00003H0ZM3.9 11.6667C3.9 12.035 3.60912 12.3334 3.25 12.3334H2.6C2.24088 12.3334 1.95 12.035 1.95 11.6667V11C1.95 10.6317 2.24088 10.3334 2.6 10.3334H3.25C3.60912 10.3334 3.9 10.6317 3.9 11V11.6667ZM3.9 8.00003C3.9 8.36836 3.60912 8.6667 3.25 8.6667H2.6C2.24088 8.6667 1.95 8.36836 1.95 8.00003V7.33336C1.95 6.96503 2.24088 6.6667 2.6 6.6667H3.25C3.60912 6.6667 3.9 6.96503 3.9 7.33336V8.00003ZM7.475 11.6667C7.475 12.035 7.18412 12.3334 6.825 12.3334H6.175C5.81587 12.3334 5.525 12.035 5.525 11.6667V11C5.525 10.6317 5.81587 10.3334 6.175 10.3334H6.825C7.18412 10.3334 7.475 10.6317 7.475 11V11.6667ZM7.475 8.00003C7.475 8.36836 7.18412 8.6667 6.825 8.6667H6.175C5.81587 8.6667 5.525 8.36836 5.525 8.00003V7.33336C5.525 6.96503 5.81587 6.6667 6.175 6.6667H6.825C7.18412 6.6667 7.475 6.96503 7.475 7.33336V8.00003ZM11.05 11.6667C11.05 12.035 10.7591 12.3334 10.4 12.3334H9.75C9.39087 12.3334 9.1 12.035 9.1 11.6667V11C9.1 10.6317 9.39087 10.3334 9.75 10.3334H10.4C10.7591 10.3334 11.05 10.6317 11.05 11V11.6667ZM11.05 8.00003C11.05 8.36836 10.7591 8.6667 10.4 8.6667H9.75C9.39087 8.6667 9.1 8.36836 9.1 8.00003V7.33336C9.1 6.96503 9.39087 6.6667 9.75 6.6667H10.4C10.7591 6.6667 11.05 6.96503 11.05 7.33336V8.00003Z" fill="#F5F7FA"/>
<path id="Vector_4" d="M13 4.33336V2.33336C13 1.59703 12.4179 1.00003 11.7 1.00003H11.375V1.33336C11.375 2.0687 10.7919 2.6667 10.075 2.6667C9.35805 2.6667 8.775 2.0687 8.775 1.33336V1.00003H4.225V1.33336C4.225 2.0687 3.64195 2.6667 2.925 2.6667C2.20805 2.6667 1.625 2.0687 1.625 1.33336V1.00003H1.3C0.582075 1.00003 0 1.59703 0 2.33336V4.33336H13Z" fill="#F5F7FA"/>
</g>
</svg>
