<svg width="18" height="18" viewBox="0 0 18 18" fill="none" xmlns="http://www.w3.org/2000/svg">
<g id="Frame 38282">
<circle id="Ellipse 48" cx="9" cy="9" r="8.03571" fill="#263238" stroke="#F5F7FA" stroke-width="1.92857"/>
<g id="Group">
<path id="Vector" d="M13.3983 8.99427L7.21071 5.80675C7.18873 5.79523 7.16465 5.78828 7.13992 5.78629C7.11519 5.78431 7.09031 5.78735 7.06678 5.79522C7.04319 5.8029 7.02136 5.81519 7.00256 5.83138C6.98377 5.84757 6.96837 5.86734 6.95728 5.88953L5.64478 8.51453C5.59901 8.60607 5.63526 8.71759 5.72608 8.76484L7.19622 9.52918C7.15268 9.6489 7.12501 9.77631 7.12501 9.91091C7.12501 10.1573 7.20695 10.3836 7.34184 10.5691L7.13454 11.0359H5.43348C5.25732 10.8023 4.98047 10.6609 4.68749 10.6609C4.66286 10.6609 4.63848 10.6657 4.61572 10.6752C4.59297 10.6846 4.5723 10.6984 4.55488 10.7158C4.53747 10.7332 4.52366 10.7539 4.51424 10.7766C4.50483 10.7994 4.49999 10.8238 4.5 10.8484V12.3484C4.49998 12.373 4.50482 12.3974 4.51424 12.4202C4.52366 12.4429 4.53747 12.4636 4.55488 12.481C4.5723 12.4985 4.59298 12.5123 4.61573 12.5217C4.63849 12.5311 4.66288 12.5359 4.68751 12.5359C4.98048 12.5359 5.25734 12.3946 5.43349 12.1609H7.50005C7.7216 12.1609 7.92338 12.03 8.01421 11.8269L8.3713 11.0237C8.70066 10.9877 8.98805 10.8135 9.16951 10.5554L10.4136 11.2023C10.4403 11.2162 10.47 11.2234 10.5001 11.2234C10.5363 11.2234 10.5726 11.2128 10.6041 11.1919L11.0485 10.8956L11.9071 11.3862C11.9354 11.4024 11.9675 11.4109 12.0001 11.4109C12.03 11.4109 12.0594 11.4037 12.0859 11.3901C12.1125 11.3764 12.1354 11.3566 12.1528 11.3324L13.0903 10.0198C13.1053 9.99878 13.1158 9.97484 13.1211 9.94954C13.1264 9.92423 13.1264 9.8981 13.1211 9.8728C13.1159 9.84743 13.1054 9.82342 13.0904 9.8023C13.0754 9.78118 13.0562 9.76341 13.0339 9.75012L12.8934 9.66576L13.4166 9.3169C13.4438 9.2988 13.4657 9.27392 13.4803 9.24473C13.4949 9.21553 13.5016 9.18304 13.4998 9.15045C13.498 9.11782 13.4877 9.08622 13.4698 9.05882C13.452 9.03141 13.4274 9.00916 13.3983 8.99427Z" fill="#F5F7FA"/>
</g>
</g>
</svg>
