<svg width="50" height="37" viewBox="0 0 50 37" fill="#888888" xmlns="http://www.w3.org/2000/svg">
<g id="031-car">
<g id="Layer_x0020_1">
<path id="Vector" fill-rule="evenodd" clip-rule="evenodd" d="M49.365 27.8687H46.134C46.1508 27.6908 46.16 27.5108 46.16 27.3287C46.1598 24.1339 43.5092 21.536 40.2492 21.536C36.9893 21.536 34.3385 24.134 34.3385 27.3287C34.3385 27.5108 34.3476 27.6908 34.3645 27.8687H15.6356C15.6524 27.6908 15.6615 27.5108 15.6615 27.3287C15.6615 24.1339 13.0107 21.536 9.7507 21.536C6.49076 21.536 3.83997 24.134 3.83997 27.3287C3.83997 27.5108 3.84908 27.6908 3.86592 27.8687H0.634845C0.284204 27.8687 0 27.5903 0 27.2467V18.1324C0 17.9679 0.0664374 17.8103 0.184779 17.6936L1.92288 15.9815H20.5379H45.2778C48.1292 17.1812 49.7548 19.2221 49.9974 21.9291C49.9991 21.9471 49.9998 21.9654 49.9998 21.9835V27.2468C49.9998 27.5902 49.7156 27.8687 49.365 27.8687ZM3.18587 14.7374L12.7599 5.30627C12.879 5.18894 13.041 5.12293 13.2099 5.12293H19.9033V14.7374L3.18587 14.7374ZM21.1728 5.12292H27.8168C27.9851 5.12292 28.1466 5.18849 28.2657 5.30514L37.8905 14.7374H21.1729L21.1728 5.12292Z"/>
<path id="Vector_2" fill-rule="evenodd" clip-rule="evenodd" d="M9.75063 31.8771C7.19142 31.8771 5.10938 29.8367 5.10938 27.3288C5.10938 24.8208 7.19142 22.7803 9.75063 22.7803C12.3101 22.7803 14.392 24.8208 14.392 27.3288C14.392 29.8367 12.3101 31.8771 9.75063 31.8771ZM9.75075 29.0734C8.76919 29.0734 7.97067 28.2907 7.97067 27.3287C7.97067 26.3667 8.7693 25.5841 9.75075 25.5841C10.7324 25.5841 11.5311 26.3667 11.5311 27.3287C11.5311 28.2909 10.7324 29.0734 9.75075 29.0734ZM9.75075 26.8283C9.4692 26.8283 9.24013 27.0528 9.24013 27.3287C9.24013 27.6047 9.4692 27.8292 9.75075 27.8292C10.0324 27.8292 10.2615 27.6046 10.2615 27.3287C10.2615 27.0528 10.0324 26.8283 9.75075 26.8283Z"/>
<path id="Vector_3" fill-rule="evenodd" clip-rule="evenodd" d="M40.2497 31.8771C37.6904 31.8771 35.6084 29.8367 35.6084 27.3288C35.6084 24.8208 37.6904 22.7803 40.2497 22.7803C42.809 22.7803 44.8909 24.8208 44.8909 27.3288C44.891 29.8367 42.809 31.8771 40.2497 31.8771ZM40.2497 29.0734C39.2681 29.0734 38.4696 28.2907 38.4696 27.3287C38.4696 26.3667 39.2682 25.5841 40.2497 25.5841C41.2312 25.5841 42.0299 26.3667 42.0299 27.3287C42.03 28.2909 41.2313 29.0734 40.2497 29.0734ZM40.2497 26.8283C39.968 26.8283 39.739 27.0528 39.739 27.3287C39.739 27.6047 39.9681 27.8292 40.2497 27.8292C40.5312 27.8292 40.7603 27.6046 40.7603 27.3287C40.7604 27.0528 40.5313 26.8283 40.2497 26.8283Z"/>
</g>
</g>
</svg>
