<svg width="17" height="18" viewBox="0 0 17 18" fill="none" xmlns="http://www.w3.org/2000/svg">
<g id="Group 38219">
<path id="Vector" d="M3.48771 10.3501C3.33137 10.6167 3.38638 10.9836 3.60855 11.1688L3.94432 11.4484C3.39628 12.0826 2.66131 12.4414 1.89368 12.4414H0.977131V11.1719C0.977131 10.8483 0.758384 10.586 0.488566 10.586C0.218747 10.586 0 10.8483 0 11.1719V17.1484C0 17.4719 0.218747 17.7343 0.488566 17.7343C0.758384 17.7343 0.977131 17.4719 0.977131 17.1484V15.957H1.63937C3.39273 15.957 5.1074 15.0728 6.32543 13.4316L6.81419 13.8387C7.03609 14.0245 7.34396 13.9563 7.49655 13.6871L7.83138 13.0977L3.86781 9.70282L3.48771 10.3501Z" fill="white"/>
<path id="Vector_2" d="M16.4634 10.4022L16.2833 10.2545L12.536 13.8455L13.6082 14.7712C13.8176 14.952 14.1105 14.9063 14.2737 14.6634L16.568 11.2541C16.7478 10.9867 16.6978 10.5938 16.4634 10.4022Z" fill="white"/>
<path id="Vector_3" d="M15.7046 8.35842L6.31017 0.222114C5.88821 -0.143425 5.30232 -0.0484274 4.97635 0.438203L1.88891 5.04689C1.5378 5.57114 1.62642 6.34358 2.08281 6.73447L10.394 13.8525C10.5716 14.0046 10.8121 13.9971 10.9829 13.8334L15.7235 9.29121C15.9754 9.04989 15.9667 8.58541 15.7046 8.35842ZM12.2466 9.39457C11.9768 9.39457 11.758 9.13223 11.758 8.80865C11.758 8.48506 11.9768 8.22272 12.2466 8.22272C12.5164 8.22272 12.7352 8.48506 12.7352 8.80865C12.7352 9.13223 12.5164 9.39457 12.2466 9.39457Z" fill="white"/>
</g>
</svg>
