<svg width="50" height="33" viewBox="0 0 50 33" fill="#888888" xmlns="http://www.w3.org/2000/svg">
<g id="039-container truck">
<g id="Layer_x0020_1">
<path id="Vector" fill-rule="evenodd" clip-rule="evenodd" d="M30.9364 25.7951H24.9357C24.9582 25.5864 24.9699 25.3748 24.9699 25.1602C24.9699 21.9121 22.3286 19.2709 19.0805 19.2709C16.5849 19.2709 14.4473 20.8302 13.591 23.026C12.7346 20.8302 10.5971 19.2709 8.10144 19.2709C4.85339 19.2709 2.21215 21.9122 2.21215 25.1602C2.21215 25.3748 2.22392 25.5864 2.24641 25.7951H0.634845C0.284204 25.7951 0 25.5109 0 25.1603V17.6113C0 17.2606 0.284204 16.9764 0.634845 16.9764H30.8277V25.1603C30.8277 25.383 30.8661 25.5964 30.9364 25.7951Z" />
<path id="Vector_2" fill-rule="evenodd" clip-rule="evenodd" d="M49.3654 25.7951H47.7535C47.776 25.5864 47.7877 25.3748 47.7877 25.1602C47.7877 21.9122 45.1465 19.271 41.8984 19.271C38.6504 19.271 36.009 21.9122 36.009 25.1602C36.009 25.3748 36.0208 25.5864 36.0433 25.7951H32.7324C32.3819 25.7951 32.0977 25.5109 32.0977 25.1603V15.7997H39.8297L50 15.7996V25.1602C50.0001 25.5109 49.7159 25.7951 49.3654 25.7951ZM32.0977 14.5303V4.52927C32.0977 4.17874 32.3819 3.89454 32.7324 3.89454H39.1949V14.5303L32.0977 14.5303ZM40.4645 3.89455H45.2441C45.461 3.89455 45.6629 4.00528 45.7794 4.18833L49.9006 10.6586C49.9655 10.7604 50 10.8788 50 10.9995V14.5302H40.4645L40.4645 3.89455Z" />
<path id="Vector_3" fill-rule="evenodd" clip-rule="evenodd" d="M0 15.8157V5.40076C0 3.64675 1.42713 2.21973 3.18104 2.21973H25.9747C27.7287 2.21973 29.1557 3.64686 29.1557 5.40076V15.7071H0.634866C0.412255 15.7071 0.198505 15.7455 0 15.8157ZM22.8855 14.8079C22.5348 14.8079 22.2506 14.5237 22.2506 14.1731V6.29271C22.2506 5.94207 22.5348 5.65798 22.8855 5.65798C23.236 5.65798 23.5202 5.94207 23.5202 6.29271V14.1731C23.5202 14.5237 23.236 14.8079 22.8855 14.8079ZM18.7317 14.8079C18.3811 14.8079 18.097 14.5237 18.097 14.1731V6.29271C18.097 5.94207 18.3811 5.65798 18.7317 5.65798C19.0824 5.65798 19.3665 5.94207 19.3665 6.29271V14.1731C19.3665 14.5237 19.0823 14.8079 18.7317 14.8079ZM14.5779 14.8079C14.2274 14.8079 13.9432 14.5237 13.9432 14.1731V6.29271C13.9432 5.94207 14.2274 5.65798 14.5779 5.65798C14.9286 5.65798 15.2128 5.94207 15.2128 6.29271V14.1731C15.2128 14.5237 14.9286 14.8079 14.5779 14.8079ZM10.4242 14.8079C10.0736 14.8079 9.78946 14.5237 9.78946 14.1731V6.29271C9.78946 5.94207 10.0735 5.65798 10.4242 5.65798C10.7748 5.65798 11.0589 5.94207 11.0589 6.29271V14.1731C11.0589 14.5237 10.7747 14.8079 10.4242 14.8079ZM6.27038 14.8079C5.91985 14.8079 5.63565 14.5237 5.63565 14.1731V6.29271C5.63565 5.94207 5.91985 5.65798 6.27038 5.65798C6.62102 5.65798 6.90522 5.94207 6.90522 6.29271V14.1731C6.90522 14.5237 6.62102 14.8079 6.27038 14.8079Z" />
<path id="Vector_4" fill-rule="evenodd" clip-rule="evenodd" d="M41.8983 29.78C39.3509 29.78 37.2783 27.7076 37.2783 25.1602C37.2783 22.6128 39.3509 20.5404 41.8983 20.5404C44.4457 20.5404 46.5181 22.6128 46.5181 25.1602C46.5181 27.7077 44.4456 29.78 41.8983 29.78ZM41.8983 27.9193C40.377 27.9193 39.1391 26.6817 39.1391 25.1605C39.1391 23.6391 40.377 22.4012 41.8983 22.4012C43.4196 22.4012 44.6572 23.6391 44.6572 25.1605C44.6572 26.6817 43.4196 27.9193 41.8983 27.9193ZM41.8983 23.6708C41.0769 23.6708 40.4086 24.339 40.4086 25.1604C40.4086 25.9816 41.0769 26.6497 41.8983 26.6497C42.7196 26.6497 43.3878 25.9816 43.3878 25.1604C43.3878 24.3391 42.7196 23.6708 41.8983 23.6708Z" />
<path id="Vector_5" fill-rule="evenodd" clip-rule="evenodd" d="M19.0809 29.78C16.5335 29.78 14.4609 27.7076 14.4609 25.1602C14.4609 22.6128 16.5334 20.5404 19.0809 20.5404C21.6283 20.5404 23.7008 22.6128 23.7008 25.1602C23.7008 27.7077 21.6283 29.78 19.0809 29.78ZM19.0809 27.9193C17.5595 27.9193 16.3219 26.6817 16.3219 25.1605C16.3219 23.6391 17.5596 22.4012 19.0809 22.4012C20.6022 22.4012 21.84 23.6391 21.84 25.1605C21.8401 26.6817 20.6022 27.9193 19.0809 27.9193ZM19.0809 23.6708C18.2596 23.6708 17.5915 24.339 17.5915 25.1604C17.5915 25.9816 18.2596 26.6497 19.0809 26.6497C19.9022 26.6497 20.5704 25.9816 20.5704 25.1604C20.5705 24.3391 19.9023 23.6708 19.0809 23.6708Z" />
<path id="Vector_6" fill-rule="evenodd" clip-rule="evenodd" d="M8.10126 29.78C5.55392 29.78 3.48145 27.7076 3.48145 25.1602C3.48145 22.6128 5.55392 20.5404 8.10126 20.5404C10.6487 20.5404 12.7213 22.6128 12.7213 25.1602C12.7213 27.7077 10.6487 29.78 8.10126 29.78ZM8.10126 27.9193C6.58001 27.9193 5.34227 26.6817 5.34227 25.1605C5.34227 23.6391 6.58001 22.4012 8.10126 22.4012C9.62274 22.4012 10.8604 23.6391 10.8604 25.1605C10.8605 26.6817 9.62274 27.9193 8.10126 27.9193ZM8.10126 23.6708C7.28002 23.6708 6.61184 24.339 6.61184 25.1604C6.61184 25.9816 7.28002 26.6497 8.10126 26.6497C8.92261 26.6497 9.59091 25.9816 9.59091 25.1604C9.59091 24.3391 8.92273 23.6708 8.10126 23.6708Z" />
</g>
</g>
</svg>
