<svg width="63" height="26" viewBox="0 0 63 26" fill="none" xmlns="http://www.w3.org/2000/svg">
<g id="Group 8187">
<path id="Vector" d="M26.7433 10.9269V15.4618C26.7433 15.4808 26.7338 15.4903 26.7148 15.4903H24.4337C24.4147 15.4903 24.4052 15.4808 24.4052 15.4618V0.950415C24.4052 0.932926 24.4139 0.922662 24.4314 0.919621L26.7159 0.542095C26.7342 0.539053 26.7433 0.546658 26.7433 0.564907V9.28965C26.7434 9.29214 26.7442 9.29458 26.7456 9.29664C26.747 9.29871 26.749 9.3003 26.7513 9.30122C26.7536 9.30215 26.756 9.30235 26.7584 9.30181C26.7607 9.30127 26.7628 9.30002 26.7644 9.2982C27.9806 8.04624 29.1575 6.75855 30.295 5.43511C30.3091 5.41877 30.327 5.41059 30.3486 5.41059H33.0461C33.075 5.41059 33.0799 5.42143 33.0609 5.4431C31.7223 6.95168 30.3511 8.42966 28.9475 9.87704C28.9353 9.88959 28.9357 9.90156 28.9486 9.91297C30.6463 11.4356 32.2129 13.4744 33.3244 15.4515C33.3388 15.4774 33.3312 15.4903 33.3016 15.4903H30.6492C30.6405 15.4903 30.6319 15.4881 30.6244 15.4838C30.6169 15.4794 30.6107 15.4733 30.6064 15.4658C29.8932 14.2484 29.0071 13.0853 27.9483 11.9762C27.5297 11.5375 27.14 11.1818 26.7792 10.9092C26.7553 10.891 26.7433 10.8969 26.7433 10.9269Z" fill="#D6D6D6"/>
<path id="Vector_2" d="M2.91977 4.19984V11.7264C2.91977 11.7454 2.91026 11.7549 2.89125 11.7549H0.510326C0.491316 11.7549 0.481812 11.7454 0.481812 11.7264V2.35955C0.481812 2.34092 0.490936 2.32951 0.509185 2.32533C1.70336 2.04761 2.97851 2.00711 4.20005 1.99799C5.87155 1.98601 7.73637 2.26374 9.16721 3.19501C11.5185 4.72507 12.0614 7.46641 11.7318 10.1057C11.4124 12.6617 9.80536 14.5253 7.3406 15.2399C5.79456 15.6881 4.31753 15.6933 2.63463 15.5895C1.83053 15.5401 1.12262 15.4477 0.510896 15.3123C0.491506 15.3082 0.481812 15.296 0.481812 15.2758V13.5239C0.481812 13.5049 0.491316 13.4954 0.510326 13.4954C1.21672 13.4935 1.92234 13.4931 2.62721 13.4943C4.09512 13.4971 5.56702 13.6591 6.94653 13.0438C9.19401 12.0406 9.58123 9.30215 9.07653 7.18013C8.3614 4.17019 5.47748 3.94721 2.94942 4.16734C2.92965 4.16924 2.91977 4.18007 2.91977 4.19984Z" fill="#D6D6D6"/>
<path id="Vector_3" d="M54.3492 9.57381C53.8614 8.22909 53.504 7.27881 53.277 6.72298C52.6805 5.26192 50.8322 4.94542 49.8673 6.27075C49.7624 6.41484 49.6517 6.64219 49.5354 6.9528C48.5108 9.69091 47.4955 12.4322 46.4895 15.1768C46.4086 15.3969 46.2534 15.4893 46.0111 15.4899C45.3959 15.4903 44.7846 15.4905 44.177 15.4905C44.1469 15.4904 44.1172 15.483 44.0906 15.4688C44.0641 15.4547 44.0414 15.4342 44.0246 15.4093C44.0078 15.3843 43.9974 15.3556 43.9944 15.3257C43.9913 15.2958 43.9957 15.2656 44.0071 15.2378C45.1978 12.3298 46.3937 9.41413 47.5947 6.49088C47.8286 5.92136 47.9793 5.57235 48.047 5.44384C48.5496 4.48957 49.3244 3.82425 50.3714 3.44786C51.8314 2.9232 53.5753 3.46212 54.5778 4.59355C55.1076 5.19064 55.338 5.79799 55.6893 6.69789C56.8044 9.55537 57.9155 12.4037 59.0226 15.243C59.0333 15.2706 59.0371 15.3004 59.0337 15.3297C59.0303 15.3591 59.0198 15.3872 59.0031 15.4116C58.9864 15.436 58.9641 15.4559 58.9379 15.4697C58.9118 15.4834 58.8828 15.4906 58.8533 15.4905C58.2381 15.4901 57.6117 15.4901 56.9742 15.4905C56.7278 15.4905 56.5773 15.4277 56.4906 15.2002C56.0496 14.0406 55.6101 12.8805 55.1721 11.7198C55.1668 11.7053 55.1563 11.6981 55.1407 11.6981H49.6637C49.6398 11.6981 49.632 11.6869 49.6403 11.6645L50.3897 9.62628C50.3958 9.61031 50.4074 9.60233 50.4245 9.60233H54.3292C54.3497 9.60233 54.3564 9.59282 54.3492 9.57381Z" fill="#D22627"/>
<path id="Vector_4" d="M61.8231 3.24384H60.2833C60.1221 3.24384 59.9913 3.37456 59.9913 3.53582V15.1992C59.9913 15.3605 60.1221 15.4912 60.2833 15.4912H61.8231C61.9843 15.4912 62.1151 15.3605 62.1151 15.1992V3.53582C62.1151 3.37456 61.9843 3.24384 61.8231 3.24384Z" fill="#D22627"/>
<path id="Vector_5" d="M19.2966 9.47229C19.3095 9.13278 19.3013 8.87255 19.272 8.69158C19.1169 7.73046 18.556 7.21759 17.5891 7.15296C16.6292 7.0887 15.6614 7.20922 14.6858 7.51452C14.6661 7.5206 14.6547 7.51337 14.6516 7.49284L14.371 5.65312C14.3684 5.63373 14.3764 5.62118 14.395 5.61548C15.6876 5.21894 16.9901 5.07941 18.3026 5.19689C18.6212 5.2254 18.9626 5.29935 19.3268 5.41873C21.1426 6.01467 21.5617 7.52193 21.5657 9.26015C21.5707 11.2481 21.5707 13.2361 21.5657 15.2242C21.5657 15.2435 21.5564 15.2553 21.5378 15.2595C20.0554 15.5926 18.5582 15.7384 17.0462 15.6969C16.5307 15.6828 16.0306 15.6028 15.5458 15.4568C13.9815 14.9852 13.3434 13.8298 13.4107 12.2108C13.5327 9.26528 17.1848 9.02519 19.2646 9.49681C19.2852 9.50138 19.2958 9.4932 19.2966 9.47229ZM15.7545 12.2821C15.6616 13.6536 16.7525 13.8304 17.803 13.8412C18.2942 13.8462 18.7843 13.8125 19.2732 13.7403C19.2918 13.7372 19.3011 13.7264 19.3011 13.7078V11.186C19.3011 11.1681 19.2926 11.1569 19.2755 11.1523C18.3077 10.9071 15.8606 10.7104 15.7545 12.2821Z" fill="#D6D6D6"/>
<path id="Vector_6" d="M40.1803 9.47615C40.3069 7.98258 39.6277 7.12659 38.1062 7.12945C37.2435 7.13097 36.4007 7.25833 35.5776 7.51154C35.5582 7.51762 35.547 7.51058 35.5439 7.49043L35.2633 5.65356C35.2599 5.63379 35.2679 5.62086 35.2873 5.61478C36.4655 5.25436 37.6694 5.10457 38.8989 5.1654C39.6007 5.20038 40.2425 5.3688 40.8242 5.67067C41.7172 6.13373 42.206 7.01824 42.3576 7.99057C42.4113 8.3335 42.4386 8.61883 42.4398 8.84656C42.4508 10.9741 42.4563 13.1016 42.4563 15.2291C42.4563 15.2485 42.4468 15.2603 42.4278 15.2645C41.2929 15.5093 40.1472 15.6546 38.9907 15.7002C37.3409 15.7646 35.2149 15.5953 34.514 13.7949C34.338 13.3425 34.2646 12.8241 34.2939 12.2397C34.4433 9.27655 38.0184 9.00966 40.1501 9.49782C40.1683 9.502 40.1784 9.49478 40.1803 9.47615ZM36.6394 12.3937C36.6269 13.3894 37.3129 13.7738 38.1923 13.8251C38.8493 13.8639 39.5047 13.8361 40.1586 13.7419C40.178 13.7388 40.1877 13.7274 40.1877 13.7076V11.1859C40.1877 11.168 40.179 11.157 40.1615 11.1528C39.1361 10.8944 36.66 10.7091 36.6394 12.3937Z" fill="#D6D6D6"/>
<path id="Vector_7" d="M35.5895 22.5626C35.313 24.0625 33.6403 24.7063 32.3235 24.1315C31.5063 23.7745 31.0164 23.0183 31.0142 22.1286C31.0119 21.0211 31.7088 20.1458 32.8174 19.9222C34.4706 19.5886 35.9043 20.8552 35.5895 22.5626ZM35.017 22.1053C35.017 21.6612 34.8385 21.2353 34.5209 20.9213C34.2033 20.6073 33.7724 20.4309 33.3232 20.4309C32.874 20.4309 32.4432 20.6073 32.1256 20.9213C31.8079 21.2353 31.6295 21.6612 31.6295 22.1053C31.6295 22.5493 31.8079 22.9752 32.1256 23.2892C32.4432 23.6032 32.874 23.7796 33.3232 23.7796C33.7724 23.7796 34.2033 23.6032 34.5209 23.2892C34.8385 22.9752 35.017 22.5493 35.017 22.1053Z" fill="#D6D6D6"/>
<path id="Vector_8" d="M44.1147 21.1696C43.7286 21.7775 43.7497 22.5964 44.2019 23.1467C44.4468 23.4448 44.7644 23.6389 45.1549 23.729C45.7331 23.8628 46.268 23.7104 46.7596 23.2716C46.7756 23.2572 46.7912 23.2576 46.8064 23.2728L47.1702 23.6332C47.1862 23.6492 47.186 23.6649 47.1697 23.6805C45.8038 24.9933 43.2609 24.2588 43.217 22.1887C43.1976 21.2671 43.6465 20.4727 44.4802 20.0946C45.3436 19.7034 46.5002 19.8112 47.1645 20.5383C47.1797 20.555 47.1792 20.5712 47.1628 20.5867L46.7995 20.9318C46.7836 20.9474 46.7672 20.9477 46.7505 20.9329C46.0985 20.3539 45.3929 20.2689 44.6336 20.678C44.4249 20.7901 44.2519 20.954 44.1147 21.1696Z" fill="#D6D6D6"/>
<path id="Vector_9" d="M3.17702 22.0327C3.6131 22.1848 3.85775 22.472 3.91098 22.8944C4.04841 23.9768 3.15763 24.2648 2.28795 24.2705C1.59069 24.2751 0.893232 24.2749 0.195586 24.2699C0.177337 24.2699 0.168213 24.2608 0.168213 24.2425V19.9677C0.168213 19.9502 0.177147 19.9413 0.195016 19.9409C1.23103 19.9341 1.94426 19.9337 2.33472 19.9398C2.96773 19.9495 3.61557 20.2397 3.69028 20.9526C3.7359 21.391 3.56348 21.7402 3.17303 22.0002C3.15288 22.0139 3.15421 22.0247 3.17702 22.0327ZM0.782977 20.4616L0.778415 21.7995C0.778415 21.8035 0.780037 21.8075 0.782925 21.8104C0.785813 21.8132 0.789729 21.8149 0.793813 21.8149L2.20241 21.82C2.31649 21.8204 2.42952 21.8043 2.53503 21.7726C2.64054 21.7409 2.73647 21.6942 2.81734 21.6352C2.8982 21.5762 2.96242 21.506 3.00633 21.4287C3.05024 21.3515 3.07297 21.2685 3.07323 21.1847V21.0923C3.07376 20.9231 2.9828 20.7605 2.82035 20.6403C2.6579 20.5201 2.43727 20.4521 2.20697 20.4513L0.798375 20.4462C0.794291 20.4462 0.790375 20.4478 0.787487 20.4507C0.7846 20.4536 0.782977 20.4575 0.782977 20.4616ZM0.778415 22.3424L0.782977 23.7475C0.782977 23.7519 0.78472 23.7561 0.787821 23.7592C0.790923 23.7623 0.795129 23.7641 0.799516 23.7641L2.40657 23.7584C2.52262 23.758 2.63747 23.7405 2.74456 23.707C2.85165 23.6735 2.94888 23.6246 3.03071 23.5632C3.11253 23.5017 3.17734 23.4288 3.22143 23.3487C3.26551 23.2686 3.28802 23.1828 3.28766 23.0963V22.9754C3.28693 22.8008 3.19323 22.6336 3.02715 22.5108C2.86107 22.3879 2.63621 22.3193 2.40201 22.3201L0.794953 22.3258C0.790567 22.3258 0.786361 22.3276 0.783259 22.3307C0.780158 22.3338 0.778415 22.338 0.778415 22.3424Z" fill="#D6D6D6"/>
<path id="Vector_10" d="M13.1706 23.1048V19.9557C13.1706 19.951 13.1725 19.9465 13.1758 19.9432C13.1791 19.9399 13.1836 19.9381 13.1883 19.9381H13.766C13.7707 19.9381 13.7752 19.9399 13.7785 19.9432C13.7818 19.9465 13.7837 19.951 13.7837 19.9557V24.2545C13.7837 24.2592 13.7818 24.2637 13.7785 24.267C13.7752 24.2703 13.7707 24.2722 13.766 24.2722H13.279C13.2764 24.2722 13.2738 24.2717 13.2714 24.2706C13.2691 24.2695 13.267 24.2679 13.2653 24.2659L10.6785 21.0934C10.6762 21.0906 10.673 21.0886 10.6695 21.0876C10.6659 21.0866 10.6622 21.0868 10.6587 21.088C10.6553 21.0893 10.6523 21.0916 10.6502 21.0946C10.6482 21.0976 10.6471 21.1012 10.6471 21.1048V24.2545C10.6471 24.2592 10.6452 24.2637 10.6419 24.267C10.6386 24.2703 10.6341 24.2722 10.6294 24.2722H10.0517C10.047 24.2722 10.0426 24.2703 10.0392 24.267C10.0359 24.2637 10.0341 24.2592 10.0341 24.2545V19.9557C10.0341 19.951 10.0359 19.9465 10.0392 19.9432C10.0426 19.9399 10.047 19.9381 10.0517 19.9381H10.5388C10.5414 19.938 10.5439 19.9386 10.5463 19.9397C10.5487 19.9407 10.5508 19.9423 10.5524 19.9443L13.1392 23.1162C13.1416 23.1191 13.1447 23.1211 13.1482 23.1221C13.1518 23.1231 13.1555 23.1229 13.159 23.1217C13.1624 23.1204 13.1654 23.1181 13.1675 23.1151C13.1696 23.1121 13.1707 23.1085 13.1706 23.1048Z" fill="#D6D6D6"/>
<path id="Vector_11" d="M15.6655 20.4972V21.7889C15.6655 21.7934 15.6673 21.7977 15.6706 21.8009C15.6738 21.8042 15.6781 21.806 15.6827 21.806H17.8298C17.8343 21.806 17.8387 21.8078 17.8419 21.811C17.8451 21.8142 17.8469 21.8185 17.8469 21.8231V22.3164C17.8469 22.3209 17.8451 22.3252 17.8419 22.3285C17.8387 22.3317 17.8343 22.3335 17.8298 22.3335H15.6827C15.6781 22.3335 15.6738 22.3353 15.6706 22.3385C15.6673 22.3417 15.6655 22.346 15.6655 22.3506V23.7135C15.6655 23.7181 15.6673 23.7224 15.6706 23.7256C15.6738 23.7289 15.6781 23.7307 15.6827 23.7307H18.1862C18.1907 23.7307 18.1951 23.7325 18.1983 23.7357C18.2015 23.7389 18.2033 23.7432 18.2033 23.7478V24.2553C18.2033 24.2599 18.2015 24.2642 18.1983 24.2674C18.1951 24.2706 18.1907 24.2724 18.1862 24.2724H15.0696C15.0651 24.2724 15.0607 24.2706 15.0575 24.2674C15.0543 24.2642 15.0525 24.2599 15.0525 24.2553V19.9554C15.0525 19.9509 15.0543 19.9465 15.0575 19.9433C15.0607 19.9401 15.0651 19.9383 15.0696 19.9383H18.1006C18.1052 19.9383 18.1095 19.9401 18.1127 19.9433C18.116 19.9465 18.1178 19.9509 18.1178 19.9554V20.463C18.1178 20.4675 18.116 20.4718 18.1127 20.475C18.1095 20.4783 18.1052 20.4801 18.1006 20.4801H15.6827C15.6781 20.4801 15.6738 20.4819 15.6706 20.4851C15.6673 20.4883 15.6655 20.4926 15.6655 20.4972Z" fill="#D6D6D6"/>
<path id="Vector_12" d="M20.5888 22.5185L19.3337 24.2647C19.3319 24.267 19.3297 24.2689 19.3271 24.2702C19.3246 24.2715 19.3217 24.2721 19.3188 24.2721H18.6276C18.6243 24.2721 18.6209 24.2712 18.618 24.2694C18.6151 24.2677 18.6128 24.2651 18.6112 24.2621C18.6097 24.2591 18.609 24.2557 18.6093 24.2523C18.6096 24.249 18.6108 24.2457 18.6128 24.243L20.2182 22.06C20.2205 22.0568 20.2217 22.053 20.2217 22.0491C20.2217 22.0452 20.2205 22.0414 20.2182 22.0383L18.712 19.9676C18.71 19.9649 18.7088 19.9616 18.7085 19.9583C18.7083 19.9549 18.7089 19.9515 18.7105 19.9485C18.712 19.9455 18.7144 19.9429 18.7173 19.9412C18.7202 19.9394 18.7235 19.9385 18.7269 19.9385L19.4118 19.9374C19.4147 19.9374 19.4175 19.938 19.4201 19.9393C19.4227 19.9406 19.4249 19.9425 19.4266 19.9448L20.6139 21.5684C20.6156 21.5707 20.6179 21.5727 20.6204 21.574C20.623 21.5753 20.6259 21.576 20.6288 21.576C20.6317 21.576 20.6345 21.5753 20.6371 21.574C20.6397 21.5727 20.6419 21.5707 20.6436 21.5684L21.8172 19.9454C21.8189 19.943 21.8212 19.9412 21.8238 19.9399C21.8263 19.9386 21.8292 19.9379 21.8321 19.9379H26.0978C26.1026 19.9379 26.1073 19.9399 26.1107 19.9433C26.1141 19.9467 26.116 19.9514 26.116 19.9562V20.4615C26.116 20.4663 26.1141 20.4709 26.1107 20.4744C26.1073 20.4778 26.1026 20.4797 26.0978 20.4797H24.6373C24.6324 20.4797 24.6278 20.4816 24.6244 20.4851C24.621 20.4885 24.619 20.4931 24.619 20.498V24.2538C24.619 24.2587 24.6171 24.2633 24.6137 24.2667C24.6103 24.2702 24.6056 24.2721 24.6008 24.2721H24.0242C24.0194 24.2721 24.0147 24.2702 24.0113 24.2667C24.0079 24.2633 24.006 24.2587 24.006 24.2538V20.498C24.006 20.4931 24.0041 20.4885 24.0006 20.4851C23.9972 20.4816 23.9926 20.4797 23.9877 20.4797H22.5278C22.523 20.4797 22.5183 20.4778 22.5149 20.4744C22.5115 20.4709 22.5096 20.4663 22.5096 20.4615L22.5084 20.0115C22.5083 20.0077 22.5071 20.004 22.5048 20.0009C22.5025 19.9978 22.4992 19.9956 22.4956 19.9945C22.4919 19.9933 22.488 19.9934 22.4844 19.9946C22.4807 19.9958 22.4776 19.9981 22.4753 20.0012L20.9955 22.0206C20.9931 22.0238 20.9919 22.0276 20.9919 22.0315C20.9919 22.0354 20.9931 22.0392 20.9955 22.0423L22.6128 24.243C22.6148 24.2457 22.616 24.249 22.6163 24.2523C22.6166 24.2557 22.6159 24.2591 22.6144 24.2621C22.6128 24.2651 22.6105 24.2677 22.6076 24.2694C22.6047 24.2712 22.6013 24.2721 22.598 24.2721H21.9068C21.9039 24.2721 21.901 24.2715 21.8985 24.2702C21.8959 24.2689 21.8937 24.267 21.8919 24.2647L20.6185 22.5185C20.6168 22.5161 20.6146 22.5142 20.612 22.5129C20.6094 22.5116 20.6066 22.5109 20.6037 22.5109C20.6008 22.5109 20.5979 22.5116 20.5953 22.5129C20.5928 22.5142 20.5905 22.5161 20.5888 22.5185Z" fill="#D6D6D6"/>
<path id="Vector_13" d="M29.402 22.8548L30.3829 24.2383C30.3993 24.2611 30.3934 24.2725 30.3652 24.2725H29.7528C29.7296 24.2725 29.7111 24.263 29.6974 24.244L28.7913 22.9803C28.7818 22.9674 28.7692 22.9609 28.7536 22.9609H27.442C27.423 22.9609 27.4135 22.9704 27.4135 22.9894V24.244C27.4135 24.263 27.404 24.2725 27.385 24.2725H26.8289C26.8099 24.2725 26.8004 24.263 26.8004 24.244V19.9681C26.8004 19.9506 26.8092 19.9418 26.8266 19.9418C27.7961 19.9342 28.4335 19.9337 28.7388 19.9401C29.5332 19.9572 30.2096 20.4169 30.3191 21.2495C30.408 21.9281 30.0887 22.5674 29.4163 22.8092C29.3916 22.8183 29.3868 22.8335 29.402 22.8548ZM27.41 20.5013L27.4169 22.4174C27.4169 22.4217 27.4186 22.4257 27.4216 22.4287C27.4246 22.4317 27.4286 22.4334 27.4329 22.4334L28.6373 22.4294C28.7781 22.4289 28.9174 22.4048 29.0473 22.3584C29.1772 22.312 29.2952 22.2443 29.3944 22.1592C29.4937 22.074 29.5723 21.9731 29.6257 21.8621C29.6792 21.7511 29.7065 21.6323 29.706 21.5124V21.3903C29.7051 21.1482 29.5912 20.9164 29.3895 20.7459C29.1878 20.5755 28.9148 20.4803 28.6305 20.4813L27.426 20.4853C27.4218 20.4853 27.4177 20.487 27.4147 20.49C27.4117 20.493 27.41 20.497 27.41 20.5013Z" fill="#D6D6D6"/>
<path id="Vector_14" d="M39.6887 23.1048V19.9557C39.6887 19.951 39.6905 19.9465 39.6939 19.9432C39.6972 19.9399 39.7017 19.9381 39.7064 19.9381H40.2841C40.2887 19.9381 40.2932 19.9399 40.2966 19.9432C40.2999 19.9465 40.3017 19.951 40.3017 19.9557V24.2545C40.3017 24.2592 40.2999 24.2637 40.2966 24.267C40.2932 24.2703 40.2887 24.2722 40.2841 24.2722H39.797C39.7944 24.2722 39.7919 24.2717 39.7895 24.2706C39.7871 24.2695 39.785 24.2679 39.7833 24.2659L37.1965 21.094C37.1942 21.0912 37.1911 21.0891 37.1875 21.0882C37.184 21.0872 37.1803 21.0873 37.1768 21.0886C37.1734 21.0898 37.1704 21.0921 37.1683 21.0951C37.1662 21.0982 37.1651 21.1017 37.1652 21.1054V24.2545C37.1652 24.2592 37.1633 24.2637 37.16 24.267C37.1567 24.2703 37.1522 24.2722 37.1475 24.2722H36.5698C36.5651 24.2722 36.5606 24.2703 36.5573 24.267C36.554 24.2637 36.5521 24.2592 36.5521 24.2545V19.9557C36.5521 19.951 36.554 19.9465 36.5573 19.9432C36.5606 19.9399 36.5651 19.9381 36.5698 19.9381H37.0568C37.0594 19.938 37.062 19.9386 37.0644 19.9397C37.0667 19.9407 37.0688 19.9423 37.0705 19.9443L39.6573 23.1162C39.6596 23.1191 39.6628 23.1211 39.6663 23.1221C39.6698 23.1231 39.6736 23.1229 39.677 23.1217C39.6805 23.1204 39.6835 23.1181 39.6855 23.1151C39.6876 23.1121 39.6887 23.1085 39.6887 23.1048Z" fill="#D6D6D6"/>
<path id="Vector_15" d="M42.2196 19.9386H41.6482C41.6365 19.9386 41.6271 19.948 41.6271 19.9597V24.2516C41.6271 24.2633 41.6365 24.2727 41.6482 24.2727H42.2196C42.2313 24.2727 42.2407 24.2633 42.2407 24.2516V19.9597C42.2407 19.948 42.2313 19.9386 42.2196 19.9386Z" fill="#D6D6D6"/>
<path id="Vector_16" d="M5.96848 23.5695L7.07767 20.9872C7.08452 20.972 7.09611 20.9644 7.11246 20.9644H7.65081C7.6759 20.9644 7.6835 20.976 7.67362 20.9992C7.18394 22.1196 6.6933 23.2391 6.20172 24.3576C6.00897 24.7956 5.85176 25.0775 5.7301 25.2033C5.34116 25.6054 4.5479 25.6727 4.07286 25.2438C4.05879 25.2313 4.05632 25.2168 4.06544 25.2005L4.29413 24.7927C4.30553 24.7726 4.32017 24.7699 4.33804 24.7847C4.63287 25.0374 5.03892 25.1149 5.34345 24.8292C5.4172 24.76 5.50807 24.5794 5.61604 24.2874C5.6226 24.2699 5.62198 24.2505 5.61433 24.2333L4.19376 21.0026C4.18235 20.9772 4.19053 20.9644 4.21828 20.9644H4.78628C4.80643 20.9644 4.82069 20.9737 4.82905 20.9924L5.9468 23.5695C5.94777 23.5715 5.94931 23.5733 5.95122 23.5745C5.95314 23.5757 5.95537 23.5763 5.95764 23.5763C5.95991 23.5763 5.96214 23.5757 5.96406 23.5745C5.96597 23.5733 5.96751 23.5715 5.96848 23.5695Z" fill="#D6D6D6"/>
</g>
</svg>
