<svg width="18" height="19" viewBox="0 0 18 19" fill="white" xmlns="http://www.w3.org/2000/svg">
<g id="Group">
<path id="Vector" d="M5.77354 8.94346H2.54706C1.90527 8.94346 1.28977 8.68851 0.835958 8.2347C0.382146 7.78089 0.127197 7.16539 0.127197 6.5236V3.29712C0.127197 2.65533 0.382146 2.03983 0.835958 1.58602C1.28977 1.13221 1.90527 0.877258 2.54706 0.877258H5.77354C6.41532 0.877258 7.03083 1.13221 7.48464 1.58602C7.93845 2.03983 8.1934 2.65533 8.1934 3.29712V6.5236C8.1934 7.16539 7.93845 7.78089 7.48464 8.2347C7.03083 8.68851 6.41532 8.94346 5.77354 8.94346ZM2.54706 2.4905C2.33313 2.4905 2.12796 2.57548 1.97669 2.72675C1.82542 2.87802 1.74044 3.08319 1.74044 3.29712V6.5236C1.74044 6.73753 1.82542 6.94269 1.97669 7.09396C2.12796 7.24524 2.33313 7.33022 2.54706 7.33022H5.77354C5.98747 7.33022 6.19263 7.24524 6.3439 7.09396C6.49517 6.94269 6.58016 6.73753 6.58016 6.5236V3.29712C6.58016 3.08319 6.49517 2.87802 6.3439 2.72675C6.19263 2.57548 5.98747 2.4905 5.77354 2.4905H2.54706ZM15.453 8.94346H12.2265C11.5847 8.94346 10.9692 8.68851 10.5154 8.2347C10.0616 7.78089 9.80664 7.16539 9.80664 6.5236V3.29712C9.80664 2.65533 10.0616 2.03983 10.5154 1.58602C10.9692 1.13221 11.5847 0.877258 12.2265 0.877258H15.453C16.0948 0.877258 16.7103 1.13221 17.1641 1.58602C17.6179 2.03983 17.8728 2.65533 17.8728 3.29712V6.5236C17.8728 7.16539 17.6179 7.78089 17.1641 8.2347C16.7103 8.68851 16.0948 8.94346 15.453 8.94346ZM12.2265 2.4905C12.0126 2.4905 11.8074 2.57548 11.6561 2.72675C11.5049 2.87802 11.4199 3.08319 11.4199 3.29712V6.5236C11.4199 6.73753 11.5049 6.94269 11.6561 7.09396C11.8074 7.24524 12.0126 7.33022 12.2265 7.33022H15.453C15.6669 7.33022 15.8721 7.24524 16.0233 7.09396C16.1746 6.94269 16.2596 6.73753 16.2596 6.5236V3.29712C16.2596 3.08319 16.1746 2.87802 16.0233 2.72675C15.8721 2.57548 15.6669 2.4905 15.453 2.4905H12.2265ZM5.77354 18.6229H2.54706C1.90527 18.6229 1.28977 18.368 0.835958 17.9141C0.382146 17.4603 0.127197 16.8448 0.127197 16.203V12.9766C0.127197 12.3348 0.382146 11.7193 0.835958 11.2655C1.28977 10.8116 1.90527 10.5567 2.54706 10.5567H5.77354C6.41532 10.5567 7.03083 10.8116 7.48464 11.2655C7.93845 11.7193 8.1934 12.3348 8.1934 12.9766V16.203C8.1934 16.8448 7.93845 17.4603 7.48464 17.9141C7.03083 18.368 6.41532 18.6229 5.77354 18.6229ZM2.54706 12.1699C2.33313 12.1699 2.12796 12.2549 1.97669 12.4062C1.82542 12.5575 1.74044 12.7626 1.74044 12.9766V16.203C1.74044 16.417 1.82542 16.6221 1.97669 16.7734C2.12796 16.9247 2.33313 17.0097 2.54706 17.0097H5.77354C5.98747 17.0097 6.19263 16.9247 6.3439 16.7734C6.49517 16.6221 6.58016 16.417 6.58016 16.203V12.9766C6.58016 12.7626 6.49517 12.5575 6.3439 12.4062C6.19263 12.2549 5.98747 12.1699 5.77354 12.1699H2.54706ZM15.453 18.6229H12.2265C11.5847 18.6229 10.9692 18.368 10.5154 17.9141C10.0616 17.4603 9.80664 16.8448 9.80664 16.203V12.9766C9.80664 12.3348 10.0616 11.7193 10.5154 11.2655C10.9692 10.8116 11.5847 10.5567 12.2265 10.5567H15.453C16.0948 10.5567 16.7103 10.8116 17.1641 11.2655C17.6179 11.7193 17.8728 12.3348 17.8728 12.9766V16.203C17.8728 16.8448 17.6179 17.4603 17.1641 17.9141C16.7103 18.368 16.0948 18.6229 15.453 18.6229ZM12.2265 12.1699C12.0126 12.1699 11.8074 12.2549 11.6561 12.4062C11.5049 12.5575 11.4199 12.7626 11.4199 12.9766V16.203C11.4199 16.417 11.5049 16.6221 11.6561 16.7734C11.8074 16.9247 12.0126 17.0097 12.2265 17.0097H15.453C15.6669 17.0097 15.8721 16.9247 16.0233 16.7734C16.1746 16.6221 16.2596 16.417 16.2596 16.203V12.9766C16.2596 12.7626 16.1746 12.5575 16.0233 12.4062C15.8721 12.2549 15.6669 12.1699 15.453 12.1699H12.2265Z"/>
</g>
</svg>
