<svg width="46" height="40" viewBox="0 0 46 40" fill="#888888" xmlns="http://www.w3.org/2000/svg">
<g id="034-delivery van">
<g id="Layer_x0020_1">
<path id="Vector" fill-rule="evenodd" clip-rule="evenodd" d="M28.2742 32.7802H15.1118C15.1289 32.5836 15.1383 32.3848 15.1383 32.1836C15.1383 28.527 12.2278 25.5532 8.64892 25.5532C5.07007 25.5532 2.15955 28.527 2.15955 32.1836C2.15955 32.3848 2.16889 32.5836 2.18608 32.7802H0.584058C0.261468 32.7802 0 32.513 0 32.1835V24.2343C0 23.9048 0.261468 23.6377 0.584058 23.6377H28.2742C28.5968 23.6377 28.8583 23.9048 28.8583 24.2345V32.1835C28.8581 32.513 28.5967 32.7802 28.2742 32.7802Z"/>
<path id="Vector_2" fill-rule="evenodd" clip-rule="evenodd" d="M45.4152 32.7801H43.8133C43.8305 32.5837 43.8398 32.3847 43.8398 32.1837C43.8398 28.5271 40.9293 25.5533 37.3504 25.5533C33.7716 25.5533 30.8612 28.5271 30.8612 32.1837C30.8612 32.3847 30.8705 32.5837 30.8877 32.7801H29.9258C29.9904 32.5934 30.0256 32.3927 30.0256 32.1836V24.2345V9.86255H41.168C41.3676 9.86255 41.5534 9.96663 41.6605 10.1387L43.7672 13.5182L35.5879 13.5181C35.2653 13.5181 35.0039 13.7853 35.0039 14.1149V21.6584C35.0039 21.9879 35.2653 22.2551 35.5879 22.2551H45.4152C45.7378 22.2551 45.9992 21.9879 45.9992 21.6584V32.1836C45.9992 32.513 45.7378 32.7801 45.4152 32.7801ZM44.5112 14.7115L44.8312 15.225V21.0618H36.1718V14.7115L44.5112 14.7115Z"/>
<path id="Vector_3" fill-rule="evenodd" clip-rule="evenodd" d="M8.64861 37.6208C5.71432 37.6208 3.32715 35.1817 3.32715 32.1837C3.32715 29.1856 5.71442 26.7466 8.64861 26.7466C11.5829 26.7466 13.9701 29.1856 13.9701 32.1837C13.9701 35.1817 11.5829 37.6208 8.64861 37.6208ZM8.64861 34.6906C7.29564 34.6906 6.19491 33.566 6.19491 32.1836C6.19491 30.8011 7.29564 29.6765 8.64861 29.6765C10.0017 29.6765 11.1023 30.8011 11.1023 32.1836C11.1023 33.566 10.0017 34.6906 8.64861 34.6906ZM8.64861 30.8699C7.93965 30.8699 7.36281 31.4592 7.36281 32.1837C7.36281 32.908 7.93965 33.4974 8.64861 33.4974C9.35756 33.4974 9.9344 32.9081 9.9344 32.1837C9.9344 31.4592 9.35756 30.8699 8.64861 30.8699Z"/>
<path id="Vector_4" fill-rule="evenodd" clip-rule="evenodd" d="M37.3506 37.6208C34.4164 37.6208 32.0293 35.1817 32.0293 32.1837C32.0293 29.1856 34.4164 26.7466 37.3506 26.7466C40.2849 26.7466 42.6721 29.1856 42.6721 32.1837C42.6721 35.1817 40.285 37.6208 37.3506 37.6208ZM37.3506 34.6906C35.9976 34.6906 34.8967 33.566 34.8967 32.1836C34.8967 30.8011 35.9976 29.6765 37.3506 29.6765C38.7037 29.6765 39.8043 30.8011 39.8043 32.1836C39.8043 33.566 38.7037 34.6906 37.3506 34.6906ZM37.3506 30.8699C36.6416 30.8699 36.0647 31.4592 36.0647 32.1837C36.0647 32.908 36.6416 33.4974 37.3506 33.4974C38.0596 33.4974 38.6364 32.9081 38.6364 32.1837C38.6364 31.4592 38.0596 30.8699 37.3506 30.8699Z"/>
<path id="Vector_5" fill-rule="evenodd" clip-rule="evenodd" d="M0 22.5466V3.9758C0 3.6462 0.261468 3.37915 0.584058 3.37915H28.2742C28.5968 3.37915 28.8583 3.64619 28.8583 3.9758V22.5466C28.6756 22.4806 28.479 22.4445 28.2742 22.4445H0.584058C0.379255 22.4445 0.182624 22.4806 0 22.5466ZM3.27937 12.8984C2.95678 12.8984 2.69542 12.6313 2.69542 12.3018V6.72973C2.69542 6.40013 2.95678 6.13298 3.27937 6.13298H9.85744C10.1799 6.13298 10.4414 6.40013 10.4414 6.72973C10.4414 7.05923 10.1799 7.32638 9.85744 7.32638H3.86332V12.3017C3.86332 12.6312 3.60196 12.8984 3.27937 12.8984Z"/>
</g>
</g>
</svg>
