<svg width="65" height="65" viewBox="0 0 65 65" fill="none" xmlns="http://www.w3.org/2000/svg">
<g id="Frame">
<g id="Group">
<path id="Vector" d="M54.3921 30.2414L53.8885 30.9016L53.9626 31.3092C53.9626 31.3176 54.1849 31.4642 54.1849 31.4642C54.1849 31.4642 54.4544 30.4334 54.4494 30.4334C54.4426 30.4351 54.3904 30.2397 54.3904 30.2397L54.3921 30.2414Z" fill="#E3E7F0"/>
<path id="Vector_2" d="M47.9921 51.6225C46.7121 53.593 45.0111 55.2941 43.0237 56.6078C40.0846 58.5733 36.6259 59.6172 33.0902 59.6057C26.1007 59.6057 20.0376 55.5973 17.0751 49.753V49.7194C16.9235 49.4499 16.7887 49.1804 16.6708 48.8941H16.654C16.6372 48.8436 16.6035 48.7762 16.5866 48.7257C11.5273 36.6768 20.3205 23.6697 33.0902 23.6697C47.5593 23.6697 55.9989 39.9762 47.9938 51.6225H47.9921Z" fill="#B0B8CF"/>
<path id="Vector_3" d="M50.1479 47.2622C49.9963 47.7607 49.6224 48.7679 49.4237 49.098C50.1142 46.4706 50.569 45.578 49.2553 43.4054C47.9247 41.3675 47.5711 38.1843 47.3521 34.8159C47.2679 33.5696 47.0826 32.3401 46.7963 31.1292C50.409 35.7793 51.5323 41.7279 50.1479 47.2622Z" fill="#111D33" fill-opacity="0.188235"/>
<path id="Vector_4" opacity="0.3" d="M46.1395 53.9636C45.2123 54.9684 44.166 55.8564 43.0237 56.6078C40.0846 58.5733 36.6259 59.6172 33.0902 59.6057C25.7639 59.6057 19.4481 55.1931 16.6709 48.8941H16.654C13.5972 41.8288 15.2207 33.7025 20.9656 28.3838C16.0999 33.2427 14.3803 41.3219 17.4456 48.1042C20.2414 54.42 26.5403 58.8141 33.8818 58.8141C38.6043 58.8141 43.017 56.9413 46.1395 53.9636Z" fill="white"/>
<path id="Vector_5" opacity="0.3" d="M20.0056 31.2471C19.6182 32.6113 19.3824 34.026 19.2982 35.4576C19.0792 38.6744 18.7424 41.7229 17.4792 43.6749C16.3508 45.5275 16.1992 46.7738 16.5866 48.7275C16.2329 47.8854 15.9298 47.0096 15.7108 46.117C14.8216 40.4782 16.5546 35.0618 20.0056 31.2471Z" fill="#111D33"/>
<path id="Vector_6" d="M50.9664 43.4844C50.8317 43.0633 50.6279 42.6254 50.3382 42.1488C48.5412 39.3766 48.6911 34.5463 48.3172 32.0941C50.449 35.4878 51.3818 39.4982 50.9664 43.4844ZM47.4818 42.7652C47.4818 46.5799 45.9664 50.2383 43.2691 52.9357C40.5717 55.633 36.9133 57.1484 33.0986 57.1484C29.284 57.1484 25.6256 55.633 22.9282 52.9357C20.2308 50.2383 18.7155 46.5799 18.7155 42.7652C18.7155 38.9506 20.2308 35.2922 22.9282 32.5948C25.6256 29.8974 29.284 28.3821 33.0986 28.3821C36.9133 28.3821 40.5717 29.8974 43.2691 32.5948C45.9664 35.2922 47.4818 38.9506 47.4818 42.7652Z" fill="#E3E7F0"/>
<path id="Vector_7" d="M33.0986 56.4765C25.5382 56.4765 19.3892 50.3258 19.3892 42.7654C19.3892 35.205 25.5382 29.0559 33.0986 29.0559C40.6591 29.0559 46.8081 35.205 46.8081 42.7654C46.8081 50.3258 40.6591 56.4765 33.0986 56.4765Z" fill="#C9CEE2"/>
<path id="Vector_8" d="M44.7584 42.7653C44.7574 44.9232 44.1573 47.0384 43.0251 48.8755C41.8929 50.7125 40.273 52.1992 38.3458 53.17C36.4186 54.1407 34.2597 54.5575 32.1096 54.3738C29.9596 54.1901 27.9027 53.4131 26.1681 52.1295C25.9323 51.9611 25.6965 51.7758 25.4776 51.5737C24.1393 50.4266 23.0844 48.9856 22.3955 47.3632C18.6279 38.8074 26.2809 29.1905 35.8186 31.4305C40.6641 32.5505 44.7601 37.044 44.7601 42.7653H44.7584Z" fill="#4C5C75"/>
<path id="Vector_9" opacity="0.2" d="M33.0986 31.8953C30.2167 31.8984 27.4537 33.0446 25.4159 35.0824C23.3781 37.1203 22.2318 39.8832 22.2287 42.7652C22.2318 45.6471 23.3781 48.4101 25.4159 50.4479C27.4537 52.4857 30.2167 53.6319 33.0986 53.6351C35.9804 53.6315 38.7431 52.4851 40.7809 50.4474C42.8186 48.4097 43.965 45.6469 43.9685 42.7652C43.965 39.8834 42.8186 37.1206 40.7809 35.0829C38.7431 33.0452 35.9804 31.8988 33.0986 31.8953ZM33.0986 52.9631C30.3952 52.9595 27.8036 51.8839 25.8922 49.9721C23.9807 48.0604 22.9055 45.4686 22.9024 42.7652C22.9024 37.1433 27.475 32.5673 33.0986 32.5673C38.7222 32.5673 43.2965 37.1433 43.2965 42.7652C43.2934 45.4689 42.218 48.0609 40.3062 49.9727C38.3944 51.8845 35.8023 52.9599 33.0986 52.9631Z" fill="#111D33"/>
<path id="Vector_10" d="M33.0987 52.9632C30.395 52.9601 27.8029 51.8847 25.8911 49.9729C23.9793 48.0611 22.9039 45.469 22.9008 42.7653C22.9039 40.0618 23.9794 37.4699 25.8912 35.5583C27.803 33.6468 30.3951 32.5718 33.0987 32.5691C35.8021 32.5722 38.3939 33.6474 40.3056 35.5588C42.2174 37.4703 43.293 40.0619 43.2965 42.7653C43.2934 45.469 42.218 48.0611 40.3062 49.9729C38.3944 51.8847 35.8023 52.9601 33.0987 52.9632Z" fill="#31445B"/>
<path id="Vector_11" d="M33.6123 35.988H32.5849C32.5273 35.988 32.4702 35.9766 32.417 35.9545C32.3637 35.9324 32.3154 35.9 32.2747 35.8592C32.234 35.8183 32.2018 35.7698 32.1799 35.7165C32.158 35.6632 32.1468 35.6061 32.147 35.5484V34.0832C32.147 34.0257 32.1584 33.9687 32.1804 33.9156C32.2024 33.8625 32.2346 33.8142 32.2753 33.7735C32.316 33.7329 32.3642 33.7006 32.4174 33.6786C32.4705 33.6566 32.5274 33.6453 32.5849 33.6453H33.6123C33.6698 33.6453 33.7267 33.6566 33.7799 33.6786C33.833 33.7006 33.8813 33.7329 33.9219 33.7735C33.9626 33.8142 33.9949 33.8625 34.0169 33.9156C34.0389 33.9687 34.0502 34.0257 34.0502 34.0832V35.5484C34.0504 35.6061 34.0393 35.6632 34.0173 35.7165C33.9954 35.7698 33.9632 35.8183 33.9225 35.8592C33.8818 35.9 33.8335 35.9324 33.7803 35.9545C33.727 35.9766 33.6699 35.988 33.6123 35.988Z" fill="#F8F9FE"/>
<path id="Vector_12" d="M33.6123 35.988H33.0986V33.6453H33.6123C33.7285 33.6453 33.8398 33.6914 33.922 33.7735C34.0041 33.8556 34.0502 33.967 34.0502 34.0832V35.5484C34.0504 35.6061 34.0393 35.6632 34.0174 35.7165C33.9955 35.7698 33.9632 35.8183 33.9225 35.8592C33.8819 35.9 33.8335 35.9324 33.7803 35.9545C33.727 35.9766 33.67 35.988 33.6123 35.988Z" fill="#DEDFFB"/>
<path id="Vector_13" d="M33.6123 51.8869H32.5849C32.5272 51.8869 32.4699 51.8755 32.4166 51.8533C32.3632 51.8311 32.3148 51.7985 32.2741 51.7575C32.2334 51.7165 32.2012 51.6678 32.1794 51.6143C32.1576 51.5608 32.1466 51.5035 32.147 51.4457V49.9821C32.147 49.9246 32.1584 49.8676 32.1804 49.8145C32.2024 49.7614 32.2346 49.7131 32.2753 49.6724C32.316 49.6318 32.3642 49.5995 32.4174 49.5775C32.4705 49.5555 32.5274 49.5442 32.5849 49.5442H33.6123C33.7284 49.5442 33.8398 49.5903 33.9219 49.6724C34.0041 49.7546 34.0502 49.8659 34.0502 49.9821V51.4473C34.0502 51.5635 34.0041 51.6749 33.9219 51.757C33.8398 51.8391 33.7284 51.8852 33.6123 51.8852V51.8869Z" fill="#F8F9FE"/>
<path id="Vector_14" d="M33.6123 51.8869H33.0986V49.5425H33.6123C33.7285 49.5425 33.8398 49.5886 33.922 49.6707C34.0041 49.7529 34.0502 49.8642 34.0502 49.9804V51.4456C34.0502 51.5618 34.0041 51.6732 33.922 51.7553C33.8398 51.8374 33.7285 51.8835 33.6123 51.8835V51.8869Z" fill="#DEDFFB"/>
<path id="Vector_15" d="M39.8759 43.2773V42.2533C39.8757 42.1954 39.8869 42.138 39.9091 42.0844C39.9312 42.0309 39.9637 41.9823 40.0047 41.9414C40.0458 41.9005 40.0945 41.8682 40.1482 41.8463C40.2018 41.8243 40.2592 41.8133 40.3172 41.8137H41.7807C41.8382 41.8137 41.8952 41.8251 41.9483 41.8471C42.0014 41.8691 42.0497 41.9013 42.0904 41.942C42.131 41.9827 42.1633 42.0309 42.1853 42.0841C42.2073 42.1372 42.2186 42.1941 42.2186 42.2516V43.279C42.2186 43.3951 42.1725 43.5065 42.0904 43.5886C42.0082 43.6708 41.8969 43.7169 41.7807 43.7169H40.3155C40.1993 43.7169 40.088 43.6708 40.0058 43.5886C39.9237 43.5065 39.8776 43.3951 39.8776 43.279L39.8759 43.2773Z" fill="#F8F9FE"/>
<path id="Vector_16" d="M39.8759 43.2772V42.7668H42.2203V43.2788C42.2203 43.3365 42.209 43.3936 42.1868 43.4468C42.1647 43.5001 42.1323 43.5484 42.0915 43.5891C42.0506 43.6298 42.0022 43.662 41.9488 43.6839C41.8955 43.7058 41.8384 43.717 41.7808 43.7167H40.3155C40.1994 43.7167 40.088 43.6706 40.0059 43.5885C39.9237 43.5064 39.8776 43.395 39.8776 43.2788L39.8759 43.2772Z" fill="#DEDFFB"/>
<path id="Vector_17" d="M23.9786 43.2773V42.2533C23.9784 42.1957 23.9896 42.1385 24.0115 42.0852C24.0334 42.0319 24.0656 41.9834 24.1063 41.9426C24.147 41.9017 24.1953 41.8693 24.2486 41.8472C24.3018 41.8251 24.3589 41.8137 24.4165 41.8137H25.8818C25.9393 41.8137 25.9962 41.825 26.0494 41.8471C26.1025 41.8691 26.1508 41.9013 26.1914 41.942C26.2321 41.9826 26.2644 42.0309 26.2864 42.084C26.3084 42.1372 26.3197 42.1941 26.3197 42.2516V43.279C26.3197 43.3951 26.2736 43.5065 26.1914 43.5886C26.1093 43.6707 25.9979 43.7169 25.8818 43.7169H24.4165C24.3004 43.7169 24.189 43.6707 24.1069 43.5886C24.0248 43.5065 23.9786 43.3951 23.9786 43.279V43.2773Z" fill="#F8F9FE"/>
<path id="Vector_18" d="M23.9786 43.2772V42.7668H26.3197V43.2788C26.3197 43.395 26.2736 43.5064 26.1914 43.5885C26.1093 43.6706 25.9979 43.7167 25.8818 43.7167H24.4165C24.3004 43.7167 24.189 43.6706 24.1069 43.5885C24.0248 43.5064 23.9786 43.395 23.9786 43.2788V43.2772Z" fill="#DEDFFB"/>
<path id="Vector_19" d="M38.254 38.3358L37.5298 37.6116C37.4886 37.5708 37.4558 37.5223 37.4335 37.4688C37.4111 37.4154 37.3996 37.358 37.3996 37.3C37.3996 37.242 37.4111 37.1846 37.4335 37.1311C37.4558 37.0777 37.4886 37.0291 37.5298 36.9884L38.5639 35.9543C38.6046 35.9133 38.653 35.8808 38.7064 35.8586C38.7597 35.8364 38.8169 35.825 38.8746 35.825C38.9324 35.825 38.9896 35.8364 39.0429 35.8586C39.0963 35.8808 39.1447 35.9133 39.1854 35.9543L39.9096 36.6785C39.9506 36.7192 39.9831 36.7676 40.0053 36.821C40.0275 36.8743 40.039 36.9315 40.039 36.9893C40.039 37.047 40.0275 37.1042 40.0053 37.1576C39.9831 37.2109 39.9506 37.2593 39.9096 37.3L38.8755 38.3358C38.8348 38.3768 38.7864 38.4093 38.733 38.4315C38.6797 38.4537 38.6225 38.4651 38.5648 38.4651C38.507 38.4651 38.4498 38.4537 38.3965 38.4315C38.3431 38.4093 38.2947 38.3768 38.254 38.3358Z" fill="#F8F9FE"/>
<path id="Vector_20" d="M38.254 38.3358L37.8919 37.9737L39.5492 36.3164L39.9113 36.6785C39.9523 36.7192 39.9848 36.7676 40.007 36.821C40.0292 36.8743 40.0406 36.9315 40.0406 36.9892C40.0406 37.047 40.0292 37.1042 40.007 37.1575C39.9848 37.2109 39.9523 37.2593 39.9113 37.3L38.8755 38.3358C38.8348 38.3768 38.7864 38.4093 38.733 38.4315C38.6797 38.4537 38.6225 38.4651 38.5647 38.4651C38.507 38.4651 38.4498 38.4537 38.3965 38.4315C38.3431 38.4093 38.2947 38.3768 38.254 38.3358Z" fill="#DEDFFB"/>
<path id="Vector_21" d="M27.0119 49.5778L26.2877 48.8536C26.2464 48.8129 26.2137 48.7644 26.1913 48.7109C26.169 48.6574 26.1575 48.6 26.1575 48.542C26.1575 48.4841 26.169 48.4267 26.1913 48.3732C26.2137 48.3197 26.2464 48.2712 26.2877 48.2305L27.3235 47.1947C27.3641 47.1539 27.4124 47.1216 27.4656 47.0996C27.5188 47.0775 27.5758 47.0662 27.6334 47.0662C27.6909 47.0662 27.7479 47.0775 27.8011 47.0996C27.8543 47.1216 27.9026 47.1539 27.9433 47.1947L28.6675 47.9206C28.7085 47.9613 28.741 48.0097 28.7632 48.063C28.7854 48.1163 28.7968 48.1735 28.7968 48.2313C28.7968 48.2891 28.7854 48.3463 28.7632 48.3996C28.741 48.4529 28.7085 48.5013 28.6675 48.542L27.6334 49.5778C27.5927 49.6188 27.5443 49.6514 27.4909 49.6736C27.4376 49.6958 27.3804 49.7072 27.3226 49.7072C27.2649 49.7072 27.2077 49.6958 27.1543 49.6736C27.101 49.6514 27.0526 49.6188 27.0119 49.5778Z" fill="#F8F9FE"/>
<path id="Vector_22" d="M27.0119 49.578L26.6498 49.2159L28.307 47.5586L28.6691 47.9207C28.7101 47.9614 28.7427 48.0098 28.7649 48.0631C28.7871 48.1165 28.7985 48.1737 28.7985 48.2314C28.7985 48.2892 28.7871 48.3464 28.7649 48.3997C28.7427 48.4531 28.7101 48.5015 28.6691 48.5422L27.6334 49.578C27.5927 49.619 27.5442 49.6515 27.4909 49.6737C27.4376 49.6959 27.3804 49.7073 27.3226 49.7073C27.2649 49.7073 27.2077 49.6959 27.1543 49.6737C27.101 49.6515 27.0526 49.619 27.0119 49.578Z" fill="#DEDFFB"/>
<path id="Vector_23" d="M37.5281 47.9206L38.254 47.1964C38.2947 47.1551 38.3432 47.1224 38.3967 47.1C38.4502 47.0777 38.5076 47.0662 38.5656 47.0662C38.6235 47.0662 38.6809 47.0777 38.7344 47.1C38.7879 47.1224 38.8364 47.1551 38.8772 47.1964L39.9113 48.2322C39.952 48.2728 39.9843 48.3211 40.0064 48.3743C40.0284 48.4275 40.0398 48.4845 40.0398 48.5421C40.0398 48.5996 40.0284 48.6566 40.0064 48.7098C39.9843 48.763 39.952 48.8113 39.9113 48.852L39.1854 49.5778C39.1447 49.6188 39.0962 49.6514 39.0429 49.6736C38.9896 49.6958 38.9324 49.7072 38.8746 49.7072C38.8169 49.7072 38.7597 49.6958 38.7063 49.6736C38.653 49.6514 38.6046 49.6188 38.5639 49.5778L37.5298 48.5421C37.4888 48.5014 37.4563 48.4529 37.4341 48.3996C37.4119 48.3463 37.4004 48.2891 37.4004 48.2313C37.4004 48.1736 37.4119 48.1164 37.4341 48.063C37.4563 48.0097 37.4871 47.9613 37.5281 47.9206Z" fill="#F8F9FE"/>
<path id="Vector_24" d="M37.5281 47.9207L37.8902 47.5586L39.5475 49.2159L39.1854 49.578C39.1447 49.619 39.0962 49.6515 39.0429 49.6737C38.9896 49.6959 38.9324 49.7073 38.8746 49.7073C38.8169 49.7073 38.7597 49.6959 38.7063 49.6737C38.653 49.6515 38.6046 49.619 38.5639 49.578L37.5298 48.5422C37.4888 48.5015 37.4563 48.4531 37.4341 48.3997C37.4119 48.3464 37.4004 48.2892 37.4004 48.2314C37.4004 48.1737 37.4119 48.1165 37.4341 48.0631C37.4563 48.0098 37.4871 47.9614 37.5281 47.9207Z" fill="#DEDFFB"/>
<path id="Vector_25" d="M26.286 36.6786L27.0119 35.9544C27.0526 35.9132 27.1011 35.8804 27.1546 35.8581C27.2081 35.8357 27.2655 35.8242 27.3235 35.8242C27.3814 35.8242 27.4388 35.8357 27.4923 35.8581C27.5458 35.8804 27.5943 35.9132 27.6351 35.9544L28.6692 36.9902C28.7099 37.0309 28.7422 37.0792 28.7643 37.1324C28.7863 37.1855 28.7977 37.2425 28.7977 37.3001C28.7977 37.3577 28.7863 37.4147 28.7643 37.4679C28.7422 37.521 28.7099 37.5693 28.6692 37.61L27.9449 38.3359C27.9042 38.3771 27.8557 38.4099 27.8022 38.4322C27.7487 38.4546 27.6913 38.4661 27.6334 38.4661C27.5754 38.4661 27.518 38.4546 27.4645 38.4322C27.411 38.4099 27.3625 38.3771 27.3218 38.3359L26.2877 37.3001C26.2467 37.2594 26.2142 37.211 26.192 37.1577C26.1698 37.1043 26.1583 37.0471 26.1583 36.9894C26.1583 36.9316 26.1698 36.8744 26.192 36.8211C26.2142 36.7677 26.2467 36.7193 26.2877 36.6786H26.286Z" fill="#F8F9FE"/>
<path id="Vector_26" d="M26.286 36.6785L26.6498 36.3164L28.3054 37.9737L27.9433 38.3358C27.9026 38.3765 27.8543 38.4088 27.8011 38.4309C27.7479 38.4529 27.6909 38.4643 27.6334 38.4643C27.5758 38.4643 27.5188 38.4529 27.4656 38.4309C27.4125 38.4088 27.3641 38.3765 27.3235 38.3358L26.2877 37.3C26.2467 37.2593 26.2142 37.2109 26.192 37.1575C26.1698 37.1042 26.1583 37.047 26.1583 36.9892C26.1583 36.9315 26.1698 36.8743 26.192 36.821C26.2142 36.7676 26.2467 36.7192 26.2877 36.6785H26.286Z" fill="#DEDFFB"/>
<path id="Vector_27" d="M48.457 37.268C44.9925 21.8019 22.3349 21.1097 18.0704 37.6991C18.2995 36.3905 18.4241 34.9572 18.5201 33.4903C18.7104 30.6002 19.4734 27.6562 20.9892 25.1484C27.6469 14.1471 46.9546 16.2558 48.0797 33.4903C48.1656 34.7989 48.2734 36.0789 48.457 37.268Z" fill="#E3E7F0"/>
<path id="Vector_28" opacity="0.6" d="M48.457 38.2988C44.9925 22.8327 22.3349 22.1405 18.0704 38.7299C18.1799 38.1017 18.2658 37.4449 18.3365 36.7678C23.0911 21.4651 44.1572 22.063 48.2212 36.34C48.2835 37.012 48.361 37.6672 48.457 38.2988Z" fill="#7F8EB2"/>
<path id="Vector_29" d="M19.6637 29.7144C19.2804 31.0891 19.0433 32.5004 18.9563 33.9249C18.7441 37.1451 18.3955 40.1986 17.1323 42.1489C15.7125 44.4899 15.849 45.8508 16.6658 48.8975L16.6624 48.8925V48.8908C15.2742 45.7425 14.819 42.2618 15.3511 38.8625C15.8831 35.4631 17.3799 32.2879 19.6637 29.7144ZM49.545 48.8672C50.3466 45.519 51.0658 44.7325 49.646 42.3897C48.3828 40.4394 48.0342 37.3859 47.8237 34.1674C47.7491 32.9747 47.571 31.7908 47.2915 30.6289C49.274 33.1846 50.5298 36.2281 50.9264 39.4381C51.323 42.6482 50.8458 45.9058 49.545 48.8672Z" fill="#E3E7F0"/>
<path id="Vector_30" opacity="0.3" d="M48.457 37.268C48.1723 35.9914 48.2212 36.7981 48.0797 34.6692C47.8136 30.5783 46.3921 26.5396 43.5795 23.7269C35.6367 15.7825 19.5509 19.0212 18.5184 34.6692C18.4746 35.3581 18.4224 36.0368 18.3568 36.7004C18.254 37.0255 18.158 37.3589 18.0704 37.6991C18.2995 36.3905 18.4241 34.9572 18.5201 33.4903C18.7104 30.6002 19.4734 27.6562 20.9892 25.1484C27.6469 14.1471 46.9546 16.2558 48.0797 33.4903C48.1656 34.7989 48.2734 36.0789 48.457 37.268Z" fill="#111D33"/>
<path id="Vector_31" d="M54.1529 31.6933C53.5332 38.6441 52.9134 44.687 49.7942 48.3552C50.6868 45.4466 51.3218 44.0555 49.902 41.7127C48.6388 39.7624 48.2919 36.7106 48.0797 33.4904C46.9647 16.3906 27.6974 14.0647 20.9892 25.1485C19.4734 27.6563 18.7104 30.602 18.5201 33.4904C18.3079 36.7089 17.9609 39.7624 16.6978 41.7127C15.2662 44.0875 15.4397 45.7329 16.4906 48.4091C13.4557 44.1464 12.3306 37.9232 11.8692 32.7224C8.93863 22.1203 12.9437 13.0272 21.3614 8.56914H43.7715V7.8584C50.8856 11.4155 55.854 19.146 54.1529 31.6917V31.6933Z" fill="#C9CEE2"/>
<path id="Vector_32" opacity="0.4" d="M54.153 31.6933C53.5332 38.6441 52.9134 44.687 49.7942 48.3552C50.6532 45.551 51.2763 44.1582 50.0469 41.9637C50.7812 38.9624 51.118 35.4626 51.4549 31.6933C53.0498 19.9241 48.777 12.3923 42.3669 8.56914H43.7715V7.8584C50.8856 11.4155 55.854 19.146 54.153 31.6917V31.6933Z" fill="#B0B8CF"/>
<path id="Vector_33" opacity="0.4" d="M42.3669 8.56914H41.0717V7.8584C41.5113 8.07735 41.9441 8.31314 42.3669 8.56577V8.56914ZM23.4835 9.06261C16.5732 13.226 12.0679 20.9481 14.5589 31.5754C15.2056 34.3325 15.0759 37.1755 16.4789 41.93C16.4975 41.9951 16.4908 42.0649 16.4603 42.1253L16.457 42.1304C15.6266 43.6546 15.5088 44.8824 15.822 46.3241L15.8254 46.3443L15.8287 46.3578C15.8793 46.6474 15.4835 46.7923 15.3386 46.5363C15.2679 46.3679 13.8464 43.9931 12.8595 39.4289C12.3891 37.2164 12.0584 34.9765 11.8692 32.7224C9.94749 25.7666 10.7222 18.5818 15.6014 13.1081C18.2119 10.1422 21.1374 8.71061 21.3109 8.59608C21.3476 8.57828 21.3879 8.56907 21.4288 8.56914H23.3471C23.6165 8.56914 23.7142 8.92282 23.4818 9.06261H23.4835Z" fill="#B0B8CF"/>
<path id="Vector_34" d="M44.0511 8.56904H44.0376C43.967 8.56904 43.8993 8.541 43.8494 8.4911C43.7995 8.4412 43.7715 8.37351 43.7715 8.30293V8.2962C43.7715 8.09409 43.9854 7.96609 44.1622 8.06041L44.174 8.06715C44.4199 8.19683 44.329 8.56904 44.0511 8.56904Z" fill="#B0B8CF"/>
<path id="Vector_35" d="M18.0704 37.6992C17.9795 38.2297 17.8717 38.7434 17.7403 39.2285C17.833 38.703 17.9441 38.1927 18.0704 37.6992Z" fill="#C9CEE2"/>
<path id="Vector_36" d="M56.8595 21.7363C56.8303 19.7875 56.2877 17.8808 55.2864 16.2087C46.5605 1.79689 11.6132 4.72574 8.81906 19.8634H10.8721V30.9624H11.3184V31.8398H11.4666V32.1312C11.598 32.3165 11.7327 32.5354 11.8709 32.7207C9.58538 12.9649 57.3378 13.0491 54.185 31.4643C55.9871 28.7409 56.9504 26.3459 56.8595 21.7363Z" fill="#E3E7F0"/>
<path id="Vector_37" d="M11.8692 32.7206C10.2085 30.4554 8.94873 27.471 8.64726 21.3101C7.8001 3.97117 46.1108 -0.0406189 55.2864 15.1122C56.2969 16.7796 56.819 18.6912 56.8595 20.6398C56.9504 25.2495 55.987 28.7409 54.1849 31.4642C60.6675 11.3918 5.30915 11.9442 11.8692 32.7206Z" fill="#B0B8CF"/>
<path id="Vector_38" d="M11.3908 30.5025C11.47 31.215 11.6266 31.9543 11.8692 32.7223C11.6835 32.4687 11.506 32.2092 11.337 31.9442C11.3165 31.463 11.3345 30.9809 11.3908 30.5025ZM54.6464 29.4028C54.697 29.7918 54.7188 30.191 54.7138 30.6002C54.5454 30.8966 54.3702 31.1863 54.185 31.4659C54.414 30.7518 54.5673 30.0646 54.6464 29.4028ZM56.841 22.3627C56.7483 20.5606 56.2145 18.8088 55.2864 17.2613C46.414 2.60864 10.1496 5.83222 8.68096 21.9114C8.66859 21.711 8.65736 21.5106 8.64727 21.3101C7.80348 3.97117 46.1092 -0.0406189 55.2864 15.1122C56.7012 17.4482 56.9572 19.695 56.841 22.3627Z" fill="#C9CEE2"/>
<path id="Vector_39" d="M33.0986 48.3871C29.9997 48.3871 27.4784 45.8642 27.4784 42.7652C27.4784 39.6663 29.9997 37.145 33.0986 37.145C36.1976 37.145 38.7188 39.6663 38.7188 42.7652C38.7188 45.8642 36.1976 48.3871 33.0986 48.3871Z" fill="#111D33"/>
<path id="Vector_40" d="M33.0986 47.2755C35.5896 47.2755 37.609 45.2562 37.609 42.7652C37.609 40.2742 35.5896 38.2549 33.0986 38.2549C30.6077 38.2549 28.5883 40.2742 28.5883 42.7652C28.5883 45.2562 30.6077 47.2755 33.0986 47.2755Z" fill="#1D2943"/>
<path id="Vector_41" d="M33.0987 46.3326C35.0687 46.3326 36.6658 44.7355 36.6658 42.7654C36.6658 40.7953 35.0687 39.1982 33.0987 39.1982C31.1286 39.1982 29.5315 40.7953 29.5315 42.7654C29.5315 44.7355 31.1286 46.3326 33.0987 46.3326Z" fill="#7F8EB2"/>
<path id="Vector_42" d="M33.0986 45.8777C34.8176 45.8777 36.2111 44.4842 36.2111 42.7653C36.2111 41.0463 34.8176 39.6528 33.0986 39.6528C31.3797 39.6528 29.9862 41.0463 29.9862 42.7653C29.9862 44.4842 31.3797 45.8777 33.0986 45.8777Z" fill="#31445B"/>
<path id="Vector_43" d="M33.0986 45.0559C34.3637 45.0559 35.3892 44.0304 35.3892 42.7654C35.3892 41.5004 34.3637 40.4749 33.0986 40.4749C31.8336 40.4749 30.8081 41.5004 30.8081 42.7654C30.8081 44.0304 31.8336 45.0559 33.0986 45.0559Z" fill="#1D2943"/>
<path id="Vector_44" d="M33.0987 44.3451C33.9711 44.3451 34.6784 43.6378 34.6784 42.7653C34.6784 41.8928 33.9711 41.1855 33.0987 41.1855C32.2262 41.1855 31.5189 41.8928 31.5189 42.7653C31.5189 43.6378 32.2262 44.3451 33.0987 44.3451Z" fill="#1D2943"/>
<path id="Vector_45" d="M33.0986 43.5383C33.5256 43.5383 33.8717 43.1922 33.8717 42.7652C33.8717 42.3383 33.5256 41.9922 33.0986 41.9922C32.6717 41.9922 32.3256 42.3383 32.3256 42.7652C32.3256 43.1922 32.6717 43.5383 33.0986 43.5383Z" fill="#111D33"/>
<path id="Vector_46" d="M33.4321 42.7653C33.4321 43.2082 32.7652 43.2082 32.7652 42.7653C32.7652 42.3223 33.4321 42.3223 33.4321 42.7653ZM33.6022 42.4318C33.3765 42.4318 33.3749 42.0933 33.6022 42.0933C33.8262 42.0933 33.8262 42.4318 33.6022 42.4318Z" fill="white"/>
<path id="Vector_47" opacity="0.1" d="M11.8405 26.4519V13.049C11.5323 13.369 11.2409 13.6991 10.9681 14.0393C9.33267 16.0982 8.50715 18.6844 8.64727 21.31C8.95042 27.4709 10.2085 30.4553 11.8692 32.7206C11.1281 30.3728 11.1786 28.2827 11.8405 26.4519ZM49.9997 9.93657C47.0237 8.07552 43.3487 6.83425 39.4212 6.20436V17.1383C43.4936 17.6907 47.2359 18.8595 49.9997 20.6498V9.93657ZM56.8595 20.6414C56.8022 17.7766 55.7765 15.3951 53.9323 13.2545V24.8519C54.8351 26.7281 55.0018 28.9328 54.1849 31.4641C55.9871 28.7408 56.9504 25.2511 56.8595 20.6414ZM28.9538 5.9231C25.9138 6.23299 22.9513 6.87973 20.2582 7.85994V19.1105C22.8637 18.0797 25.8498 17.3892 28.9538 17.0389V5.9231Z" fill="#111D33"/>
<path id="Vector_48" d="M51.7883 27.0818C52.0871 30.8389 51.7344 34.6195 50.7458 38.2565C51.1702 34.5209 51.5205 30.8325 51.7883 27.0818ZM13.8616 27.3917C13.7184 31.1581 14.2273 34.921 15.3656 38.5142C14.7861 34.8177 14.2846 31.1094 13.8616 27.3917Z" fill="white"/>
<path id="Vector_49" opacity="0.2" d="M40.4822 33.7563L25.4776 51.5719C24.1393 50.4249 23.0844 48.9838 22.3955 47.3614L35.8186 31.4321C37.5702 31.8363 39.1517 32.6448 40.4822 33.7563ZM41.998 35.2553L27.2123 52.8182C26.8479 52.6137 26.499 52.3829 26.1681 52.1277L41.1576 34.3627C41.4591 34.6321 41.7471 34.9353 41.9997 35.2553H41.998Z" fill="white"/>
</g>
</g>
</svg>
