<svg width="264" height="112" viewBox="0 0 264 112" fill="none" xmlns="http://www.w3.org/2000/svg">
    <mask id="mask0_2935_20889" style="mask-type:alpha" maskUnits="userSpaceOnUse" x="0" y="0" width="264" height="112">
        <rect x="0.5" width="263" height="112" fill="#D9D9D9" />
    </mask>
    <g mask="url(#mask0_2935_20889)">
        <g opacity="0.4">
            <mask id="mask1_2935_20889" style="mask-type:alpha" maskUnits="userSpaceOnUse" x="-144" y="-109" width="554"
                height="307">
                <line x1="2.74219" y1="-108.5" x2="2.74217" y2="197.018" stroke="#4D4D4D" />
                <line x1="9.68359" y1="-108.5" x2="9.68358" y2="197.018" stroke="#4D4D4D" />
                <line x1="16.623" y1="-108.5" x2="16.623" y2="197.018" stroke="#4D4D4D" />
                <line x1="23.5645" y1="-108.5" x2="23.5644" y2="197.018" stroke="#4D4D4D" />
                <line x1="30.5059" y1="-108.5" x2="30.5058" y2="197.018" stroke="#4D4D4D" />
                <line x1="37.4453" y1="-108.5" x2="37.4453" y2="197.018" stroke="#4D4D4D" />
                <line x1="44.3867" y1="-108.5" x2="44.3867" y2="197.018" stroke="#4D4D4D" />
                <line x1="51.3223" y1="-108.5" x2="51.3223" y2="197.018" stroke="#4D4D4D" />
                <line x1="58.2637" y1="-108.5" x2="58.2637" y2="197.018" stroke="#4D4D4D" />
                <line x1="65.2051" y1="-108.5" x2="65.2051" y2="197.018" stroke="#4D4D4D" />
                <line x1="72.1445" y1="-108.5" x2="72.1445" y2="197.018" stroke="#4D4D4D" />
                <line x1="79.0859" y1="-108.5" x2="79.0859" y2="197.018" stroke="#4D4D4D" />
                <line x1="86.0273" y1="-108.5" x2="86.0273" y2="197.018" stroke="#4D4D4D" />
                <line x1="92.9668" y1="-108.5" x2="92.9668" y2="197.018" stroke="#4D4D4D" />
                <line x1="99.9082" y1="-108.5" x2="99.9082" y2="197.018" stroke="#4D4D4D" />
                <line x1="106.844" y1="-108.5" x2="106.844" y2="197.018" stroke="#4D4D4D" />
                <line x1="113.785" y1="-108.5" x2="113.785" y2="197.018" stroke="#4D4D4D" />
                <line x1="120.727" y1="-108.5" x2="120.727" y2="197.018" stroke="#4D4D4D" />
                <line x1="127.666" y1="-108.5" x2="127.666" y2="197.018" stroke="#4D4D4D" />
                <line x1="134.607" y1="-108.5" x2="134.607" y2="197.018" stroke="#4D4D4D" />
                <line x1="141.549" y1="-108.5" x2="141.549" y2="197.018" stroke="#4D4D4D" />
                <line x1="148.488" y1="-108.5" x2="148.488" y2="197.018" stroke="#4D4D4D" />
                <line x1="155.43" y1="-108.5" x2="155.43" y2="197.018" stroke="#4D4D4D" />
                <line x1="162.365" y1="-108.5" x2="162.365" y2="197.018" stroke="#4D4D4D" />
                <line x1="169.307" y1="-108.5" x2="169.307" y2="197.018" stroke="#4D4D4D" />
                <line x1="176.248" y1="-108.5" x2="176.248" y2="197.018" stroke="#4D4D4D" />
                <line x1="183.188" y1="-108.5" x2="183.187" y2="197.018" stroke="#4D4D4D" />
                <line x1="190.129" y1="-108.5" x2="190.129" y2="197.018" stroke="#4D4D4D" />
                <line x1="197.07" y1="-108.5" x2="197.07" y2="197.018" stroke="#4D4D4D" />
                <line x1="204.01" y1="-108.5" x2="204.01" y2="197.018" stroke="#4D4D4D" />
                <line x1="210.945" y1="-108.5" x2="210.945" y2="197.018" stroke="#4D4D4D" />
                <line x1="217.887" y1="-108.5" x2="217.887" y2="197.018" stroke="#4D4D4D" />
                <line x1="224.828" y1="-108.5" x2="224.828" y2="197.018" stroke="#4D4D4D" />
                <line x1="231.77" y1="-108.5" x2="231.77" y2="197.018" stroke="#4D4D4D" />
                <line x1="238.709" y1="-108.5" x2="238.709" y2="197.018" stroke="#4D4D4D" />
                <line x1="245.65" y1="-108.5" x2="245.65" y2="197.018" stroke="#4D4D4D" />
                <line x1="252.592" y1="-108.5" x2="252.592" y2="197.018" stroke="#4D4D4D" />
                <line x1="259.527" y1="-108.5" x2="259.527" y2="197.018" stroke="#4D4D4D" />
                <line x1="409.98" y1="5.68091" x2="-142.92" y2="5.68086" stroke="#4D4D4D" />
                <line x1="409.98" y1="12.7862" x2="-142.92" y2="12.7861" stroke="#4D4D4D" />
                <line x1="409.98" y1="19.8912" x2="-142.92" y2="19.8912" stroke="#4D4D4D" />
                <line x1="409.98" y1="26.9962" x2="-142.92" y2="26.9961" stroke="#4D4D4D" />
                <line x1="409.98" y1="34.1014" x2="-142.92" y2="34.1013" stroke="#4D4D4D" />
                <line x1="409.98" y1="41.2063" x2="-142.92" y2="41.2062" stroke="#4D4D4D" />
                <line x1="409.98" y1="48.3114" x2="-142.92" y2="48.3114" stroke="#4D4D4D" />
                <line x1="409.98" y1="55.4163" x2="-142.92" y2="55.4163" stroke="#4D4D4D" />
                <line x1="409.98" y1="62.5215" x2="-142.92" y2="62.5215" stroke="#4D4D4D" />
                <line x1="409.98" y1="69.6266" x2="-142.92" y2="69.6266" stroke="#4D4D4D" />
                <line x1="409.98" y1="76.7316" x2="-142.92" y2="76.7315" stroke="#4D4D4D" />
                <line x1="409.98" y1="83.8368" x2="-142.92" y2="83.8367" stroke="#4D4D4D" />
                <line x1="409.98" y1="90.9417" x2="-142.92" y2="90.9417" stroke="#4D4D4D" />
                <line x1="409.98" y1="98.0468" x2="-142.92" y2="98.0467" stroke="#4D4D4D" />
                <line x1="409.98" y1="105.152" x2="-142.92" y2="105.152" stroke="#4D4D4D" />
                <line x1="409.98" y1="112.257" x2="-142.92" y2="112.257" stroke="#4D4D4D" />
            </mask>
            <g mask="url(#mask1_2935_20889)">
                <rect x="2.5" y="-1.5" width="262" height="112" fill="url(#paint0_radial_2935_20889)" />
            </g>
        </g>
        <rect x="13.7842" y="50.3688" width="90.3607" height="27.847" rx="4.26229" fill="#3F3F3F" />
        <rect x="13.7842" y="50.3688" width="90.3607" height="27.847" rx="4.26229" stroke="#212121"
            stroke-width="0.568306" />
        <rect x="16.9102" y="53.4945" width="21.0273" height="21.5956" rx="2.27322" fill="#212121" />
        <rect x="163.468" y="30.7842" width="90.3607" height="27.847" rx="4.26229" fill="#7B7B7B" />
        <rect x="163.468" y="30.7842" width="90.3607" height="27.847" rx="4.26229" stroke="#212121"
            stroke-width="0.568306" />
        <rect x="166.594" y="33.9099" width="21.0273" height="21.5956" rx="2.27322" fill="#1C1B1B" />
        <path
            d="M161.784 44.4891L156.189 47.7197V41.2584L161.784 44.4891ZM143.599 43.9295H156.748V45.0486H143.599V43.9295ZM124.014 64.6333H105.828V63.5142H124.014V64.6333ZM133.247 54.2814C133.247 48.5642 137.881 43.9295 143.599 43.9295V45.0486C138.499 45.0486 134.366 49.1823 134.366 54.2814H133.247ZM134.366 54.2814C134.366 59.9986 129.731 64.6333 124.014 64.6333V63.5142C129.113 63.5142 133.247 59.3805 133.247 54.2814H134.366Z"
            fill="#9D9D9D" />
    </g>
    <defs>
        <radialGradient id="paint0_radial_2935_20889" cx="0" cy="0" r="1" gradientUnits="userSpaceOnUse"
            gradientTransform="translate(133.5 54.5) rotate(90) scale(56 131)">
            <stop stop-color="#D9D9D9" />
            <stop offset="1" stop-color="#737373" stop-opacity="0" />
        </radialGradient>
    </defs>
</svg>