<svg width="121" height="52" viewBox="0 0 121 52" fill="none" xmlns="http://www.w3.org/2000/svg">
<path d="M11.1481 27.5448C10.6662 25.2467 11.3583 22.7463 13.253 21.276C13.3253 21.2195 13.3954 21.1094 13.3903 21.0178C13.2355 18.2089 14.9645 15.8679 17.8192 15.4825C17.9667 15.4628 18.026 15.3605 18.0673 15.2187C18.3976 14.0765 18.9971 13.1193 19.8658 12.347C21.1378 11.2158 22.5046 10.692 24.2145 11.1864C25.5484 11.5722 26.4632 12.3911 26.959 13.6433C27.2878 14.4745 27.3528 15.317 27.3534 16.2934C27.3553 23.7638 27.3553 31.2342 27.3534 38.7046C27.3528 39.2137 27.1008 40.0218 26.5996 40.28C24.7762 41.2174 22.2803 41.2389 20.4309 40.3478C19.2164 39.7628 18.4366 38.795 18.0916 37.4445C18.0537 37.2971 17.8955 37.2626 17.7457 37.2519C16.1334 37.1385 14.8918 36.4497 14.0209 35.1855C13.2445 34.0582 13.0501 32.6772 13.4123 31.3499C13.4575 31.1843 13.4033 31.095 13.2699 30.9894C12.1515 30.1045 11.4442 28.9563 11.1481 27.5448ZM25.8373 27.7103C25.8675 27.4647 25.8671 27.2206 25.8362 26.978C25.8599 25.944 25.8654 24.9067 25.8526 23.8663C25.8503 23.6623 25.7876 23.5114 25.5825 23.4702C25.3932 23.4323 25.2305 23.5911 25.0626 23.699C24.6826 23.9431 24.2169 24.1277 23.6658 24.2528C23.3788 24.3177 23.3223 24.5048 23.3935 24.7811C23.7382 26.1214 23.6542 27.4299 23.1415 28.7065C23.0985 28.8124 23.0827 28.8977 23.094 28.9625C23.1125 29.0695 23.1712 29.1443 23.2703 29.1868C24.0653 29.5264 24.762 30.0367 25.022 30.8645C25.1176 31.1685 25.1259 31.4239 25.0468 31.6307C24.7897 32.3054 23.8116 32.1901 23.6359 31.4962C23.5956 31.3361 23.5666 31.238 23.5489 31.2018C23.3415 30.7718 22.7109 30.4904 22.2396 30.4011C22.1398 30.3819 22.059 30.4038 21.9972 30.4667C21.1413 31.3395 20.1768 32.0334 19.1036 32.5483C18.9337 32.6297 18.796 32.6723 18.6905 32.676C18.0633 32.6981 17.6881 31.9273 18.1034 31.4476C18.1671 31.3742 18.2829 31.2949 18.4509 31.2097C19.4957 30.6808 20.5224 29.9751 21.2073 29.0077C22.1494 27.6761 22.3387 26.1915 21.7752 24.5539C21.7311 24.4262 21.6537 24.333 21.5265 24.3042C20.8763 24.1569 20.2902 23.897 19.7681 23.5244C19.6703 23.4543 19.5471 23.404 19.4437 23.4504C18.291 23.9697 17.0948 24.8449 16.3224 25.9072C16.218 26.0511 16.1257 26.1468 16.0455 26.1943C15.4929 26.5226 14.8221 26.057 14.9318 25.4269C14.9544 25.2962 15.0231 25.1525 15.138 24.9958C15.9138 23.938 16.9564 23.1198 18.0859 22.4762C18.365 22.3174 18.3622 22.1321 18.1854 21.8761C17.8424 21.3806 17.3344 20.6415 18.0232 20.1889C18.3185 19.9949 18.6157 20.015 18.9148 20.2493C19.0572 20.3607 19.1267 20.5471 19.2154 20.7065C20.1105 22.3259 21.7266 23.3323 23.6093 22.7175C24.801 22.3282 25.5582 21.3631 25.7876 20.1516C25.8313 19.9199 25.8539 19.5445 25.8554 19.0254C25.8584 17.9805 25.8588 16.9355 25.8565 15.8905C25.8526 14.2292 25.1949 12.8454 23.4601 12.5375C23.1121 12.4759 22.6284 12.473 22.3103 12.568C21.1818 12.9042 20.1433 14.0473 19.6748 15.1068C19.5935 15.2906 19.6055 15.4332 19.711 15.5345C19.7573 15.5786 19.8698 15.6283 20.0483 15.6837C21.235 16.0517 22.2641 16.6771 23.1358 17.5597C23.2733 17.6991 23.3613 17.8124 23.3997 17.8998C23.6636 18.4954 23.0341 19.1209 22.4323 18.883C22.3393 18.8465 22.2276 18.7627 22.0972 18.6316C21.1977 17.7252 19.9896 17.0404 18.7086 16.9539C16.8032 16.8251 15.2425 18.0434 14.9431 19.9312C14.8647 20.4255 14.8594 20.9572 14.9272 21.5264C14.9465 21.6883 14.9069 21.8379 14.8086 21.975C14.7562 22.0477 14.6428 22.1413 14.4684 22.2559C13.4747 22.9075 12.8544 23.8329 12.6077 25.032C12.3325 26.3706 12.5517 27.7798 13.3202 28.9037C13.4992 29.1652 13.6884 29.3821 13.8881 29.5547C13.9868 29.6406 14.0898 29.6607 14.1972 29.6151C14.2544 29.591 14.3247 29.5279 14.408 29.4258C15.471 28.1232 16.8006 27.2003 18.3967 26.6571C18.5579 26.6021 18.6852 26.5748 18.7787 26.5751C19.4652 26.5797 19.7647 27.4205 19.2578 27.877C19.184 27.9433 19.0734 28.001 18.9261 28.0499C17.4536 28.5387 16.072 29.4891 15.268 30.8413C15.0551 31.2003 14.9063 31.545 14.8216 31.8754C14.2825 33.9858 15.9924 35.8172 18.0865 35.7579C19.1397 35.7277 19.9764 35.2747 20.5964 34.3989C20.7343 34.2045 20.8377 34.0838 20.9067 34.0367C21.0547 33.9354 21.2197 33.9007 21.4016 33.9327C21.8055 34.0047 22.0194 34.2386 22.0436 34.6345C22.0582 34.8815 21.9526 35.0713 21.8124 35.2685C21.2986 35.9903 20.6469 36.5278 19.8574 36.8812C19.663 36.9676 19.55 37.0891 19.6042 37.3033C19.9026 38.4792 20.9993 39.1143 22.1187 39.3578C23.2903 39.6129 24.446 39.5292 25.5859 39.1069C25.6978 39.0657 25.8554 38.9318 25.856 38.825C25.8575 38.1062 25.8579 37.3873 25.8571 36.6682C25.8571 36.4427 25.8125 36.267 25.578 36.2212C25.4209 36.1907 25.3158 36.2698 25.2039 36.3704C24.9353 36.6118 24.7027 36.8599 24.5061 37.1146C24.398 37.2551 24.3036 37.3474 24.223 37.3914C23.8359 37.6016 23.3635 37.4395 23.1754 37.0371C23.0177 36.7009 23.1584 36.4173 23.3839 36.1246C23.97 35.364 24.7074 34.7931 25.5961 34.4119C25.7339 34.3531 25.8565 34.2616 25.8565 34.1135C25.8577 31.9788 25.8566 29.8451 25.8373 27.7103Z" fill="#D22627"/>
<path d="M31.2987 15.6735C32.3182 15.6735 33.1447 14.847 33.1447 13.8274C33.1447 12.8079 32.3182 11.9814 31.2987 11.9814C30.2791 11.9814 29.4526 12.8079 29.4526 13.8274C29.4526 14.847 30.2791 15.6735 31.2987 15.6735Z" fill="#D6D6D6"/>
<path d="M34.2144 15.2639C34.2524 15.1558 34.2741 15.0129 34.2793 14.8351C34.2854 14.6392 34.3004 14.497 34.3245 14.4084C34.5681 13.5173 35.5507 13.0851 36.3796 13.536C36.7187 13.7202 36.9389 13.9933 37.0402 14.3553C37.2843 15.2249 36.704 16.1121 35.7903 16.1748C35.521 16.1936 35.3793 16.2044 35.3654 16.207C34.5059 16.3777 33.8555 17.1015 33.7798 17.9745C33.7504 18.3101 33.8917 18.6497 33.8691 18.9876C33.8043 19.9513 33.3743 20.6393 32.5791 21.0518C32.2902 21.2017 31.9907 21.2893 31.6806 21.3145C31.3431 21.342 31.0263 21.3019 30.7302 21.1942C28.9198 20.5382 28.5463 18.1242 30.1606 17.0105C30.7261 16.6203 31.3719 16.5035 32.0982 16.6602C32.2417 16.6913 32.4361 16.6963 32.5785 16.6704C33.3922 16.5193 33.9375 16.0505 34.2144 15.2639Z" fill="#D6D6D6"/>
<path d="M38.5975 21.1605C39.9635 21.1605 41.0708 20.0532 41.0708 18.6872C41.0708 17.3213 39.9635 16.214 38.5975 16.214C37.2316 16.214 36.1243 17.3213 36.1243 18.6872C36.1243 20.0532 37.2316 21.1605 38.5975 21.1605Z" fill="#D6D6D6"/>
<path d="M34.8167 24.1242C35.6156 24.1242 36.2632 23.4766 36.2632 22.6777C36.2632 21.8788 35.6156 21.2311 34.8167 21.2311C34.0178 21.2311 33.3701 21.8788 33.3701 22.6777C33.3701 23.4766 34.0178 24.1242 34.8167 24.1242Z" fill="#D6D6D6"/>
<path d="M32.3395 27.9436C30.6008 28.9782 28.531 27.2379 29.2944 25.3466C29.7894 24.121 31.2613 23.6724 32.3734 24.3617C32.4506 24.4096 32.5915 24.5258 32.796 24.7104C33.4858 25.3334 34.3087 25.5715 35.2648 25.4246C35.8739 25.3312 36.3962 25.062 36.8317 24.6171C37.0017 24.4431 37.1775 24.1894 37.3464 23.9668C38.1934 22.8508 39.6784 22.3711 41.0153 22.7186C43.7677 23.4339 44.595 26.9604 42.4387 28.8195C40.882 30.1615 38.5664 29.9049 37.3103 28.2691C37.1385 28.0459 36.9735 27.8069 36.7848 27.6238C35.7835 26.6536 34.1629 26.5542 33.0509 27.3639C32.8401 27.5176 32.5926 27.7927 32.3395 27.9436Z" fill="#D6D6D6"/>
<path d="M25.8363 26.978C25.8672 27.2206 25.8676 27.4647 25.8374 27.7103C25.7308 27.4557 25.7305 27.2116 25.8363 26.978Z" fill="#D6D6D6"/>
<path d="M34.8167 31.0566C35.6153 31.0566 36.2627 30.4092 36.2627 29.6106C36.2627 28.8121 35.6153 28.1647 34.8167 28.1647C34.0181 28.1647 33.3707 28.8121 33.3707 29.6106C33.3707 30.4092 34.0181 31.0566 34.8167 31.0566Z" fill="#D6D6D6"/>
<path d="M30.3465 35.3895C29.639 34.98 29.2421 34.389 29.1559 33.6164C29.0581 32.7355 29.4265 31.893 30.1549 31.3906C31.3003 30.6007 32.8643 30.9595 33.5514 32.1625C33.8472 32.6801 33.933 33.2504 33.8091 33.8735C33.7797 34.0204 33.7681 34.1468 33.7741 34.2526C33.785 34.441 33.8018 34.5687 33.8244 34.6357C34.1367 35.5602 34.7644 36.0542 35.7077 36.1179C35.9025 36.1311 36.0452 36.1535 36.136 36.1851C36.6792 36.3731 37.0002 36.7713 37.0989 37.3796C37.1177 37.4975 37.1102 37.6341 37.0763 37.7893C36.9689 38.2764 36.6446 38.673 36.1801 38.8409C35.2777 39.1675 34.3284 38.5437 34.2758 37.5881C34.263 37.3516 34.2521 37.2118 34.2431 37.1689C34.0549 36.293 33.291 35.6421 32.3931 35.6059C32.3038 35.6022 32.1492 35.6199 31.9292 35.659C31.3592 35.76 30.8316 35.6702 30.3465 35.3895Z" fill="#D6D6D6"/>
<path d="M38.5975 36.0729C39.9635 36.0729 41.0708 34.9656 41.0708 33.5997C41.0708 32.2338 39.9635 31.1265 38.5975 31.1265C37.2316 31.1265 36.1243 32.2338 36.1243 33.5997C36.1243 34.9656 37.2316 36.0729 38.5975 36.0729Z" fill="#D6D6D6"/>
<path d="M31.2986 40.3066C32.3185 40.3066 33.1452 39.4799 33.1452 38.46C33.1452 37.4402 32.3185 36.6134 31.2986 36.6134C30.2788 36.6134 29.452 37.4402 29.452 38.46C29.452 39.4799 30.2788 40.3066 31.2986 40.3066Z" fill="#D6D6D6"/>
<path d="M74.7433 23.9269V28.4618C74.7433 28.4808 74.7338 28.4903 74.7148 28.4903H72.4337C72.4147 28.4903 72.4052 28.4808 72.4052 28.4618V13.9504C72.4052 13.9329 72.4139 13.9227 72.4314 13.9196L74.7159 13.5421C74.7342 13.5391 74.7433 13.5467 74.7433 13.5649V22.2897C74.7434 22.2921 74.7442 22.2946 74.7456 22.2966C74.747 22.2987 74.749 22.3003 74.7513 22.3012C74.7536 22.3021 74.756 22.3024 74.7584 22.3018C74.7607 22.3013 74.7628 22.3 74.7644 22.2982C75.9806 21.0462 77.1575 19.7585 78.295 18.4351C78.3091 18.4188 78.327 18.4106 78.3486 18.4106H81.0461C81.075 18.4106 81.0799 18.4214 81.0609 18.4431C79.7223 19.9517 78.3511 21.4297 76.9475 22.877C76.9353 22.8896 76.9357 22.9016 76.9486 22.913C78.6463 24.4356 80.2129 26.4744 81.3244 28.4515C81.3388 28.4774 81.3312 28.4903 81.3016 28.4903H78.6492C78.6405 28.4903 78.6319 28.4881 78.6244 28.4838C78.6169 28.4794 78.6107 28.4733 78.6064 28.4658C77.8932 27.2484 77.0071 26.0853 75.9483 24.9762C75.5297 24.5375 75.14 24.1818 74.7792 23.9092C74.7553 23.891 74.7433 23.8969 74.7433 23.9269Z" fill="#D6D6D6"/>
<path d="M50.9198 17.1998V24.7264C50.9198 24.7454 50.9103 24.7549 50.8913 24.7549H48.5103C48.4913 24.7549 48.4818 24.7454 48.4818 24.7264V15.3595C48.4818 15.3409 48.4909 15.3295 48.5092 15.3253C49.7034 15.0476 50.9785 15.0071 52.2001 14.998C53.8715 14.986 55.7364 15.2637 57.1672 16.195C59.5185 17.7251 60.0614 20.4664 59.7318 23.1057C59.4124 25.6617 57.8054 27.5253 55.3406 28.2399C53.7946 28.6881 52.3175 28.6933 50.6346 28.5895C49.8305 28.5401 49.1226 28.4477 48.5109 28.3123C48.4915 28.3082 48.4818 28.296 48.4818 28.2758V26.5239C48.4818 26.5049 48.4913 26.4954 48.5103 26.4954C49.2167 26.4935 49.9223 26.4931 50.6272 26.4943C52.0951 26.4971 53.567 26.6591 54.9465 26.0438C57.194 25.0406 57.5812 22.3021 57.0765 20.1801C56.3614 17.1702 53.4775 16.9472 50.9494 17.1673C50.9297 17.1692 50.9198 17.1801 50.9198 17.1998Z" fill="#D6D6D6"/>
<path d="M102.349 22.5738C101.861 21.2291 101.504 20.2788 101.277 19.723C100.681 18.2619 98.8322 17.9454 97.8673 19.2707C97.7624 19.4148 97.6517 19.6422 97.5354 19.9528C96.5108 22.6909 95.4955 25.4322 94.4895 28.1768C94.4086 28.3969 94.2534 28.4893 94.0111 28.4899C93.3959 28.4903 92.7846 28.4905 92.177 28.4905C92.1469 28.4904 92.1172 28.483 92.0906 28.4688C92.0641 28.4547 92.0414 28.4342 92.0246 28.4093C92.0078 28.3843 91.9974 28.3556 91.9944 28.3257C91.9913 28.2958 91.9957 28.2656 92.0071 28.2378C93.1978 25.3298 94.3937 22.4141 95.5947 19.4909C95.8286 18.9214 95.9793 18.5723 96.047 18.4438C96.5496 17.4896 97.3244 16.8242 98.3714 16.4479C99.8314 15.9232 101.575 16.4621 102.578 17.5936C103.108 18.1906 103.338 18.798 103.689 19.6979C104.804 22.5554 105.916 25.4037 107.023 28.243C107.033 28.2706 107.037 28.3004 107.034 28.3297C107.03 28.3591 107.02 28.3872 107.003 28.4116C106.986 28.436 106.964 28.4559 106.938 28.4697C106.912 28.4834 106.883 28.4906 106.853 28.4905C106.238 28.4901 105.612 28.4901 104.974 28.4905C104.728 28.4905 104.577 28.4277 104.491 28.2002C104.05 27.0406 103.61 25.8805 103.172 24.7198C103.167 24.7053 103.156 24.6981 103.141 24.6981H97.6637C97.6398 24.6981 97.632 24.6869 97.6403 24.6645L98.3897 22.6263C98.3958 22.6103 98.4074 22.6023 98.4245 22.6023H102.329C102.35 22.6023 102.356 22.5928 102.349 22.5738Z" fill="#D22627"/>
<path d="M109.823 16.2438H108.283C108.122 16.2438 107.991 16.3746 107.991 16.5358V28.1992C107.991 28.3605 108.122 28.4912 108.283 28.4912H109.823C109.984 28.4912 110.115 28.3605 110.115 28.1992V16.5358C110.115 16.3746 109.984 16.2438 109.823 16.2438Z" fill="#D22627"/>
<path d="M67.2966 22.4723C67.3095 22.1328 67.3013 21.8725 67.272 21.6916C67.1169 20.7305 66.556 20.2176 65.5891 20.153C64.6292 20.0887 63.6614 20.2092 62.6858 20.5145C62.6661 20.5206 62.6547 20.5134 62.6516 20.4928L62.371 18.6531C62.3684 18.6337 62.3764 18.6212 62.395 18.6155C63.6876 18.2189 64.9901 18.0794 66.3026 18.1969C66.6212 18.2254 66.9626 18.2994 67.3268 18.4187C69.1426 19.0147 69.5617 20.5219 69.5657 22.2601C69.5707 24.2481 69.5707 26.2361 69.5657 28.2242C69.5657 28.2435 69.5564 28.2553 69.5378 28.2595C68.0554 28.5926 66.5582 28.7384 65.0462 28.6969C64.5307 28.6828 64.0306 28.6028 63.5458 28.4568C61.9815 27.9852 61.3434 26.8298 61.4107 25.2108C61.5327 22.2653 65.1848 22.0252 67.2646 22.4968C67.2852 22.5014 67.2958 22.4932 67.2966 22.4723ZM63.7545 25.2821C63.6616 26.6536 64.7525 26.8304 65.803 26.8412C66.2942 26.8462 66.7843 26.8125 67.2732 26.7403C67.2918 26.7372 67.3011 26.7264 67.3011 26.7078V24.186C67.3011 24.1681 67.2926 24.1569 67.2755 24.1523C66.3077 23.9071 63.8606 23.7104 63.7545 25.2821Z" fill="#D6D6D6"/>
<path d="M88.1803 22.4762C88.3069 20.9826 87.6277 20.1266 86.1062 20.1294C85.2435 20.131 84.4007 20.2583 83.5776 20.5115C83.5582 20.5176 83.547 20.5106 83.5439 20.4904L83.2633 18.6536C83.2599 18.6338 83.2679 18.6209 83.2873 18.6148C84.4655 18.2544 85.6694 18.1046 86.8989 18.1654C87.6007 18.2004 88.2425 18.3688 88.8242 18.6707C89.7172 19.1337 90.206 20.0182 90.3576 20.9906C90.4113 21.3335 90.4386 21.6188 90.4398 21.8466C90.4508 23.9741 90.4563 26.1016 90.4563 28.2291C90.4563 28.2485 90.4468 28.2603 90.4278 28.2645C89.2929 28.5093 88.1472 28.6546 86.9907 28.7002C85.3409 28.7646 83.2149 28.5953 82.514 26.7949C82.338 26.3425 82.2646 25.8241 82.2939 25.2397C82.4433 22.2766 86.0184 22.0097 88.1501 22.4978C88.1683 22.502 88.1784 22.4948 88.1803 22.4762ZM84.6394 25.3937C84.6269 26.3894 85.3129 26.7738 86.1923 26.8251C86.8493 26.8639 87.5047 26.8361 88.1586 26.7419C88.178 26.7388 88.1877 26.7274 88.1877 26.7076V24.1859C88.1877 24.168 88.179 24.157 88.1615 24.1528C87.1361 23.8944 84.66 23.7091 84.6394 25.3937Z" fill="#D6D6D6"/>
<path d="M83.5895 35.5626C83.313 37.0625 81.6403 37.7063 80.3235 37.1315C79.5063 36.7745 79.0164 36.0183 79.0142 35.1286C79.0119 34.0211 79.7088 33.1458 80.8174 32.9222C82.4706 32.5886 83.9043 33.8552 83.5895 35.5626ZM83.017 35.1053C83.017 34.6612 82.8385 34.2353 82.5209 33.9213C82.2033 33.6073 81.7724 33.4309 81.3232 33.4309C80.874 33.4309 80.4432 33.6073 80.1256 33.9213C79.8079 34.2353 79.6295 34.6612 79.6295 35.1053C79.6295 35.5493 79.8079 35.9752 80.1256 36.2892C80.4432 36.6032 80.874 36.7796 81.3232 36.7796C81.7724 36.7796 82.2033 36.6032 82.5209 36.2892C82.8385 35.9752 83.017 35.5493 83.017 35.1053Z" fill="#D6D6D6"/>
<path d="M92.1147 34.1696C91.7286 34.7775 91.7497 35.5964 92.2019 36.1467C92.4468 36.4448 92.7644 36.6389 93.1549 36.729C93.7331 36.8628 94.268 36.7104 94.7596 36.2716C94.7756 36.2572 94.7912 36.2576 94.8064 36.2728L95.1702 36.6332C95.1862 36.6492 95.186 36.6649 95.1697 36.6805C93.8038 37.9933 91.2609 37.2588 91.217 35.1887C91.1976 34.2671 91.6465 33.4727 92.4802 33.0946C93.3436 32.7034 94.5002 32.8112 95.1645 33.5383C95.1797 33.555 95.1792 33.5712 95.1628 33.5867L94.7995 33.9318C94.7836 33.9474 94.7672 33.9477 94.7505 33.9329C94.0985 33.3539 93.3929 33.2689 92.6336 33.678C92.4249 33.7901 92.2519 33.954 92.1147 34.1696Z" fill="#D6D6D6"/>
<path d="M51.177 35.0327C51.6131 35.1848 51.8578 35.472 51.911 35.8944C52.0484 36.9768 51.1576 37.2648 50.288 37.2705C49.5907 37.2751 48.8932 37.2749 48.1956 37.2699C48.1773 37.2699 48.1682 37.2608 48.1682 37.2425V32.9677C48.1682 32.9502 48.1771 32.9413 48.195 32.9409C49.231 32.9341 49.9443 32.9337 50.3347 32.9398C50.9677 32.9495 51.6156 33.2397 51.6903 33.9526C51.7359 34.391 51.5635 34.7402 51.173 35.0002C51.1529 35.0139 51.1542 35.0247 51.177 35.0327ZM48.783 33.4616L48.7784 34.7995C48.7784 34.8035 48.78 34.8075 48.7829 34.8104C48.7858 34.8132 48.7897 34.8149 48.7938 34.8149L50.2024 34.82C50.3165 34.8204 50.4295 34.8043 50.535 34.7726C50.6405 34.7409 50.7365 34.6942 50.8173 34.6352C50.8982 34.5762 50.9624 34.506 51.0063 34.4287C51.0502 34.3515 51.073 34.2685 51.0732 34.1847V34.0923C51.0738 33.9231 50.9828 33.7605 50.8204 33.6403C50.6579 33.5201 50.4373 33.4521 50.207 33.4513L48.7984 33.4462C48.7943 33.4462 48.7904 33.4478 48.7875 33.4507C48.7846 33.4536 48.783 33.4575 48.783 33.4616ZM48.7784 35.3424L48.783 36.7475C48.783 36.7519 48.7847 36.7561 48.7878 36.7592C48.7909 36.7623 48.7951 36.7641 48.7995 36.7641L50.4066 36.7584C50.5226 36.758 50.6375 36.7405 50.7446 36.707C50.8516 36.6735 50.9489 36.6246 51.0307 36.5632C51.1125 36.5017 51.1773 36.4288 51.2214 36.3487C51.2655 36.2686 51.288 36.1828 51.2877 36.0963V35.9754C51.2869 35.8008 51.1932 35.6336 51.0271 35.5108C50.8611 35.3879 50.6362 35.3193 50.402 35.3201L48.795 35.3258C48.7906 35.3258 48.7864 35.3276 48.7833 35.3307C48.7802 35.3338 48.7784 35.338 48.7784 35.3424Z" fill="#D6D6D6"/>
<path d="M61.1706 36.1048V32.9557C61.1706 32.951 61.1725 32.9465 61.1758 32.9432C61.1791 32.9399 61.1836 32.9381 61.1883 32.9381H61.766C61.7707 32.9381 61.7752 32.9399 61.7785 32.9432C61.7818 32.9465 61.7837 32.951 61.7837 32.9557V37.2545C61.7837 37.2592 61.7818 37.2637 61.7785 37.267C61.7752 37.2703 61.7707 37.2722 61.766 37.2722H61.279C61.2764 37.2722 61.2738 37.2717 61.2714 37.2706C61.2691 37.2695 61.267 37.2679 61.2653 37.2659L58.6785 34.0934C58.6762 34.0906 58.673 34.0886 58.6695 34.0876C58.6659 34.0866 58.6622 34.0868 58.6587 34.088C58.6553 34.0893 58.6523 34.0916 58.6502 34.0946C58.6482 34.0976 58.6471 34.1012 58.6471 34.1048V37.2545C58.6471 37.2592 58.6452 37.2637 58.6419 37.267C58.6386 37.2703 58.6341 37.2722 58.6294 37.2722H58.0517C58.047 37.2722 58.0426 37.2703 58.0392 37.267C58.0359 37.2637 58.0341 37.2592 58.0341 37.2545V32.9557C58.0341 32.951 58.0359 32.9465 58.0392 32.9432C58.0426 32.9399 58.047 32.9381 58.0517 32.9381H58.5388C58.5414 32.938 58.5439 32.9386 58.5463 32.9397C58.5487 32.9407 58.5508 32.9423 58.5524 32.9443L61.1392 36.1162C61.1416 36.1191 61.1447 36.1211 61.1482 36.1221C61.1518 36.1231 61.1555 36.1229 61.159 36.1217C61.1624 36.1204 61.1654 36.1181 61.1675 36.1151C61.1696 36.1121 61.1707 36.1085 61.1706 36.1048Z" fill="#D6D6D6"/>
<path d="M63.6655 33.4972V34.7889C63.6655 34.7934 63.6673 34.7977 63.6706 34.8009C63.6738 34.8042 63.6781 34.806 63.6827 34.806H65.8298C65.8343 34.806 65.8387 34.8078 65.8419 34.811C65.8451 34.8142 65.8469 34.8185 65.8469 34.8231V35.3164C65.8469 35.3209 65.8451 35.3252 65.8419 35.3285C65.8387 35.3317 65.8343 35.3335 65.8298 35.3335H63.6827C63.6781 35.3335 63.6738 35.3353 63.6706 35.3385C63.6673 35.3417 63.6655 35.346 63.6655 35.3506V36.7135C63.6655 36.7181 63.6673 36.7224 63.6706 36.7256C63.6738 36.7289 63.6781 36.7307 63.6827 36.7307H66.1862C66.1907 36.7307 66.1951 36.7325 66.1983 36.7357C66.2015 36.7389 66.2033 36.7432 66.2033 36.7478V37.2553C66.2033 37.2599 66.2015 37.2642 66.1983 37.2674C66.1951 37.2706 66.1907 37.2724 66.1862 37.2724H63.0696C63.0651 37.2724 63.0607 37.2706 63.0575 37.2674C63.0543 37.2642 63.0525 37.2599 63.0525 37.2553V32.9554C63.0525 32.9509 63.0543 32.9465 63.0575 32.9433C63.0607 32.9401 63.0651 32.9383 63.0696 32.9383H66.1006C66.1052 32.9383 66.1095 32.9401 66.1127 32.9433C66.116 32.9465 66.1178 32.9509 66.1178 32.9554V33.463C66.1178 33.4675 66.116 33.4718 66.1127 33.475C66.1095 33.4783 66.1052 33.4801 66.1006 33.4801H63.6827C63.6781 33.4801 63.6738 33.4819 63.6706 33.4851C63.6673 33.4883 63.6655 33.4926 63.6655 33.4972Z" fill="#D6D6D6"/>
<path d="M68.5888 35.5185L67.3337 37.2647C67.3319 37.267 67.3297 37.2689 67.3271 37.2702C67.3246 37.2715 67.3217 37.2721 67.3188 37.2721H66.6276C66.6243 37.2721 66.6209 37.2712 66.618 37.2694C66.6151 37.2677 66.6128 37.2651 66.6112 37.2621C66.6097 37.2591 66.609 37.2557 66.6093 37.2523C66.6096 37.249 66.6108 37.2457 66.6128 37.243L68.2182 35.06C68.2205 35.0568 68.2217 35.053 68.2217 35.0491C68.2217 35.0452 68.2205 35.0414 68.2182 35.0383L66.712 32.9676C66.71 32.9649 66.7088 32.9616 66.7085 32.9583C66.7083 32.9549 66.7089 32.9515 66.7105 32.9485C66.712 32.9455 66.7144 32.9429 66.7173 32.9412C66.7202 32.9394 66.7235 32.9385 66.7269 32.9385L67.4118 32.9374C67.4147 32.9374 67.4175 32.938 67.4201 32.9393C67.4227 32.9406 67.4249 32.9425 67.4266 32.9448L68.6139 34.5684C68.6156 34.5707 68.6179 34.5727 68.6204 34.574C68.623 34.5753 68.6259 34.576 68.6288 34.576C68.6317 34.576 68.6345 34.5753 68.6371 34.574C68.6397 34.5727 68.6419 34.5707 68.6436 34.5684L69.8172 32.9454C69.8189 32.943 69.8212 32.9412 69.8238 32.9399C69.8263 32.9386 69.8292 32.9379 69.8321 32.9379H74.0978C74.1026 32.9379 74.1073 32.9399 74.1107 32.9433C74.1141 32.9467 74.116 32.9514 74.116 32.9562V33.4615C74.116 33.4663 74.1141 33.4709 74.1107 33.4744C74.1073 33.4778 74.1026 33.4797 74.0978 33.4797H72.6373C72.6324 33.4797 72.6278 33.4816 72.6244 33.4851C72.621 33.4885 72.619 33.4931 72.619 33.498V37.2538C72.619 37.2587 72.6171 37.2633 72.6137 37.2667C72.6103 37.2702 72.6056 37.2721 72.6008 37.2721H72.0242C72.0194 37.2721 72.0147 37.2702 72.0113 37.2667C72.0079 37.2633 72.006 37.2587 72.006 37.2538V33.498C72.006 33.4931 72.0041 33.4885 72.0006 33.4851C71.9972 33.4816 71.9926 33.4797 71.9877 33.4797H70.5278C70.523 33.4797 70.5183 33.4778 70.5149 33.4744C70.5115 33.4709 70.5096 33.4663 70.5096 33.4615L70.5084 33.0115C70.5083 33.0077 70.5071 33.004 70.5048 33.0009C70.5025 32.9978 70.4992 32.9956 70.4956 32.9945C70.4919 32.9933 70.488 32.9934 70.4844 32.9946C70.4807 32.9958 70.4776 32.9981 70.4753 33.0012L68.9955 35.0206C68.9931 35.0238 68.9919 35.0276 68.9919 35.0315C68.9919 35.0354 68.9931 35.0392 68.9955 35.0423L70.6128 37.243C70.6148 37.2457 70.616 37.249 70.6163 37.2523C70.6166 37.2557 70.6159 37.2591 70.6144 37.2621C70.6128 37.2651 70.6105 37.2677 70.6076 37.2694C70.6047 37.2712 70.6013 37.2721 70.598 37.2721H69.9068C69.9039 37.2721 69.901 37.2715 69.8985 37.2702C69.8959 37.2689 69.8937 37.267 69.8919 37.2647L68.6185 35.5185C68.6168 35.5161 68.6146 35.5142 68.612 35.5129C68.6094 35.5116 68.6066 35.5109 68.6037 35.5109C68.6008 35.5109 68.5979 35.5116 68.5953 35.5129C68.5928 35.5142 68.5905 35.5161 68.5888 35.5185Z" fill="#D6D6D6"/>
<path d="M77.402 35.8548L78.3829 37.2383C78.3993 37.2611 78.3934 37.2725 78.3652 37.2725H77.7528C77.7296 37.2725 77.7111 37.263 77.6974 37.244L76.7913 35.9803C76.7818 35.9674 76.7692 35.9609 76.7536 35.9609H75.442C75.423 35.9609 75.4135 35.9704 75.4135 35.9894V37.244C75.4135 37.263 75.404 37.2725 75.385 37.2725H74.8289C74.8099 37.2725 74.8004 37.263 74.8004 37.244V32.9681C74.8004 32.9506 74.8092 32.9418 74.8266 32.9418C75.7961 32.9342 76.4335 32.9337 76.7388 32.9401C77.5332 32.9572 78.2096 33.4169 78.3191 34.2495C78.408 34.9281 78.0887 35.5674 77.4163 35.8092C77.3916 35.8183 77.3868 35.8335 77.402 35.8548ZM75.41 33.5013L75.4169 35.4174C75.4169 35.4217 75.4186 35.4257 75.4216 35.4287C75.4246 35.4317 75.4286 35.4334 75.4329 35.4334L76.6373 35.4294C76.7781 35.4289 76.9174 35.4048 77.0473 35.3584C77.1772 35.312 77.2952 35.2443 77.3944 35.1592C77.4937 35.074 77.5723 34.9731 77.6257 34.8621C77.6792 34.7511 77.7065 34.6323 77.706 34.5124V34.3903C77.7051 34.1482 77.5912 33.9164 77.3895 33.7459C77.1878 33.5755 76.9148 33.4803 76.6305 33.4813L75.426 33.4853C75.4218 33.4853 75.4177 33.487 75.4147 33.49C75.4117 33.493 75.41 33.497 75.41 33.5013Z" fill="#D6D6D6"/>
<path d="M87.6887 36.1048V32.9557C87.6887 32.951 87.6905 32.9465 87.6939 32.9432C87.6972 32.9399 87.7017 32.9381 87.7064 32.9381H88.2841C88.2887 32.9381 88.2932 32.9399 88.2966 32.9432C88.2999 32.9465 88.3017 32.951 88.3017 32.9557V37.2545C88.3017 37.2592 88.2999 37.2637 88.2966 37.267C88.2932 37.2703 88.2887 37.2722 88.2841 37.2722H87.797C87.7944 37.2722 87.7919 37.2717 87.7895 37.2706C87.7871 37.2695 87.785 37.2679 87.7833 37.2659L85.1965 34.094C85.1942 34.0912 85.1911 34.0891 85.1875 34.0882C85.184 34.0872 85.1803 34.0873 85.1768 34.0886C85.1734 34.0898 85.1704 34.0921 85.1683 34.0951C85.1662 34.0982 85.1651 34.1017 85.1652 34.1054V37.2545C85.1652 37.2592 85.1633 37.2637 85.16 37.267C85.1567 37.2703 85.1522 37.2722 85.1475 37.2722H84.5698C84.5651 37.2722 84.5606 37.2703 84.5573 37.267C84.554 37.2637 84.5521 37.2592 84.5521 37.2545V32.9557C84.5521 32.951 84.554 32.9465 84.5573 32.9432C84.5606 32.9399 84.5651 32.9381 84.5698 32.9381H85.0568C85.0594 32.938 85.062 32.9386 85.0644 32.9397C85.0667 32.9407 85.0688 32.9423 85.0705 32.9443L87.6573 36.1162C87.6596 36.1191 87.6628 36.1211 87.6663 36.1221C87.6698 36.1231 87.6736 36.1229 87.677 36.1217C87.6805 36.1204 87.6835 36.1181 87.6855 36.1151C87.6876 36.1121 87.6887 36.1085 87.6887 36.1048Z" fill="#D6D6D6"/>
<path d="M90.2196 32.9386H89.6482C89.6365 32.9386 89.6271 32.948 89.6271 32.9597V37.2516C89.6271 37.2633 89.6365 37.2727 89.6482 37.2727H90.2196C90.2313 37.2727 90.2407 37.2633 90.2407 37.2516V32.9597C90.2407 32.948 90.2313 32.9386 90.2196 32.9386Z" fill="#D6D6D6"/>
<path d="M53.9685 36.5695L55.0777 33.9872C55.0845 33.972 55.0961 33.9644 55.1125 33.9644H55.6508C55.6759 33.9644 55.6835 33.976 55.6736 33.9992C55.1839 35.1196 54.6933 36.2391 54.2017 37.3576C54.009 37.7956 53.8518 38.0775 53.7301 38.2033C53.3412 38.6054 52.5479 38.6727 52.0729 38.2438C52.0588 38.2313 52.0563 38.2168 52.0654 38.2005L52.2941 37.7927C52.3055 37.7726 52.3202 37.7699 52.338 37.7847C52.6329 38.0374 53.0389 38.1149 53.3434 37.8292C53.4172 37.76 53.5081 37.5794 53.616 37.2874C53.6226 37.2699 53.622 37.2505 53.6143 37.2333L52.1938 34.0026C52.1824 33.9772 52.1905 33.9644 52.2183 33.9644H52.7863C52.8064 33.9644 52.8207 33.9737 52.8291 33.9924L53.9468 36.5695C53.9478 36.5715 53.9493 36.5733 53.9512 36.5745C53.9531 36.5757 53.9554 36.5763 53.9576 36.5763C53.9599 36.5763 53.9621 36.5757 53.9641 36.5745C53.966 36.5733 53.9675 36.5715 53.9685 36.5695Z" fill="#D6D6D6"/>
</svg>
