<svg width="15" height="15" viewBox="0 0 12 12" fill="none" xmlns="http://www.w3.org/2000/svg">
<path d="M10.875 0H1.12495C0.504704 0 -4.57764e-05 0.50475 -4.57764e-05 1.125V5.75625C-4.57764e-05 5.85571 0.039463 5.95109 0.109789 6.02141C0.180115 6.09174 0.275498 6.13125 0.374954 6.13125C0.47441 6.13125 0.569793 6.09174 0.640119 6.02141C0.710445 5.95109 0.749954 5.85571 0.749954 5.75625V1.125C0.749954 0.918 0.918329 0.75 1.12495 0.75H10.875C11.0816 0.75 11.25 0.918 11.25 1.125V10.875C11.25 11.082 11.0816 11.25 10.875 11.25H6.2437C6.14425 11.25 6.04887 11.2895 5.97854 11.3598C5.90821 11.4302 5.8687 11.5255 5.8687 11.625C5.8687 11.7245 5.90821 11.8198 5.97854 11.8902C6.04887 11.9605 6.14425 12 6.2437 12H10.875C11.4952 12 12 11.4952 12 10.875V1.125C12 0.50475 11.4952 0 10.875 0Z" fill="black"/>
<path d="M4.12491 6.75H1.12491C0.504658 6.75 -9.15527e-05 7.25475 -9.15527e-05 7.875V10.875C-9.15527e-05 11.4952 0.504658 12 1.12491 12H4.12491C4.74516 12 5.24991 11.4952 5.24991 10.875V7.875C5.24991 7.25475 4.74516 6.75 4.12491 6.75ZM4.49991 10.875C4.49991 11.082 4.33153 11.25 4.12491 11.25H1.12491C0.918283 11.25 0.749908 11.082 0.749908 10.875V7.875C0.749908 7.668 0.918283 7.5 1.12491 7.5H4.12491C4.33153 7.5 4.49991 7.668 4.49991 7.875V10.875ZM6.26503 6.26513L8.62491 3.90525V4.5C8.62491 4.59946 8.66442 4.69484 8.73474 4.76516C8.80507 4.83549 8.90045 4.875 8.99991 4.875C9.09936 4.875 9.19475 4.83549 9.26507 4.76516C9.3354 4.69484 9.37491 4.59946 9.37491 4.5V3C9.37491 2.799 9.20391 2.625 8.99991 2.625H7.49991C7.40045 2.625 7.30507 2.66451 7.23474 2.73484C7.16442 2.80516 7.12491 2.90054 7.12491 3C7.12491 3.09946 7.16442 3.19484 7.23474 3.26516C7.30507 3.33549 7.40045 3.375 7.49991 3.375H8.09466L5.73478 5.73488C5.66448 5.8052 5.62499 5.90056 5.62499 6C5.62499 6.09944 5.66448 6.1948 5.73478 6.26513C5.87653 6.40688 6.11878 6.41138 6.26503 6.26513Z" fill="black"/>
</svg>
