<svg width="16" height="21" viewBox="0 0 16 21" fill="none" xmlns="http://www.w3.org/2000/svg" stroke="#F5F7FA">
<g id="Group">
<g id="Vector">
<path d="M8.08509 1.69459C4.49053 1.69459 1.56616 4.61896 1.56616 8.21348C1.56616 12.6744 7.39996 19.2233 7.64834 19.4999C7.88164 19.7597 8.28896 19.7593 8.52184 19.4999C8.77022 19.2233 14.604 12.6744 14.604 8.21348C14.6039 4.61896 11.6796 1.69459 8.08509 1.69459Z" stroke-width="1.7561"/>
<path d="M4.80534 8.21313C4.80534 10.0216 6.27663 11.493 8.08514 11.493C9.89362 11.493 11.3649 10.0217 11.3649 8.21317C11.3649 6.40466 9.89362 4.93333 8.08514 4.93333C6.27667 4.93333 4.80534 6.40462 4.80534 8.21313Z"  stroke-width="1.7561"/>
</g>
</g>
</svg>
