<svg width="36" height="37" viewBox="0 0 36 37"  xmlns="http://www.w3.org/2000/svg">
<g id="motorcycle 1">
<g id="_x31_8_Motorcycle">
<g id="Group">
<path id="Vector" d="M21.0112 10.9826C21.1462 10.813 21.2963 10.6628 21.4575 10.5278C18.2986 9.86618 16.4486 11.2367 14.6138 13.3992C17.9978 13.7682 18.7863 13.7238 21.0112 10.9826Z" />
<path id="Vector_2" d="M29.9699 19.5889C29.0579 19.5889 28.1959 19.8044 27.4203 20.1788L26.3138 18.3747C28.4022 17.2649 30.0078 17.7354 31.98 17.6233C32.6888 17.6233 33.3113 17.2148 33.6112 16.5557C33.9112 15.8967 33.8137 15.1413 33.36 14.5863L27.0525 6.85479C26.4787 6.15331 25.5488 5.94908 24.7724 6.30362H24.7687L22.275 5.09339C21.9038 4.91229 21.4538 5.07799 21.2775 5.46339C21.1013 5.84878 21.2626 6.30745 21.6375 6.48862L23.7075 7.49456C23.4761 8.11272 23.5968 8.91291 24.0863 9.4794L26.0738 11.7996C26.1975 11.9422 26.1938 12.1581 26.0663 12.2968C25.9462 12.4278 25.7551 12.451 25.6087 12.3507L24.5025 11.6069C23.7488 11.0982 22.7438 11.2524 22.1625 11.9692C19.4288 15.3377 18.045 15.3493 14.0925 14.8868C12.585 14.7056 11.3663 14.1583 10.4701 13.2564C8.9851 11.761 7.20387 10.8321 5.32139 10.574L2.50144 10.1886C1.42545 10.0364 0.457664 10.9024 0.457664 12.0271C0.457664 12.7015 0.813867 13.3221 1.38769 13.6496C2.85398 14.486 7.79267 17.3072 9.65271 18.529C10.0932 18.8179 10.463 19.1477 10.7845 19.5011L9.59006 20.7976C8.5905 20.0414 7.36059 19.5889 6.02641 19.5889C2.7038 19.5889 0 22.3678 0 25.7864C0 29.2012 2.7038 31.9801 6.02627 31.9801C9.35248 31.9801 12.0563 29.2012 12.0563 25.7864C12.0563 24.294 11.5406 22.9237 10.6831 21.853L11.6764 20.775C12.6345 22.6143 12.6263 24.758 12.48 26.1295C12.3299 27.5014 13.3824 28.6926 14.715 28.6926H19.6088C20.61 28.6926 21.5025 27.9988 21.7762 27.0083L23.01 22.5182C23.3698 21.207 24.1039 20.0792 25.0683 19.2357L26.1491 20.9979C24.8037 22.1352 23.9437 23.859 23.9437 25.7865C23.9437 29.2013 26.6475 31.9802 29.9699 31.9802C33.2962 31.9802 35.9999 29.2013 35.9999 25.7865C36 22.3678 33.2962 19.5889 29.9699 19.5889ZM9.05569 25.785C9.05569 27.5009 7.69746 28.897 6.02782 28.897C4.3579 28.897 2.9996 27.501 2.9996 25.785C2.9996 24.069 4.35783 22.673 6.02782 22.673C6.56163 22.673 7.06282 22.817 7.49883 23.0672L6.39478 24.2656C6.27666 24.2353 6.15495 24.2147 6.02789 24.2147C5.1852 24.2147 4.49965 24.919 4.49965 25.7849C4.49965 26.6509 5.1852 27.3552 6.02789 27.3552C6.87016 27.3552 7.55571 26.6508 7.55571 25.7849C7.55571 25.6248 7.52541 25.4733 7.48188 25.3277L8.5867 24.1285C8.88209 24.6089 9.05569 25.1759 9.05569 25.785ZM29.9718 28.897C28.3022 28.897 26.9439 27.501 26.9439 25.785C26.9439 24.958 27.2614 24.2074 27.7753 23.6494L28.632 25.0462C28.5159 25.2674 28.4439 25.5165 28.4439 25.785C28.4439 26.6508 29.1294 27.3552 29.9717 27.3552C30.814 27.3552 31.4995 26.6509 31.4995 25.785C31.4995 24.919 30.814 24.2147 29.9717 24.2147C29.9472 24.2147 29.9242 24.221 29.8999 24.2222L29.0427 22.8243C29.3356 22.7269 29.6476 22.673 29.9717 22.673C31.6413 22.673 32.9996 24.069 32.9996 25.785C32.9996 27.5009 31.6413 28.897 29.9718 28.897Z" />
</g>
</g>
</g>
</svg>
