<svg width="65" height="64" viewBox="0 0 65 64" fill="none" xmlns="http://www.w3.org/2000/svg">
<g id="Frame">
<g id="Group">
<path id="Vector" d="M62.1074 18.2132L61.0258 34.6683C61.0258 31.4821 55.605 29.2804 48.107 28.0613C38.7429 26.5361 26.1449 26.5452 16.8193 28.0852H16.8175C9.39836 29.3098 4.05266 31.506 4.05266 34.6665C3.8757 29.8597 3.62282 22.9906 3.44586 18.1839C3.44586 13.1865 8.84473 9.70517 16.3701 7.73995L16.3793 7.73812C17.6827 7.39714 18.6122 7.21565 18.9825 7.13682V7.13132C27.6812 5.35675 38.4734 5.39158 47.0859 7.24131C63.3247 10.719 61.9773 18.0299 62.1074 18.2132Z" fill="#4C5C75"/>
<path id="Vector_2" d="M18.9826 7.13135V7.13501L18.9441 7.31467L17.4885 14.193V27.5425L16.8194 28.0852H16.8176C9.39848 29.3098 4.05277 31.506 4.05277 34.6665L3.5413 20.8164C3.44231 18.1821 3.44231 18.3654 3.44597 18.2316V18.1821C3.44597 13.1847 8.84484 9.70337 16.3703 7.73815L16.3794 7.73631L18.9533 7.14051L18.9716 7.13501L18.9826 7.13135Z" fill="#8B95AF"/>
<path id="Vector_3" d="M61.8068 22.926C61.8043 22.9166 61.8013 22.9074 61.7977 22.8985L61.0277 34.6678C61.0277 31.4817 55.605 29.2799 48.1071 28.0609L48.701 14.3409L47.0878 7.24268C55.6857 9.08324 62.1093 12.7314 62.1093 18.1816C62.1093 18.4492 62.157 17.6334 61.8068 22.926Z" fill="#4C5C75"/>
<path id="Vector_4" d="M61.9939 18.8942L61.7574 23.5213C57.5135 10.4412 7.19493 10.5218 3.65496 23.8879L3.53214 18.8942C3.53214 2.42263 61.9939 2.42263 61.9939 18.8942Z" fill="#111D33" fill-opacity="0.345098"/>
<path id="Vector_5" d="M61.8069 22.9257C61.62 22.7241 60.9893 17.4077 48.6994 14.3444C39.3682 12.0125 26.9536 11.9611 17.4886 14.1922C10.2253 15.9008 4.69998 18.9531 3.6422 23.3474L3.44604 18.3536C3.44604 11.8053 12.5205 8.62834 18.9442 7.31391C27.663 5.52651 38.4956 5.56501 47.1283 7.4239C55.6308 9.25163 61.9958 12.8503 62.1058 18.2125C62.1131 18.4233 62.1259 17.9741 61.8069 22.9257Z" fill="#4C5C75"/>
<path id="Vector_6" d="M61.8068 22.926C61.6198 22.7243 60.9892 17.4079 48.6992 14.3446L47.1281 7.42233L47.0878 7.24268C55.6857 9.08324 62.1093 12.7314 62.1093 18.1816C62.1093 18.4492 62.157 17.6334 61.8068 22.926Z" fill="#31445B"/>
<path id="Vector_7" d="M18.9827 7.13135L17.4886 14.193C10.2253 15.9015 4.69998 18.9539 3.6422 23.3481L3.44604 18.3544C3.44604 12.3377 10.5462 9.25973 16.3703 7.73998L16.3795 7.73631L18.9533 7.14051L18.9717 7.13501L18.9827 7.13135Z" fill="#8B95AF"/>
<path id="Vector_8" d="M61.0719 34.7581C61.0719 37.0093 59.213 39.1028 56.0378 40.8261C55.5318 41.101 54.9929 41.365 54.4209 41.6198C49.1889 43.9645 41.3371 45.4513 32.5614 45.4513C25.2175 45.4513 15.3584 44.2927 8.96042 40.7582C5.86226 39.046 4.05103 36.9818 4.05103 34.7562C4.05103 30.9266 9.41873 27.5681 17.4849 25.6781H17.4886C21.8609 24.6533 27.0269 24.063 32.5614 24.063C38.3398 24.063 43.7148 24.7083 48.2062 25.8156C55.9553 27.7276 61.0719 31.0201 61.0719 34.7581Z" fill="#C9CEE2"/>
<path id="Vector_9" d="M21.9617 35.8077L11.2208 41.8463C8.11713 40.5356 4.05103 38.1249 4.05103 34.7554C4.05103 30.9258 9.41873 27.5673 17.4849 25.6772H17.4886L21.9617 35.8077Z" fill="#E3E7F0"/>
<path id="Vector_10" d="M61.0717 34.7574C61.0717 37.0086 59.2128 39.1022 56.0377 40.8254C55.5317 41.1004 54.9927 41.3644 54.4208 41.6192L43.7385 37.2323L48.2024 25.8149H48.2061C55.9552 27.727 61.0717 31.0195 61.0717 34.7574Z" fill="#B0B8CF"/>
<path id="Vector_11" d="M56.034 40.8278C49.6268 44.2926 39.9235 45.4475 32.5686 45.4475C25.9727 45.4475 18.1814 44.5767 12.0181 42.166C10.967 41.7649 9.94419 41.2933 8.9566 40.7544C13.2592 34.9229 25.1605 33.1099 32.477 33.1099C37.0234 33.1099 41.8539 33.6617 46.1529 34.9614C49.4344 35.9 54.0816 37.9643 56.034 40.8278Z" fill="#9EA9C9"/>
<path id="Vector_12" d="M55.0569 39.6758C48.659 42.8143 39.5808 43.8831 32.3927 43.8831C25.2926 43.8831 16.2273 42.8253 9.83844 39.729C10.9934 38.5612 12.4746 37.6024 13.9229 36.8691C20.9497 33.2888 31.0453 32.5152 38.996 33.4905C44.217 34.1321 51.3318 35.9397 55.0569 39.6758Z" fill="#9EA9C9"/>
<path id="Vector_13" d="M52.6243 42.3487C52.2027 42.5137 51.7627 42.6603 51.3227 42.807C46.2996 44.4569 39.7367 45.4468 32.5687 45.4468C25.9728 45.4468 18.1815 44.5761 12.0182 42.1654C11.9459 40.6838 12.0629 39.1991 12.3665 37.7473C13.7635 36.816 16.8818 35.4099 19.8461 34.6674C29.5201 32.0588 43.9861 32.5849 52.2576 37.5456C52.6921 39.4522 52.6995 40.8418 52.6243 42.3487Z" fill="#111D33" fill-opacity="0.188235"/>
<path id="Vector_14" d="M51.3153 42.8094C50.417 51.497 42.2591 58.2983 32.3321 58.2983C21.7654 58.2983 12.8816 50.4741 13.2794 40.571C13.3087 39.8322 13.6607 38.0833 13.921 36.8679C23.8388 31.8191 41.0418 31.9163 50.8056 36.7579C51.3006 39.1851 51.5279 40.7928 51.3153 42.8094Z" fill="#111D33"/>
<path id="Vector_15" d="M32.3322 56.302C22.8562 56.302 14.9257 48.9324 15.274 39.6324C15.285 39.3409 15.3987 38.5086 15.6736 37.064C24.8435 32.6001 39.92 32.6478 49.0366 36.9504C49.3483 38.8111 49.5041 39.9605 49.3299 41.7076C48.538 49.8948 41.2161 56.302 32.3322 56.302Z" fill="#31445B"/>
<path id="Vector_16" d="M55.8545 23.0211C56.9727 23.7855 58.2908 24.528 59.1818 24.4986C60.0709 24.4803 59.9004 23.2997 58.2175 22.1228C56.5327 20.9477 54.5859 20.5902 54.2669 21.0118C53.9259 21.4353 54.76 22.2401 55.8545 23.0211ZM47.2731 18.075C43.8193 17.7469 42.3032 19.0375 43.2693 19.6809C44.2043 20.3354 46.3198 20.4344 48.3584 20.6635C50.3896 20.8304 52.3768 21.0485 52.7765 20.4985C53.2201 19.9834 50.7471 18.4142 47.2731 18.075Z" fill="white"/>
<path id="Vector_17" d="M31.3771 52.9912C31.3771 52.3862 31.8721 51.8913 32.4771 51.8913H32.6604C33.2654 51.8729 33.7603 52.3496 33.7787 52.9545C33.797 53.5778 33.3204 54.0728 32.7154 54.0911H32.4771C31.8721 54.0911 31.3771 53.5962 31.3771 52.9912ZM26.8491 52.2762C26.7313 52.1916 26.6316 52.0843 26.5557 51.9607C26.4798 51.8371 26.4293 51.6996 26.4071 51.5562C26.3849 51.4129 26.3915 51.2666 26.4265 51.1258C26.4614 50.985 26.5241 50.8526 26.6107 50.7363C26.959 50.2413 27.6557 50.1314 28.1506 50.498C28.6456 50.8463 28.7373 51.5429 28.389 52.0196C28.169 52.3312 27.839 52.4779 27.4907 52.4779C27.2707 52.4779 27.0507 52.4229 26.8491 52.2762ZM36.9502 50.388V50.3697C37.1835 50.1922 37.4779 50.1147 37.7684 50.1543C38.0589 50.1938 38.3218 50.3471 38.4992 50.5805C38.6767 50.8139 38.7542 51.1082 38.7147 51.3987C38.6751 51.6892 38.5218 51.9521 38.2884 52.1296C38.0912 52.2726 37.8538 52.3496 37.6101 52.3496C36.5927 52.3496 36.0849 51.0296 36.9502 50.388ZM23.3659 47.5098C23.1643 46.9415 23.4759 46.3182 24.0625 46.1166C24.6308 45.9333 25.2541 46.2449 25.4558 46.8132C25.5089 46.9787 25.5225 47.1543 25.4953 47.3259C25.4681 47.4976 25.4009 47.6604 25.2993 47.8014C25.1976 47.9423 25.0642 48.0574 24.9099 48.1373C24.7556 48.2172 24.5846 48.2597 24.4109 48.2615C23.9342 48.2615 23.5126 47.9681 23.3659 47.5098ZM39.5533 46.6482C39.7183 46.0616 40.3416 45.7316 40.9283 45.9149C41.4966 46.0799 41.8266 46.7032 41.6616 47.2898C41.5149 47.7482 41.0749 48.0598 40.5983 48.0598C40.4273 48.0606 40.2584 48.021 40.1055 47.9444C39.9526 47.8678 39.8199 47.7562 39.7182 47.6188C39.6164 47.4813 39.5484 47.3218 39.5198 47.1532C39.4912 46.9846 39.5027 46.8116 39.5533 46.6482ZM23.3292 41.6068C23.5126 41.0202 24.1359 40.7085 24.7042 40.8919C25.2908 41.0752 25.6025 41.6802 25.4191 42.2668C25.3316 42.5439 25.1376 42.7749 24.8797 42.909C24.6219 43.0431 24.3213 43.0693 24.0442 42.9817C23.7671 42.8942 23.5361 42.7002 23.402 42.4424C23.2679 42.1845 23.2417 41.884 23.3292 41.6068ZM39.4617 42.1018C39.4128 41.9659 39.3916 41.8216 39.3993 41.6774C39.4071 41.5331 39.4437 41.3919 39.5069 41.2621C39.5701 41.1322 39.6587 41.0163 39.7674 40.9213C39.8762 40.8262 40.0028 40.7539 40.14 40.7085C40.7083 40.5069 41.3499 40.8002 41.5516 41.3868C41.6055 41.5523 41.6197 41.7282 41.5928 41.9002C41.566 42.0721 41.4989 42.2353 41.3971 42.3765C41.2952 42.5176 41.1615 42.6327 41.0068 42.7124C40.852 42.7921 40.6807 42.8341 40.5066 42.8351C40.0483 42.8351 39.6267 42.5418 39.4617 42.1018ZM26.7574 36.8038C27.234 36.4371 27.9307 36.5288 28.2973 37.0237C28.6456 37.5187 28.554 38.197 28.0773 38.5637C27.8757 38.7103 27.6373 38.7837 27.4174 38.7837C26.2899 38.7837 25.9398 37.3812 26.7574 36.8038ZM36.4552 36.9321C36.8035 36.4371 37.5001 36.3088 37.9951 36.6571C38.4901 37.0054 38.6001 37.6837 38.2518 38.197C38.078 38.4196 37.8254 38.5668 37.5461 38.6082C37.2668 38.6497 36.9823 38.5821 36.7515 38.4196C36.5206 38.257 36.3611 38.012 36.3059 37.7351C36.2508 37.4582 36.3042 37.1707 36.4552 36.9321ZM31.2671 36.0155C31.2488 35.4105 31.7438 34.9155 32.3487 34.9155C32.9537 34.8972 33.4487 35.3922 33.467 35.9971C33.467 36.6021 32.9904 37.0971 32.3854 37.1154H32.3671C31.7621 37.1154 31.2671 36.6204 31.2671 36.0155Z" fill="#B0B8CF"/>
<path id="Vector_18" d="M32.5302 50.0356C31.0634 50.0337 29.6573 49.4501 28.6201 48.413C27.5829 47.3758 26.9994 45.9697 26.9975 44.5029C26.9994 43.0361 27.5829 41.63 28.6201 40.5928C29.6573 39.5557 31.0634 38.9722 32.5302 38.9702C33.9971 38.9717 35.4035 39.555 36.4408 40.5923C37.478 41.6296 38.0614 43.036 38.0629 44.5029C38.0609 45.9697 37.4774 47.3758 36.4402 48.413C35.4031 49.4501 33.9969 50.0337 32.5302 50.0356ZM32.5302 39.8062C31.2851 39.8076 30.0915 40.303 29.2113 41.1835C28.3311 42.0641 27.8362 43.2579 27.8353 44.5029C27.8372 45.7475 28.3325 46.9405 29.2125 47.8206C30.0925 48.7006 31.2856 49.1959 32.5302 49.1978C33.7752 49.1968 34.969 48.702 35.8495 47.8217C36.7301 46.9415 37.2254 45.7479 37.2269 44.5029C37.2259 43.2576 36.7308 42.0635 35.8502 41.1829C34.9696 40.3023 33.7755 39.8071 32.5302 39.8062Z" fill="#8B95AF"/>
<path id="Vector_19" d="M35.8905 44.5034C35.8905 46.3549 34.3835 47.8637 32.5301 47.8637C31.6392 47.8627 30.7851 47.5084 30.1551 46.8784C29.5251 46.2484 29.1708 45.3943 29.1698 44.5034C29.1698 42.65 30.6767 41.1431 32.5301 41.1431C34.3817 41.1431 35.8905 42.65 35.8905 44.5034Z" fill="#111D33"/>
<path id="Vector_20" d="M33.7567 44.5123C33.7519 44.8336 33.6206 45.14 33.3914 45.3651C33.1621 45.5902 32.8534 45.7159 32.5321 45.7149C32.2105 45.7149 31.902 45.5872 31.6746 45.3597C31.4472 45.1323 31.3194 44.8239 31.3194 44.5022C31.3194 44.1806 31.4472 43.8722 31.6746 43.6447C31.902 43.4173 32.2105 43.2896 32.5321 43.2896C33.1957 43.2896 33.7567 43.8285 33.7567 44.5123ZM35.1921 42.0668C35.1921 42.2336 35.1258 42.3935 35.0079 42.5114C34.89 42.6293 34.7301 42.6956 34.5633 42.6956C34.3965 42.6956 34.2366 42.6293 34.1187 42.5114C34.0008 42.3935 33.9345 42.2336 33.9345 42.0668C33.9345 41.9 34.0008 41.7401 34.1187 41.6222C34.2366 41.5042 34.3965 41.438 34.5633 41.438C34.7301 41.438 34.89 41.5042 35.0079 41.6222C35.1258 41.7401 35.1921 41.9 35.1921 42.0668Z" fill="white"/>
<path id="Vector_21" opacity="0.15" d="M20.1943 41.4381C20.1943 42.9872 19.5619 44.2467 18.7827 44.2467C18.0036 44.2467 17.3712 42.9872 17.3712 41.4381C17.3712 39.8909 18.0036 38.6333 18.7827 38.6333C19.5619 38.6333 20.1943 39.8909 20.1943 41.4381Z" fill="white"/>
</g>
</g>
</svg>
