<svg width="707" height="707" viewBox="0 0 707 707" fill="none" xmlns="http://www.w3.org/2000/svg">
<g filter="url(#filter0_d_4001_11981)">
<path opacity="0.3" d="M666 652.229C666 659.581 660.038 665.562 652.667 665.562H55.071C47.7188 665.562 41.7383 659.6 41.7383 652.229C41.7383 644.877 47.7005 638.896 55.071 638.896H652.686C660.056 638.896 666.018 644.859 666.018 652.229H666Z" fill="#D22627"/>
<path opacity="0.3" d="M530.387 529.813C627.873 432.328 627.873 274.272 530.387 176.786C432.901 79.3004 274.846 79.3004 177.36 176.786C79.874 274.272 79.874 432.328 177.36 529.813C274.846 627.299 432.901 627.299 530.387 529.813Z" fill="#D22627"/>
<path d="M196.629 327.05C196.629 318.143 189.423 310.937 180.516 310.937C178.175 310.937 175.944 311.449 173.932 312.345C174.865 309.876 175.358 307.206 175.358 304.408C175.358 291.916 165.226 281.766 152.716 281.766C145.785 281.766 139.603 284.875 135.452 289.776C134.446 278.199 124.734 269.128 112.901 269.128C101.068 269.128 90.9725 278.565 90.3141 290.471C87.9365 289.1 85.1931 288.295 82.2486 288.295C73.3418 288.295 66.1359 295.501 66.1359 304.408C66.1359 306.767 66.648 308.998 67.5624 311.01C67.0869 310.973 66.6114 310.937 66.1359 310.937C57.2474 310.937 50.0232 318.143 50.0232 327.05C50.0232 335.078 55.9123 341.717 63.5937 342.943H63.7034C64.5082 343.071 65.3129 343.144 66.1359 343.144C66.9589 343.144 67.7819 343.052 68.5683 342.943H178.065C178.87 343.071 179.675 343.144 180.498 343.144C181.321 343.144 182.144 343.052 182.93 342.943H183.04C190.721 341.699 196.61 335.06 196.61 327.031L196.629 327.05Z" fill="white"/>
<path d="M430.711 136.002C430.711 127.095 423.505 119.889 414.598 119.889C412.257 119.889 410.026 120.401 408.014 121.297C408.929 118.828 409.459 116.158 409.459 113.36C409.459 100.868 399.327 90.7178 386.817 90.7178C379.885 90.7178 373.704 93.827 369.552 98.7285C368.546 87.1515 358.835 78.0801 347.002 78.0801C335.169 78.0801 325.073 87.5173 324.415 99.4235C322.037 98.0518 319.294 97.2471 316.349 97.2471C307.442 97.2471 300.236 104.453 300.236 113.36C300.236 115.719 300.749 117.95 301.663 119.962C301.188 119.926 300.712 119.889 300.236 119.889C291.348 119.889 284.124 127.095 284.124 136.002C284.124 144.031 290.013 150.67 297.694 151.895H297.804C298.59 152.023 299.413 152.096 300.236 152.096C301.059 152.096 301.882 152.005 302.669 151.895H412.166C412.97 152.023 413.775 152.096 414.598 152.096C415.421 152.096 416.244 152.005 417.031 151.895H417.14C424.822 150.651 430.711 144.012 430.711 135.983V136.002Z" fill="white"/>
<path d="M657.898 290.032C657.898 281.125 650.692 273.919 641.785 273.919C639.444 273.919 637.213 274.431 635.201 275.327C636.116 272.858 636.646 270.188 636.646 267.39C636.646 254.899 626.514 244.748 614.004 244.748C607.073 244.748 600.891 247.857 596.739 252.759C595.733 241.182 586.022 232.11 574.189 232.11C562.356 232.11 552.26 241.548 551.583 253.454C549.206 252.082 546.462 251.277 543.518 251.277C534.629 251.277 527.405 258.483 527.405 267.39C527.405 269.749 527.917 271.981 528.832 273.992C528.356 273.956 527.881 273.919 527.405 273.919C518.517 273.919 511.292 281.125 511.292 290.032C511.292 298.061 517.182 304.7 524.863 305.925H524.973C525.777 306.053 526.582 306.126 527.405 306.126C528.228 306.126 529.051 306.035 529.838 305.925H639.334C640.139 306.053 640.944 306.126 641.767 306.126C642.59 306.126 643.413 306.035 644.199 305.925H644.309C651.991 304.682 657.88 298.043 657.88 290.014L657.898 290.032Z" fill="white"/>
<path d="M648.772 629.972H537.446V647.84H648.772V629.972Z" fill="#FFC107"/>
<path d="M603.671 494.56H603.178H583.023H582.547L552.169 629.972H583.023H603.178H634.031L603.671 494.56Z" fill="#FFC107"/>
<path opacity="0.1" d="M552.169 629.973H634.031L629.203 608.465H557.747L552.169 629.973Z" fill="#3C2A34"/>
<path d="M570.257 549.354H615.961L612.011 531.797H574.189L570.257 549.354Z" fill="white"/>
<path d="M626.642 597.033L622.71 579.457H563.508L559.558 597.033H626.642Z" fill="white"/>
<path opacity="0.2" d="M596.392 494.56L622.966 629.972H634.031L603.671 494.56H596.392Z" fill="#FFFAEF"/>
<path d="M170.31 629.972H58.9846V647.84H170.31V629.972Z" fill="#FFC107"/>
<path d="M125.21 494.56H124.716H104.561H104.086L73.7075 629.972H104.561H124.716H155.57L125.21 494.56Z" fill="#FFC107"/>
<path opacity="0.1" d="M73.7075 629.973H155.57L150.741 608.465H79.2857L73.7075 629.973Z" fill="#3C2A34"/>
<path d="M91.7957 549.354H137.5L133.55 531.797H95.7278L91.7957 549.354Z" fill="white"/>
<path d="M148.181 597.033L144.248 579.457H85.0466L81.0962 597.033H148.181Z" fill="white"/>
<path opacity="0.2" d="M117.93 494.56L144.504 629.972H155.569L125.209 494.56H117.93Z" fill="#FFFAEF"/>
<path d="M272.606 217.545L240.301 303.825H269.998V267.306H296.082V358H269.998V328.906H232.877C221.24 322.886 215.421 313.59 215.421 301.015C215.421 295.264 218.631 284.362 225.052 268.31L245.117 217.545H272.606ZM373.636 358H335.312C326.35 349.038 319.862 338.47 315.849 326.297C311.97 314.125 310.03 301.952 310.03 289.779C310.03 258.612 318.458 234.534 335.312 217.545H373.636C382.465 226.508 388.886 237.075 392.899 249.248C396.912 261.287 398.918 273.326 398.918 285.365C398.918 316.934 390.491 341.145 373.636 358ZM363.202 241.623H345.947C340.061 253.662 337.118 268.978 337.118 287.572C337.118 306.165 339.994 321.883 345.746 334.725H363.403C369.155 320.01 372.031 303.825 372.031 286.167C372.031 268.51 369.088 253.662 363.202 241.623ZM467.573 217.545L435.269 303.825H464.965V267.306H491.049V358H464.965V328.906H427.845C416.207 322.886 410.388 313.59 410.388 301.015C410.388 295.264 413.598 284.362 420.019 268.31L440.084 217.545H467.573Z" fill="white"/>
<path d="M537.263 562.483H170.475V577.828H537.263V562.483Z" fill="white"/>
<path d="M222.05 391.847H191.343V646.522H222.05V391.847Z" fill="white"/>
<path opacity="0.2" d="M222.05 485.816H191.343V500.777H222.05V485.816Z" fill="#3C2A34"/>
<path opacity="0.2" d="M222.05 577.848H191.343V584.066H222.05V577.848Z" fill="#3C2A34"/>
<path d="M516.395 391.847H485.688V646.522H516.395V391.847Z" fill="white"/>
<path opacity="0.2" d="M516.395 485.816H485.688V500.777H516.395V485.816Z" fill="#3C2A34"/>
<path opacity="0.2" d="M516.395 577.848H485.688V584.066H516.395V577.848Z" fill="#3C2A34"/>
<path d="M531.667 425.48H176.09V485.798H531.667V425.48Z" fill="white"/>
<path d="M180.772 485.816H214.442L241.62 425.48H207.95L180.772 485.816Z" fill="#FFC107"/>
<path d="M308.887 425.48H275.217L248.039 485.816H281.709L308.887 425.48Z" fill="#FFC107"/>
<path d="M379.355 425.48H345.685L318.526 485.816H352.196L379.355 425.48Z" fill="#FFC107"/>
<path d="M446.622 425.48H412.952L385.793 485.816H419.463L446.622 425.48Z" fill="#FFC107"/>
<path d="M515.791 425.48H482.139L454.962 485.816H488.632L515.791 425.48Z" fill="#FFC107"/>
<path opacity="0.1" d="M531.667 462.589H176.09V485.798H531.667V462.589Z" fill="#3C2A34"/>
<path d="M363.279 593.101C358.085 598.295 349.654 598.295 344.459 593.101L261.537 510.178C256.343 504.984 256.343 496.571 261.537 491.377L344.459 408.454C349.654 403.26 358.085 403.26 363.279 408.454L446.202 491.377C451.396 496.571 451.396 504.984 446.202 510.178L363.279 593.101Z" fill="#FFC107"/>
<path d="M362.401 585.383C357.682 590.083 350.037 590.101 345.337 585.383L270.078 510.123C265.359 505.404 265.359 497.76 270.078 493.059L345.337 417.8C350.056 413.081 357.701 413.081 362.401 417.8L437.661 493.059C442.379 497.778 442.379 505.404 437.661 510.123L362.401 585.383Z" fill="#FAB217"/>
<g opacity="0.3">
<path d="M383.158 438.562L290.834 530.886L306.223 546.275L398.548 453.951L383.158 438.562Z" fill="#F3EAC7"/>
<path d="M404.545 459.938L312.205 552.246L317.545 557.588L409.885 465.28L404.545 459.938Z" fill="#F3EAC7"/>
</g>
<path d="M403.32 495.853H397.62C397.314 494.936 397.111 494.377 397.111 491.475V485.877C397.111 482.568 395.991 481.347 393.446 481.347H391.512V495.853H385.913V460.224H394.362C400.164 460.224 402.658 462.921 402.658 468.418V471.218C402.658 474.882 401.488 477.275 398.994 478.445C401.793 479.616 402.709 482.314 402.709 486.029V491.526C402.709 493.257 402.76 494.529 403.32 495.853ZM394.209 465.313H391.512V476.257H393.7C395.787 476.257 397.06 475.341 397.06 472.49V468.978C397.06 466.433 396.194 465.313 394.209 465.313Z" fill="#FFFAEF"/>
<path d="M370.873 468.418V487.658C370.873 490.203 371.993 491.17 373.774 491.17C375.556 491.17 376.675 490.203 376.675 487.658V468.418C376.675 465.873 375.556 464.906 373.774 464.906C371.993 464.906 370.873 465.873 370.873 468.418ZM365.274 487.302V468.775C365.274 463.074 368.277 459.816 373.774 459.816C379.271 459.816 382.274 463.074 382.274 468.775V487.302C382.274 493.002 379.271 496.26 373.774 496.26C368.277 496.26 365.274 493.002 365.274 487.302Z" fill="#FFFAEF"/>
<path d="M362.661 495.853H356.96C356.655 494.936 356.451 494.377 356.451 491.475V485.877C356.451 482.568 355.332 481.347 352.787 481.347H350.853V495.853H345.254V460.224H353.703C359.505 460.224 361.999 462.921 361.999 468.418V471.218C361.999 474.882 360.829 477.275 358.335 478.445C361.134 479.616 362.05 482.314 362.05 486.029V491.526C362.05 493.257 362.101 494.529 362.661 495.853ZM353.55 465.313H350.853V476.257H353.041C355.128 476.257 356.4 475.341 356.4 472.49V468.978C356.4 466.433 355.535 465.313 353.55 465.313Z" fill="#FFFAEF"/>
<path d="M342.182 495.853H336.482C336.176 494.936 335.973 494.377 335.973 491.475V485.877C335.973 482.568 334.853 481.347 332.308 481.347H330.374V495.853H324.775V460.224H333.224C339.027 460.224 341.521 462.921 341.521 468.418V471.218C341.521 474.882 340.35 477.275 337.856 478.445C340.655 479.616 341.571 482.314 341.571 486.029V491.526C341.571 493.257 341.622 494.529 342.182 495.853ZM333.071 465.313H330.374V476.257H332.562C334.649 476.257 335.922 475.341 335.922 472.49V468.978C335.922 466.433 335.056 465.313 333.071 465.313Z" fill="#FFFAEF"/>
<path d="M311.635 465.313V475.239H319.32V480.329H311.635V490.763H321.305V495.853H306.036V460.224H321.305V465.313H311.635Z" fill="#FFFAEF"/>
<path d="M414.742 530.315C414.022 530.315 413.392 530.177 412.852 529.901C412.312 529.613 411.862 529.235 411.502 528.767C411.142 528.287 410.872 527.753 410.692 527.165C410.512 526.577 410.422 525.977 410.422 525.365C410.422 524.753 410.512 524.153 410.692 523.565C410.872 522.977 411.142 522.449 411.502 521.981C411.862 521.501 412.312 521.123 412.852 520.847C413.392 520.559 414.022 520.415 414.742 520.415C415.342 520.415 415.846 520.511 416.254 520.703C416.662 520.895 416.992 521.123 417.244 521.387C417.496 521.639 417.688 521.879 417.82 522.107H417.928V516.455H419.638V530.135H417.928V528.623H417.82C417.688 528.851 417.496 529.097 417.244 529.361C416.992 529.625 416.662 529.853 416.254 530.045C415.846 530.225 415.342 530.315 414.742 530.315ZM415.03 528.857C415.666 528.857 416.194 528.689 416.614 528.353C417.046 528.005 417.364 527.567 417.568 527.039C417.784 526.499 417.892 525.941 417.892 525.365C417.892 524.777 417.784 524.219 417.568 523.691C417.364 523.163 417.046 522.731 416.614 522.395C416.194 522.047 415.666 521.873 415.03 521.873C414.394 521.873 413.86 522.047 413.428 522.395C412.996 522.731 412.672 523.163 412.456 523.691C412.252 524.219 412.15 524.777 412.15 525.365C412.15 525.941 412.252 526.499 412.456 527.039C412.672 527.567 412.996 528.005 413.428 528.353C413.86 528.689 414.394 528.857 415.03 528.857Z" fill="#FFFAEF"/>
<path d="M400.283 530.135V520.595H401.993V521.981H402.101C402.185 521.837 402.323 521.639 402.515 521.387C402.719 521.135 403.007 520.913 403.379 520.721C403.751 520.517 404.219 520.415 404.783 520.415C405.479 520.415 406.073 520.577 406.565 520.901C407.057 521.213 407.429 521.639 407.681 522.179C407.945 522.719 408.077 523.325 408.077 523.997V530.135H406.367V524.105C406.367 523.469 406.187 522.941 405.827 522.521C405.479 522.101 404.969 521.891 404.297 521.891C403.757 521.891 403.319 522.029 402.983 522.305C402.647 522.569 402.395 522.923 402.227 523.367C402.071 523.799 401.993 524.261 401.993 524.753V530.135H400.283Z" fill="#FFFAEF"/>
<path d="M393.202 530.316C392.254 530.316 391.498 530.022 390.934 529.434C390.37 528.846 390.088 528.03 390.088 526.986V520.596H391.798V526.896C391.798 527.52 391.966 528 392.302 528.336C392.65 528.672 393.106 528.84 393.67 528.84C394.246 528.84 394.708 528.69 395.056 528.39C395.404 528.09 395.656 527.706 395.812 527.238C395.968 526.77 396.046 526.29 396.046 525.798V520.596H397.756V530.136H396.046V528.768H395.938C395.866 528.912 395.728 529.11 395.524 529.362C395.32 529.602 395.032 529.824 394.66 530.028C394.288 530.22 393.802 530.316 393.202 530.316Z" fill="#FFFAEF"/>
<path d="M383.057 530.315C382.037 530.315 381.179 530.081 380.483 529.613C379.787 529.133 379.259 528.515 378.899 527.759C378.539 527.003 378.359 526.205 378.359 525.365C378.359 524.513 378.539 523.715 378.899 522.971C379.259 522.215 379.787 521.603 380.483 521.135C381.179 520.655 382.037 520.415 383.057 520.415C384.077 520.415 384.935 520.655 385.631 521.135C386.327 521.603 386.855 522.215 387.215 522.971C387.575 523.715 387.755 524.513 387.755 525.365C387.755 526.205 387.575 527.003 387.215 527.759C386.855 528.515 386.327 529.133 385.631 529.613C384.935 530.081 384.077 530.315 383.057 530.315ZM383.057 528.821C383.705 528.821 384.245 528.659 384.677 528.335C385.121 527.999 385.451 527.567 385.667 527.039C385.895 526.511 386.009 525.953 386.009 525.365C386.009 524.765 385.895 524.207 385.667 523.691C385.451 523.163 385.121 522.737 384.677 522.413C384.245 522.077 383.705 521.909 383.057 521.909C382.421 521.909 381.881 522.077 381.437 522.413C380.993 522.737 380.657 523.163 380.429 523.691C380.213 524.207 380.105 524.765 380.105 525.365C380.105 525.953 380.213 526.511 380.429 527.039C380.657 527.567 380.993 527.999 381.437 528.335C381.881 528.659 382.421 528.821 383.057 528.821Z" fill="#FFFAEF"/>
<path d="M373.257 530.135V521.999H371.691V520.595H373.257V519.425C373.257 518.921 373.347 518.429 373.527 517.949C373.707 517.457 374.007 517.055 374.427 516.743C374.847 516.431 375.417 516.275 376.137 516.275C376.485 516.275 376.761 516.305 376.965 516.365C377.181 516.413 377.289 516.437 377.289 516.437V517.787C377.289 517.787 377.193 517.769 377.001 517.733C376.821 517.685 376.611 517.661 376.371 517.661C375.819 517.661 375.447 517.829 375.255 518.165C375.063 518.501 374.967 518.921 374.967 519.425V520.595H377.181V521.999H374.967V530.135H373.257Z" fill="#FFFAEF"/>
<path d="M364.343 530.315C363.359 530.315 362.615 530.063 362.111 529.559C361.619 529.055 361.373 528.347 361.373 527.435V521.999H359.663V520.595H361.373V518.201H363.083V520.595H365.405V521.999H363.083V527.435C363.083 527.915 363.215 528.269 363.479 528.497C363.743 528.713 364.127 528.821 364.631 528.821C364.895 528.821 365.147 528.803 365.387 528.767C365.627 528.731 365.747 528.713 365.747 528.713V530.171C365.747 530.171 365.609 530.195 365.333 530.243C365.057 530.291 364.727 530.315 364.343 530.315Z" fill="#FFFAEF"/>
<path d="M353.438 530.315C352.418 530.315 351.56 530.081 350.864 529.613C350.168 529.133 349.64 528.515 349.28 527.759C348.92 527.003 348.74 526.205 348.74 525.365C348.74 524.513 348.92 523.715 349.28 522.971C349.64 522.215 350.168 521.603 350.864 521.135C351.56 520.655 352.418 520.415 353.438 520.415C354.458 520.415 355.316 520.655 356.012 521.135C356.708 521.603 357.236 522.215 357.596 522.971C357.956 523.715 358.136 524.513 358.136 525.365C358.136 526.205 357.956 527.003 357.596 527.759C357.236 528.515 356.708 529.133 356.012 529.613C355.316 530.081 354.458 530.315 353.438 530.315ZM353.438 528.821C354.086 528.821 354.626 528.659 355.058 528.335C355.502 527.999 355.832 527.567 356.048 527.039C356.276 526.511 356.39 525.953 356.39 525.365C356.39 524.765 356.276 524.207 356.048 523.691C355.832 523.163 355.502 522.737 355.058 522.413C354.626 522.077 354.086 521.909 353.438 521.909C352.802 521.909 352.262 522.077 351.818 522.413C351.374 522.737 351.038 523.163 350.81 523.691C350.594 524.207 350.486 524.765 350.486 525.365C350.486 525.953 350.594 526.511 350.81 527.039C351.038 527.567 351.374 527.999 351.818 528.335C352.262 528.659 352.802 528.821 353.438 528.821Z" fill="#FFFAEF"/>
<path d="M338.602 530.135V520.595H340.312V521.981H340.42C340.504 521.837 340.642 521.639 340.834 521.387C341.038 521.135 341.326 520.913 341.698 520.721C342.07 520.517 342.538 520.415 343.102 520.415C343.798 520.415 344.392 520.577 344.884 520.901C345.376 521.213 345.748 521.639 346 522.179C346.264 522.719 346.396 523.325 346.396 523.997V530.135H344.686V524.105C344.686 523.469 344.506 522.941 344.146 522.521C343.798 522.101 343.288 521.891 342.616 521.891C342.076 521.891 341.638 522.029 341.302 522.305C340.966 522.569 340.714 522.923 340.546 523.367C340.39 523.799 340.312 524.261 340.312 524.753V530.135H338.602Z" fill="#FFFAEF"/>
<path d="M328.016 530.315C327.236 530.315 326.558 530.177 325.982 529.901C325.418 529.613 324.95 529.229 324.578 528.749C324.218 528.269 323.948 527.741 323.768 527.165C323.588 526.577 323.498 525.977 323.498 525.365C323.498 524.765 323.582 524.171 323.75 523.583C323.93 522.995 324.2 522.461 324.56 521.981C324.932 521.501 325.394 521.123 325.946 520.847C326.51 520.559 327.176 520.415 327.944 520.415C328.76 520.415 329.48 520.601 330.104 520.973C330.728 521.345 331.22 521.897 331.58 522.629C331.94 523.361 332.12 524.279 332.12 525.383V525.887H325.226C325.262 526.427 325.388 526.925 325.604 527.381C325.832 527.825 326.15 528.185 326.558 528.461C326.966 528.725 327.452 528.857 328.016 528.857C328.508 528.857 328.904 528.779 329.204 528.623C329.516 528.455 329.762 528.263 329.942 528.047C330.122 527.831 330.242 527.645 330.302 527.489C330.374 527.321 330.41 527.237 330.41 527.237H332.012C332.012 527.237 331.982 527.345 331.922 527.561C331.862 527.765 331.754 528.017 331.598 528.317C331.442 528.617 331.214 528.923 330.914 529.235C330.614 529.535 330.23 529.793 329.762 530.009C329.294 530.213 328.712 530.315 328.016 530.315ZM325.244 524.555H330.446C330.422 523.931 330.29 523.427 330.05 523.043C329.81 522.647 329.504 522.353 329.132 522.161C328.76 521.969 328.364 521.873 327.944 521.873C327.188 521.873 326.57 522.119 326.09 522.611C325.61 523.091 325.328 523.739 325.244 524.555Z" fill="#FFFAEF"/>
<path d="M317.053 533.915C316.261 533.915 315.601 533.807 315.073 533.591C314.545 533.387 314.119 533.123 313.795 532.799C313.483 532.487 313.249 532.175 313.093 531.863C312.937 531.551 312.835 531.287 312.787 531.071C312.739 530.867 312.715 530.765 312.715 530.765H314.425C314.425 530.765 314.455 530.849 314.515 531.017C314.575 531.185 314.689 531.377 314.857 531.593C315.037 531.809 315.301 532.001 315.649 532.169C315.997 532.337 316.465 532.421 317.053 532.421C317.749 532.421 318.295 532.283 318.691 532.007C319.087 531.743 319.369 531.395 319.537 530.963C319.717 530.531 319.807 530.075 319.807 529.595V528.497H319.717C319.597 528.701 319.405 528.935 319.141 529.199C318.889 529.451 318.553 529.673 318.133 529.865C317.713 530.045 317.197 530.135 316.585 530.135C315.865 530.135 315.235 529.997 314.695 529.721C314.155 529.445 313.705 529.073 313.345 528.605C312.997 528.137 312.733 527.615 312.553 527.039C312.373 526.463 312.283 525.875 312.283 525.275C312.283 524.675 312.373 524.087 312.553 523.511C312.733 522.935 312.997 522.413 313.345 521.945C313.705 521.477 314.155 521.105 314.695 520.829C315.235 520.553 315.865 520.415 316.585 520.415C317.197 520.415 317.713 520.511 318.133 520.703C318.553 520.883 318.889 521.099 319.141 521.351C319.405 521.603 319.597 521.837 319.717 522.053H319.807V520.595H321.517V529.577C321.517 530.909 321.127 531.965 320.347 532.745C319.579 533.525 318.481 533.915 317.053 533.915ZM316.909 528.677C317.545 528.677 318.073 528.515 318.493 528.191C318.925 527.855 319.243 527.429 319.447 526.913C319.663 526.397 319.771 525.851 319.771 525.275C319.771 524.699 319.663 524.153 319.447 523.637C319.243 523.109 318.925 522.683 318.493 522.359C318.073 522.035 317.545 521.873 316.909 521.873C316.273 521.873 315.739 522.035 315.307 522.359C314.875 522.683 314.551 523.109 314.335 523.637C314.131 524.153 314.029 524.699 314.029 525.275C314.029 525.851 314.131 526.397 314.335 526.913C314.551 527.429 314.875 527.855 315.307 528.191C315.739 528.515 316.273 528.677 316.909 528.677Z" fill="#FFFAEF"/>
<path d="M305.054 520.415C305.654 520.415 306.158 520.511 306.566 520.703C306.974 520.895 307.304 521.123 307.556 521.387C307.808 521.639 308 521.879 308.132 522.107H308.24V520.595H309.95V530.135H308.24V528.623H308.132C308 528.851 307.808 529.097 307.556 529.361C307.304 529.625 306.974 529.853 306.566 530.045C306.158 530.225 305.654 530.315 305.054 530.315C304.334 530.315 303.704 530.177 303.164 529.901C302.624 529.613 302.174 529.235 301.814 528.767C301.454 528.287 301.184 527.753 301.004 527.165C300.824 526.577 300.734 525.977 300.734 525.365C300.734 524.753 300.824 524.153 301.004 523.565C301.184 522.977 301.454 522.449 301.814 521.981C302.174 521.501 302.624 521.123 303.164 520.847C303.704 520.559 304.334 520.415 305.054 520.415ZM305.342 521.873C304.706 521.873 304.172 522.047 303.74 522.395C303.308 522.731 302.984 523.163 302.768 523.691C302.564 524.219 302.462 524.777 302.462 525.365C302.462 525.941 302.564 526.499 302.768 527.039C302.984 527.567 303.308 528.005 303.74 528.353C304.172 528.689 304.706 528.857 305.342 528.857C305.978 528.857 306.506 528.689 306.926 528.353C307.358 528.005 307.676 527.567 307.88 527.039C308.096 526.499 308.204 525.941 308.204 525.365C308.204 524.777 308.096 524.219 307.88 523.691C307.676 523.163 307.358 522.731 306.926 522.395C306.506 522.047 305.978 521.873 305.342 521.873Z" fill="#FFFAEF"/>
<path d="M289.44 533.663V520.595H291.15V522.107H291.258C291.402 521.879 291.594 521.633 291.834 521.369C292.086 521.105 292.416 520.883 292.824 520.703C293.232 520.511 293.736 520.415 294.336 520.415C295.056 520.415 295.686 520.559 296.226 520.847C296.766 521.123 297.216 521.501 297.576 521.981C297.936 522.449 298.206 522.977 298.386 523.565C298.566 524.153 298.656 524.753 298.656 525.365C298.656 525.977 298.566 526.577 298.386 527.165C298.206 527.753 297.936 528.287 297.576 528.767C297.216 529.235 296.766 529.613 296.226 529.901C295.686 530.177 295.056 530.315 294.336 530.315C293.736 530.315 293.232 530.219 292.824 530.027C292.416 529.835 292.086 529.607 291.834 529.343C291.594 529.079 291.402 528.839 291.258 528.623H291.15V533.663H289.44ZM291.186 525.365C291.186 525.941 291.288 526.499 291.492 527.039C291.708 527.567 292.026 528.005 292.446 528.353C292.878 528.689 293.412 528.857 294.048 528.857C294.696 528.857 295.23 528.689 295.65 528.353C296.082 528.005 296.4 527.567 296.604 527.039C296.82 526.499 296.928 525.941 296.928 525.365C296.928 524.777 296.82 524.219 296.604 523.691C296.4 523.163 296.082 522.731 295.65 522.395C295.23 522.047 294.696 521.873 294.048 521.873C293.412 521.873 292.878 522.047 292.446 522.395C292.026 522.731 291.708 523.163 291.492 523.691C291.288 524.219 291.186 524.777 291.186 525.365Z" fill="#FFFAEF"/>
</g>
<defs>
<filter id="filter0_d_4001_11981" x="37.7383" y="78.0801" width="632.28" height="595.481" filterUnits="userSpaceOnUse" color-interpolation-filters="sRGB">
<feFlood flood-opacity="0" result="BackgroundImageFix"/>
<feColorMatrix in="SourceAlpha" type="matrix" values="0 0 0 0 0 0 0 0 0 0 0 0 0 0 0 0 0 0 127 0" result="hardAlpha"/>
<feOffset dy="4"/>
<feGaussianBlur stdDeviation="2"/>
<feComposite in2="hardAlpha" operator="out"/>
<feColorMatrix type="matrix" values="0 0 0 0 0 0 0 0 0 0 0 0 0 0 0 0 0 0 0.25 0"/>
<feBlend mode="normal" in2="BackgroundImageFix" result="effect1_dropShadow_4001_11981"/>
<feBlend mode="normal" in="SourceGraphic" in2="effect1_dropShadow_4001_11981" result="shape"/>
</filter>
</defs>
</svg>
