<svg width="37" height="56" viewBox="0 0 37 56" fill="none" xmlns="http://www.w3.org/2000/svg">
<path d="M36.7969 28.0469L36.7969 47.7344C36.7969 52.2589 33.1183 55.9375 28.5938 55.9375L8.90625 55.9375C4.38173 55.9375 0.703125 52.2589 0.703125 47.7344L0.703124 28.0469C0.703124 23.5224 4.38173 19.8437 8.90625 19.8437L28.5937 19.8437C33.1183 19.8437 36.7969 23.5224 36.7969 28.0469Z" fill="#F3F5F9"/>
<path d="M0.703125 28.0469L0.703125 37.8906L36.7969 37.8906L36.7969 28.0469C36.7969 23.5224 33.1183 19.8437 28.5937 19.8437L8.90625 19.8437C4.38173 19.8437 0.703124 23.5224 0.703125 28.0469Z" fill="#E1E6F0"/>
<path d="M26.9531 37.8906C26.9531 42.4151 23.2745 46.0937 18.75 46.0937C14.2255 46.0937 10.5469 42.4151 10.5469 37.8906C10.5469 33.3661 14.2255 29.6875 18.75 29.6875C23.2745 29.6875 26.9531 33.3661 26.9531 37.8906Z" fill="#406080"/>
<path d="M18.75 29.6875C14.2255 29.6875 10.5469 33.3661 10.5469 37.8906L26.9531 37.8906C26.9531 33.3661 23.2745 29.6875 18.75 29.6875Z" fill="#334466"/>
<path d="M23.6719 37.8906C23.6719 35.1723 21.4683 32.9687 18.75 32.9687C16.0317 32.9687 13.8281 35.1723 13.8281 37.8906C13.8281 40.6089 16.0317 42.8125 18.75 42.8125C21.4683 42.8125 23.6719 40.6089 23.6719 37.8906Z" fill="#F97066"/>
<path d="M18.75 32.9687C16.0361 32.9687 13.8281 35.1767 13.8281 37.8906L23.6719 37.8906C23.6719 35.1767 21.4639 32.9687 18.75 32.9687Z" fill="#F94144"/>
<path d="M20.3906 37.8906C20.3906 36.9845 19.6561 36.25 18.75 36.25C17.8439 36.25 17.1094 36.9845 17.1094 37.8906C17.1094 38.7967 17.8439 39.5312 18.75 39.5312C19.6561 39.5312 20.3906 38.7967 20.3906 37.8906Z" fill="#F3F5F9"/>
<path d="M10.5469 28.0469C10.5469 27.1408 9.81234 26.4062 8.90625 26.4062C8.00016 26.4062 7.26562 27.1408 7.26562 28.0469C7.26562 28.953 8.00016 29.6875 8.90625 29.6875C9.81234 29.6875 10.5469 28.953 10.5469 28.0469Z" fill="#F94144"/>
<path d="M20.3906 14.9219C20.3906 14.0158 19.6561 13.2812 18.75 13.2812C17.8439 13.2812 17.1094 14.0158 17.1094 14.9219C17.1094 15.828 17.8439 16.5625 18.75 16.5625C19.6561 16.5625 20.3906 15.828 20.3906 14.9219Z" fill="#F94144"/>
<path d="M29.1866 6.80527C28.5457 7.44609 27.5074 7.44609 26.8666 6.80527C24.6941 4.63275 21.8134 3.4375 18.75 3.4375C15.6866 3.4375 12.8059 4.63275 10.6334 6.80527C9.99256 7.4461 8.95427 7.4461 8.31344 6.80527C7.67261 6.16444 7.67261 5.12614 8.31344 4.48531C11.1045 1.69428 14.8118 0.156254 18.75 0.156253C22.6882 0.156253 26.3955 1.69428 29.1866 4.48531C29.8274 5.12614 29.8274 6.16433 29.1866 6.80527Z" fill="#F94144"/>
<path d="M24.5498 11.4452C23.9057 12.0828 22.8675 12.0828 22.2267 11.442C21.3006 10.5127 20.067 9.99999 18.75 9.99999C17.433 9.99999 16.1994 10.5127 15.2733 11.442C14.6325 12.0828 13.5942 12.0828 12.9502 11.4452C12.3093 10.8043 12.3125 9.76286 12.947 9.12203C14.4947 7.57427 16.5551 6.71874 18.75 6.71874C20.9449 6.71874 23.0053 7.57427 24.5531 9.12203C25.1958 9.77117 25.1844 10.8107 24.5498 11.4452Z" fill="#F94144"/>
<path d="M18.75 36.25C17.8437 36.25 17.1094 36.9846 17.1094 37.8906L20.3906 37.8906C20.3906 36.9846 19.6561 36.25 18.75 36.25Z" fill="#E1E6F0"/>
</svg>
