<svg width="37" height="56" viewBox="0 0 37 56" fill="none" xmlns="http://www.w3.org/2000/svg">
<path d="M36.6719 28.0469L36.6719 47.7344C36.6719 52.2589 32.9933 55.9375 28.4688 55.9375L8.78125 55.9375C4.25673 55.9375 0.578125 52.2589 0.578125 47.7344L0.578124 28.0469C0.578124 23.5224 4.25673 19.8437 8.78125 19.8437L28.4687 19.8437C32.9933 19.8437 36.6719 23.5224 36.6719 28.0469Z" fill="#F3F5F9"/>
<path d="M0.578125 28.0469L0.578125 37.8906L36.6719 37.8906L36.6719 28.0469C36.6719 23.5224 32.9933 19.8437 28.4687 19.8437L8.78125 19.8437C4.25673 19.8437 0.578124 23.5224 0.578125 28.0469Z" fill="#E1E6F0"/>
<path d="M26.8281 37.8906C26.8281 42.4151 23.1495 46.0937 18.625 46.0937C14.1005 46.0937 10.4219 42.4151 10.4219 37.8906C10.4219 33.3661 14.1005 29.6875 18.625 29.6875C23.1495 29.6875 26.8281 33.3661 26.8281 37.8906Z" fill="#406080"/>
<path d="M18.625 29.6875C14.1005 29.6875 10.4219 33.3661 10.4219 37.8906L26.8281 37.8906C26.8281 33.3661 23.1495 29.6875 18.625 29.6875Z" fill="#334466"/>
<path d="M23.5469 37.8906C23.5469 35.1723 21.3433 32.9687 18.625 32.9687C15.9067 32.9687 13.7031 35.1723 13.7031 37.8906C13.7031 40.6089 15.9067 42.8125 18.625 42.8125C21.3433 42.8125 23.5469 40.6089 23.5469 37.8906Z" fill="#4AC94F"/>
<path d="M18.625 32.9687C15.9111 32.9687 13.7031 35.1767 13.7031 37.8906L23.5469 37.8906C23.5469 35.1767 21.3389 32.9687 18.625 32.9687Z" fill="#37963B"/>
<path d="M20.2656 37.8906C20.2656 36.9845 19.5311 36.25 18.625 36.25C17.7189 36.25 16.9844 36.9845 16.9844 37.8906C16.9844 38.7967 17.7189 39.5312 18.625 39.5312C19.5311 39.5312 20.2656 38.7967 20.2656 37.8906Z" fill="#F3F5F9"/>
<path d="M10.4219 28.0469C10.4219 27.1408 9.68734 26.4062 8.78125 26.4062C7.87516 26.4062 7.14062 27.1408 7.14062 28.0469C7.14062 28.953 7.87516 29.6875 8.78125 29.6875C9.68734 29.6875 10.4219 28.953 10.4219 28.0469Z" fill="#37963B"/>
<path d="M20.2656 14.9219C20.2656 14.0158 19.5311 13.2812 18.625 13.2812C17.7189 13.2812 16.9844 14.0158 16.9844 14.9219C16.9844 15.828 17.7189 16.5625 18.625 16.5625C19.5311 16.5625 20.2656 15.828 20.2656 14.9219Z" fill="#37963B"/>
<path d="M29.0616 6.80527C28.4207 7.44609 27.3824 7.44609 26.7416 6.80527C24.5691 4.63275 21.6884 3.4375 18.625 3.4375C15.5616 3.4375 12.6809 4.63275 10.5084 6.80527C9.86757 7.4461 8.82927 7.4461 8.18845 6.80527C7.54762 6.16444 7.54762 5.12614 8.18845 4.48531C10.9795 1.69428 14.6869 0.156254 18.625 0.156253C22.5632 0.156253 26.2705 1.69428 29.0616 4.48531C29.7024 5.12614 29.7024 6.16433 29.0616 6.80527Z" fill="#37963B"/>
<path d="M24.4248 11.4452C23.7807 12.0828 22.7425 12.0828 22.1017 11.442C21.1756 10.5127 19.942 9.99999 18.625 9.99999C17.308 9.99999 16.0744 10.5127 15.1483 11.442C14.5075 12.0828 13.4692 12.0828 12.8252 11.4452C12.1843 10.8043 12.1875 9.76286 12.822 9.12203C14.3696 7.57427 16.4301 6.71874 18.625 6.71874C20.8199 6.71874 22.8803 7.57427 24.4281 9.12203C25.0708 9.77117 25.0594 10.8107 24.4248 11.4452Z" fill="#37963B"/>
<path d="M18.625 36.25C17.7187 36.25 16.9844 36.9846 16.9844 37.8906L20.2656 37.8906C20.2656 36.9846 19.5311 36.25 18.625 36.25Z" fill="#E1E6F0"/>
</svg>
