<svg width="29" height="28" viewBox="0 0 29 28" fill="none" xmlns="http://www.w3.org/2000/svg">
<path d="M7.3902 6.52577C7.22665 6.39185 7.03085 6.32449 6.83469 6.31857C6.80369 6.31531 6.77227 6.31348 6.7404 6.31348H2.28825C2.25638 6.31348 2.22495 6.31531 2.19396 6.31857C1.99781 6.32449 1.80202 6.39185 1.63845 6.52577C1.29361 6.80806 -0.401719 8.5962 0.0881883 16.0935C0.12004 16.5811 0.525478 16.9553 1.00721 16.9553C1.02742 16.9553 1.04776 16.9547 1.06823 16.9533C1.25179 16.9413 1.41883 16.8758 1.55634 16.7738L2.18382 26.4567C2.23474 27.2421 2.91272 27.8371 3.69765 27.7863C4.00977 27.7661 4.29088 27.6457 4.51438 27.46C4.73788 27.6457 5.01899 27.7661 5.33106 27.7863C6.11605 27.8371 6.79402 27.2421 6.84489 26.4567L7.47241 16.7738C7.6099 16.8758 7.7769 16.9413 7.96042 16.9533C7.98089 16.9547 8.00123 16.9553 8.02144 16.9553C8.50317 16.9553 8.90861 16.5811 8.94046 16.0935C9.43037 8.5962 7.73504 6.80806 7.3902 6.52577ZM6.50547 13.19H2.54724V9.23174H6.50547V13.19Z" fill="#F3F5F9"/>
<path d="M4.51471 5.65685C5.94669 5.65685 7.10754 4.496 7.10754 3.06402C7.10754 1.63204 5.94669 0.471191 4.51471 0.471191C3.08273 0.471191 1.92188 1.63204 1.92188 3.06402C1.92188 4.496 3.08273 5.65685 4.51471 5.65685Z" fill="#F3F5F9"/>
<path d="M17.4884 6.52575C17.3248 6.39183 17.129 6.32448 16.9328 6.31856C16.9018 6.3153 16.8704 6.31348 16.8386 6.31348H12.3864C12.3545 6.31348 12.3231 6.31531 12.2921 6.31857C12.096 6.32449 11.9002 6.39185 11.7366 6.52577C11.3918 6.80806 9.69643 8.59621 10.1863 16.0935C10.2182 16.5811 10.6236 16.9553 11.1054 16.9553C11.1256 16.9553 11.1459 16.9547 11.1664 16.9533C11.3499 16.9413 11.517 16.8758 11.6545 16.7738L12.282 26.4567C12.3329 27.2421 13.0109 27.8371 13.7958 27.7863C14.1079 27.7661 14.389 27.6457 14.6125 27.46C14.836 27.6457 15.1171 27.7661 15.4292 27.7863C16.2142 27.8371 16.8922 27.2421 16.943 26.4567L17.5706 16.7738C17.708 16.8758 17.875 16.9413 18.0586 16.9533C18.079 16.9547 18.0994 16.9553 18.1196 16.9553C18.6013 16.9553 19.0068 16.5811 19.0386 16.0935C19.5285 8.59619 17.8332 6.80805 17.4884 6.52575ZM16.832 13.19H12.8738V9.23173H16.832L16.832 13.19Z" fill="#F3F5F9"/>
<path d="M27.5387 6.52575C27.3751 6.39183 27.1793 6.32448 26.9831 6.31856C26.9521 6.3153 26.9207 6.31348 26.8888 6.31348H22.4367C22.4048 6.31348 22.3734 6.31531 22.3424 6.31857C22.1463 6.32449 21.9505 6.39185 21.7869 6.52577C21.4421 6.80806 19.7467 8.59621 20.2366 16.0935C20.2685 16.5811 20.6739 16.9553 21.1556 16.9553C21.1758 16.9553 21.1962 16.9547 21.2167 16.9533C21.4002 16.9413 21.5673 16.8758 21.7048 16.7738L22.3323 26.4567C22.3832 27.2421 23.0611 27.8371 23.8461 27.7863C24.1582 27.7661 24.4393 27.6457 24.6628 27.46C24.8863 27.6457 25.1674 27.7661 25.4795 27.7863C26.2645 27.8371 26.9425 27.2421 26.9933 26.4567L27.6208 16.7738C27.7583 16.8758 27.9253 16.9413 28.1089 16.9533C28.1293 16.9547 28.1497 16.9553 28.1699 16.9553C28.6516 16.9553 29.0571 16.5811 29.0889 16.0935C29.5788 8.59619 27.8835 6.80805 27.5387 6.52575ZM26.8823 13.19H22.9241V9.23173H26.8823L26.8823 13.19Z" fill="#F3F5F9"/>
<path d="M14.6129 5.65685C16.0448 5.65685 17.2057 4.496 17.2057 3.06402C17.2057 1.63204 16.0448 0.471191 14.6129 0.471191C13.1809 0.471191 12.02 1.63204 12.02 3.06402C12.02 4.496 13.1809 5.65685 14.6129 5.65685Z" fill="#F3F5F9"/>
<path d="M24.6631 5.65685C26.0951 5.65685 27.256 4.496 27.256 3.06402C27.256 1.63204 26.0951 0.471191 24.6631 0.471191C23.2312 0.471191 22.0703 1.63204 22.0703 3.06402C22.0703 4.496 23.2312 5.65685 24.6631 5.65685Z" fill="#F3F5F9"/>
<path d="M4.36888 10.3632V11.9501C4.36888 12.0526 4.33479 12.064 4.26647 12.0678L3.91717 12.0868V12.3677H5.24588V12.0753L4.81689 12.0564V9.92285H4.44485L3.70459 10.3746L3.84887 10.6327L4.36888 10.3632Z" fill="#D32F2F"/>
<path d="M15.6788 12.0374H14.5626L15.227 11.2743C15.432 11.039 15.5648 10.8226 15.5648 10.5492C15.5648 10.1506 15.2764 9.87354 14.7639 9.87354C14.4638 9.87354 14.1906 9.94185 14.0121 10.0444V10.61L14.3803 10.6404V10.386C14.3803 10.3214 14.388 10.2911 14.4488 10.2721C14.4981 10.257 14.5816 10.2379 14.6993 10.2379C14.9232 10.2379 15.0903 10.3404 15.0903 10.572C15.0903 10.7733 15.0144 10.8871 14.817 11.1225L14.0083 12.0753V12.3677H15.6788V12.0374Z" fill="#D32F2F"/>
</svg>
