<svg width="22"  height="21" viewBox="0 0 22 21" fill="none" xmlns="http://www.w3.org/2000/svg">
<path d="M18.5112 0.740662C16.942 0.740662 15.6654 2.03695 15.6654 3.63039C15.6654 3.84231 15.6886 4.04885 15.7315 4.24796L12.0793 6.10251C11.557 5.48925 10.7861 5.09996 9.92687 5.09996C8.35767 5.09996 7.08106 6.39625 7.08106 7.98968C7.08106 9.58312 8.35767 10.8794 9.92687 10.8794C10.1498 10.8794 10.3667 10.8524 10.575 10.8029L12.323 13.4658C11.7405 13.9954 11.3732 14.764 11.3732 15.6184C11.3732 15.7824 11.3875 15.9432 11.4134 16.0998L6.21748 16.9793C5.86889 15.7835 4.77787 14.9083 3.4887 14.9083C1.91951 14.9083 0.642822 16.2045 0.642822 17.7979C0.642822 19.3915 1.91951 20.6878 3.4887 20.6878C4.85089 20.6878 5.99206 19.7106 6.26958 18.4104L12.0107 17.4386C12.5329 18.0906 13.3287 18.508 14.2189 18.508C15.7882 18.508 17.065 17.2117 17.065 15.6184C17.065 14.025 15.7882 12.7287 14.2189 12.7287C13.9959 12.7287 13.7792 12.7558 13.5709 12.8052L11.823 10.1422C12.4054 9.6127 12.7727 8.84409 12.7727 7.98968C12.7727 7.77776 12.7495 7.57129 12.7066 7.37226L16.3589 5.51764C16.8811 6.13096 17.652 6.52026 18.5112 6.52026C20.0804 6.52026 21.3571 5.22389 21.3571 3.63039C21.3571 2.03695 20.0804 0.740662 18.5112 0.740662ZM3.4887 19.2674C2.69117 19.2674 2.0424 18.6083 2.0424 17.7979C2.0424 16.9877 2.69124 16.3285 3.4887 16.3285C4.28617 16.3285 4.93493 16.9877 4.93493 17.7979C4.93493 18.6082 4.28617 19.2674 3.4887 19.2674ZM15.6655 15.6184C15.6655 16.4286 15.0166 17.0877 14.219 17.0877C13.4214 17.0877 12.7727 16.4287 12.7727 15.6184C12.7727 14.8082 13.4215 14.149 14.219 14.149C15.0166 14.149 15.6655 14.8082 15.6655 15.6184ZM8.48063 7.98968C8.48063 7.17945 9.1294 6.52026 9.92687 6.52026C10.7243 6.52026 11.3731 7.17945 11.3731 7.98968C11.3731 8.79992 10.7243 9.45911 9.92687 9.45911C9.1294 9.45911 8.48063 8.79992 8.48063 7.98968ZM18.5112 5.09996C17.7137 5.09996 17.065 4.4407 17.065 3.63039C17.065 2.82015 17.7138 2.16096 18.5112 2.16096C19.3088 2.16096 19.9575 2.82008 19.9575 3.63039C19.9576 4.44063 19.3088 5.09996 18.5112 5.09996Z" fill="#F5F7FA"/>
</svg>
<svg width="22" height="22" viewBox="0 0 22 22" fill="none" xmlns="http://www.w3.org/2000/svg">
<path d="M18.4222 15.2966C17.885 15.2966 17.3831 15.4438 16.9496 15.6966L6.11261 4.85961C6.36542 4.42611 6.51268 3.92425 6.51268 3.38708C6.51268 1.76879 5.19604 0.452148 3.57775 0.452148C1.95946 0.452148 0.642822 1.76879 0.642822 3.38708C0.642822 5.00536 1.95946 6.322 3.57775 6.322C4.11455 6.322 4.61679 6.17475 5.05029 5.92194L15.8873 16.759C15.6345 17.1925 15.4873 17.6947 15.4873 18.2315C15.4873 19.8498 16.8039 21.1664 18.4222 21.1664C20.0405 21.1664 21.3571 19.8498 21.3571 18.2315C21.3567 16.6132 20.0401 15.2966 18.4222 15.2966ZM3.57775 4.81979C2.78776 4.81979 2.14541 4.17744 2.14541 3.38745C2.14541 2.59747 2.78776 1.95511 3.57775 1.95511C4.36773 1.95511 5.01009 2.59747 5.01009 3.38745C5.01009 4.17744 4.36736 4.81979 3.57775 4.81979ZM18.4222 19.6638C17.6322 19.6638 16.9898 19.0215 16.9898 18.2315C16.9898 17.4415 17.6326 16.7992 18.4222 16.7992C19.2118 16.7992 19.8545 17.4419 19.8545 18.2315C19.8545 19.0211 19.2118 19.6638 18.4222 19.6638Z" fill="#F5F7FA"/>
</svg>
<svg width="22" height="22" viewBox="0 0 22 22" fill="none" xmlns="http://www.w3.org/2000/svg">
<path d="M20.386 16.0842H18.1204V6.05076C18.1204 5.44987 17.8817 4.8736 17.4568 4.44872C17.0319 4.02383 16.4556 3.78513 15.8548 3.78513H5.82127V1.51951C5.82127 1.26198 5.71897 1.01501 5.53688 0.832917C5.35478 0.650823 5.10781 0.548523 4.85029 0.548523C4.59277 0.548523 4.3458 0.650823 4.1637 0.832917C3.98161 1.01501 3.87931 1.26198 3.87931 1.51951V3.78513H1.61368C1.35616 3.78513 1.10919 3.88743 0.927094 4.06952C0.745 4.25162 0.6427 4.49859 0.6427 4.75611C0.6427 5.01363 0.745 5.26061 0.927094 5.4427C1.10919 5.62479 1.35616 5.72709 1.61368 5.72709H3.87931V15.7606C3.87931 16.3615 4.11801 16.9377 4.54289 17.3626C4.96778 17.7875 5.54405 18.0262 6.14493 18.0262H16.1784V20.2918C16.1784 20.5493 16.2807 20.7963 16.4628 20.9784C16.6449 21.1605 16.8919 21.2628 17.1494 21.2628C17.4069 21.2628 17.6539 21.1605 17.836 20.9784C18.0181 20.7963 18.1204 20.5493 18.1204 20.2918V18.0262H20.386C20.6435 18.0262 20.8905 17.9239 21.0726 17.7418C21.2547 17.5597 21.357 17.3127 21.357 17.0552C21.357 16.7977 21.2547 16.5507 21.0726 16.3686C20.8905 16.1865 20.6435 16.0842 20.386 16.0842ZM6.14493 16.0842C6.05909 16.0842 5.97677 16.0501 5.91607 15.9894C5.85537 15.9287 5.82127 15.8464 5.82127 15.7606V5.72709H15.8548C15.9406 5.72709 16.0229 5.76119 16.0836 5.82189C16.1443 5.88259 16.1784 5.96491 16.1784 6.05076V16.0842H6.14493Z" fill="#F5F7FA"/>
</svg>
<svg width="22" height="24" viewBox="0 0 22 24" fill="none" xmlns="http://www.w3.org/2000/svg">
<path d="M11.3039 23.2852C10.483 23.2852 9.66209 22.9761 9.04374 22.347L4.52341 17.8267C3.27605 16.5794 3.27605 14.5537 4.52341 13.3064L9.04374 8.78604C10.2911 7.53869 12.3167 7.53869 13.5641 8.78604L18.0844 13.3064C19.3318 14.5537 19.3318 16.5794 18.0844 17.8267L13.5641 22.347C12.9457 22.9654 12.1248 23.2852 11.3039 23.2852ZM10.547 20.8438C10.9628 21.2596 11.6451 21.2596 12.0502 20.8438L16.5705 16.3235C16.9863 15.9077 16.9863 15.236 16.5705 14.8096L12.0502 10.2893C11.6344 9.87348 10.9628 9.87348 10.547 10.2893L6.02663 14.8096C5.61085 15.2254 5.61085 15.897 6.02663 16.3235L10.547 20.8438Z" fill="#F5F7FA"/>
<path d="M20.6432 9.17914C20.5259 9.22178 20.4086 9.2431 20.2914 9.2431C19.8542 9.2431 19.4385 8.96591 19.2892 8.52881C18.0951 5.12789 14.8648 2.84641 11.2507 2.84641C8.62804 2.84641 6.19729 4.04046 4.60878 6.04475H4.90729C5.49365 6.04475 5.9734 6.52451 5.9734 7.11087C5.9734 7.69724 5.49365 8.17699 4.90729 8.17699H1.70894C1.12257 8.17699 0.642822 7.69724 0.642822 7.11087V3.91252C0.642822 3.32616 1.12257 2.84641 1.70894 2.84641C2.2953 2.84641 2.77506 3.32616 2.77506 3.91252V4.92533C4.75803 2.29202 7.87109 0.714172 11.2507 0.714172C15.771 0.714172 19.8009 3.57136 21.2935 7.82517C21.4961 8.37955 21.1975 8.98724 20.6432 9.17914Z" fill="#F5F7FA"/>
</svg>
<svg width="22" height="22" viewBox="0 0 22 22" fill="none" xmlns="http://www.w3.org/2000/svg">
<path d="M12.4287 8.73616H10.3446V6.6521C10.3446 6.17442 9.95994 5.78973 9.48226 5.78973C9.00457 5.78973 8.61989 6.17442 8.61989 6.6521V8.73616H6.53583C6.05815 8.73616 5.67346 9.12084 5.67346 9.59853C5.67346 10.0762 6.05815 10.4609 6.53583 10.4609H8.61989V12.545C8.61989 13.0226 9.00457 13.4073 9.48226 13.4073C9.95994 13.4073 10.3446 13.0226 10.3446 12.545V10.4609H12.4287C12.9064 10.4609 13.2911 10.0762 13.2911 9.59853C13.2911 9.12084 12.9021 8.73616 12.4287 8.73616Z" fill="#F5F7FA"/>
<path d="M9.48633 16.7048C5.55917 16.7048 2.37601 13.5259 2.37601 9.59869C2.37601 5.67153 5.55917 2.49261 9.48633 2.49261C13.4135 2.49261 16.5924 5.67576 16.5924 9.59869C16.5924 13.5216 13.4093 16.7048 9.48633 16.7048ZM21.1029 20.0021L16.3134 15.2125C17.5689 13.6865 18.3256 11.7293 18.3256 9.59869C18.3256 4.71617 14.3689 0.755188 9.4821 0.755188C4.59535 0.755188 0.642822 4.71617 0.642822 9.59869C0.642822 14.4812 4.59957 18.4422 9.48633 18.4422C11.6169 18.4422 13.5699 17.6897 15.0959 16.4342L19.8855 21.2238C20.1053 21.4478 20.7774 21.5577 21.1072 21.2238C21.4411 20.8856 21.4411 20.3403 21.1029 20.0021Z" fill="#F5F7FA"/>
</svg>
<svg width="22" height="22" viewBox="0 0 22 22" fill="none" xmlns="http://www.w3.org/2000/svg">
<path d="M20.4943 21.548C20.2733 21.548 20.0523 21.4639 19.884 21.2951L14.1558 15.5669C13.8187 15.2298 13.8187 14.6834 14.1558 14.3463C14.4924 14.0092 15.0397 14.0092 15.3763 14.3463L21.1046 20.0745C21.4416 20.4116 21.4416 20.958 21.1046 21.2951C20.9362 21.4639 20.7152 21.548 20.4943 21.548Z" fill="#F5F7FA"/>
<path d="M9.21953 18.0896C8.4461 18.0896 7.67785 17.9839 6.93636 17.7758C2.68119 16.5829 -0.0210648 12.238 0.783873 7.88483C1.52752 3.86446 5.18794 0.832886 9.29808 0.832886C9.55532 0.832886 9.81514 0.84497 10.0715 0.868277C14.4635 1.27226 17.9042 5.04791 17.9042 9.46406C17.9042 10.5198 17.7156 11.5509 17.344 12.5293C16.0803 15.8552 12.8152 18.0896 9.21953 18.0896ZM9.29808 2.55929C6.00712 2.55929 3.07654 4.9836 2.48179 8.1986C1.83741 11.6821 3.99888 15.1586 7.40249 16.1133C7.99249 16.2786 8.60363 16.3628 9.2191 16.3628C12.1026 16.3628 14.719 14.5755 15.7294 11.9151C16.0263 11.1335 16.1774 10.3087 16.1774 9.46319C16.1774 5.9301 13.4259 2.90975 9.91311 2.58692C9.7094 2.56879 9.50223 2.55929 9.29808 2.55929Z" fill="#F5F7FA"/>
<path d="M12.7233 10.3275H5.81767C5.34118 10.3275 4.95447 9.94077 4.95447 9.46428C4.95447 8.98779 5.34118 8.60107 5.81767 8.60107H12.7233C13.1998 8.60107 13.5865 8.98779 13.5865 9.46428C13.5865 9.94077 13.2002 10.3275 12.7233 10.3275Z" fill="#F5F7FA"/>
</svg>
