<svg width="65" height="64" viewBox="0 0 65 64" fill="none" xmlns="http://www.w3.org/2000/svg">
<g id="Frame">
<g id="Group">
<path id="Vector" d="M51.8424 34.7471C51.7997 34.8474 51.7326 34.9354 51.6474 35.0034C51.5621 35.0713 51.4613 35.1169 51.354 35.1361L49.1662 35.5572C48.9136 35.5841 49.5535 35.3989 48.8074 35.5184C48.639 35.4595 48.3072 35.3399 48.7973 35.5151L48.7923 35.5134L48.7384 35.4864L48.9877 35.0334C48.9877 35.0334 48.3106 34.1441 48.3982 34.1206C48.4605 34.1037 48.7906 33.9926 48.9641 33.9353L47.1266 27.6448L45.5384 13.4469L49.786 12.0271C49.7792 11.9344 49.7422 11.8654 49.7523 11.7222C49.7624 11.5707 50.106 11.1294 50.106 11.1294L50.9599 11.9833C51.0267 12.0427 51.0806 12.1153 51.1183 12.1964C51.1559 12.2775 51.1765 12.3655 51.1788 12.4549C51.9165 35.8435 51.9535 34.4928 51.8424 34.7471Z" fill="#1D2943"/>
<path id="Vector_2" d="M51.8424 34.747C51.7997 34.8473 51.7327 34.9354 51.6474 35.0033C51.5621 35.0712 51.4613 35.1169 51.354 35.1361L49.1662 35.5572C48.9136 35.5841 49.5536 35.3988 48.8075 35.5184C48.639 35.4595 48.3073 35.3399 48.7974 35.515L48.7923 35.5134L48.7384 35.4864L48.9877 35.0334C48.9877 35.0334 48.3106 34.1441 48.3982 34.1205C48.4605 34.1037 48.7906 33.9925 48.9641 33.9353L48.9153 33.7702C49.5889 33.7517 50.6466 33.7163 50.6466 33.7163L51.8424 34.747Z" fill="#111D33"/>
<path id="Vector_3" d="M44.6626 12.571L49.4373 10.976C49.5346 10.9434 49.6382 10.934 49.7398 10.9485C49.8414 10.9631 49.9381 11.0011 50.0224 11.0597C50.1067 11.1183 50.1761 11.1957 50.2251 11.2859C50.2741 11.376 50.3014 11.4764 50.3047 11.579L51.0205 33.5916C51.0258 33.7498 50.9739 33.9047 50.8743 34.0278C50.7747 34.1509 50.6341 34.234 50.4782 34.2619L48.954 34.5145C48.6222 34.5735 48.4689 34.363 48.3746 34.0413L46.2525 26.7688" fill="#1D2943"/>
<path id="Vector_4" d="M48.1978 31.8386L46.4833 31.5961V13.7939H46.7932C47.2984 13.7939 47.706 14.2032 47.706 14.7051L48.1978 31.8386Z" fill="#1D2943"/>
<path id="Vector_5" d="M38.2053 22.171C37.5906 20.3941 36.7451 18.912 35.6251 17.7819C35.6251 17.7819 35.7093 14.3007 35.6251 14.2215C35.5409 14.1423 38.463 11.9849 38.6197 11.9849C38.778 11.9849 40.9607 14.7992 40.9607 14.7992C40.9607 14.7992 43.1704 15.2741 43.7228 17.1941C44.2752 19.1141 44.9068 21.403 45.3801 24.3234C45.8533 27.2438 46.1717 28.3486 45.9595 28.7158C45.7489 29.0847 41.6192 30.1625 41.0668 29.8729C40.5144 29.5832 37.6731 28.4009 37.594 26.3225C37.5148 24.2442 38.2053 22.171 38.2053 22.171Z" fill="#7F8EB2"/>
<path id="Vector_6" d="M35.706 17.8647C37.2673 14.8382 39.1755 15.0235 41.3346 17.5094C41.3346 17.5094 43.3961 15.9801 43.1232 15.4378C42.8521 14.8921 40.3157 13.6913 39.8694 13.4167C39.423 13.1422 38.879 12.8677 38.138 12.7936C37.3969 12.7161 36.1742 12.9586 36.1742 12.9586C36.1742 12.9586 35.0559 14.1831 34.8891 14.7271C34.7241 15.2694 34.527 16.5999 34.527 16.5999L35.4938 18.0955L35.706 17.8647Z" fill="#111D33" fill-opacity="0.188235"/>
<path id="Vector_7" d="M44.6626 12.5711L33.7826 5.05957C30.7157 8.21578 31.6959 12.6385 33.8163 17.3897C34.4799 17.073 34.8352 17.9792 35.3051 18.3177C35.4062 18.3901 35.546 18.3429 35.5847 18.2267C36.1573 16.5004 36.6845 15.1143 37.5182 14.0987C37.6302 13.96 37.7875 13.8653 37.9625 13.8311C38.1374 13.7969 38.3188 13.8255 38.4748 13.9118C40.6357 15.1244 43.6622 21.7029 45.1493 26.7438L47.706 31.0991L47.1047 14.5164C47.1012 14.4198 47.075 14.3254 47.0282 14.2408C46.9814 14.1562 46.9153 14.0839 46.8352 14.0297L44.6626 12.5711Z" fill="#B0B8CF"/>
<path id="Vector_8" d="M49.237 12.4767L48.9237 13.211C48.9161 13.2285 48.9046 13.244 48.8899 13.2563C48.8753 13.2686 48.8581 13.2773 48.8395 13.2817L48.2955 13.4114C48.2772 13.4157 48.2582 13.4157 48.2399 13.4114H48.2332L48.058 13.3575L48.1321 13.2935L47.8879 12.8102C47.8801 12.7946 47.8758 12.7774 47.8752 12.76C47.8746 12.7426 47.8778 12.7252 47.8845 12.7091L48.1978 11.9731C48.2054 11.9556 48.2169 11.9401 48.2316 11.9278C48.2462 11.9155 48.2634 11.9068 48.282 11.9024L48.6997 11.8013L48.7199 11.7222L48.8883 11.7727C48.9043 11.7775 48.9207 11.7855 48.9335 11.7963C48.9462 11.807 48.9566 11.8201 48.9641 11.835L49.2336 12.374C49.2504 12.406 49.2504 12.4447 49.237 12.4767Z" fill="#111D33"/>
<path id="Vector_9" d="M49.0685 12.4245L48.7552 13.1605C48.7478 13.1781 48.7362 13.1937 48.7216 13.206C48.707 13.2183 48.6896 13.2269 48.671 13.2313L48.127 13.3609C48.1002 13.3677 48.0718 13.365 48.0467 13.3533C48.0216 13.3417 48.0012 13.3218 47.9889 13.2969L47.7195 12.758C47.7117 12.7424 47.7073 12.7253 47.7067 12.7078C47.7062 12.6904 47.7093 12.673 47.7161 12.6569L48.0293 11.9209C48.0368 11.9034 48.0483 11.8878 48.063 11.8755C48.0776 11.8632 48.0949 11.8545 48.1136 11.8502L48.6576 11.7205C48.6842 11.7142 48.7121 11.7171 48.7369 11.7288C48.7617 11.7404 48.7818 11.76 48.794 11.7845L49.0635 12.3235C49.0803 12.3538 49.082 12.3908 49.0685 12.4245Z" fill="#F8F9FE"/>
<path id="Vector_10" d="M50.1532 31.5302L49.8382 32.2662C49.8306 32.2837 49.8191 32.2992 49.8045 32.3115C49.7898 32.3238 49.7726 32.3325 49.754 32.3369L49.21 32.4666C49.1917 32.4709 49.1727 32.4709 49.1544 32.4666H49.1477L48.9725 32.4127L49.0466 32.3487L48.8041 31.8653C48.7963 31.8497 48.792 31.8326 48.7914 31.8152C48.7908 31.7977 48.794 31.7804 48.8007 31.7643L49.1123 31.0283C49.1199 31.0108 49.1315 30.9953 49.1461 30.983C49.1607 30.9707 49.178 30.962 49.1965 30.9576L49.6142 30.8565L49.6344 30.7773L49.8028 30.8279C49.8188 30.8327 49.8352 30.8407 49.848 30.8514C49.8607 30.8621 49.8711 30.8753 49.8786 30.8902L50.1481 31.4291C50.165 31.4611 50.1666 31.4982 50.1532 31.5302Z" fill="#111D33"/>
<path id="Vector_11" d="M49.983 31.4797L49.6698 32.214C49.6625 32.2319 49.6511 32.2478 49.6364 32.2604C49.6218 32.273 49.6044 32.2819 49.5856 32.2864L49.0416 32.4161C49.0149 32.4224 48.987 32.4195 48.9622 32.4079C48.9374 32.3963 48.9173 32.3766 48.9051 32.3521L48.6357 31.8132C48.6276 31.7977 48.623 31.7806 48.6221 31.7632C48.6212 31.7458 48.6241 31.7283 48.6306 31.7121L48.9439 30.9761C48.9513 30.9585 48.9629 30.943 48.9775 30.9307C48.9921 30.9184 49.0095 30.9097 49.0281 30.9054L49.5721 30.7757C49.5987 30.7694 49.6267 30.7723 49.6514 30.7839C49.6762 30.7956 49.6963 30.8152 49.7085 30.8397L49.978 31.3787C49.9948 31.409 49.9965 31.446 49.983 31.4797Z" fill="#F8F9FE"/>
<path id="Vector_12" d="M28.9035 18.2082C28.4959 14.5333 27.8525 10.3851 28.2028 8.22424C28.2435 7.97595 28.3441 7.74131 28.4958 7.5406C28.6475 7.33989 28.8458 7.17913 29.0736 7.07224C30.7628 6.27729 32.4555 5.44866 33.7388 5.05624C33.7894 5.03939 33.8315 5.09666 33.8028 5.14045C32.6273 6.91224 33.0786 11.9699 33.8449 17.164L31.258 18.5569L28.9035 18.2082Z" fill="#C9CEE2"/>
<path id="Vector_13" d="M33.7994 5.14562C33.53 5.53299 33.3447 6.08878 33.2437 6.7793C31.93 7.26772 30.3468 8.04246 28.7468 8.78351C28.4942 8.90141 28.2921 9.06983 28.1237 9.28878C28.1237 8.90141 28.1573 8.54772 28.2079 8.22772C28.2921 7.72246 28.6121 7.28457 29.0668 7.06562C30.7679 6.27404 32.4521 5.44878 33.7321 5.06141C33.7826 5.04457 33.8331 5.09509 33.7994 5.14562Z" fill="#E3E7F0" fill-opacity="0.439216"/>
<path id="Vector_14" d="M50.7224 46.2387C50.7224 30.2825 45.3515 20.5612 32.1422 20.7633H31.4399C18.2306 20.5612 13.7422 30.5823 12.6104 46.0568C21.2622 42.0265 48.7249 42.6396 50.7224 46.2387Z" fill="#E3E7F0"/>
<path id="Vector_15" d="M50.7224 46.2387C50.1599 45.2282 47.5847 44.4518 43.9805 43.9482C43.5224 30.4004 38.8942 22.4189 28.4656 20.9452C30.1734 20.6993 31.4332 20.7768 32.1422 20.7633C45.3515 20.5612 50.7224 30.2825 50.7224 46.2387Z" fill="#111D33" fill-opacity="0.0745098"/>
<path id="Vector_16" opacity="0.4" d="M35.1788 20.9468C24.7367 22.4576 20.7266 30.8315 19.4854 44.2176C16.698 44.6622 14.298 45.2719 12.6104 46.0567C13.7422 30.5839 18.2306 20.5611 31.4399 20.7633C32.1473 20.775 33.4357 20.6993 35.1788 20.9468Z" fill="white"/>
<path id="Vector_17" d="M31.6656 49.4486C42.1894 49.4486 50.7207 48.0121 50.7207 46.2402C50.7207 44.4682 42.1894 43.0317 31.6656 43.0317C21.1417 43.0317 12.6104 44.4682 12.6104 46.2402C12.6104 48.0121 21.1417 49.4486 31.6656 49.4486Z" fill="#9EA9C9"/>
<path id="Vector_18" d="M31.6656 49.046C41.6137 49.046 49.6782 47.7392 49.6782 46.1272C49.6782 44.5153 41.6137 43.2085 31.6656 43.2085C21.7175 43.2085 13.653 44.5153 13.653 46.1272C13.653 47.7392 21.7175 49.046 31.6656 49.046Z" fill="#31445B"/>
<path id="Vector_19" d="M47.706 44.797V46.333H15.6268V44.797C22.2997 42.6883 40.991 42.6749 47.706 44.797Z" fill="#E3E7F0"/>
<path id="Vector_20" d="M31.6655 49.0462C40.5244 49.0462 47.706 47.8314 47.706 46.3329C47.706 44.8344 40.5244 43.6196 31.6655 43.6196C22.8067 43.6196 15.6251 44.8344 15.6251 46.3329C15.6251 47.8314 22.8067 49.0462 31.6655 49.0462Z" fill="#B0B8CF"/>
<path id="Vector_21" d="M21.3195 48.1401C15.5881 47.2037 15.546 45.6357 21.3195 44.6925C30.3536 43.2155 46.3249 44.2209 46.3249 46.4155C46.3249 48.5948 30.4445 49.6323 21.3195 48.1401ZM21.3312 44.7599C15.7296 45.6761 15.5965 47.1346 21.3312 48.071C30.5169 49.5733 46.2559 48.482 46.2559 46.4155C46.2559 45.8058 44.7064 45.2028 42.0016 44.7599C36.2904 43.8268 27.0441 43.8268 21.3312 44.7599Z" fill="#7F8EB2"/>
<path id="Vector_22" d="M31.6656 48.8708C38.4772 48.8708 43.999 47.9003 43.999 46.7032C43.999 45.5061 38.4772 44.5356 31.6656 44.5356C24.854 44.5356 19.3321 45.5061 19.3321 46.7032C19.3321 47.9003 24.854 48.8708 31.6656 48.8708Z" fill="#9EA9C9"/>
<path id="Vector_23" d="M44.0058 46.7117C44.0058 46.7286 44.0058 46.7286 43.989 46.7454C43.8576 48.9854 25.8803 49.7315 20.4437 47.6044C19.0054 47.0553 18.9195 46.4187 20.4437 45.8023C24.8883 44.1012 38.8555 44.1181 43.029 45.8696C43.6521 46.1223 44.0058 46.4086 44.0058 46.7117Z" fill="#111D33"/>
<path id="Vector_24" d="M35.7649 58.2488C33.1566 59.1809 30.3059 59.1809 27.6976 58.2488C23.258 56.6286 20.0546 51.5557 20.4437 45.8025C24.9068 44.0863 38.8521 44.1284 43.0222 45.8564C43.386 51.5928 40.1927 56.6353 35.7649 58.2488Z" fill="#1D2943"/>
<path id="Vector_25" d="M35.7649 58.2489C33.1566 59.181 30.3059 59.181 27.6976 58.2489C23.258 56.6287 20.0546 51.5541 20.4437 45.8026C24.8681 44.1015 38.8235 44.1167 43.0222 45.8565C43.386 51.5912 40.1927 56.6354 35.7649 58.2489Z" fill="#4C5C75"/>
<path id="Vector_26" d="M31.8289 57.3945C31.1997 57.871 30.4321 58.1289 29.6428 58.1288C29.1173 58.1249 28.5981 58.0145 28.1164 57.8043C27.6347 57.5942 27.2006 57.2886 26.8403 56.9061C24.6609 54.6088 23.8761 51.3229 24.506 47.136C24.5766 46.6543 24.7507 46.1936 25.0165 45.7857C25.2822 45.3777 25.6332 45.0323 26.0453 44.7731C27.0731 44.6817 28.103 44.6176 29.1342 44.5811C29.715 44.8608 30.2019 45.3036 30.5353 45.8554C30.8688 46.4072 31.0344 47.0441 31.0121 47.6884C30.9329 50.1474 31.4213 52.5844 32.4639 54.9339C32.8512 55.8097 32.5902 56.8219 31.8289 57.3945Z" fill="#7F8EB2"/>
<path id="Vector_27" d="M31.6201 57.1186C30.2222 58.1763 28.2904 57.9287 27.0929 56.6672C24.9034 54.3598 24.2533 51.143 24.8479 47.1885C24.9361 46.5824 25.2072 46.0178 25.6249 45.5699C26.0426 45.1221 26.5871 44.8125 27.1856 44.6824C27.4601 44.6638 27.738 44.647 28.0209 44.6318C29.5249 44.7632 30.7157 46.092 30.6651 47.6769C30.5809 50.2622 31.103 52.7211 32.1472 55.0756C32.4656 55.7948 32.2483 56.6436 31.6201 57.1186Z" fill="#31445B"/>
<path id="Vector_28" d="M28.5447 55.0792C26.9195 55.123 25.3296 53.5533 25.0029 51.5794C24.6761 49.6055 25.7338 47.9651 27.3607 47.9213C28.986 47.8775 30.5776 49.4472 30.9026 51.4211C31.2294 53.3933 30.1717 55.0354 28.5447 55.0792Z" fill="#111D33"/>
<path id="Vector_29" d="M29.1062 54.2107C30.2828 53.7212 30.7276 52.1012 30.0998 50.5923C29.4721 49.0833 28.0093 48.257 26.8328 48.7465C25.6562 49.236 25.2114 50.856 25.8392 52.3649C26.467 53.8738 27.9297 54.7002 29.1062 54.2107Z" fill="#1D2943"/>
<path id="Vector_30" d="M28.8688 53.6401C29.7997 53.2528 30.1517 51.9711 29.6551 50.7774C29.1584 49.5836 28.0011 48.9299 27.0702 49.3172C26.1393 49.7046 25.7872 50.9863 26.2839 52.18C26.7805 53.3737 27.9378 54.0275 28.8688 53.6401Z" fill="#7F8EB2"/>
<path id="Vector_31" d="M28.7536 53.3635C29.5652 53.0258 29.872 51.9083 29.4389 50.8675C29.0059 49.8266 27.9969 49.2565 27.1853 49.5942C26.3738 49.9318 26.0669 51.0494 26.5 52.0902C26.9331 53.1311 27.942 53.7011 28.7536 53.3635Z" fill="#31445B"/>
<path id="Vector_32" d="M28.5466 52.8658C29.1443 52.6171 29.3705 51.7945 29.0518 51.0285C28.733 50.2624 27.9901 49.843 27.3924 50.0917C26.7947 50.3404 26.5685 51.163 26.8872 51.929C27.2059 52.6951 27.9489 53.1145 28.5466 52.8658Z" fill="#1D2943"/>
<path id="Vector_33" d="M28.3674 52.4351C28.7796 52.2636 28.9356 51.6964 28.7159 51.1682C28.4961 50.6401 27.9838 50.351 27.5716 50.5225C27.1594 50.694 27.0033 51.2612 27.2231 51.7893C27.4428 52.3175 27.9551 52.6066 28.3674 52.4351Z" fill="#1D2943"/>
<path id="Vector_34" d="M28.1642 51.9467C28.366 51.8627 28.4424 51.5851 28.3349 51.3266C28.2273 51.0681 27.9765 50.9266 27.7747 51.0106C27.5729 51.0945 27.4965 51.3722 27.604 51.6306C27.7116 51.8891 27.9624 52.0306 28.1642 51.9467Z" fill="#111D33"/>
<path id="Vector_35" d="M28.127 51.495C28.1742 51.7763 27.8239 51.7881 27.7784 51.5034C27.7312 51.2222 28.0816 51.2121 28.127 51.495ZM28.2534 51.17C28.2769 51.3131 28.0984 51.3182 28.0748 51.175C28.0512 51.0319 28.2281 51.0251 28.2534 51.17Z" fill="white"/>
<path id="Vector_36" d="M34.197 18.252V18.796H33.8904V18.5383C33.1123 18.9526 31.3102 18.9594 30.5102 18.5468V18.796H30.2037L30.1919 18.2924C30.1919 18.2503 30.1852 18.215 30.1852 18.1813C30.1852 17.8108 31.0845 17.5093 32.1911 17.5093C33.2454 17.5093 34.1111 17.7804 34.1902 18.1274C34.2003 18.1813 34.197 18.1745 34.197 18.1813C34.197 18.1964 34.202 18.2369 34.197 18.252Z" fill="#E80505"/>
<path id="Vector_37" d="M35.6234 18.2084C35.6234 18.882 34.1194 19.4294 32.2634 19.4294C30.4074 19.4294 28.9034 18.882 28.9034 18.2084C28.9034 17.5347 30.4074 16.9873 32.2634 16.9873C34.1194 16.9873 35.6234 17.5347 35.6234 18.2084Z" fill="#1D2943"/>
<path id="Vector_38" d="M35.3052 18.2082C35.3052 18.7304 33.9426 19.1548 32.2635 19.1548C30.5843 19.1548 29.2218 18.7304 29.2218 18.2082C29.2218 17.6861 30.5843 17.2617 32.2635 17.2617C33.9426 17.2617 35.3052 17.6845 35.3052 18.2082Z" fill="#111D33"/>
<path id="Vector_39" d="M33.8213 19.0217C33.3666 19.1059 32.8327 19.1548 32.2634 19.1548C31.4449 19.1548 29.9123 19.0234 29.37 18.4996C29.0517 18.1965 29.2841 17.9051 29.6815 17.7064C30.3738 17.3628 31.4921 17.2617 32.2634 17.2617C32.5666 17.2617 32.8563 17.2752 33.1308 17.3005C35.6706 17.5362 36.09 18.6007 33.8213 19.0217Z" fill="#111D33"/>
<path id="Vector_40" d="M44.7519 25.427C43.5244 25.0082 42.2811 24.6374 41.0247 24.3154C35.2378 22.8384 29.4828 22.5537 23.6352 23.7596C22.3468 24.0291 21.0533 24.3659 19.7548 24.7802C27.391 21.6847 36.9472 22.2034 44.7519 25.427Z" fill="#1D2943"/>
<path id="Vector_41" d="M35.6319 21.068C33.2915 20.6855 30.906 20.6668 28.5599 21.0125C28.4908 21.0226 28.3948 21.0529 28.378 21.0293C28.3746 21.0209 28.3763 21.0108 28.3864 20.9939L29.6832 17.7064C30.3738 17.3628 31.4921 17.2617 32.2635 17.2617C32.5666 17.2617 32.8563 17.2752 33.1308 17.3005C33.8214 17.3645 34.4108 17.5026 34.8016 17.6861C34.8689 17.8596 36.2247 21.3072 36.1388 21.0933C36.2028 21.1944 35.9957 21.127 35.6336 21.068H35.6319Z" fill="#C9CEE2"/>
<path id="Vector_42" d="M31.5174 17.2905L30.0976 20.8408C29.5822 20.8829 29.0702 20.9385 28.5599 21.0126C28.4908 21.0227 28.3948 21.0531 28.378 21.0295C28.3729 21.0227 28.3746 21.0109 28.3864 20.9941L29.6833 17.7065C30.0925 17.5027 30.746 17.3512 31.5174 17.2905Z" fill="#E3E7F0"/>
<path id="Vector_43" d="M35.2749 21.0123C34.9683 20.9651 34.7864 20.9449 34.581 20.9196C34.5001 20.7175 33.0382 17.0678 33.1325 17.2986C33.8231 17.3643 34.4109 17.5007 34.7999 17.6859C34.869 17.8594 36.2248 21.307 36.1389 21.0931C36.2029 21.1942 36.0412 21.1268 35.2749 21.0123Z" fill="#B0B8CF"/>
<path id="Vector_44" opacity="0.3" d="M35.765 58.2489C33.1566 59.181 30.3059 59.181 27.6976 58.2489C25.6428 57.4994 23.8845 56.0324 22.6113 54.1293C23.8021 54.894 25.1381 55.4043 26.5355 55.6282C33.5671 56.8341 39.0744 51.9735 39.8222 45.0767C41.1948 45.2906 42.2963 45.555 43.0222 45.8564C43.386 51.5912 40.1927 56.6354 35.765 58.2489Z" fill="#111D33"/>
<path id="Vector_45" opacity="0.3" d="M35.7649 58.2487C33.1566 59.1808 30.3059 59.1808 27.6976 58.2487C26.138 57.6794 24.7502 56.6992 23.6151 55.4259C26.7511 58.2217 31.2984 58.6529 34.8656 57.351C39.4096 55.6937 42.2576 50.7102 42.1498 45.5615C42.4816 45.6542 42.7729 45.7535 43.0222 45.8563C43.386 51.591 40.1927 56.6352 35.7649 58.2487Z" fill="#111D33"/>
<path id="Vector_46" opacity="0.2" d="M41.6799 52.6957C40.7704 54.5399 39.4534 56.0961 37.8567 57.1757L20.4167 46.3933C20.4218 46.198 20.4302 46.0009 20.4437 45.8039C22.4883 45.0157 26.4024 44.6973 28.5902 44.603L41.6799 52.6957ZM37.1662 57.6018C36.5166 57.967 35.8272 58.2563 35.1115 58.4641L20.7047 49.5546C20.5457 48.796 20.4516 48.0252 20.4235 47.2506L37.1662 57.6018Z" fill="white"/>
<path id="Vector_47" d="M21.3515 35.6889C21.2706 36.4973 21.1241 37.2165 20.8664 37.3293C20.6138 37.4438 20.3056 36.8005 20.3763 35.8337C20.4454 34.8687 20.8816 34.1007 21.1409 34.1445C21.4071 34.1866 21.4256 34.8838 21.3515 35.6889ZM21.7068 31.0354C22.4597 29.7638 23.4887 29.1491 23.6622 29.4792C23.8475 29.8059 23.3338 30.7626 22.7578 31.7529C22.1683 32.7365 21.6294 33.5499 21.2757 33.4944C20.9304 33.4489 20.9523 32.307 21.7068 31.0354ZM41.6513 49.5179C41.3313 51.6805 40.1237 53.715 38.4243 55.0792C39.7953 53.3782 40.8765 51.5643 41.6513 49.5179Z" fill="white"/>
<path id="Vector_48" opacity="0.4" d="M44.0058 46.7117C44.0058 46.7286 44.0058 46.7286 43.9889 46.7454L43.0289 47.5538L20.4437 45.8023C24.8883 44.1012 38.8555 44.1181 43.0289 45.8696C43.6521 46.1223 44.0058 46.4086 44.0058 46.7117Z" fill="#111D33"/>
</g>
</g>
</svg>
