<svg width="18" height="19" viewBox="0 0 18 19" fill="none" xmlns="http://www.w3.org/2000/svg">
<g id="Clip path group">
<mask id="mask0_343_19703" style="mask-type:luminance" maskUnits="userSpaceOnUse" x="0" y="0" width="18" height="19">
<g id="clip0_253_20778">
<path id="Vector" d="M0 0.5H18V18.5H0V0.5Z" fill="white"/>
</g>
</mask>
<g mask="url(#mask0_343_19703)">
<g id="Group">
<path id="Vector_2" d="M16.1328 7.25459C15.5353 7.25459 15.2365 7.47545 14.9378 7.69631C14.7884 7.76993 14.5643 7.76992 14.4896 7.62268C14.4149 7.54906 14.4149 7.47545 14.4149 7.32821L14.7137 3.9417C14.7137 3.86808 14.7137 3.72084 14.639 3.64722C14.5643 3.5736 14.4896 3.5 14.3402 3.5H10.9792C10.6805 3.5 10.4564 3.64724 10.307 3.8681C10.1577 4.08896 10.1577 4.38344 10.307 4.6043C10.4564 4.82516 10.5311 4.9724 10.5311 5.34049C10.5311 5.92945 9.85891 6.44479 9.03733 6.44479C8.21576 6.44479 7.54356 5.92945 7.54356 5.34049C7.54356 5.04601 7.61824 4.82516 7.76762 4.6043C7.917 4.38344 7.917 4.08896 7.76762 3.8681C7.61824 3.64724 7.39418 3.5 7.09544 3.5H3.73444C3.65976 3.5 3.51038 3.5736 3.4357 3.64722C3.36101 3.72084 3.361 3.79446 3.361 3.9417L3.65975 7.32821C3.65975 7.47545 3.58508 7.54906 3.58508 7.62268C3.4357 7.76992 3.28632 7.84355 3.06225 7.69631C2.76349 7.47545 2.46473 7.32821 1.86722 7.32821C0.821579 7.32821 0 8.28526 0 9.5368C0 10.7883 0.821579 11.7454 1.86722 11.7454C2.46473 11.7454 2.76349 11.5245 3.06225 11.3037C3.21162 11.2301 3.4357 11.2301 3.51039 11.3773C3.58507 11.4509 3.58508 11.5245 3.58508 11.6718L3.2863 15.0583C3.2863 15.1319 3.28631 15.2791 3.361 15.3528C3.43569 15.4264 3.51037 15.5 3.65975 15.5H7.02075C7.31949 15.5 7.54356 15.3528 7.69293 15.1319C7.84231 14.911 7.84231 14.6166 7.69293 14.3957C7.54356 14.1748 7.46887 14.0276 7.46887 13.6595C7.46887 13.0705 8.14107 12.5552 8.96264 12.5552C9.78422 12.5552 10.4564 13.0705 10.4564 13.6595C10.4564 13.954 10.3817 14.1748 10.2324 14.3957C10.083 14.6166 10.083 14.911 10.2324 15.1319C10.3817 15.3528 10.6058 15.5 10.9046 15.5H14.2656C14.3402 15.5 14.4896 15.4264 14.5643 15.3528C14.639 15.2791 14.639 15.2055 14.639 15.0583L14.3402 11.6718C14.3402 11.5245 14.4149 11.4509 14.4149 11.3773C14.5643 11.2301 14.7137 11.1564 14.9378 11.3037C15.2365 11.5245 15.5353 11.6718 16.1328 11.6718C17.1784 11.6718 18 10.7147 18 9.46318C18 8.21164 17.1784 7.25459 16.1328 7.25459Z" fill="#2196F3"/>
</g>
</g>
</g>
</svg>
