<svg width="18" height="13" viewBox="0 0 18 13" fill="none" xmlns="http://www.w3.org/2000/svg">
<g id="Group 38255">
<g id="Group 38254">
<path id="Vector" d="M13.3334 3.49992C10.7602 3.49992 8.66675 5.59266 8.66675 8.16659C8.66675 10.7405 10.7602 12.8333 13.3334 12.8333C15.9066 12.8333 18.0001 10.7405 18.0001 8.16659C18.0001 5.59266 15.9066 3.49992 13.3334 3.49992Z" fill="#4CAF50"/>
<path id="Vector_2" d="M13.3337 5.57409C12.9521 5.57409 12.6423 5.88313 12.6423 6.26545V10.0679C12.6423 10.4502 12.9521 10.7593 13.3337 10.7593C13.7153 10.7593 14.025 10.4502 14.025 10.0679V6.26545C14.025 5.88313 13.7153 5.57409 13.3337 5.57409Z" fill="white"/>
<path id="Vector_3" d="M15.235 7.47519H11.4326C11.0509 7.47519 10.7412 7.78423 10.7412 8.16655C10.7412 8.54887 11.0509 8.85791 11.4326 8.85791H15.235C15.6167 8.85791 15.9264 8.54887 15.9264 8.16655C15.9264 7.78423 15.6167 7.47519 15.235 7.47519Z" fill="white"/>
<path id="Vector_4" d="M13.3334 12.8333C10.7602 12.8333 8.66675 10.7405 8.66675 8.16659C8.66675 5.59266 10.7602 3.49992 13.3334 3.49992V5.57399C12.9518 5.57399 12.6421 5.88303 12.6421 6.26535V7.47523H11.4322C11.0506 7.47523 10.7408 7.78426 10.7408 8.16659C10.7408 8.54891 11.0506 8.85794 11.4322 8.85794H12.6421V10.0678C12.6421 10.4501 12.9518 10.7592 13.3334 10.7592V12.8333Z" fill="#429846"/>
<path id="Vector_5" d="M13.3337 7.47533H12.6423V6.26545C12.6423 5.88313 12.9521 5.57409 13.3337 5.57409V7.47533ZM13.3337 10.7593C12.9521 10.7593 12.6423 10.4502 12.6423 10.0679V8.85804H13.3337V10.7593Z" fill="#DEDEDE"/>
<path id="Vector_6" d="M13.3338 8.85791H12.6424H11.4326C11.0509 8.85791 10.7412 8.54887 10.7412 8.16655C10.7412 7.78423 11.0509 7.47519 11.4326 7.47519H12.6424H13.3338V8.85791Z" fill="#DEDEDE"/>
</g>
<path id="Subtract" fill-rule="evenodd" clip-rule="evenodd" d="M12.8765 2.85268L13.0788 0.559367C13.0788 0.493927 13.0788 0.363054 13.0124 0.297614C12.9461 0.232175 12.8797 0.166748 12.7469 0.166748H9.75933C9.49377 0.166748 9.2946 0.297628 9.16182 0.493947C9.02904 0.690266 9.02904 0.952025 9.16182 1.14834C9.2946 1.34466 9.36099 1.47554 9.36099 1.80274C9.36099 2.32626 8.76348 2.78434 8.03319 2.78434C7.30289 2.78434 6.70538 2.32626 6.70538 1.80274C6.70538 1.54098 6.77177 1.34466 6.90455 1.14834C7.03733 0.952025 7.03733 0.690266 6.90455 0.493947C6.77177 0.297628 6.5726 0.166748 6.30706 0.166748H3.31951C3.25312 0.166748 3.12034 0.232175 3.05395 0.297614C2.98756 0.363054 2.98756 0.428487 2.98756 0.559367L3.25311 3.5696C3.25311 3.64627 3.23034 3.70048 3.21147 3.74539C3.19813 3.77715 3.18674 3.80425 3.18674 3.83136C3.05396 3.96224 2.92117 4.02768 2.722 3.8968C2.45643 3.70048 2.19087 3.5696 1.65975 3.5696C0.730292 3.5696 0 4.42031 0 5.53279C0 6.64527 0.730292 7.49598 1.65975 7.49598C2.19087 7.49598 2.45643 7.29967 2.72199 7.10335L2.722 7.10335C2.85478 7.03791 3.05395 7.03791 3.12034 7.16879C3.18673 7.23423 3.18674 7.29966 3.18674 7.43054L2.92116 10.4408C2.92116 10.5062 2.92117 10.6371 2.98756 10.7025L2.98757 10.7025C3.05396 10.768 3.12034 10.8334 3.25311 10.8334H6.24067C6.50621 10.8334 6.70538 10.7025 6.83816 10.5062C6.97094 10.3099 6.97094 10.0481 6.83816 9.85182C6.70538 9.6555 6.63899 9.52462 6.63899 9.19742C6.63899 8.6739 7.2365 8.21582 7.9668 8.21582C7.97799 8.21582 7.98915 8.21593 8.00028 8.21614C8.00013 8.19969 8.00006 8.18321 8.00006 8.16672C8.00006 5.3751 10.1449 3.08443 12.8765 2.85268Z" fill="#2196F3"/>
</g>
</svg>
