<svg width="29" height="20" viewBox="0 0 29 20" fill="none" xmlns="http://www.w3.org/2000/svg">
<path id="signal-stream" d="M19.633 16.4857C19.3479 16.4848 19.0693 16.4011 18.8322 16.245C18.5951 16.089 18.4099 15.8675 18.2999 15.6083C18.1898 15.3491 18.1598 15.0637 18.2136 14.7878C18.2673 14.5119 18.4025 14.2578 18.6021 14.0571C19.6896 12.9804 20.3001 11.5233 20.3001 10.0043C20.3001 8.48532 19.6896 7.02815 18.6021 5.95145C18.3391 5.68063 18.1946 5.31882 18.1999 4.94404C18.2052 4.56926 18.3598 4.21154 18.6303 3.94801C18.9008 3.68448 19.2656 3.53626 19.6461 3.5353C20.0265 3.53434 20.3921 3.68072 20.664 3.94289C22.2885 5.55425 23.2002 7.73318 23.2002 10.0043C23.2002 12.2754 22.2885 14.4543 20.664 16.0657C20.5288 16.1993 20.3681 16.3052 20.1912 16.3773C20.0142 16.4494 19.8245 16.4862 19.633 16.4857ZM10.3863 16.0728C10.6597 15.8064 10.8145 15.444 10.8167 15.0652C10.8188 14.6864 10.6682 14.3222 10.3979 14.0528C9.3104 12.9761 8.69988 11.519 8.69988 10C8.69988 8.48103 9.3104 7.02387 10.3979 5.94716C10.5354 5.81456 10.6448 5.65632 10.7196 5.48166C10.7944 5.307 10.8332 5.11942 10.8337 4.92984C10.8342 4.74027 10.7964 4.55249 10.7225 4.37746C10.6486 4.20242 10.54 4.04363 10.4032 3.91034C10.2664 3.77705 10.104 3.67193 9.9255 3.60109C9.74701 3.53026 9.556 3.49513 9.3636 3.49776C9.17119 3.50039 8.98124 3.54072 8.80482 3.61641C8.62839 3.6921 8.46903 3.80162 8.336 3.9386C6.71152 5.54996 5.79983 7.7289 5.79983 10C5.79983 12.2711 6.71152 14.45 8.336 16.0614C8.60638 16.3307 8.97426 16.4832 9.35876 16.4854C9.74325 16.4875 10.1129 16.3391 10.3863 16.0728ZM25.2765 19.53C27.6731 16.9174 29 13.5214 29 10C29 6.47859 27.6731 3.08255 25.2765 0.470045C25.0184 0.189106 24.6577 0.0206654 24.2736 0.00177786C23.8895 -0.0171096 23.5135 0.115103 23.2283 0.369331C22.9432 0.623559 22.7722 0.978976 22.753 1.3574C22.7339 1.73582 22.8681 2.10624 23.1261 2.38718C25.0402 4.47434 26.0999 7.18712 26.0999 10C26.0999 12.8129 25.0402 15.5257 23.1261 17.6128C22.8681 17.8938 22.7339 18.2642 22.753 18.6426C22.7722 19.021 22.9432 19.3764 23.2283 19.6307C23.5135 19.8849 23.8895 20.0171 24.2736 19.9982C24.6577 19.9793 25.0184 19.8109 25.2765 19.53ZM5.77093 19.63C6.05598 19.3759 6.22695 19.0206 6.24626 18.6424C6.26556 18.2641 6.13162 17.8938 5.87388 17.6128C3.95982 15.5257 2.90015 12.8129 2.90015 10C2.90015 7.18712 3.95982 4.47434 5.87388 2.38718C6.00165 2.24807 6.10036 2.08553 6.16437 1.90884C6.22838 1.73215 6.25644 1.54477 6.24695 1.3574C6.23746 1.17002 6.1906 0.986324 6.10905 0.816792C6.0275 0.647259 5.91285 0.495212 5.77165 0.369331C5.63046 0.24345 5.46548 0.146201 5.28614 0.0831361C5.10679 0.0200713 4.9166 -0.00757428 4.72641 0.00177786C4.34231 0.0206654 3.98156 0.189106 3.72351 0.470045C1.32689 3.08255 0 6.47859 0 10C0 13.5214 1.32689 16.9174 3.72351 19.53C3.98163 19.8106 4.34228 19.9788 4.72621 19.9975C5.11013 20.0163 5.48591 19.8841 5.77093 19.63ZM14.5 7.85715C14.0698 7.85715 13.6493 7.98283 13.2916 8.21829C12.9339 8.45375 12.6552 8.78841 12.4905 9.17997C12.3259 9.57152 12.2829 10.0024 12.3668 10.418C12.4507 10.8337 12.6578 11.2155 12.962 11.5152C13.2662 11.8149 13.6538 12.019 14.0757 12.1017C14.4976 12.1844 14.9349 12.1419 15.3323 11.9797C15.7298 11.8175 16.0695 11.5429 16.3085 11.1905C16.5475 10.8381 16.675 10.4238 16.675 10C16.675 9.43168 16.4459 8.88664 16.038 8.48478C15.6301 8.08292 15.0769 7.85715 14.5 7.85715Z" fill="white"/>
</svg>
