<svg width="48" height="37" viewBox="0 0 48 37" fill="#888888" xmlns="http://www.w3.org/2000/svg">
<g id="033-suv">
<g id="Layer_x0020_1">
<path id="Vector" fill-rule="evenodd" clip-rule="evenodd" d="M45.6152 28.7038H43.3006C43.3204 28.4991 43.3307 28.2917 43.3307 28.0818C43.3307 24.61 40.5651 21.7868 37.1641 21.7868C33.7632 21.7868 30.9975 24.61 30.9975 28.0818C30.9975 28.2917 31.0078 28.4991 31.0276 28.7038H15.1972C15.2169 28.4991 15.2273 28.2917 15.2273 28.0818C15.2272 24.61 12.4616 21.7868 9.06072 21.7868C5.6598 21.7868 2.89412 24.61 2.89412 28.0818C2.89412 28.2917 2.90442 28.4992 2.92424 28.7038H2.72138C2.52871 28.7038 2.34745 28.6109 2.2324 28.4532L0.120473 25.5563C0.0422982 25.449 0 25.3187 0 25.1849V22.1662H4.88913C5.22563 22.1662 5.49847 21.8878 5.49847 21.5441C5.49847 21.2005 5.22563 20.9221 4.88913 20.9221H0V19.5292H4.88913C5.22563 19.5292 5.49847 19.2506 5.49847 18.907C5.49847 18.5635 5.22563 18.285 4.88913 18.285H0V14.0021C0 13.8916 0.0287894 13.7831 0.0834894 13.6878L3.25088 8.16375C3.36017 7.97318 3.56037 7.85596 3.77685 7.85596H6.93074V15.5553C6.93074 15.8989 7.20358 16.1774 7.54008 16.1774H23.9613H24.5705H36.3678L41.2282 16.1942C41.3476 17.1366 41.4864 18.0697 41.566 18.2983C42.0111 19.5751 43.0204 20.5813 44.2859 21.0027C44.485 21.0689 45.3365 21.2476 46.2246 21.4167V28.0816C46.2245 28.4254 45.9518 28.7038 45.6152 28.7038ZM42.4924 16.1987L45.6173 16.2095C45.953 16.2107 46.2246 16.4887 46.2246 16.8316V20.1378C45.4169 19.9711 44.5988 19.7986 44.5193 19.7676C43.7175 19.4546 43.0754 18.8084 42.7567 17.996C42.7203 17.903 42.6018 17.0314 42.4924 16.1987ZM8.14968 7.85598H14.8519V14.9333H8.14968V7.85598ZM16.0707 14.9333V7.85598H23.9613V14.9333H16.0707Z"/>
<path id="Vector_2" fill-rule="evenodd" clip-rule="evenodd" d="M25.1797 14.9333V7.85596H29.2494C29.4307 7.85596 29.6025 7.93825 29.7182 8.08067L35.1423 14.7506V14.9333L25.1797 14.9333Z"/>
<path id="Vector_3" fill-rule="evenodd" clip-rule="evenodd" d="M16.6647 6.61193V3.86731H22.6167C24.0301 3.86731 25.1798 5.04096 25.1798 6.48363V6.61193H23.9613H16.6647ZM6.93067 6.61193V6.48363C6.93067 5.04096 8.08048 3.86731 9.49382 3.86731H15.4459V6.61193H6.93067Z"/>
<g id="_471214944">
<path id="_471214968" fill-rule="evenodd" clip-rule="evenodd" d="M9.06119 33.1329C6.33295 33.1329 4.11328 30.867 4.11328 28.0819C4.11328 25.2967 6.33295 23.031 9.06119 23.031C11.7895 23.031 14.0091 25.2968 14.0091 28.0819C14.0092 30.8671 11.7895 33.1329 9.06119 33.1329ZM9.06119 30.295C7.86587 30.295 6.89323 29.3022 6.89323 28.0819C6.89323 26.8615 7.86587 25.8688 9.06119 25.8688C10.2566 25.8688 11.2292 26.8615 11.2292 28.0819C11.2292 29.3022 10.2567 30.295 9.06119 30.295ZM9.06119 27.1128C8.53778 27.1128 8.11202 27.5475 8.11202 28.0819C8.11202 28.6162 8.53778 29.0508 9.06119 29.0508C9.5846 29.0508 10.0105 28.6162 10.0105 28.0819C10.0105 27.5475 9.58461 27.1128 9.06119 27.1128Z"/>
<path id="_471215376" fill-rule="evenodd" clip-rule="evenodd" d="M37.1647 33.1329C34.4363 33.1329 32.2168 30.867 32.2168 28.0819C32.2168 25.2967 34.4365 23.031 37.1647 23.031C39.8931 23.031 42.1126 25.2968 42.1126 28.0819C42.1126 30.8671 39.8931 33.1329 37.1647 33.1329ZM37.1647 30.295C35.9693 30.295 34.9967 29.3022 34.9967 28.0819C34.9967 26.8615 35.9693 25.8688 37.1647 25.8688C38.36 25.8688 39.3327 26.8615 39.3327 28.0819C39.3327 29.3022 38.36 30.295 37.1647 30.295ZM37.1647 27.1128C36.6413 27.1128 36.2154 27.5475 36.2154 28.0819C36.2154 28.6162 36.6413 29.0508 37.1647 29.0508C37.6881 29.0508 38.1139 28.6162 38.1139 28.0819C38.1139 27.5475 37.688 27.1128 37.1647 27.1128Z"/>
</g>
<path id="Vector_4" fill-rule="evenodd" clip-rule="evenodd" d="M47.3903 31.664H42.2322C42.5864 31.1433 42.8659 30.566 43.0542 29.9479H45.6151C46.6244 29.9479 47.4432 29.112 47.4432 28.0817V27.4622C47.755 27.4896 47.9997 27.7565 47.9997 28.0818V31.042C47.9997 31.3855 47.7269 31.664 47.3903 31.664ZM32.0959 31.664H14.1289C14.483 31.1433 14.7626 30.566 14.9508 29.9479H31.2738C31.4622 30.566 31.7417 31.1433 32.0959 31.664Z"/>
</g>
</g>
</svg>
