<svg width="64" height="65" viewBox="0 0 64 65" fill="none" xmlns="http://www.w3.org/2000/svg">
<g id="Frame" clip-path="url(#clip0_343_15492)">
<g id="Group">
<path id="Vector" d="M26 5.77951H35.3529V4.33301C35.3529 2.12388 33.562 0.333008 31.3529 0.333008H30C27.7909 0.333008 26 2.12388 26 4.33301V5.77951Z" fill="#7B6C79"/>
<path id="Vector_2" d="M30.1369 0.333008H34C36.2092 0.333008 38 2.12388 38 4.33301V5.77951H34.1368V4.33301C34.1368 2.12388 32.3459 0.333008 30.1369 0.333008Z" fill="#6D5F6C"/>
<path id="Vector_3" d="M21.8604 4.33301H39.3674C41.4994 4.33301 43.2277 6.06138 43.2277 8.19338V26.981C43.2277 27.8563 42.9305 28.7056 42.3848 29.3899L35.2277 37.5908V56.333L33.2274 58.2078H27.8355L26 56.333V41.0093L27.1949 39.4628L26 37.5908L18.843 29.3899C18.2972 28.7056 18 27.8563 18 26.981V8.19338C18 6.06138 19.7284 4.33301 21.8604 4.33301Z" fill="#F45D5D"/>
<path id="Vector_4" d="M25.1481 21.193H22.9015C22.6624 21.193 22.4332 21.098 22.2641 20.929C22.0951 20.76 22.0001 20.5307 22.0001 20.2916V16.333L23.1724 10.8193L38 8.33301H41.0986C41.3377 8.33301 41.5669 8.42797 41.736 8.59701C41.905 8.76606 42 8.99532 42 9.23438V14.333L39.4519 19.4485L25.1481 21.193Z" fill="#89F2A9"/>
<path id="Vector_5" d="M22 16.333C22 16.333 24.4335 12.333 30 12.333C30 12.333 36 12.333 38 8.33301H22.9014C22.783 8.33301 22.6658 8.35632 22.5564 8.40162C22.4471 8.44692 22.3477 8.51331 22.264 8.59701C22.1803 8.68071 22.1139 8.78008 22.0686 8.88944C22.0233 8.9988 22 9.11601 22 9.23438V16.333Z" fill="#26A6FE"/>
<path id="Vector_6" d="M25.1481 21.193C25.1481 21.193 27.1481 16.333 34 16.333C34 16.333 39.4823 16.333 42 14.333V20.2916C42 20.5307 41.905 20.76 41.736 20.929C41.567 21.098 41.3377 21.193 41.0986 21.193H25.1481Z" fill="#FFE02F"/>
<path id="Vector_7" d="M35.074 33.335H28.9259C27.8212 33.335 26.9259 32.4396 26.9259 31.335C26.9259 30.2303 27.8212 29.335 28.9259 29.335H35.074C36.1786 29.335 37.074 30.2303 37.074 31.335C37.074 32.4396 36.1786 33.335 35.074 33.335Z" fill="#ECEBFC"/>
<path id="Vector_8" d="M25.9991 37.5899H33.603C33.7279 37.5899 33.8514 37.5632 33.9651 37.5115C34.0788 37.4598 34.1801 37.3844 34.2622 37.2903L41.157 29.39C41.7028 28.7057 42 27.8564 42 26.9811V8.19338C42 6.06138 40.2716 4.33301 38.1396 4.33301H42.1396C44.2716 4.33301 46 6.06138 46 8.19338V26.981C46 27.8563 45.7028 28.7056 45.157 29.3899L38 37.5908V56.333L35.9996 58.2078L34 56.333V41.9106C34 41.6716 33.905 41.4423 33.736 41.2733C33.5669 41.1042 33.3377 41.0093 33.0986 41.0093H25.9991V37.5899Z" fill="#DB4D4D"/>
<path id="Vector_9" d="M32 45.5635C33.1046 45.5635 34 44.668 34 43.5635C34 42.4589 33.1046 41.5635 32 41.5635C30.8954 41.5635 30 42.4589 30 43.5635C30 44.668 30.8954 45.5635 32 45.5635Z" fill="#7B6C79"/>
<path id="Vector_10" d="M28.5755 64.333H30.0101L32 63.3201L34 64.333C35.4224 64.333 36.5755 63.1799 36.5755 61.7575L34 56.333H26V61.7575C26 63.1799 27.1531 64.333 28.5755 64.333Z" fill="#7B6C79"/>
<path id="Vector_11" d="M34 61.7575V56.333H38V61.7575C38 63.1799 36.8469 64.333 35.4245 64.333H31.4245C32.847 64.333 34 63.1799 34 61.7575Z" fill="#6D5F6C"/>
<path id="Vector_12" d="M33.9899 64.3229H30V61.208C30 60.9759 30.0922 60.7534 30.2563 60.5893C30.4204 60.4252 30.6429 60.333 30.875 60.333H33.1149C33.3469 60.333 33.5695 60.4252 33.7336 60.5893C33.8977 60.7534 33.9899 60.9759 33.9899 61.208V64.3229Z" fill="#ECEBFC"/>
<g id="Group_2">
<path id="Vector_13" d="M26 24.3662H22C21.7439 24.3662 21.4982 24.468 21.3171 24.6491C21.136 24.8302 21.0342 25.0758 21.0342 25.332C21.0342 25.5881 21.136 25.8337 21.3171 26.0148C21.4982 26.196 21.7439 26.2977 22 26.2977H26C26.2561 26.2977 26.5018 26.196 26.6829 26.0148C26.864 25.8337 26.9657 25.5881 26.9657 25.332C26.9657 25.0758 26.864 24.8302 26.6829 24.6491C26.5018 24.468 26.2561 24.3662 26 24.3662ZM42 24.3662H38C37.7439 24.3662 37.4982 24.468 37.3171 24.6491C37.136 24.8302 37.0342 25.0758 37.0342 25.332C37.0342 25.5881 37.136 25.8337 37.3171 26.0148C37.4982 26.196 37.7439 26.2977 38 26.2977H42C42.2561 26.2977 42.5018 26.196 42.6829 26.0148C42.864 25.8337 42.9657 25.5881 42.9657 25.332C42.9657 25.0758 42.864 24.8302 42.6829 24.6491C42.5018 24.468 42.2561 24.3662 42 24.3662ZM34 24.3662H30C29.7439 24.3662 29.4982 24.468 29.3171 24.6491C29.136 24.8302 29.0342 25.0758 29.0342 25.332C29.0342 25.5881 29.136 25.8337 29.3171 26.0148C29.4982 26.196 29.7439 26.2977 30 26.2977H34C34.5335 26.2977 34.9657 25.8653 34.9657 25.332C34.9657 24.7986 34.5335 24.3662 34 24.3662Z" fill="#ECEBFC"/>
</g>
</g>
</g>
<defs>
<clipPath id="clip0_343_15492">
<rect width="64" height="64" fill="white" transform="translate(0 0.333008)"/>
</clipPath>
</defs>
</svg>
