<svg width="582" height="611" viewBox="0 0 582 611" fill="none" xmlns="http://www.w3.org/2000/svg">
<path opacity="0.3" d="M454.017 464.289C544.56 373.746 544.56 226.946 454.017 136.403C363.473 45.8593 216.674 45.8593 126.13 136.403C35.5868 226.946 35.5868 373.746 126.13 464.289C216.674 554.833 363.473 554.833 454.017 464.289Z" fill="#D22627"/>
<path d="M76.5023 166.355C53.4901 186.389 35.5788 212.515 27.2995 242.039C19.3052 270.541 21.2795 300.842 32.3163 328.269C43.7544 356.673 63.8407 380.669 88.3806 398.742C112.92 416.815 142.975 429.949 173.03 438.436C206.387 447.848 240.993 452.062 275.585 453.072C313.207 454.166 350.836 451.518 388.238 447.641C422.332 444.1 458.498 441.634 488.715 423.884C502.451 415.812 515.074 405.442 526.149 394.023C537.225 382.605 546.346 370.467 553.421 356.744C565.914 332.521 570.504 302.933 557.052 278.063C546.294 258.177 525.509 247.885 504.173 243.269C478.474 237.709 452.465 239.443 426.43 240.259C392.53 241.321 358.034 233.779 327.746 218.503C300.403 204.708 276.233 183.878 260.561 157.376C252.638 143.983 246.339 128.668 244.799 113.08C243.931 104.329 244.883 95.5251 248.191 87.343C251.317 79.601 256.114 72.61 261.668 66.4152C280.854 45.0277 308.217 32.6639 335.708 25.9707C365.226 18.779 396.181 17.5361 426.365 20.3973C458.336 23.4332 495.415 30.722 516.873 56.9837C525.599 67.6645 530.137 81.2776 526.551 94.9037C523.088 108.051 513.494 119.016 501.946 125.865C472.998 143.032 437.337 132.086 405.768 134.248C393.229 135.109 380.71 137.659 370.825 145.828C361.698 153.369 355.341 163.992 351.729 175.178C347.263 188.998 343.949 213.971 346.771 228.141C347.017 229.365 348.888 228.847 348.642 227.623C343.444 201.536 352.83 158.69 377.078 143.705C389.526 136.015 405.858 135.633 420.041 135.911C436.496 136.228 452.957 138.293 469.412 137.089C483.737 136.041 497.7 132.17 509.196 123.276C519.029 115.67 526.797 104.788 529.095 92.4244C534.435 63.7741 508.296 41.7135 484.695 31.6218C469.257 25.0191 452.653 21.6077 436.056 19.5298C420.611 17.5944 405.017 16.7723 389.455 17.1801C360.436 17.9374 330.95 22.747 304.229 34.4311C291.924 39.8103 280.252 46.7496 270.051 55.5273C258.859 65.1658 248.832 77.3289 244.624 91.7188C240.022 107.462 243.685 124.285 249.524 139.193C254.638 152.25 261.881 164.387 270.64 175.327C289.768 199.226 315.764 216.859 344.162 227.928C359.717 233.993 376.01 238.162 392.556 240.402C409.101 242.641 424.138 242.246 440.121 241.541C465.166 240.434 491.408 240.492 515.495 248.312C526.188 251.781 536.455 257.051 544.611 264.896C553.052 273.013 558.567 283.481 561.344 294.809C568.788 325.239 554.813 356.233 536.151 379.73C515.65 405.546 487.861 426.745 455.799 435.452C438.541 440.138 420.695 442.145 402.971 444.126C384.361 446.204 365.724 448.048 347.043 449.363C309.595 451.991 271.87 452.502 234.513 448.327C201.836 444.676 169.341 437.258 138.917 424.635C110.02 412.64 82.6712 395.622 61.8081 372.053C41.204 348.776 27.2154 319.297 24.6844 288.128C22.231 257.924 31.0346 227.831 47.4376 202.54C55.8593 189.548 66.2099 177.916 77.8811 167.759C78.8261 166.937 77.4474 165.571 76.5087 166.387V166.355H76.5023Z" fill="#F0F0F0"/>
<path d="M124.274 152.574V216.711C124.274 223.993 118.345 229.903 111.062 229.903H33.1382C25.8558 229.903 19.9458 223.993 19.9458 216.711V152.574C19.9458 145.292 25.8558 139.382 33.1382 139.382H111.069C118.351 139.382 124.281 145.292 124.281 152.574H124.274Z" fill="#F5F7FA"/>
<path d="M85.5774 175.089C85.5774 180.733 82.1142 185.53 77.227 187.536V205.383C77.227 206.639 76.2172 207.662 74.9678 207.662H69.252C67.9962 207.662 66.9735 206.632 66.9735 205.383V187.536C62.0538 185.536 58.623 180.733 58.623 175.089C58.623 167.651 64.6625 161.611 72.1196 161.611C79.5768 161.611 85.5968 167.651 85.5968 175.089H85.5774Z" fill="#89939E"/>
<path d="M106.693 132.74V139.375H97.7083V132.74C97.7083 118.609 86.2184 107.139 72.1069 107.139C57.9953 107.139 46.5054 118.609 46.5054 132.74V139.375H37.54V132.74C37.54 113.657 53.0563 98.1475 72.1133 98.1475C91.1704 98.1475 106.706 113.664 106.706 132.74H106.693Z" fill="#89939E"/>
<path d="M574.128 29.2021H358.241C353.894 29.2021 350.37 32.7263 350.37 37.0735V176.228C350.37 180.575 353.894 184.099 358.241 184.099H574.128C578.476 184.099 582 180.575 582 176.228V37.0735C582 32.7263 578.476 29.2021 574.128 29.2021Z" fill="white"/>
<path d="M283.463 297.392C235.458 305.704 236.642 245.937 236.642 245.937C236.642 245.937 249.53 241.587 255.745 233.864C256.476 232.952 257.143 231.806 257.745 230.492C262.257 220.646 263.305 201.382 263.305 201.382L308.113 204.12C308.113 204.12 307.517 221.39 310.689 232.673C310.709 232.744 310.734 232.816 310.754 232.893C314.049 243.975 328.102 245.341 328.102 245.341C328.102 245.341 331.468 289.081 283.463 297.392Z" fill="white"/>
<path d="M310.754 232.887C304.921 241.542 297.503 247.743 288.233 247.743C277.235 247.743 266.762 240.286 257.745 230.479C262.256 220.633 263.305 201.369 263.305 201.369L308.113 204.107C308.113 204.107 307.517 221.378 310.689 232.661C310.708 232.732 310.734 232.803 310.754 232.881V232.887Z" fill="#E0E0E0"/>
<path d="M236.357 130.32C236.357 130.32 236.759 163.281 238.092 167.146C239.426 171.017 242.494 172.926 242.494 172.926L327.222 171.017C327.222 171.017 330.562 165.547 330.562 161.546V130.32C330.562 130.32 289.865 101.164 264.445 107.573C239.024 113.981 236.357 130.32 236.357 130.32Z" fill="white"/>
<path d="M244.377 168.665C244.377 168.665 237.224 159.596 230.486 164.982C223.747 170.368 227.236 181.851 232.234 187.942C237.224 194.034 249.86 196.144 249.569 183.832C249.278 171.526 244.377 168.665 244.377 168.665Z" fill="white"/>
<path d="M240.629 170.679C240.629 170.679 234.558 166.076 231.955 170.277C229.353 174.485 231.819 181.217 234.622 184.622C237.425 188.027 241.432 187.224 240.629 184.887C239.827 182.55 236.823 183.353 237.095 180.88C237.367 178.408 238.098 177.942 238.895 179.612C239.691 181.282 241.963 181.813 242.364 178.544C242.766 175.275 241.335 171.151 240.629 170.672V170.679Z" fill="#E0E0E0"/>
<path d="M323.791 168.665C323.791 168.665 330.944 159.596 337.682 164.982C344.421 170.368 340.932 181.851 335.934 187.942C330.944 194.034 318.308 196.144 318.599 183.832C318.89 171.526 323.791 168.665 323.791 168.665Z" fill="white"/>
<path d="M327.545 170.679C327.545 170.679 333.617 166.076 336.219 170.277C338.822 174.485 336.355 181.217 333.552 184.622C330.75 188.027 326.743 187.224 327.545 184.887C328.348 182.55 331.352 183.353 331.08 180.88C330.808 178.408 330.076 177.942 329.28 179.612C328.477 181.282 326.212 181.813 325.81 178.544C325.409 175.275 326.84 171.151 327.545 170.672V170.679Z" fill="#E0E0E0"/>
<path d="M322.088 203.842C318.289 213.137 311.427 219.746 305.077 224.07C304.863 224.174 298.002 227.611 294.416 229.016C290.771 230.433 286.233 229.728 279.65 229.728C273.067 229.728 260.464 222.044 260.464 222.044C254.974 217.765 249.485 211.791 246.236 203.842C238.539 185.024 241.763 142.735 241.763 142.735C243.905 112.246 284.168 115.178 284.168 115.178C284.168 115.178 324.425 112.239 326.574 142.735C326.574 142.735 329.791 185.03 322.101 203.842H322.088Z" fill="white"/>
<path d="M244.883 138.158H243.815C241.144 138.158 238.979 140.323 238.979 142.994V161.604C238.979 164.275 241.144 166.44 243.815 166.44H244.883C247.554 166.44 249.719 164.275 249.719 161.604V142.994C249.719 140.323 247.554 138.158 244.883 138.158Z" fill="#89939E"/>
<path d="M326.309 138.158H325.306C322.796 138.158 320.762 140.193 320.762 142.702V161.895C320.762 164.405 322.796 166.44 325.306 166.44H326.309C328.819 166.44 330.853 164.405 330.853 161.895V142.702C330.853 140.193 328.819 138.158 326.309 138.158Z" fill="#89939E"/>
<path d="M342.24 127.044C342.512 137.252 330.601 144.981 330.601 144.981C323.047 138.132 306.119 133.167 294.74 130.449C287.315 128.675 279.625 128.675 272.193 130.449C260.82 133.167 243.893 138.132 236.332 144.981C236.332 144.981 224.415 137.252 224.687 127.044C224.959 116.836 233.898 103.701 251.764 93.4997C269.643 83.2915 283.463 83.1426 283.463 83.1426C283.463 83.1426 297.277 83.2915 315.156 93.4997C333.028 103.708 341.968 116.842 342.233 127.044H342.24Z" fill="#717171"/>
<path d="M236.345 144.988V155.235C236.345 155.235 253.881 140.359 282.622 140.359C311.363 140.359 330.86 157.423 330.86 157.423L330.607 144.988C330.607 144.988 315.408 127.775 283.482 127.775C251.557 127.775 236.358 144.988 236.358 144.988H236.345Z" fill="#89939E"/>
<path d="M294.94 105.883C294.94 105.883 294.765 108.446 292.538 113.398C290.305 118.35 283.502 120.907 283.502 120.907C274.724 119.431 272.582 106.142 272.582 106.142L283.113 99.267C283.657 98.9175 284.35 98.9175 284.881 99.267L294.946 105.87L294.94 105.883Z" fill="#F5F7FA"/>
<path d="M235.251 155.416C235.251 155.416 252.198 138.158 285.172 138.158C318.147 138.158 332.329 156.782 332.142 157.416C331.954 158.05 311.317 151.435 283.755 151.066C256.192 150.697 231.678 159.682 235.244 155.416H235.251Z" fill="#ABBED1"/>
<path d="M178.623 424.745C178.623 424.745 195.893 430.034 198.075 432.526C200.256 435.018 204.451 448.398 204.302 451.356C204.153 454.315 196.521 475.786 194.502 478.589C192.482 481.392 189.517 483.755 186.721 482.259C183.918 480.764 183.704 477.767 183.704 477.767C183.704 477.767 175.522 480.615 170.383 469.565C165.249 458.516 166.013 452.955 166.013 452.955L155.287 443.271L178.629 424.758L178.623 424.745Z" fill="white"/>
<path d="M162.453 395.274C157.287 388.619 150.238 383.512 142.347 380.56C140.114 379.725 137.816 379.071 135.472 378.605C134.573 378.424 134.191 379.803 135.091 379.984C143.176 381.596 150.743 385.493 156.75 391.137C158.446 392.723 160.012 394.452 161.436 396.284C162 397.009 163.003 395.992 162.446 395.274H162.453Z" fill="#E0E0E0"/>
<path d="M105.793 404.07C112.143 412.88 160.802 458.38 161.948 458.38C163.094 458.38 170.324 451.681 173.147 444.275C175.969 436.87 186.546 431.225 185.99 427.749C185.828 426.726 183.989 423.943 181.465 420.415C180.377 418.887 179.16 417.23 177.905 415.508C174.15 410.369 169.988 404.698 167.535 400.614C166.246 398.471 165.431 396.756 165.392 395.785C165.385 395.539 165.411 395.254 165.483 394.924C166.466 390.121 175.257 376.495 179.458 370.183C189.589 359.483 202.606 341.002 204.645 330.373C207.312 316.436 222.091 242.085 185.601 255.012C185.601 255.012 170.422 265.441 156.601 289.89C156.414 290.226 156.226 290.556 156.032 290.893C153.863 294.719 151.662 298.629 149.494 302.506C145.008 310.507 140.664 318.398 137.039 325.337C137.039 325.337 137.033 325.35 137.02 325.376C136.198 326.761 111.386 368.591 108.616 376.048C105.793 383.634 99.4495 395.267 105.793 404.077V404.07Z" fill="#89939E"/>
<path d="M207.124 271.369C208.037 280.509 208.872 289.682 208.865 298.88C208.859 307.516 208.102 316.196 205.959 324.585C204.813 329.084 203.26 333.486 201.188 337.642C200.78 338.464 202.01 339.189 202.425 338.36C206.179 330.825 208.276 322.585 209.364 314.261C210.535 305.263 210.477 296.142 209.914 287.099C209.584 281.843 209.092 276.6 208.568 271.363C208.477 270.457 207.046 270.45 207.137 271.363L207.124 271.369Z" fill="#ABBED1"/>
<path d="M165.333 395.097C154.089 388.76 141.719 384.468 128.967 382.487C125.374 381.931 121.762 381.555 118.144 381.355C117.224 381.309 117.231 382.74 118.144 382.785C130.831 383.465 143.408 386.449 155.054 391.55C158.316 392.98 161.514 394.579 164.615 396.334C165.417 396.787 166.142 395.55 165.333 395.097Z" fill="#ABBED1"/>
<path d="M165.327 390.703C159.818 386.373 153.798 382.728 147.396 379.887C146.561 379.518 145.83 380.748 146.678 381.123C152.97 383.906 158.912 387.46 164.324 391.713C165.036 392.276 166.058 391.273 165.333 390.703H165.327Z" fill="#ABBED1"/>
<path d="M140.347 403.488C140.819 405.721 156.472 429.6 159.404 429.303C162.323 428.998 167.735 423.237 173.496 421.949C175.755 421.438 178.707 420.894 181.465 420.421C180.377 418.894 179.16 417.237 177.904 415.515C174.881 415.994 171.677 416.732 169.153 417.839C162.453 420.777 159.281 423.011 158.342 421.6C157.404 420.188 147.124 405.151 147.034 404.083C146.943 403.028 155.637 399.966 160.809 399.733C162.427 399.662 164.906 400.05 167.541 400.613C166.253 398.471 165.437 396.755 165.398 395.784C165.392 395.538 165.418 395.254 165.489 394.924C158.109 394.587 149.791 394.477 146.827 395.383C141.065 397.144 139.894 401.254 140.36 403.494L140.347 403.488Z" fill="#ABBED1"/>
<path d="M401.093 342.154C421.131 342.154 437.375 325.91 437.375 305.872C437.375 285.834 421.131 269.59 401.093 269.59C381.055 269.59 364.811 285.834 364.811 305.872C364.811 325.91 381.055 342.154 401.093 342.154Z" fill="#89939E"/>
<path d="M196.554 451.079C196.554 451.079 188.274 478.953 185.873 497.349C183.478 515.746 182.287 538.331 183.97 540.843C185.646 543.348 222.776 559.447 270.885 559.855C318.994 560.256 369.679 541.671 372.094 527.417C374.508 513.163 365.154 461.663 361.128 459.035C357.102 456.407 196.554 451.086 196.554 451.086V451.079Z" fill="#89939E"/>
<path d="M263.363 518.879C263.104 518.879 262.897 518.671 262.884 518.419L261.551 478.525C261.544 478.259 261.745 478.046 262.011 478.033C262.276 478.02 262.49 478.227 262.502 478.492L263.836 518.387C263.842 518.652 263.642 518.866 263.376 518.879H263.363Z" fill="#ABBED1"/>
<path d="M274.62 528.343C274.523 528.343 274.419 528.317 274.335 528.246C264.561 520.951 255.628 512.264 247.789 502.451C247.627 502.243 247.659 501.946 247.866 501.777C248.073 501.616 248.371 501.648 248.54 501.855C256.327 511.61 265.195 520.226 274.905 527.482C275.112 527.638 275.157 527.942 275.002 528.149C274.905 528.272 274.762 528.337 274.62 528.337V528.343Z" fill="#ABBED1"/>
<path d="M269.668 530.971H269.649C265.247 530.783 260.787 530.427 256.405 529.916C256.139 529.89 255.958 529.651 255.984 529.385C256.01 529.12 256.249 528.938 256.515 528.964C260.871 529.469 265.305 529.825 269.694 530.013C269.96 530.019 270.16 530.246 270.154 530.511C270.147 530.77 269.927 530.971 269.675 530.971H269.668Z" fill="#ABBED1"/>
<path d="M266.166 551.484C265.946 551.484 265.752 551.329 265.7 551.109C264.923 547.561 265.305 543.988 265.668 540.538C266.017 537.23 266.38 533.806 265.7 530.472C265.648 530.213 265.817 529.961 266.069 529.909C266.328 529.864 266.58 530.025 266.632 530.278C267.338 533.761 266.969 537.25 266.613 540.635C266.257 544.014 265.888 547.51 266.632 550.902C266.69 551.16 266.529 551.413 266.27 551.471C266.237 551.478 266.205 551.478 266.173 551.478L266.166 551.484Z" fill="#ABBED1"/>
<path d="M263.337 504.865H263.292C263.027 504.865 262.813 504.645 262.819 504.386C262.819 504.12 263.033 503.913 263.298 503.913H263.337C264.936 503.913 266.632 502.981 268.516 501.078C269.137 500.45 269.61 499.893 269.901 499.22C270.251 498.404 270.309 497.466 270.341 496.417C270.561 489.905 270.244 483.348 269.39 476.913C269.357 476.648 269.539 476.415 269.798 476.383C270.057 476.35 270.296 476.532 270.328 476.79C271.189 483.277 271.513 489.892 271.293 496.45C271.254 497.556 271.189 498.631 270.775 499.602C270.406 500.463 269.798 501.149 269.196 501.758C267.124 503.855 265.208 504.878 263.344 504.878L263.337 504.865Z" fill="#ABBED1"/>
<path d="M274.064 505.182C273.908 505.182 273.766 505.111 273.675 504.975C273.52 504.761 273.578 504.457 273.792 504.314C280.453 499.667 287.217 495.006 293.91 490.468C294.13 490.319 294.428 490.378 294.571 490.598C294.713 490.818 294.661 491.116 294.441 491.258C287.754 495.789 280.99 500.45 274.335 505.098C274.251 505.156 274.161 505.182 274.064 505.182Z" fill="#ABBED1"/>
<path d="M282.621 506.308H282.556C280.032 505.991 277.462 505.848 274.918 505.835C274.653 505.835 274.439 505.622 274.439 505.356C274.439 505.091 274.646 504.877 274.918 504.877C277.488 504.871 280.116 505.032 282.679 505.356C282.945 505.389 283.126 505.628 283.094 505.887C283.068 506.126 282.861 506.301 282.621 506.301V506.308Z" fill="#ABBED1"/>
<path d="M244.436 496.521C244.332 496.521 244.228 496.489 244.138 496.418L232.693 487.2C232.486 487.032 232.454 486.734 232.622 486.527C232.79 486.32 233.088 486.287 233.295 486.456L244.74 495.673C244.947 495.842 244.979 496.139 244.811 496.347C244.714 496.463 244.578 496.521 244.442 496.521H244.436Z" fill="#ABBED1"/>
<path d="M238.733 496.423C238.506 496.423 238.306 496.268 238.267 496.035C238.222 495.776 238.383 495.524 238.642 495.478L240.636 495.096C240.901 495.051 241.147 495.213 241.193 495.472C241.238 495.731 241.076 495.983 240.817 496.029L238.824 496.41C238.824 496.41 238.759 496.417 238.733 496.417V496.423Z" fill="#ABBED1"/>
<path d="M239.963 504.274C239.846 504.274 239.717 504.229 239.626 504.139C239.438 503.951 239.438 503.653 239.626 503.465C240.727 502.352 241.911 501.323 243.154 500.41C243.361 500.255 243.665 500.3 243.821 500.507C243.976 500.721 243.931 501.018 243.724 501.174C242.526 502.054 241.38 503.051 240.312 504.132C240.215 504.229 240.099 504.274 239.976 504.274H239.969H239.963Z" fill="#ABBED1"/>
<path d="M196.301 439.887C196.301 439.887 193.006 457.876 193.557 459.578C194.107 461.281 218.563 474.085 281.851 471.981C345.133 469.877 360.494 469.877 364.332 463.844C368.171 457.805 364.611 447.04 364.611 447.04L196.308 439.887H196.301Z" fill="#ABBED1"/>
<path d="M378.974 307.613C378.476 321.239 373.932 356.369 370.624 380.553C370.274 383.11 369.938 385.538 369.621 387.803C368.177 398.232 367.154 405.287 367.154 405.287C367.154 405.287 367.549 429.316 366.759 443.881C366.209 454.153 359.581 457.973 334.057 459.319C331.85 459.442 329.506 459.546 327.008 459.617C317.421 459.94 305.62 460.025 291.146 460.025C265.383 460.025 246.17 458.452 232.026 456.238C229.47 455.843 227.081 455.429 224.854 455.001C209.778 452.069 201.803 448.451 198.204 445.855C191.116 440.735 193.472 437.582 193.084 422.221C192.689 406.854 192.689 398.193 191.899 393.072C191.783 392.322 191.699 390.567 191.621 388.107C191.576 386.133 191.53 383.699 191.485 380.955C191.271 363.917 191.31 335.183 190.449 332.289C189.265 328.354 184.546 285.43 184.546 282.271C184.546 279.112 182.973 264.159 187.692 254.313C192.424 244.467 254.734 228.22 254.734 228.22L280.103 252.695L312.812 232.783C312.812 232.783 372.145 242.629 380.418 251.685C388.684 260.748 379.758 285.954 378.968 307.607H378.974V307.613Z" fill="#89939E"/>
<path d="M285.515 454.393H253.816C253.143 454.393 252.599 454.937 252.599 455.61V473.391C252.599 474.063 253.143 474.608 253.816 474.608H285.515C286.187 474.608 286.732 474.063 286.732 473.391V455.61C286.732 454.937 286.187 454.393 285.515 454.393Z" fill="#ABBED1"/>
<path d="M250.501 229.366C250.501 229.366 257.02 268.425 260.962 269.02C264.904 269.616 280.11 252.695 280.11 252.695C280.11 252.695 294.37 272.238 299.691 269.279C305.012 266.321 320.315 234.111 320.315 234.111C320.315 234.111 313.214 229.437 310.851 230.615C308.488 231.8 280.725 250.501 280.725 250.501C280.725 250.501 258.865 225.1 257.292 225.294C255.719 225.488 250.508 229.353 250.508 229.353L250.501 229.366Z" fill="#ABBED1"/>
<path d="M410.752 328.806C430.79 328.806 447.034 312.562 447.034 292.523C447.034 272.485 430.79 256.241 410.752 256.241C390.714 256.241 374.47 272.485 374.47 292.523C374.47 312.562 390.714 328.806 410.752 328.806Z" fill="#ABBED1"/>
<path d="M413.302 311.806C413.302 311.806 384.296 311.185 377.188 294.678C370.08 278.172 372.081 259.807 370.074 249.696C368.074 239.585 366.889 227.616 370.89 227.344C374.89 227.072 377.408 230.095 379.039 232.018C380.671 233.94 384.224 246.738 384.224 246.738C384.224 246.738 385.558 200.655 391.779 195.425C397.999 190.195 400.815 192.26 400.815 192.26C400.815 192.26 401.857 182.77 408.369 182.213C414.888 181.663 418.17 191.276 418.17 191.276C418.17 191.276 427.634 192.117 429.187 196.454C430.741 200.785 433.874 218.961 433.874 218.961C433.874 218.961 440.742 221.428 442.075 226.587C443.409 231.746 447.636 278.793 445.189 289.94C442.742 301.08 422.3 310.369 413.296 311.813L413.302 311.806Z" fill="white"/>
<path d="M384.322 250.019C392.944 255.851 400.317 263.502 405.858 272.312C407.438 274.83 408.868 277.439 410.137 280.119C410.532 280.948 411.762 280.223 411.373 279.401C406.823 269.807 400.24 261.179 392.193 254.246C389.921 252.284 387.533 250.465 385.047 248.782C384.283 248.265 383.565 249.501 384.328 250.019H384.322Z" fill="#E0E0E0"/>
<path d="M384.49 249.385C397.488 247.32 410.719 246.75 423.847 247.676C427.563 247.941 431.272 248.317 434.961 248.822C435.35 248.874 435.725 248.725 435.842 248.323C435.939 247.987 435.725 247.495 435.343 247.443C422.093 245.637 408.661 245.333 395.345 246.582C391.585 246.932 387.837 247.417 384.108 248.006C383.202 248.149 383.59 249.527 384.49 249.385Z" fill="#E0E0E0"/>
<path d="M400.382 192.259C400.9 205.963 401.275 219.673 401.502 233.383C401.566 237.267 401.618 241.151 401.657 245.035C401.664 245.954 403.094 245.954 403.088 245.035C402.952 231.318 402.66 217.608 402.227 203.904C402.104 200.027 401.961 196.137 401.819 192.259C401.786 191.347 400.356 191.34 400.388 192.259H400.382Z" fill="#E0E0E0"/>
<path d="M416.882 191.864C417.031 205.82 417.18 219.777 417.322 233.733C417.367 237.701 417.406 241.662 417.445 245.624C417.451 246.543 418.882 246.543 418.876 245.624C418.727 231.668 418.578 217.712 418.435 203.755C418.39 199.787 418.351 195.826 418.312 191.864C418.306 190.945 416.875 190.945 416.882 191.864Z" fill="#E0E0E0"/>
<path d="M432.424 218.838C432.703 228.418 432.67 238.011 432.334 247.585C432.301 248.504 433.732 248.504 433.764 247.585C434.101 238.005 434.133 228.418 433.855 218.838C433.829 217.919 432.398 217.919 432.424 218.838Z" fill="#E0E0E0"/>
<path d="M53.0102 420.033C55.3276 422.343 56.7582 425.541 56.7582 429.076V610.377H31.1826V429.076C31.1826 422.013 36.9114 416.291 43.9736 416.291C47.5015 416.291 50.6993 417.722 53.0167 420.039L53.0102 420.033Z" fill="#FFC107"/>
<path d="M289.314 429.07V610.371H263.739V429.07C263.739 422.007 269.468 416.285 276.53 416.285C280.058 416.285 283.255 417.716 285.573 420.033C287.89 422.344 289.321 425.542 289.321 429.076H289.314V429.07Z" fill="#FFC107"/>
<path d="M320.242 451.764H0.259766V496.603H320.242V451.764Z" fill="white"/>
<path d="M260.405 451.765L222.53 496.604H192.63L230.499 451.765H260.405Z" fill="#FFC107"/>
<path d="M63.4645 451.765L25.5963 496.604H0.260254V491.206L33.5648 451.765H63.4645Z" fill="#FFC107"/>
<path d="M194.754 451.765L156.885 496.604H126.992L164.854 451.765H194.754Z" fill="#FFC107"/>
<path d="M320.243 451.765V458.639L288.175 496.604H258.275L296.143 451.765H320.243Z" fill="#FFC107"/>
<path d="M129.109 451.765L91.2408 496.604H61.3477L99.2158 451.765H129.109Z" fill="#FFC107"/>
<path d="M320.242 516.781H0.259766V561.621H320.242V516.781Z" fill="white"/>
<path d="M260.405 516.78L222.53 561.62H192.63L230.499 516.78H260.405Z" fill="#FFC107"/>
<path d="M63.464 516.78L25.5958 561.62H0.259766V556.221L33.5643 516.78H63.464Z" fill="#FFC107"/>
<path d="M194.753 516.78L156.885 561.62H126.992L164.853 516.78H194.753Z" fill="#FFC107"/>
<path d="M320.243 516.78V523.655L288.175 561.62H258.275L296.143 516.78H320.243Z" fill="#FFC107"/>
<path d="M129.109 516.78L91.2404 561.62H61.3472L99.2153 516.78H129.109Z" fill="#FFC107"/>
<path d="M285.495 420.033C287.812 422.343 289.243 425.541 289.243 429.076V610.377H263.667V429.076C263.667 422.013 269.396 416.291 276.459 416.291C279.986 416.291 283.184 417.722 285.502 420.039L285.495 420.033Z" fill="#FFC107"/>
<path d="M521.799 429.07V610.371H496.224V429.07C496.224 422.007 501.952 416.285 509.015 416.285C512.543 416.285 515.74 417.716 518.058 420.033C520.375 422.344 521.806 425.542 521.806 429.076L521.799 429.07Z" fill="#FFC107"/>
<path d="M552.728 451.764H232.745V496.603H552.728V451.764Z" fill="white"/>
<path d="M492.883 451.765L455.015 496.604H425.115L462.983 451.765H492.883Z" fill="#FFC107"/>
<path d="M295.949 451.765L258.081 496.604H232.745V491.206L266.05 451.765H295.949Z" fill="#FFC107"/>
<path d="M427.239 451.765L389.37 496.604H359.471L397.339 451.765H427.239Z" fill="#FFC107"/>
<path d="M552.721 451.765V458.639L520.653 496.604H490.76L528.628 451.765H552.721Z" fill="#FFC107"/>
<path d="M361.594 451.765L323.719 496.604H293.826L331.694 451.765H361.594Z" fill="#FFC107"/>
<path d="M552.728 516.781H232.745V561.621H552.728V516.781Z" fill="white"/>
<path d="M492.883 516.78L455.015 561.62H425.115L462.983 516.78H492.883Z" fill="#FFC107"/>
<path d="M295.949 516.78L258.081 561.62H232.745V556.221L266.05 516.78H295.949Z" fill="#FFC107"/>
<path d="M427.238 516.78L389.37 561.62H359.47L397.338 516.78H427.238Z" fill="#FFC107"/>
<path d="M552.721 516.78V523.655L520.653 561.62H490.76L528.628 516.78H552.721Z" fill="#FFC107"/>
<path d="M361.594 516.78L323.719 561.62H293.826L331.694 516.78H361.594Z" fill="#FFC107"/>
<path d="M405.677 57.6109L381.15 123.117H403.697V95.3912H423.501V164.249H403.697V142.16H375.514C366.678 137.589 362.26 130.531 362.26 120.984C362.26 116.617 364.698 108.34 369.572 96.1529L384.806 57.6109H405.677ZM482.383 164.249H453.286C446.481 157.444 441.556 149.421 438.509 140.179C435.564 130.937 434.091 121.695 434.091 112.453C434.091 88.7898 440.489 70.509 453.286 57.6109H482.383C489.086 64.4154 493.961 72.4387 497.007 81.6806C500.054 90.821 501.578 99.9615 501.578 109.102C501.578 133.07 495.179 151.452 482.383 164.249ZM474.461 75.8917H461.36C456.891 85.0321 454.657 96.6607 454.657 110.778C454.657 124.894 456.84 136.828 461.207 146.578H474.613C478.981 135.406 481.164 123.117 481.164 109.711C481.164 96.3053 478.93 85.0321 474.461 75.8917ZM540.449 101.637V102.399C554.363 106.766 561.32 116.262 561.32 130.887C561.32 138.3 559.34 144.953 555.379 150.843C551.519 156.734 547.203 161.202 542.43 164.249H507.696V146.578H533.899C535.117 145.46 536.489 143.226 538.012 139.875C539.535 136.523 540.297 133.121 540.297 129.668C540.297 123.27 538.012 118.547 533.442 115.5H521.102V98.8951L539.535 77.5674L538.774 75.8917H508.306V57.6109H545.02C553.652 61.267 557.969 67.056 557.969 74.9777C557.969 81.0713 555.176 86.911 549.59 92.4968L540.449 101.637Z" fill="#FFC107"/>
<path d="M509.015 440.812C537.404 440.812 560.419 417.798 560.419 389.408C560.419 361.019 537.404 338.005 509.015 338.005C480.626 338.005 457.611 361.019 457.611 389.408C457.611 417.798 480.626 440.812 509.015 440.812Z" fill="#ED4245"/>
<path d="M538.566 383H479.758C478.235 383 477 384.235 477 385.758V392.451C477 393.974 478.235 395.208 479.758 395.208H538.566C540.089 395.208 541.324 393.974 541.324 392.451V385.758C541.324 384.235 540.089 383 538.566 383Z" fill="white"/>
</svg>
