<?xml version="1.0" encoding="UTF-8"?>
<svg xmlns="http://www.w3.org/2000/svg" xmlns:xlink="http://www.w3.org/1999/xlink" width="20px" height="20px" viewBox="0 0 20 20" version="1.1" fill="#89939E">
<g id="surface1">
<path style=" stroke:none;fill-rule:nonzero;" d="M 10.265625 2.5 C 8.085938 2.5 6.3125 4.273438 6.3125 6.453125 C 6.3125 8.636719 8.085938 10.410156 10.265625 10.410156 C 12.445312 10.410156 14.222656 8.636719 14.222656 6.453125 C 14.222656 4.273438 12.445312 2.5 10.265625 2.5 Z M 15.1875 12.992188 C 14.105469 11.894531 12.667969 11.289062 11.144531 11.289062 L 9.386719 11.289062 C 7.863281 11.289062 6.429688 11.894531 5.34375 12.992188 C 4.269531 14.089844 3.675781 15.53125 3.675781 17.0625 C 3.675781 17.304688 3.871094 17.5 4.113281 17.5 L 16.417969 17.5 C 16.660156 17.5 16.859375 17.304688 16.859375 17.0625 C 16.859375 15.53125 16.265625 14.089844 15.1875 12.992188 Z M 15.1875 12.992188 "/>
</g>
</svg>
