<svg width="22" height="18" viewBox="0 0 22 18" fill="none" xmlns="http://www.w3.org/2000/svg">
<g id="Group">
<path id="Vector" d="M13.3774 2.99215C14.3352 3.5927 15.0068 4.60895 15.1291 5.78859C15.5197 5.97111 15.9533 6.07607 16.4129 6.07607C18.091 6.07607 19.4511 4.71598 19.4511 3.03817C19.4511 1.36009 18.091 0 16.4129 0C14.7509 0.000517047 13.4027 1.33631 13.3774 2.99215ZM11.387 9.21274C13.0651 9.21274 14.4252 7.85239 14.4252 6.17457C14.4252 4.49675 13.0648 3.13666 11.387 3.13666C9.70917 3.13666 8.3483 4.49701 8.3483 6.17483C8.3483 7.85264 9.70917 9.21274 11.387 9.21274ZM12.6757 9.41981H10.0977C7.95276 9.41981 6.20773 11.1651 6.20773 13.3101V16.4628L6.21575 16.5121L6.43291 16.5801C8.47989 17.2197 10.2583 17.433 11.722 17.433C14.581 17.433 16.2382 16.6179 16.3403 16.5659L16.5432 16.4633H16.565V13.3101C16.5657 11.1651 14.8207 9.41981 12.6757 9.41981ZM17.7022 6.28341H15.1441C15.1164 7.3069 14.6795 8.22854 13.9885 8.89139C15.8951 9.45833 17.2901 11.2264 17.2901 13.3147V14.2863C19.8159 14.1937 21.2714 13.4779 21.3673 13.4298L21.5702 13.3269H21.5919V10.1731C21.5919 8.02844 19.8469 6.28341 17.7022 6.28341ZM6.05598 6.07659C6.65032 6.07659 7.20331 5.90312 7.67175 5.60763C7.82066 4.63636 8.34132 3.78762 9.0851 3.20957C9.0882 3.15269 9.09363 3.09633 9.09363 3.03894C9.09363 1.36087 7.73328 0.000775514 6.05598 0.000775514C4.37765 0.000775514 3.01781 1.36087 3.01781 3.03894C3.01781 4.71624 4.37765 6.07659 6.05598 6.07659ZM8.78443 8.89139C8.09676 8.2319 7.66141 7.31517 7.62961 6.29788C7.53473 6.2909 7.44089 6.28341 7.3442 6.28341H4.76646C2.6215 6.28341 0.876465 8.02844 0.876465 10.1731V13.3264L0.884479 13.375L1.10164 13.4435C2.74378 13.9561 4.20935 14.1924 5.48232 14.2669V13.3147C5.48283 11.2264 6.87731 9.45885 8.78443 8.89139Z" fill="white"/>
</g>
</svg>
