<svg width="40" height="31" viewBox="0 0 40 31" fill="none" xmlns="http://www.w3.org/2000/svg">
<g clip-path="url(#clip0_1630_45854)">
<path d="M26.3984 13.4788H34.0547C34.6797 13.4788 35.2578 13.8538 35.5781 14.471C35.5781 14.4788 37.1172 17.5179 37.125 17.5179C37.125 17.5257 37.4766 18.2054 37.4688 18.2132H28.5703L28.5625 18.2054H28.5547L27.4609 16.0335C26.9453 15.0257 25.9687 14.4085 24.9062 14.4242C25.2266 13.8304 25.7891 13.4788 26.3984 13.4788ZM0.03125 17.3148C0.421875 17.346 1.53125 17.2132 1.8125 17.4476C1.8125 17.4554 1.42969 18.1976 1.42969 18.1976C1.42187 18.1976 0.9375 18.1976 0.90625 18.1976C0.460938 18.2054 0.0859375 17.8148 0.03125 17.3148ZM37.2031 21.4007C37.2812 21.5648 37.25 21.7757 37.3047 21.9476C37.2812 21.8929 37.2656 21.8382 37.2656 21.7757C37.25 23.0179 35.6562 23.0101 35.6328 21.7757C35.6328 21.8148 35.625 21.8617 35.6094 21.9007C35.625 21.4867 35.7734 21.0101 36.2109 20.8695C36.4688 20.7757 36.7656 20.8538 36.9609 21.0413C36.9688 21.0413 36.9688 21.0492 36.9688 21.0492C37.0781 21.1507 37.1562 21.2679 37.2031 21.4007ZM39.3516 26.7445C39.3984 26.6976 39.4453 26.6507 39.4844 26.6038C39.4766 26.8226 39.5625 27.346 39.2422 27.3538H37.3516C37.2812 27.3538 37.2187 27.3148 37.1719 27.2601C37.4219 27.2523 38.2266 27.2835 38.4531 27.2288C38.7891 27.1507 39.1016 26.9788 39.3516 26.7445ZM39.8438 21.2445L39.5078 23.2523L39.5 23.2913L39.1406 25.4007C39.0469 25.9788 38.6172 26.4007 38.125 26.4007H32.0312L32.1484 25.7288H33.7891C34.0781 25.7367 34.3047 25.4085 34.1797 25.1429L33.6641 23.9398C33.4453 23.432 32.9766 23.0257 32.375 22.846V22.8382C32.3828 22.8304 32.375 22.8304 32.375 22.8226C32.3672 22.8148 32.3672 22.807 32.3672 22.807C32.375 22.7992 32.375 22.7992 32.3672 22.7992C32.3047 22.596 32.2344 22.3851 32.1328 22.1898H34.8438C35.2656 24.0257 37.7266 23.971 38.0781 22.1273C37.9375 22.1429 37.7891 22.2054 37.6484 22.182C38.4531 22.1351 39.2266 21.7523 39.8438 21.2445ZM32.8828 24.2679L33.1406 24.8851H32.2891L32.4219 24.1117C32.4219 24.1038 32.4219 24.096 32.4297 24.096C32.4453 24.0023 32.4531 23.9085 32.4609 23.8148C32.6484 23.9242 32.7969 24.0882 32.8828 24.2679ZM31.0078 30.2054C31.0625 30.1507 31.1016 30.096 31.1484 30.0335C31.125 30.3382 31.2734 31.0804 30.8203 31.096H28.6719C28.5469 31.096 28.4297 31.0101 28.375 30.8773C28.5547 30.8695 29.625 30.8929 29.7813 30.8617C30.2578 30.807 30.6953 30.557 31.0078 30.2054ZM28.6016 24.3773C28.9844 25.9945 26.7891 26.4788 26.6797 24.721C26.6875 23.432 28.2578 23.1742 28.6016 24.3773ZM29.4297 24.2132C29.2109 23.1663 28.0078 22.4163 26.9922 22.8851C26.4141 23.1195 25.9922 23.6898 25.8672 24.2992H15.3047C15.2734 24.1351 15.2266 23.971 15.1484 23.8226C14.375 22.1976 12.1797 22.4945 11.75 24.2132C10.9375 24.0023 10.2188 23.4945 9.6875 22.846C9.6875 22.8382 9.6875 22.8382 9.69531 22.8382C9.69531 22.8304 9.69531 22.8304 9.70312 22.8226V22.8148C9.71094 22.807 9.71094 22.7992 9.71094 22.7992C9.8125 22.5257 9.97656 22.2601 10.1875 22.0648C10.5234 21.7054 11 21.5804 11.4688 21.557C11.5938 21.6038 29.625 21.557 29.7656 21.5726C30.2266 21.557 30.6719 21.7445 30.9922 22.0648H31C31.2187 22.2835 31.3828 22.5492 31.4844 22.8382C31.2969 23.0648 31.0859 23.2913 30.8516 23.471C30.8281 23.4945 30.8047 23.5101 30.7812 23.5257C30.7656 23.5413 30.7578 23.5492 30.75 23.5492C30.6562 23.6273 30.5547 23.6898 30.4453 23.7679H30.4375C30.1328 23.971 29.7891 24.1195 29.4297 24.2132ZM8.72656 23.557C8.72656 23.5804 8.72656 23.6195 8.73438 23.6351C8.72656 23.6429 8.72656 23.6429 8.73438 23.6429C8.72656 23.6507 8.72656 23.6507 8.73438 23.6507C8.72656 23.6585 8.72656 23.6585 8.73438 23.6585C8.72656 23.6663 8.72656 23.6663 8.73438 23.6663C8.72656 23.9554 8.86719 24.5804 8.90625 24.8773H6.70312L6.96875 24.2601C7.14844 23.8382 7.69531 23.5492 8.30469 23.5492H8.72656V23.557ZM31.2344 24.2601C31.125 24.3382 31.0156 24.4163 30.8984 24.4945H30.8906C30.4453 24.7679 29.9609 24.971 29.4531 25.0804C29.0938 27.1663 26.2969 27.2288 25.875 25.1507C26.0391 25.1429 26.3594 25.1898 26.4922 25.0726C26.375 25.182 26.0234 25.1351 25.875 25.1429H15.3203C15.1797 25.1351 14.8203 25.182 14.7031 25.0726C14.8281 25.1898 15.1641 25.1351 15.3203 25.1507C14.8906 27.2288 12.1016 27.1742 11.7422 25.0804C10.9453 24.9085 10.2188 24.5179 9.60938 23.9788C9.60938 23.9867 9.82812 25.2445 9.82812 25.2601C9.83594 25.2601 9.83594 25.2679 9.83594 25.2679C9.83594 25.2679 9.83594 25.2679 9.82812 25.2757C9.96094 26.0413 10.3047 28.057 10.4453 28.8538C10.5625 29.5413 11.0703 30.0413 11.6484 30.0413H29.5547C30.1406 30.0413 30.6484 29.5413 30.7578 28.8538L31.1562 26.5023L31.3672 25.3148C31.3672 25.2992 31.3672 25.2913 31.375 25.2757C31.3672 25.2679 31.3672 25.2679 31.3672 25.2679C31.3672 25.2679 31.3672 25.2679 31.375 25.2601C31.375 25.2445 31.5938 23.9945 31.5938 23.9788C31.4766 24.0804 31.3516 24.1742 31.2344 24.2601ZM24.9844 28.9632C24.9062 29.0804 24.7734 29.1507 24.625 29.1507H16.5625C16.2656 29.1585 16.0469 28.8304 16.1719 28.5648L16.75 27.1976C17.0937 26.3929 18.0391 25.846 19.0937 25.846H22.1016C23.1562 25.846 24.1016 26.3851 24.4453 27.1976L25.0234 28.5648C25.0781 28.6976 25.0625 28.846 24.9844 28.9632ZM11.6484 30.8773H12.8203C12.7656 31.0101 12.6484 31.096 12.5234 31.096H10.375C9.91406 31.0804 10.0703 30.3382 10.0469 30.0335C10.4141 30.5492 11.0078 30.8773 11.6484 30.8773ZM1.72656 27.2523H2.67188C2.63281 27.3148 2.5625 27.346 2.5 27.346H0.601562C0.28125 27.3382 0.367187 26.8148 0.359375 26.596C0.695312 27.0023 1.19531 27.2523 1.72656 27.2523ZM9.04688 25.7288L9.16406 26.4007H1.72656C1.23438 26.4007 0.804688 25.9788 0.710938 25.4007L0.351562 23.307L0 21.2445C0.507812 21.6585 1.10937 21.9867 1.75781 22.1273C2.10938 23.9788 4.57812 24.0413 5 22.1976H9.0625C8.97656 22.3538 8.90625 22.5335 8.85938 22.7132V22.721H8.29687C7.34375 22.721 6.5 23.2132 6.1875 23.9476L5.67187 25.1507C5.61719 25.2835 5.63281 25.432 5.71094 25.5492C5.78906 25.6663 5.92187 25.7367 6.0625 25.7367H9.04688V25.7288ZM4.36719 20.3226C4.21094 20.2054 4.03906 20.1038 3.85938 20.0492C3.85156 20.0413 3.85156 20.0413 3.85156 20.0492C3.57031 19.9476 3.25 19.9554 2.96875 20.0335C2.40625 20.1898 1.96094 20.6742 1.79688 21.2367C1.78906 21.2445 1.78906 21.2523 1.78906 21.2601C1.78906 21.2601 1.78125 21.2601 1.78125 21.2679C1.24219 21.1117 0.734375 20.8148 0.34375 20.4163C0.335938 20.4163 0.328125 20.4085 0.328125 20.4007C0.226562 20.307 0.148438 20.2054 0.0625 20.1117C0.320312 19.4085 0.953125 18.9945 1.64844 19.057H12.1953C12.1875 19.057 11.9766 19.4945 11.9687 19.5023L11.1172 20.7523V20.7601C10.6016 20.8148 10.1172 21.0257 9.72656 21.3617C9.71875 21.3617 5 21.3617 4.99219 21.3617C4.90625 20.9476 4.6875 20.5804 4.36719 20.3226ZM27.9219 18.7992C28.1406 19.2288 28.6875 20.307 28.8984 20.7288H12.2969C12.5391 20.2445 13.0391 19.2757 13.2812 18.7913L14.4844 16.4163C14.6172 16.1663 14.7969 15.9242 15.0156 15.7367C15.3594 15.4398 15.8047 15.2601 16.2578 15.2601H24.9375C25.3359 15.2679 25.7266 15.3851 26.0391 15.6351C26.0469 15.6351 26.0469 15.6429 26.0547 15.6429C26.6641 16.0023 27.2031 17.471 27.5469 18.0648C27.5625 18.1038 27.8906 18.7445 27.9219 18.7992ZM38.4062 18.1976L38.0234 17.4476C38.0234 17.4476 38.0312 17.4476 38.0312 17.4398C38.3203 17.2132 39.4609 17.3382 39.8125 17.307C39.75 17.807 39.3828 18.1976 38.9297 18.1976C38.9062 18.2054 38.4219 18.2054 38.4062 18.1976ZM37.375 20.2757C36.9844 19.9945 36.4531 19.8929 35.9922 20.057C35.9844 20.0492 35.9844 20.0492 35.9844 20.057C35.8672 20.0882 35.7578 20.1351 35.6562 20.2054C35.6328 20.2132 35.6094 20.2445 35.5781 20.2523C35.1953 20.5023 34.9375 20.9085 34.8359 21.3538H31.4531C31.1875 21.1195 30.875 20.9476 30.5391 20.846C30.5312 20.8382 30.5313 20.8382 30.5234 20.8382C30.3047 20.7679 30.0703 20.7445 29.8437 20.7288C29.8359 20.721 28.9922 19.0492 28.9844 19.0413H38.1172H38.1875C38.875 18.9867 39.5078 19.4007 39.7734 20.096C39.3359 20.6429 38.7188 21.0648 38.0469 21.2523C37.9453 20.8851 37.7422 20.5648 37.4531 20.3304C37.4375 20.3148 37.4219 20.2992 37.3984 20.2913C37.3906 20.2835 37.3828 20.2913 37.375 20.2757ZM4.20312 21.7679C4.20312 21.8304 4.21094 21.8851 4.23438 21.9398C4.21094 21.9007 4.20312 21.8617 4.19531 21.8148C4.14062 22.9945 2.63281 23.0023 2.5625 21.8226C2.51562 21.2132 3.13281 20.5882 3.71875 20.9242C3.73437 20.9242 3.73437 20.932 3.75 20.9476C3.75781 20.9476 3.75781 20.9476 3.76562 20.9554H3.77344C3.79688 20.971 3.8125 20.9788 3.83594 21.0023C3.89062 21.0413 3.94531 21.0882 3.98437 21.1507C4.13281 21.307 4.20312 21.5335 4.20312 21.7679ZM12.625 18.2054H2.375C2.59375 17.7913 4.02344 14.9554 4.27344 14.471C4.58594 13.8538 5.16406 13.4788 5.78906 13.4788H13.4453C14.1562 13.4632 14.7891 14.0023 15.0781 14.6898C15.0078 14.721 14.9453 14.7601 14.8828 14.7992C14.7422 14.8851 14.6094 14.971 14.4844 15.0804H14.4766C13.7891 15.5882 13.0469 17.471 12.6328 18.1976L12.625 18.2054ZM14.5 24.5335C14.6953 26.1038 12.625 26.3538 12.5547 24.721C12.5547 24.7835 12.5391 24.846 12.5156 24.9007C12.5781 24.7367 12.5391 24.5492 12.5937 24.3851C12.6484 24.1742 12.7734 23.9788 12.9297 23.8304C13.5391 23.2757 14.4297 23.7757 14.5 24.5335ZM8.84375 22.7757C8.85156 22.7523 8.85156 22.7367 8.85938 22.7132H8.875C8.85938 22.7288 8.84375 22.7523 8.84375 22.7757ZM12.3984 25.0413C12.3828 25.0492 12.375 25.057 12.3672 25.0648C12.3828 25.057 12.3906 25.0492 12.3984 25.0413ZM11.8281 25.1038C11.9297 25.1195 12.0312 25.1429 12.125 25.1429C12.0312 25.1507 11.9297 25.1195 11.8281 25.1038ZM28.6562 24.8148C28.6719 24.8773 28.6953 24.932 28.7266 24.9788C28.6875 24.9242 28.6641 24.8695 28.6562 24.8148ZM29.1328 25.1351C29.2109 25.1195 29.2891 25.1117 29.3672 25.096C29.2578 25.1117 29.1484 25.1507 29.0391 25.1351C29.0703 25.1429 29.1016 25.1429 29.1328 25.1351ZM28.7891 25.0413C28.8047 25.0492 28.8125 25.057 28.8203 25.0648C28.8125 25.0648 28.8047 25.057 28.7891 25.0413ZM23.6641 27.5335L23.9922 28.307H17.2031L17.5312 27.5335C17.7422 27.0413 18.3828 26.6976 19.0937 26.6976H22.1016C22.8047 26.6976 23.4531 27.0413 23.6641 27.5335Z" fill="#F3F5F9"/>
<path d="M9.81 4.6V12H7.89V7H6.44V5.82L6.65 5.76C7.11667 5.64 7.49333 5.49667 7.78 5.33C8.07333 5.15667 8.35333 4.93667 8.62 4.67L8.69 4.6H9.81Z" fill="#D32F2F"/>
<path d="M17.43 13V11.69L18.48 10.87C19.0667 10.41 19.56 10.0233 19.96 9.71C20.3667 9.39667 20.6733 9.11333 20.88 8.86C21.0867 8.60667 21.19 8.33667 21.19 8.05C21.19 7.75 21.0867 7.52667 20.88 7.38C20.68 7.22667 20.4633 7.15 20.23 7.15C19.9767 7.15 19.7467 7.23667 19.54 7.41C19.34 7.58333 19.24 7.85333 19.24 8.22H17.4C17.4 7.76 17.48 7.36 17.64 7.02C17.8 6.67333 18.0167 6.39 18.29 6.17C18.5633 5.94333 18.8733 5.77667 19.22 5.67C19.5667 5.55667 19.9267 5.5 20.3 5.5C20.8267 5.5 21.3 5.6 21.72 5.8C22.1467 6 22.4833 6.28 22.73 6.64C22.9833 7 23.11 7.42333 23.11 7.91C23.11 8.36333 22.9967 8.77667 22.77 9.15C22.55 9.52333 22.2333 9.88667 21.82 10.24C21.4133 10.5867 20.9233 10.9567 20.35 11.35H23.18V13H17.43Z" fill="#D32F2F"/>
<path d="M31.51 11.1C30.9967 11.1 30.5633 11.0433 30.21 10.93C29.8633 10.81 29.58 10.66 29.36 10.48C29.1467 10.3 28.98 10.1067 28.86 9.9C28.7467 9.69333 28.6667 9.5 28.62 9.32C28.58 9.14 28.5567 8.99333 28.55 8.88C28.5433 8.76 28.54 8.7 28.54 8.7H30.35C30.35 8.7 30.3533 8.74333 30.36 8.83C30.3733 8.91 30.41 9.00667 30.47 9.12C30.5367 9.22667 30.6467 9.32333 30.8 9.41C30.96 9.49 31.1867 9.53 31.48 9.53C31.8 9.53 32.05 9.45667 32.23 9.31C32.4167 9.16333 32.51 8.98333 32.51 8.77C32.51 8.57 32.4267 8.39333 32.26 8.24C32.1 8.08 31.85 8 31.51 8H30.51V6.53H31.53C31.8233 6.53 32.0433 6.45667 32.19 6.31C32.3433 6.15667 32.42 5.98667 32.42 5.8C32.42 5.6 32.3367 5.42667 32.17 5.28C32.0033 5.13333 31.7733 5.06 31.48 5.06C31.22 5.06 31.02 5.10667 30.88 5.2C30.74 5.28667 30.6367 5.39 30.57 5.51C30.51 5.63 30.4733 5.73667 30.46 5.83C30.4533 5.91667 30.45 5.96 30.45 5.96H28.68C28.68 5.96 28.6833 5.9 28.69 5.78C28.6967 5.66 28.7233 5.50667 28.77 5.32C28.8167 5.13333 28.8933 4.93667 29 4.73C29.1133 4.52333 29.2733 4.32667 29.48 4.14C29.6867 3.95333 29.9533 3.8 30.28 3.68C30.6133 3.56 31.02 3.5 31.5 3.5C31.86 3.5 32.2067 3.54667 32.54 3.64C32.8733 3.73333 33.1733 3.87 33.44 4.05C33.7067 4.23 33.9167 4.45333 34.07 4.72C34.23 4.98 34.31 5.27667 34.31 5.61C34.31 5.93 34.24 6.20333 34.1 6.43C33.9667 6.65 33.8067 6.82667 33.62 6.96C33.4333 7.08667 33.2633 7.17333 33.11 7.22V7.29C33.33 7.37 33.54 7.48 33.74 7.62C33.9467 7.75333 34.1133 7.92333 34.24 8.13C34.3667 8.33667 34.43 8.59333 34.43 8.9C34.43 9.36667 34.2933 9.76667 34.02 10.1C33.7533 10.4267 33.4 10.6767 32.96 10.85C32.52 11.0167 32.0367 11.1 31.51 11.1Z" fill="#D32F2F"/>
</g>
<defs>
<clipPath id="clip0_1630_45854">
<rect width="40" height="31" fill="white"/>
</clipPath>
</defs>
</svg>
