<svg width="500" height="373" viewBox="0 0 500 373" fill="none" xmlns="http://www.w3.org/2000/svg">
<g clip-path="url(#clip0_3158_64798)">
<path d="M500 327.45H0V327.7H500V327.45Z" fill="#EBEBEB"/>
<path d="M449.901 343.54H416.781V343.79H449.901V343.54Z" fill="#EBEBEB"/>
<path d="M331.221 346.26H322.531V346.51H331.221V346.26Z" fill="#EBEBEB"/>
<path d="M415.78 334.26H396.59V334.51H415.78V334.26Z" fill="#EBEBEB"/>
<path d="M95.6509 335.94H52.4609V336.19H95.6509V335.94Z" fill="#EBEBEB"/>
<path d="M110.889 335.94H104.559V336.19H110.889V335.94Z" fill="#EBEBEB"/>
<path d="M225.149 340.16H131.469V340.41H225.149V340.16Z" fill="#EBEBEB"/>
<path d="M237.009 282.85H43.9092C40.7592 282.85 38.1992 280.29 38.1992 277.14V5.71C38.1992 2.56 40.7592 0 43.9092 0H237.009C240.159 0 242.719 2.56 242.719 5.71V277.14C242.719 280.29 240.159 282.85 237.009 282.85ZM43.9092 0.25C40.8992 0.25 38.4492 2.7 38.4492 5.71V277.14C38.4492 280.15 40.8992 282.6 43.9092 282.6H237.009C240.019 282.6 242.469 280.15 242.469 277.14V5.71C242.469 2.7 240.019 0.25 237.009 0.25H43.9092Z" fill="#EBEBEB"/>
<path d="M453.31 282.85H260.21C257.06 282.85 254.5 280.29 254.5 277.14V5.71C254.5 2.56 257.06 0 260.21 0H453.31C456.46 0 459.02 2.56 459.02 5.71V277.14C459.02 280.29 456.46 282.85 453.31 282.85ZM260.21 0.25C257.2 0.25 254.75 2.7 254.75 5.71V277.14C254.75 280.15 257.2 282.6 260.21 282.6H453.31C456.32 282.6 458.77 280.15 458.77 277.14V5.71C458.77 2.7 456.32 0.25 453.31 0.25H260.21Z" fill="#EBEBEB"/>
<path d="M301.088 220.461H409.898V23.8409H301.088V220.461Z" fill="#E6E6E6"/>
<path d="M296.079 220.461H407.559V23.8409H296.079V220.461Z" fill="#F0F0F0"/>
<path d="M301.088 225.121H409.898V220.461H301.088V225.121Z" fill="#E6E6E6"/>
<path d="M294.27 225.121H405.75V220.461H294.27V225.121Z" fill="#F0F0F0"/>
<path d="M400.52 213.42V30.8604L303.1 30.8604V213.42H400.52Z" fill="#FAFAFA"/>
<path d="M330.66 213.431L358.08 30.8711H377.56L350.13 213.431H330.66Z" fill="white"/>
<path d="M333.75 213.431L361.18 30.8711H380.65L353.22 213.431H333.75Z" fill="white"/>
<path d="M354.32 213.431L381.74 30.8711H389.33L361.91 213.431H354.32Z" fill="white"/>
<path d="M304 213.431V30.8711H303.11V213.431H304Z" fill="#E6E6E6"/>
<path opacity="0.6" d="M294.41 36.1606H403.22L403.86 33.6006H295.06L294.41 36.1606Z" fill="#EBEBEB"/>
<path opacity="0.6" d="M294.41 40.3705H403.22L403.86 37.8105H295.06L294.41 40.3705Z" fill="#EBEBEB"/>
<path opacity="0.6" d="M294.41 44.5807H403.22L403.86 42.0107H295.06L294.41 44.5807Z" fill="#EBEBEB"/>
<path opacity="0.6" d="M294.41 48.7907H403.22L403.86 46.2207H295.06L294.41 48.7907Z" fill="#EBEBEB"/>
<path opacity="0.6" d="M294.41 52.9907H403.22L403.86 50.4307H295.06L294.41 52.9907Z" fill="#EBEBEB"/>
<path opacity="0.6" d="M294.41 57.2006H403.22L403.86 54.6406H295.06L294.41 57.2006Z" fill="#EBEBEB"/>
<path d="M431.451 12.0508H274.531V15.8408H431.451V12.0508Z" fill="#F0F0F0"/>
<path opacity="0.8" d="M428.609 8.86035H420.359V251.7H428.609V8.86035Z" fill="#FAFAFA"/>
<path opacity="0.8" d="M422.499 8.86035H420.359V251.7H422.499V8.86035Z" fill="#F0F0F0"/>
<path opacity="0.8" d="M420.359 8.86035H412.109V251.7H420.359V8.86035Z" fill="#FAFAFA"/>
<path opacity="0.8" d="M414.249 8.86035H412.109V251.7H414.249V8.86035Z" fill="#F0F0F0"/>
<path opacity="0.8" d="M412.109 8.86035H403.859V251.7H412.109V8.86035Z" fill="#FAFAFA"/>
<path opacity="0.8" d="M301.09 8.86035H292.84V251.7H301.09V8.86035Z" fill="#FAFAFA"/>
<path opacity="0.8" d="M294.98 8.86035H292.84V251.7H294.98V8.86035Z" fill="#F0F0F0"/>
<path opacity="0.8" d="M292.852 8.86035H284.602V251.7H292.852V8.86035Z" fill="#FAFAFA"/>
<path opacity="0.8" d="M286.742 8.86035H284.602V251.7H286.742V8.86035Z" fill="#F0F0F0"/>
<path opacity="0.8" d="M284.602 8.86035H276.352V251.7H284.602V8.86035Z" fill="#FAFAFA"/>
<path d="M85.3423 220.461H194.152L194.152 23.8409H85.3423L85.3423 220.461Z" fill="#E6E6E6"/>
<path d="M80.3208 220.461H191.801L191.801 23.8409H80.3208L80.3208 220.461Z" fill="#F0F0F0"/>
<path d="M85.3423 225.121H194.152V220.461H85.3423V225.121Z" fill="#E6E6E6"/>
<path d="M78.5122 225.121H189.992V220.461H78.5122V225.121Z" fill="#F0F0F0"/>
<path d="M184.773 213.431V30.8711L87.3534 30.8711L87.3534 213.431H184.773Z" fill="#FAFAFA"/>
<path d="M114.91 213.431L142.33 30.8711H161.81L134.38 213.431H114.91Z" fill="white"/>
<path d="M118 213.431L145.42 30.8711H164.9L137.47 213.431H118Z" fill="white"/>
<path d="M138.562 213.431L165.993 30.8711H173.583L146.152 213.431H138.562Z" fill="white"/>
<path d="M88.2422 213.42L88.2422 30.8604H87.3522L87.3522 213.42H88.2422Z" fill="#E6E6E6"/>
<path opacity="0.6" d="M78.6602 36.1606H187.46L188.11 33.6006H79.3102L78.6602 36.1606Z" fill="#EBEBEB"/>
<path opacity="0.6" d="M78.6602 40.3705H187.46L188.11 37.8105H79.3102L78.6602 40.3705Z" fill="#EBEBEB"/>
<path opacity="0.6" d="M78.6602 44.5807H187.46L188.11 42.0107H79.3102L78.6602 44.5807Z" fill="#EBEBEB"/>
<path opacity="0.6" d="M78.6602 48.7907H187.46L188.11 46.2207H79.3102L78.6602 48.7907Z" fill="#EBEBEB"/>
<path opacity="0.6" d="M78.6602 52.9907H187.46L188.11 50.4307H79.3102L78.6602 52.9907Z" fill="#EBEBEB"/>
<path opacity="0.6" d="M78.6602 57.2006H187.46L188.11 54.6406H79.3102L78.6602 57.2006Z" fill="#EBEBEB"/>
<path d="M215.701 12.0508H58.7812V15.8408H215.701V12.0508Z" fill="#F0F0F0"/>
<path opacity="0.8" d="M212.859 8.86035H204.609V251.7H212.859V8.86035Z" fill="#FAFAFA"/>
<path opacity="0.8" d="M206.749 8.86035H204.609V251.7H206.749V8.86035Z" fill="#F0F0F0"/>
<path opacity="0.8" d="M204.609 8.86035H196.359V251.7H204.609V8.86035Z" fill="#FAFAFA"/>
<path opacity="0.8" d="M198.499 8.86035H196.359V251.7H198.499V8.86035Z" fill="#F0F0F0"/>
<path opacity="0.8" d="M196.359 8.86035H188.109V251.7H196.359V8.86035Z" fill="#FAFAFA"/>
<path opacity="0.8" d="M85.3398 8.86035H77.0898V251.7H85.3398V8.86035Z" fill="#FAFAFA"/>
<path opacity="0.8" d="M79.2299 8.86035H77.0898V251.7H79.2299V8.86035Z" fill="#F0F0F0"/>
<path opacity="0.8" d="M77.0898 8.86035H68.8398V251.7H77.0898V8.86035Z" fill="#FAFAFA"/>
<path opacity="0.8" d="M70.9799 8.86035H68.8398V251.7H70.9799V8.86035Z" fill="#F0F0F0"/>
<path opacity="0.8" d="M68.8398 8.86035H60.5898V251.7H68.8398V8.86035Z" fill="#FAFAFA"/>
<path d="M375.772 320.66H392.582V236.66H375.772V320.66Z" fill="#F0F0F0"/>
<path d="M243.981 327.44H386.441V320.65H243.981V327.44Z" fill="#F0F0F0"/>
<path d="M375.772 236.66H237.852V320.66H375.772V236.66Z" fill="#F5F5F5"/>
<path d="M363.2 245.561H250.41V273.501H363.2V245.561Z" fill="#F0F0F0"/>
<path d="M363.2 279.9H250.41V307.84H363.2V279.9Z" fill="#F0F0F0"/>
<path d="M293.441 249.41H320.181C321.511 249.41 322.591 248.33 322.591 247C322.591 245.67 321.511 244.59 320.181 244.59H293.441C292.111 244.59 291.031 245.67 291.031 247C291.031 248.33 292.111 249.41 293.441 249.41Z" fill="#F5F5F5"/>
<path d="M293.441 283.75H320.181C321.511 283.75 322.591 282.67 322.591 281.34C322.591 280.01 321.511 278.93 320.181 278.93H293.441C292.111 278.93 291.031 280.01 291.031 281.34C291.031 282.67 292.111 283.75 293.441 283.75Z" fill="#F5F5F5"/>
<path d="M233.582 236.66L375.762 236.66V233.38L233.582 233.38V236.66Z" fill="#F0F0F0"/>
<path d="M397.042 233.38H375.762V236.66H397.042V233.38Z" fill="#E6E6E6"/>
<path d="M108.339 321.88C104.369 321.88 101.109 318.63 101.109 314.65V243.89C101.109 239.92 104.359 236.66 108.339 236.66C112.309 236.66 115.569 239.91 115.569 243.89V314.65C115.569 318.62 112.319 321.88 108.339 321.88Z" fill="#F5F5F5"/>
<path d="M112.47 319.031C109.78 319.031 107.59 316.83 107.59 314.15V244.4C107.59 241.71 109.79 239.521 112.47 239.521C115.16 239.521 117.35 241.72 117.35 244.4V314.15C117.35 316.84 115.15 319.031 112.47 319.031Z" fill="#EBEBEB"/>
<path d="M118.828 321.88C114.858 321.88 111.598 318.63 111.598 314.65V243.89C111.598 239.92 114.848 236.66 118.828 236.66C122.798 236.66 126.058 239.91 126.058 243.89V314.65C126.058 318.62 122.808 321.88 118.828 321.88Z" fill="#F5F5F5"/>
<path d="M122.966 319.031C120.276 319.031 118.086 316.83 118.086 314.15V244.4C118.086 241.71 120.286 239.521 122.966 239.521C125.656 239.521 127.846 241.72 127.846 244.4V314.15C127.846 316.84 125.646 319.031 122.966 319.031Z" fill="#EBEBEB"/>
<path d="M136.548 243.89C136.548 239.897 133.313 236.66 129.323 236.66C125.332 236.66 122.098 239.897 122.098 243.89V314.65C122.098 318.643 125.332 321.88 129.323 321.88C133.313 321.88 136.548 318.643 136.548 314.65V243.89Z" fill="#F5F5F5"/>
<path d="M133.466 319.031C130.776 319.031 128.586 316.83 128.586 314.15V244.4C128.586 241.71 130.786 239.521 133.466 239.521C136.156 239.521 138.346 241.72 138.346 244.4V314.15C138.346 316.84 136.146 319.031 133.466 319.031Z" fill="#EBEBEB"/>
<path d="M139.828 321.88C135.858 321.88 132.598 318.63 132.598 314.65V243.89C132.598 239.92 135.848 236.66 139.828 236.66C143.798 236.66 147.058 239.91 147.058 243.89V314.65C147.058 318.62 143.808 321.88 139.828 321.88Z" fill="#F5F5F5"/>
<path d="M143.966 319.031C141.276 319.031 139.086 316.83 139.086 314.15V244.4C139.086 241.71 141.286 239.521 143.966 239.521C146.656 239.521 148.846 241.72 148.846 244.4V314.15C148.846 316.84 146.646 319.031 143.966 319.031Z" fill="#EBEBEB"/>
<path d="M150.328 321.88C146.358 321.88 143.098 318.63 143.098 314.65V243.89C143.098 239.92 146.348 236.66 150.328 236.66C154.298 236.66 157.558 239.91 157.558 243.89V314.65C157.558 318.62 154.308 321.88 150.328 321.88Z" fill="#F5F5F5"/>
<path d="M154.466 319.031C151.776 319.031 149.586 316.83 149.586 314.15V244.4C149.586 241.71 151.786 239.521 154.466 239.521C157.156 239.521 159.346 241.72 159.346 244.4V314.15C159.346 316.84 157.146 319.031 154.466 319.031Z" fill="#EBEBEB"/>
<path d="M160.828 321.88C156.858 321.88 153.598 318.63 153.598 314.65V243.89C153.598 239.92 156.848 236.66 160.828 236.66C164.798 236.66 168.058 239.91 168.058 243.89V314.65C168.058 318.62 164.808 321.88 160.828 321.88Z" fill="#F5F5F5"/>
<path d="M164.958 319.031C162.268 319.031 160.078 316.83 160.078 314.15V244.4C160.078 241.71 162.278 239.521 164.958 239.521C167.648 239.521 169.838 241.72 169.838 244.4V314.15C169.838 316.84 167.638 319.031 164.958 319.031Z" fill="#EBEBEB"/>
<path d="M171.328 321.88C167.358 321.88 164.098 318.63 164.098 314.65V243.89C164.098 239.92 167.348 236.66 171.328 236.66C175.298 236.66 178.558 239.91 178.558 243.89V314.65C178.558 318.62 175.308 321.88 171.328 321.88Z" fill="#F5F5F5"/>
<path d="M180.191 309.2H158.991C158.107 309.2 157.391 309.917 157.391 310.8C157.391 311.684 158.107 312.4 158.991 312.4H180.191C181.074 312.4 181.791 311.684 181.791 310.8C181.791 309.917 181.074 309.2 180.191 309.2Z" fill="#F5F5F5"/>
<path d="M180.191 251.43H158.991C158.111 251.43 157.391 250.71 157.391 249.83C157.391 248.95 158.111 248.23 158.991 248.23H180.191C181.071 248.23 181.791 248.95 181.791 249.83C181.791 250.71 181.071 251.43 180.191 251.43Z" fill="#F5F5F5"/>
<path d="M249.999 372.61C357.082 372.61 443.889 367.542 443.889 361.29C443.889 355.038 357.082 349.97 249.999 349.97C142.917 349.97 56.1094 355.038 56.1094 361.29C56.1094 367.542 142.917 372.61 249.999 372.61Z" fill="#F5F5F5"/>
<path d="M409.83 193.71H170.8C165.33 193.71 161.14 189.24 161.48 183.77L170.24 42.69C170.58 37.22 175.33 32.75 180.79 32.75H419.82C425.28 32.75 429.48 37.22 429.14 42.69L420.38 183.77C420.04 189.24 415.29 193.71 409.83 193.71Z" fill="#d32727"/>
<path opacity="0.8" d="M409.83 193.71H170.8C165.33 193.71 161.14 189.24 161.48 183.77L170.24 42.69C170.58 37.22 175.33 32.75 180.79 32.75H419.82C425.28 32.75 429.48 37.22 429.14 42.69L420.38 183.77C420.04 189.24 415.29 193.71 409.83 193.71Z" fill="white"/>
<path opacity="0.4" d="M201.461 73.4102H173.001C171.441 73.4102 170.261 72.1502 170.361 70.5902L171.171 57.5602C171.271 56.0002 172.611 54.7402 174.161 54.7402H202.621L201.461 73.4102Z" fill="white"/>
<path d="M419.67 35.2402H211.28C207.16 35.2402 203.62 38.5802 203.37 42.6902L201.36 75.0602H172.9C171.34 75.0602 170 76.3202 169.91 77.8802L169.15 90.0802C169.05 91.6402 170.24 92.9002 171.79 92.9002H200.25L194.61 183.77C194.35 187.89 197.48 191.22 201.6 191.22H409.99C414.11 191.22 417.65 187.88 417.9 183.77L426.66 42.6902C426.92 38.5702 423.79 35.2402 419.67 35.2402Z" fill="white"/>
<path opacity="0.4" d="M199.039 112.41H170.58C169.02 112.41 167.84 111.15 167.94 109.59L168.7 97.3903C168.8 95.8303 170.14 94.5703 171.69 94.5703H200.149L199.039 112.41Z" fill="white"/>
<path opacity="0.4" d="M197.829 131.9H169.369C167.809 131.9 166.629 130.64 166.729 129.08L167.489 116.88C167.589 115.32 168.929 114.06 170.479 114.06H198.939L197.829 131.9Z" fill="white"/>
<path opacity="0.4" d="M196.622 151.4H168.162C166.602 151.4 165.422 150.14 165.522 148.58L166.282 136.38C166.382 134.82 167.722 133.56 169.272 133.56H197.732L196.622 151.4Z" fill="white"/>
<path opacity="0.4" d="M195.411 170.9H166.951C165.391 170.9 164.211 169.64 164.311 168.08L165.071 155.88C165.171 154.32 166.511 153.06 168.061 153.06H196.521L195.411 170.9Z" fill="white"/>
<path opacity="0.2" d="M172.629 90.6296C172.299 90.6296 171.999 90.4996 171.779 90.2796C171.559 90.0496 171.459 89.7396 171.479 89.4096L172.149 78.6996C172.199 77.9696 172.849 77.3496 173.579 77.3496H197.709C198.039 77.3496 198.339 77.4796 198.559 77.6996C198.779 77.9296 198.879 78.2396 198.859 78.5696L198.189 89.2896C198.139 90.0196 197.489 90.6396 196.759 90.6396H172.629V90.6296Z" fill="#d32727"/>
<path opacity="0.3" d="M252.979 52.0502H218.569C215.939 52.0502 213.919 49.9002 214.079 47.2702C214.239 44.6402 216.529 42.4902 219.159 42.4902H253.569C256.199 42.4902 258.219 44.6402 258.059 47.2702C257.899 49.9002 255.609 52.0502 252.979 52.0502Z" fill="#d32727"/>
<path d="M416.962 47.2702C416.802 49.9102 414.522 52.0502 411.882 52.0502C409.242 52.0502 407.232 49.9102 407.392 47.2702C407.552 44.6302 409.832 42.4902 412.472 42.4902C415.112 42.4902 417.122 44.6302 416.962 47.2702Z" fill="#00B4CA"/>
<path opacity="0.4" d="M319.529 133.89H217.969C212.739 133.89 208.749 129.63 209.069 124.41L212.129 75.0698C212.449 69.8398 216.969 65.5898 222.199 65.5898H323.759C328.989 65.5898 332.979 69.8398 332.659 75.0698L329.599 124.41C329.279 129.64 324.759 133.89 319.529 133.89ZM222.189 65.9898C217.189 65.9898 212.869 70.0598 212.559 75.0598L209.499 124.4C209.189 129.4 213.009 133.47 218.009 133.47H319.569C324.569 133.47 328.889 129.4 329.199 124.4L332.259 75.0598C332.569 70.0598 328.749 65.9898 323.749 65.9898H222.189Z" fill="#d32727"/>
<path d="M230.328 98.3893L244.898 107.809C247.808 103.559 251.708 100.029 256.228 97.5493L248.398 82.0293C241.198 85.9793 234.978 91.6193 230.328 98.3893Z" fill="#d32727"/>
<path opacity="0.8" d="M230.328 98.3893L244.898 107.809C247.808 103.559 251.708 100.029 256.228 97.5493L248.398 82.0293C241.198 85.9793 234.978 91.6193 230.328 98.3893Z" fill="white"/>
<path d="M221.547 123.65H239.387C239.747 117.83 241.747 112.41 244.897 107.81L230.327 98.3896C225.307 105.72 222.117 114.37 221.547 123.65Z" fill="#64748b"/>
<path d="M272.358 75.8096C263.788 75.8096 255.598 78.0796 248.398 82.0296L256.228 97.5496C260.748 95.0696 265.878 93.6496 271.248 93.6496C287.818 93.6496 300.408 107.08 299.388 123.65H317.228C318.868 97.2296 298.778 75.8096 272.358 75.8096Z" fill="#d32727"/>
<path d="M260.781 152.03H208.481C207.981 152.03 207.601 151.62 207.631 151.12L207.861 147.44C207.891 146.94 208.321 146.53 208.831 146.53H261.131L260.791 152.03H260.781Z" fill="#64748b"/>
<path opacity="0.2" d="M260.781 152.03H326.781C327.281 152.03 327.711 151.62 327.741 151.12L327.971 147.44C328.001 146.94 327.621 146.53 327.121 146.53H261.121L260.781 152.03Z" fill="#d32727"/>
<path d="M296.298 166.561H207.578C207.078 166.561 206.698 166.151 206.728 165.651L206.958 161.971C206.988 161.471 207.418 161.061 207.928 161.061H296.648L296.308 166.561H296.298Z" fill="#d32727"/>
<path opacity="0.2" d="M296.301 166.561H325.871C326.371 166.561 326.801 166.151 326.841 165.651L327.071 161.971C327.101 161.471 326.721 161.061 326.221 161.061H296.651L296.311 166.561H296.301Z" fill="#d32727"/>
<path d="M217.1 181.09H206.68C206.18 181.09 205.8 180.68 205.83 180.18L206.06 176.5C206.09 176 206.52 175.59 207.02 175.59H217.44L217.1 181.09Z" fill="#C14671"/>
<path opacity="0.2" d="M217.102 181.09H324.972C325.472 181.09 325.902 180.68 325.932 180.18L326.162 176.5C326.192 176 325.812 175.59 325.312 175.59H217.442L217.102 181.09Z" fill="#d32727"/>
<path d="M348.769 181.5C348.539 181.5 348.369 181.31 348.379 181.09L355.539 65.7801C355.549 65.5501 355.749 65.3701 355.979 65.3701C356.209 65.3701 356.379 65.5601 356.369 65.7801L349.209 181.09C349.199 181.32 348.999 181.5 348.769 181.5Z" fill="#d32727"/>
<path d="M356.83 95.9807C356.74 97.5007 355.42 98.7407 353.9 98.7407C352.38 98.7407 351.22 97.5007 351.31 95.9807C351.4 94.4607 352.72 93.2207 354.24 93.2207C355.76 93.2207 356.92 94.4607 356.83 95.9807Z" fill="white"/>
<path d="M353.881 99.1603C352.131 99.1603 350.791 97.7403 350.901 95.9903C351.011 94.2403 352.521 92.8203 354.271 92.8203C356.021 92.8203 357.361 94.2403 357.251 95.9903C357.141 97.7403 355.631 99.1603 353.881 99.1603ZM354.221 93.6403C352.931 93.6403 351.811 94.6903 351.731 95.9903C351.651 97.2803 352.641 98.3403 353.931 98.3403C355.221 98.3403 356.341 97.2903 356.421 95.9903C356.501 94.7003 355.511 93.6403 354.221 93.6403Z" fill="#d32727"/>
<path d="M355.287 120.83C355.197 122.35 353.877 123.59 352.357 123.59C350.837 123.59 349.677 122.35 349.767 120.83C349.857 119.31 351.177 118.07 352.697 118.07C354.217 118.07 355.377 119.31 355.287 120.83Z" fill="white"/>
<path d="M352.338 124C350.588 124 349.248 122.58 349.358 120.83C349.468 119.08 350.978 117.66 352.728 117.66C354.478 117.66 355.818 119.08 355.708 120.83C355.598 122.58 354.088 124 352.338 124ZM352.678 118.48C351.388 118.48 350.268 119.53 350.188 120.83C350.108 122.13 351.098 123.18 352.388 123.18C353.678 123.18 354.798 122.13 354.878 120.83C354.958 119.54 353.968 118.48 352.678 118.48Z" fill="#d32727"/>
<path d="M351.779 132.899L348.129 138.619H354.729L351.779 132.899Z" fill="white"/>
<path d="M354.699 139.03H348.099C347.949 139.03 347.819 138.95 347.749 138.82C347.679 138.69 347.689 138.53 347.779 138.41L351.429 132.7C351.589 132.44 352.019 132.44 352.149 132.7L355.089 138.41C355.159 138.54 355.149 138.7 355.059 138.82C354.979 138.95 354.839 139.03 354.689 139.03H354.699ZM348.869 138.2H354.029L351.729 133.73L348.869 138.2Z" fill="#d32727"/>
<path d="M398.449 181.5C398.219 181.5 398.049 181.31 398.059 181.09L405.219 65.7801C405.229 65.5501 405.429 65.3701 405.659 65.3701C405.889 65.3701 406.059 65.5601 406.049 65.7801L398.889 181.09C398.879 181.32 398.679 181.5 398.449 181.5Z" fill="#d32727"/>
<path d="M403.669 141.76C403.759 140.24 402.609 139 401.079 139C399.549 139 398.239 140.24 398.149 141.76C398.059 143.28 399.209 144.52 400.739 144.52C402.269 144.52 403.579 143.28 403.669 141.76Z" fill="white"/>
<path d="M400.721 144.93C398.971 144.93 397.631 143.51 397.741 141.76C397.851 140.01 399.361 138.59 401.111 138.59C402.861 138.59 404.201 140.01 404.091 141.76C403.981 143.51 402.471 144.93 400.721 144.93ZM401.061 139.41C399.771 139.41 398.651 140.46 398.571 141.76C398.491 143.05 399.481 144.11 400.771 144.11C402.061 144.11 403.181 143.06 403.261 141.76C403.341 140.46 402.351 139.41 401.061 139.41Z" fill="#d32727"/>
<path d="M407.529 79.6409C407.619 78.1209 406.469 76.8809 404.939 76.8809C403.409 76.8809 402.099 78.1209 402.009 79.6409C401.919 81.1609 403.069 82.4009 404.599 82.4009C406.129 82.4009 407.439 81.1609 407.529 79.6409Z" fill="white"/>
<path d="M404.568 82.8205C402.818 82.8205 401.478 81.4005 401.588 79.6505C401.698 77.9005 403.208 76.4805 404.958 76.4805C406.708 76.4805 408.048 77.9005 407.938 79.6505C407.828 81.4005 406.318 82.8205 404.568 82.8205ZM404.908 77.3005C403.618 77.3005 402.498 78.3505 402.418 79.6505C402.338 80.9405 403.328 82.0005 404.618 82.0005C405.908 82.0005 407.028 80.9505 407.108 79.6505C407.188 78.3605 406.198 77.3005 404.908 77.3005Z" fill="#d32727"/>
<path d="M402.639 113.96L399.699 108.25H406.289L402.639 113.96Z" fill="white"/>
<path d="M402.609 114.38C402.459 114.38 402.329 114.3 402.259 114.17L399.319 108.46C399.249 108.33 399.259 108.17 399.349 108.05C399.429 107.92 399.569 107.84 399.719 107.84H406.319C406.469 107.84 406.599 107.92 406.669 108.05C406.739 108.18 406.729 108.34 406.639 108.46L402.989 114.17C402.909 114.3 402.769 114.38 402.619 114.38H402.609ZM400.379 108.67L402.679 113.14L405.539 108.67H400.379Z" fill="#d32727"/>
<path d="M373.609 181.5C373.379 181.5 373.209 181.31 373.219 181.09L380.379 65.7801C380.389 65.5501 380.589 65.3701 380.819 65.3701C381.049 65.3701 381.219 65.5601 381.209 65.7801L374.049 181.09C374.039 181.32 373.839 181.5 373.609 181.5Z" fill="#d32727"/>
<path d="M381.24 103.071C381.15 104.591 379.83 105.831 378.31 105.831C376.79 105.831 375.63 104.591 375.72 103.071C375.81 101.551 377.13 100.311 378.65 100.311C380.17 100.311 381.33 101.551 381.24 103.071Z" fill="white"/>
<path d="M378.279 106.24C376.529 106.24 375.189 104.82 375.299 103.07C375.409 101.32 376.919 99.9004 378.669 99.9004C380.419 99.9004 381.759 101.32 381.649 103.07C381.539 104.82 380.029 106.24 378.279 106.24ZM378.619 100.72C377.329 100.72 376.209 101.77 376.129 103.07C376.049 104.36 377.039 105.42 378.329 105.42C379.619 105.42 380.739 104.37 380.819 103.07C380.899 101.77 379.909 100.72 378.619 100.72Z" fill="#d32727"/>
<path d="M377.81 158.3C377.72 159.82 376.4 161.06 374.88 161.06C373.36 161.06 372.2 159.82 372.29 158.3C372.38 156.78 373.7 155.54 375.22 155.54C376.74 155.54 377.9 156.78 377.81 158.3Z" fill="white"/>
<path d="M374.85 161.48C373.1 161.48 371.76 160.06 371.87 158.31C371.98 156.56 373.49 155.14 375.24 155.14C376.99 155.14 378.33 156.56 378.22 158.31C378.11 160.06 376.6 161.48 374.85 161.48ZM375.19 155.96C373.9 155.96 372.78 157.01 372.7 158.31C372.62 159.61 373.61 160.66 374.9 160.66C376.19 160.66 377.31 159.61 377.39 158.31C377.47 157.02 376.48 155.96 375.19 155.96Z" fill="#d32727"/>
<path d="M380.461 71.1699L376.801 76.8799H383.401L380.461 71.1699Z" fill="white"/>
<path d="M383.371 77.3004H376.771C376.621 77.3004 376.491 77.2204 376.421 77.0904C376.351 76.9604 376.361 76.8004 376.451 76.6804L380.101 70.9704C380.261 70.7104 380.691 70.7104 380.821 70.9704L383.761 76.6804C383.831 76.8104 383.821 76.9704 383.731 77.0904C383.651 77.2204 383.511 77.3004 383.361 77.3004H383.371ZM377.541 76.4704H382.701L380.401 72.0004L377.541 76.4704Z" fill="#d32727"/>
<path d="M111.541 100.85L110.531 105.72L109.531 110.71C108.871 114.03 108.311 117.36 107.801 120.62C107.551 122.25 107.351 123.86 107.171 125.45C106.981 127.04 106.851 128.58 106.771 130.07C106.681 131.55 106.711 132.97 106.761 134.15C106.801 135.32 107.011 136.32 106.971 136.43L106.301 135.28C106.001 134.98 105.451 134.7 105.361 134.83C105.251 134.93 105.621 135.19 106.261 135.36C106.891 135.53 107.791 135.65 108.771 135.7C109.761 135.75 110.851 135.7 111.991 135.62C114.281 135.47 116.731 135.08 119.221 134.62C120.471 134.38 121.731 134.14 123.001 133.86L126.741 133.05L127.241 132.94C130.071 132.33 132.861 134.12 133.481 136.96C133.931 139.04 133.081 141.09 131.481 142.29L129.621 143.67L127.771 144.92C126.521 145.72 125.251 146.5 123.931 147.22C121.291 148.67 118.521 149.95 115.461 151C113.931 151.52 112.321 151.95 110.591 152.31C108.851 152.65 107.001 152.9 104.901 152.86C102.811 152.81 100.451 152.54 97.8412 151.52C95.2512 150.54 92.4813 148.49 90.6413 145.91C90.4413 145.63 90.2713 145.35 90.1213 145.06L89.9713 144.76C88.3913 141.63 87.8613 139.08 87.4113 136.72C86.9913 134.36 86.8512 132.19 86.7713 130.1C86.7013 128.01 86.7013 125.98 86.7713 124C86.8613 122.02 87.0013 120.07 87.1813 118.15C87.5213 114.31 88.0913 110.56 88.7413 106.86C89.0813 105.01 89.4312 103.17 89.8412 101.33C90.0512 100.41 90.2513 99.4996 90.4713 98.5796L91.2013 95.7496C92.6512 90.1496 98.3613 86.7896 103.961 88.2396C109.391 89.6396 112.711 95.0496 111.591 100.48L111.511 100.86L111.541 100.85Z" fill="#d32727"/>
<path opacity="0.2" d="M111.541 100.85L110.531 105.72L109.531 110.71C108.871 114.03 108.311 117.36 107.801 120.62C107.551 122.25 107.351 123.86 107.171 125.45C106.981 127.04 106.851 128.58 106.771 130.07C106.681 131.55 106.711 132.97 106.761 134.15C106.801 135.32 107.011 136.32 106.971 136.43L106.301 135.28C106.001 134.98 105.451 134.7 105.361 134.83C105.251 134.93 105.621 135.19 106.261 135.36C106.891 135.53 107.791 135.65 108.771 135.7C109.761 135.75 110.851 135.7 111.991 135.62C114.281 135.47 116.731 135.08 119.221 134.62C120.471 134.38 121.731 134.14 123.001 133.86L126.741 133.05L127.241 132.94C130.071 132.33 132.861 134.12 133.481 136.96C133.931 139.04 133.081 141.09 131.481 142.29L129.621 143.67L127.771 144.92C126.521 145.72 125.251 146.5 123.931 147.22C121.291 148.67 118.521 149.95 115.461 151C113.931 151.52 112.321 151.95 110.591 152.31C108.851 152.65 107.001 152.9 104.901 152.86C102.811 152.81 100.451 152.54 97.8412 151.52C95.2512 150.54 92.4813 148.49 90.6413 145.91C90.4413 145.63 90.2713 145.35 90.1213 145.06L89.9713 144.76C88.3913 141.63 87.8613 139.08 87.4113 136.72C86.9913 134.36 86.8512 132.19 86.7713 130.1C86.7013 128.01 86.7013 125.98 86.7713 124C86.8613 122.02 87.0013 120.07 87.1813 118.15C87.5213 114.31 88.0913 110.56 88.7413 106.86C89.0813 105.01 89.4312 103.17 89.8412 101.33C90.0512 100.41 90.2513 99.4996 90.4713 98.5796L91.2013 95.7496C92.6512 90.1496 98.3613 86.7896 103.961 88.2396C109.391 89.6396 112.711 95.0496 111.591 100.48L111.511 100.86L111.541 100.85Z" fill="black"/>
<path d="M86.2319 356.62C86.2319 356.62 76.7619 348.03 76.9719 345.32L69.1019 341.29L64.4219 349.37L68.7719 351.8L69.9519 351.44L70.7419 352.81C74.6619 354.82 83.2219 358.72 86.2119 358.61C86.7919 357.31 86.2219 356.61 86.2219 356.61L86.2319 356.62Z" fill="#64748b"/>
<path d="M86.9138 255.67C92.6338 214.7 90.7638 189.8 96.7738 169.61L133.974 166.62C133.974 166.62 117.484 231.61 109.924 258.68C102.334 285.85 78.6938 347.1 78.6938 347.1L68.3438 341.8C68.3438 341.8 76.8438 287.37 86.9138 255.68V255.67Z" fill="#64748b"/>
<path opacity="0.2" d="M117.251 196.91C114.721 202.76 109.781 240.34 109.801 259.1C109.841 258.96 109.881 258.81 109.921 258.67C112.571 249.16 116.341 234.96 120.101 220.54L117.251 196.91Z" fill="black"/>
<path d="M146.002 357.97C146.002 357.97 130.572 354.47 129.862 351.96H120.072L119.262 361.28H124.702L125.702 360.42L126.912 361.28C131.322 361.28 144.042 361.32 146.772 359.68C146.792 358.27 145.992 357.96 145.992 357.96L146.002 357.97Z" fill="#64748b"/>
<path d="M119.873 256.82C111.703 201.3 111.703 166.94 111.703 166.94L148.103 166.35C148.103 166.35 143.733 232.55 142.213 260.28C140.633 289.11 131.633 352.56 131.633 352.56H118.943C118.943 352.56 116.043 292.46 119.873 256.82Z" fill="#64748b"/>
<path d="M115.921 62.7197C114.191 73.5997 111.051 79.4497 108.941 84.8597C112.611 88.2697 120.471 92.5097 128.411 92.3997C136.351 92.2897 134.891 86.9197 132.761 84.1497C127.081 81.2797 126.851 78.3797 128.241 75.8297L115.911 62.7197H115.921Z" fill="#F27661"/>
<path d="M102.32 86.3998C102.32 86.3998 107.38 80.4498 109.38 79.4498C111.37 78.4498 126.51 80.4998 130.08 81.1598C133.65 81.8198 138 87.1398 138 87.1398L102.32 86.3898V86.3998Z" fill="#64748b"/>
<path d="M140.982 61.8093C140.822 62.5293 141.072 63.1893 141.542 63.2893C142.012 63.3893 142.522 62.8893 142.682 62.1793C142.842 61.4593 142.592 60.7993 142.122 60.6993C141.652 60.5993 141.142 61.0993 140.982 61.8093Z" fill="#64748b"/>
<path d="M140.711 62.7998C140.711 62.7998 141.421 67.2898 142.771 69.6698C141.231 70.5798 139.191 69.5698 139.191 69.5698L140.711 62.7998Z" fill="#CC6352"/>
<path d="M143.461 57.6801C143.341 57.7601 143.191 57.7701 143.051 57.7101C141.311 56.9501 140.001 57.7801 139.941 57.8201C139.741 57.9501 139.471 57.8901 139.351 57.6901C139.221 57.4901 139.281 57.2201 139.471 57.0901C139.541 57.0401 141.211 55.9601 143.391 56.9101C143.611 57.0101 143.711 57.2601 143.611 57.4801C143.571 57.5601 143.521 57.6301 143.451 57.6701L143.461 57.6801Z" fill="#64748b"/>
<path d="M117.183 54.5093C115.743 63.4293 114.453 68.5793 117.903 74.0593C123.083 82.2993 134.893 80.6193 138.973 72.2793C142.643 64.7793 144.373 51.4493 136.523 46.0893C128.783 40.7993 118.623 45.5893 117.193 54.5093H117.183Z" fill="#F27661"/>
<path d="M133.393 63.0497C140.613 64.6097 138.513 55.6897 136.793 54.7997C141.123 57.3997 144.013 54.3897 143.743 51.6597C147.063 51.0997 146.893 45.5997 144.613 45.4897C143.173 41.7097 136.443 38.5497 135.193 40.8797C131.553 36.6597 121.843 37.3797 123.253 40.4397C119.553 39.7197 111.703 40.0497 114.333 45.6097C108.723 46.3297 108.983 55.9397 112.653 56.9397C108.823 59.0597 112.533 66.2997 114.173 70.8397C115.793 75.2897 132.303 71.3397 133.383 63.0597L133.393 63.0497Z" fill="black"/>
<path d="M129.281 62.1396C128.951 64.2696 129.531 66.2796 130.471 67.5996C131.881 69.5796 134.061 68.3496 134.901 65.9396C135.661 63.7696 135.841 60.1396 133.831 59.0496C131.851 57.9796 129.651 59.7096 129.281 62.1496V62.1396Z" fill="#F27661"/>
<path d="M102.834 85.3996C115.134 83.8796 132.574 84.0196 144.164 86.0396C150.064 87.0696 154.484 91.9896 154.964 97.9596C156.404 115.63 152.494 146.51 149.124 177.59C121.874 186.73 94.2138 177.47 94.2138 177.47C93.6038 171.2 96.9838 150.65 99.0938 139.68C97.5438 128.35 93.6238 115.38 91.4038 100.34C90.3238 93.0396 95.5238 86.2996 102.854 85.3996H102.834Z" fill="#d32727"/>
<path opacity="0.2" d="M139.844 110.14C141.704 120.78 147.594 133.46 152.984 141.85C153.724 134.5 154.344 127.5 154.744 121.04L139.854 110.14H139.844Z" fill="black"/>
<path d="M229.93 85.4794C221.49 80.4594 210.57 83.2294 205.55 91.6794C200.71 99.8194 203.13 110.229 210.86 115.469C209.08 117.869 203.88 124.929 202.27 127.639C200.31 130.929 199.27 133.889 200.65 134.709C202.03 135.529 204.13 133.199 206.09 129.909C207.7 127.199 211.42 119.259 212.68 116.549C220.98 120.849 231.28 117.999 236.12 109.859C241.14 101.419 238.37 90.5094 229.93 85.4794ZM234.2 108.709C229.81 116.089 220.27 118.509 212.9 114.129C205.52 109.739 203.09 100.199 207.48 92.8194C211.87 85.4394 221.41 83.0194 228.79 87.4094C236.17 91.7994 238.59 101.329 234.21 108.709H234.2Z" fill="#d32727"/>
<path opacity="0.2" d="M234.929 109.15C230.299 116.93 220.239 119.48 212.469 114.86C204.689 110.23 202.119 100.18 206.749 92.3897C211.379 84.6097 221.439 82.0497 229.219 86.6797C236.999 91.2997 239.559 101.36 234.929 109.14V109.15Z" fill="#d32727"/>
<path d="M209.431 124.71L207.271 122.79C206.461 122.07 205.341 121.78 204.281 122.03L199.321 123.17C197.341 123.62 195.701 125.01 194.921 126.89L194.441 128.05C197.811 131.48 203.991 132.7 203.991 132.7L205.711 133.24C207.241 133.72 208.801 132.96 209.291 131.48L210.411 128.08C210.801 126.91 210.411 125.56 209.431 124.69V124.71Z" fill="#F27661"/>
<path d="M154.472 94.3394L156.492 98.7294L158.602 103.209C160.012 106.189 161.502 109.099 162.992 111.929C163.742 113.339 164.522 114.719 165.312 116.039C166.082 117.379 166.872 118.649 167.682 119.829C168.472 121.009 169.312 122.079 170.032 122.949C170.732 123.819 171.462 124.429 171.472 124.529L170.242 124.029C171.042 124.469 172.682 124.969 174.602 125.129C176.522 125.299 178.712 125.349 180.972 125.209C183.242 125.109 185.602 124.869 187.992 124.589C189.192 124.439 190.402 124.299 191.612 124.119L195.182 123.639L195.682 123.569C198.562 123.179 201.212 125.199 201.592 128.079C201.872 130.139 200.902 132.089 199.282 133.169L197.462 134.369L195.672 135.449C194.462 136.139 193.242 136.809 191.982 137.419C190.722 138.019 189.452 138.619 188.132 139.159C186.822 139.689 185.472 140.189 184.092 140.649C181.322 141.519 178.412 142.299 175.202 142.649C172.002 142.999 168.442 143.099 164.342 141.989C164.082 141.919 163.832 141.829 163.592 141.719L163.112 141.489C159.992 140.009 158.022 138.339 156.252 136.749C154.502 135.149 153.102 133.529 151.782 131.929C149.162 128.729 147.012 125.529 145.042 122.289C143.052 119.069 141.302 115.789 139.652 112.489C138.842 110.829 138.032 109.179 137.292 107.489C136.922 106.649 136.542 105.809 136.192 104.949L135.122 102.279C132.972 96.9094 135.572 90.8194 140.942 88.6594C146.142 86.5694 152.022 88.9494 154.342 93.9794L154.512 94.3494L154.472 94.3394Z" fill="#d32727"/>
<path d="M362.848 323.89C361.298 311.8 368.048 302.05 374.568 292.61C382.238 281.51 390.168 270.03 385.478 254.29C384.128 249.76 381.928 245.83 379.168 242.52C376.398 249.59 371.728 255.79 365.418 260.49C356.718 266.96 346.448 269.01 339.248 265.7C335.188 263.84 330.208 259.45 329.488 249.17C328.758 238.65 334.868 231.18 345.828 229.19C356.748 227.21 370.098 231.18 378.808 240.61C380.968 234.35 381.648 227.45 380.648 220.36L381.638 220.22C382.688 227.67 381.928 234.91 379.568 241.46C382.588 244.95 384.988 249.15 386.438 254.01C391.268 270.21 383.198 281.89 375.388 293.18C368.678 302.89 362.348 312.05 363.838 323.76L362.848 323.89ZM351.508 229.69C349.628 229.69 347.778 229.85 346.008 230.17C335.598 232.06 329.798 239.13 330.488 249.1C331.028 256.85 334.198 262.28 339.668 264.79C346.538 267.95 356.418 265.95 364.828 259.69C371.128 255 375.748 248.77 378.428 241.66C371.368 233.77 361.008 229.69 351.518 229.69H351.508Z" fill="#64748b"/>
<path d="M381.571 223.72C373.651 216.65 372.741 207.32 377.381 205.35C383.811 202.62 386.211 213.98 381.571 223.72Z" fill="#007D59"/>
<path d="M375.559 292.05C369.899 283.06 369.589 271.83 376.469 271.03C382.759 270.3 384.149 280.96 375.559 292.05Z" fill="#007D59"/>
<path d="M381.752 226.679C380.662 219.979 383.962 214.979 387.062 215.859C391.352 217.089 387.982 223.699 381.752 226.679Z" fill="#007D59"/>
<path d="M366.178 259.12C362.708 251.64 364.938 244.7 368.848 244.73C374.268 244.77 372.488 253.6 366.178 259.12Z" fill="#007D59"/>
<path d="M352.859 229.29C345.709 230.5 340.359 227 341.279 223.69C342.569 219.1 349.639 222.66 352.859 229.29Z" fill="#007D59"/>
<path d="M352.858 229.29C348.468 226.95 347.828 223.47 350.098 222.54C353.248 221.25 354.748 225.44 352.858 229.29Z" fill="#007D59"/>
<path d="M387.281 259.04C385.551 254.38 387.381 251.34 389.691 252.16C392.901 253.29 391.251 257.41 387.281 259.04Z" fill="#007D59"/>
<path d="M331.11 255.78C326.16 256.32 323.67 253.81 325.02 251.76C326.89 248.92 330.49 251.53 331.11 255.78Z" fill="#007D59"/>
<path d="M394.563 323.751L392.203 341.111L393.194 341.246L395.554 323.886L394.563 323.751Z" fill="#64748b"/>
<path d="M391.555 345.544L390.414 353.937L391.405 354.071L392.546 345.678L391.555 345.544Z" fill="#64748b"/>
<path d="M343.96 316.28L349.75 358.62C349.96 360.15 351.27 361.29 352.81 361.29H384.07C385.61 361.29 386.92 360.15 387.13 358.62L392.92 316.28C393.17 314.43 391.73 312.77 389.86 312.77H347.03C345.16 312.77 343.72 314.42 343.97 316.28H343.96Z" fill="#64748b"/>
</g>
<defs>
<clipPath id="clip0_3158_64798">
<rect width="500" height="372.61" fill="white"/>
</clipPath>
</defs>
</svg>
